M48
; DRILL file {KiCad (5.1.10)-1} date 06/25/21 21:48:58
; FORMAT={-:-/ absolute / metric / decimal}
; #@! TF.CreationDate,2021-06-25T21:48:58+02:00
; #@! TF.GenerationSoftware,Kicad,Pcbnew,(5.1.10)-1
; #@! TF.FileFunction,Plated,1,4,PTH
FMAT,2
METRIC
T1C0.200
T2C0.300
T3C0.400
T4C0.600
T5C1.000
T6C2.500
%
G90
G05
T1
X170.724Y-78.268
X170.724Y-79.393
X170.724Y-80.518
X170.724Y-81.643
X170.724Y-82.768
X171.849Y-78.268
X171.849Y-79.393
X171.849Y-80.518
X171.849Y-81.643
X171.849Y-82.768
X172.974Y-78.268
X172.974Y-79.393
X172.974Y-80.518
X172.974Y-81.643
X172.974Y-82.768
X174.099Y-78.268
X174.099Y-79.393
X174.099Y-80.518
X174.099Y-81.643
X174.099Y-82.768
X175.224Y-78.268
X175.224Y-79.393
X175.224Y-80.518
X175.224Y-81.643
X175.224Y-82.768
T2
X113.03Y-116.662
X113.284Y-84.836
X114.071Y-117.704
X114.071Y-65.151
X114.071Y-121.59
X114.071Y-83.49
X114.095Y-103.123
X114.097Y-45.974
X115.214Y-94.742
X115.214Y-113.792
X115.214Y-56.642
X115.545Y-75.692
X116.261Y-77.687
X116.911Y-73.406
X118.237Y-128.778
X118.491Y-90.932
X119.253Y-45.085
X119.276Y-98.275
X119.278Y-122.174
X119.278Y-41.224
X119.278Y-60.274
X119.278Y-64.541
X119.278Y-79.172
X119.278Y-84.125
X119.278Y-117.831
X119.38Y-145.542
X120.523Y-102.489
X121.31Y-132.842
X121.412Y-84.836
X121.539Y-123.063
X122.784Y-47.371
X123.622Y-140.64
X123.952Y-79.756
X124.562Y-46.939
X125.349Y-94.082
X126.619Y-109.601
X126.848Y-76.403
X127.254Y-93.599
X128.803Y-141.223
X129.896Y-137.846
X131.064Y-55.702
X133.02Y-48.87
X133.143Y-83.493
X133.145Y-103.123
X133.147Y-65.151
X133.194Y-121.595
X133.35Y-77.038
X134.188Y-45.999
X134.239Y-56.642
X134.264Y-113.792
X134.264Y-132.842
X135.255Y-146.304
X136.423Y-75.692
X136.423Y-94.742
X137.719Y-130.759
X138.325Y-102.543
X138.326Y-98.275
X138.328Y-41.224
X138.328Y-45.415
X138.328Y-60.274
X138.328Y-64.541
X138.328Y-79.172
X138.328Y-117.297
X138.328Y-84.074
X138.43Y-122.191
X138.963Y-111.735
X139.446Y-78.796
X139.979Y-111.735
X140.564Y-117.297
X140.564Y-118.669
X140.671Y-103.784
X140.97Y-52.832
X140.97Y-57.912
X140.995Y-111.735
X141.122Y-81.686
X141.148Y-121.564
X141.199Y-92.761
X141.694Y-93.434
X141.732Y-103.784
X142.237Y-94.082
X142.773Y-103.784
X142.875Y-131.674
X147.955Y-145.542
X149.987Y-94.742
X150.952Y-80.696
X150.952Y-118.796
X152.171Y-65.151
X152.171Y-121.59
X152.193Y-83.493
X152.2Y-140.643
X152.221Y-103.123
X152.248Y-45.999
X153.314Y-56.642
X153.314Y-75.692
X153.314Y-132.842
X154.305Y-75.692
X154.737Y-113.792
X155.423Y-114.275
X155.473Y-92.989
X155.731Y-93.806
X156.012Y-128.005
X156.108Y-113.792
X156.238Y-131.473
X156.337Y-111.125
X157.127Y-131.473
X157.353Y-64.541
X157.375Y-102.543
X157.378Y-84.074
X157.378Y-41.224
X157.378Y-60.274
X157.378Y-79.705
X157.378Y-117.805
X157.378Y-122.191
X157.378Y-141.224
X157.404Y-45.415
X158.143Y-131.473
X158.725Y-137.82
X159.032Y-131.473
X159.283Y-110.566
X159.588Y-119.812
X160.553Y-138.786
X160.604Y-100.609
X160.655Y-113.792
X160.711Y-78.232
X161.013Y-98.275
X161.265Y-76.378
X161.29Y-85.014
X161.549Y-92.024
X161.874Y-125.374
X162.446Y-87.122
X162.687Y-80.645
X162.687Y-79.705
X162.687Y-137.795
X162.687Y-82.423
X162.687Y-81.534
X163.017Y-64.541
X163.119Y-139.395
X163.119Y-140.411
X163.119Y-141.478
X163.195Y-86.182
X163.601Y-65.151
X164.186Y-87.122
X164.287Y-61.341
X164.389Y-96.545
X165.227Y-73.558
X165.862Y-98.628
X167.97Y-74.371
X168.275Y-92.329
X168.326Y-126.289
X168.326Y-127.127
X168.719Y-75.044
X169.418Y-75.489
X169.494Y-88.087
X170.358Y-88.087
X170.485Y-85.903
X170.688Y-99.06
X170.844Y-115.824
X171.171Y-45.999
X171.209Y-111.196
X171.247Y-65.151
X171.45Y-128.27
X171.475Y-85.903
X171.596Y-115.823
X171.599Y-69.32
X172.349Y-115.831
X172.364Y-56.642
X172.771Y-125.984
X173.101Y-115.824
X173.805Y-119.405
X174.295Y-74.524
X174.498Y-102.743
X174.557Y-119.405
X174.6Y-142.748
X174.828Y-73.965
X175.158Y-107.975
X175.309Y-119.405
X175.971Y-107.975
X176.062Y-119.405
X176.403Y-77.038
X176.428Y-41.224
X176.428Y-45.415
X176.428Y-60.249
X176.428Y-64.541
X177.419Y-115.57
X177.864Y-116.269
X178.156Y-114.3
X178.308Y-116.967
X178.562Y-126.111
X178.879Y-117.665
X179.351Y-89.662
T3
X120.777Y-44.704
X123.254Y-75.057
X123.317Y-94.488
X123.317Y-118.237
X124.587Y-67.183
X124.714Y-76.938
X125.349Y-96.901
X125.349Y-120.65
X127.762Y-67.183
X129.286Y-62.611
X130.251Y-74.701
X130.251Y-96.901
X130.251Y-120.65
X130.81Y-44.736
X142.494Y-44.323
X144.831Y-62.535
X147.015Y-62.535
X151.994Y-97.282
X154.432Y-96.774
X155.854Y-75.616
X155.956Y-78.105
X157.48Y-94.361
X160.782Y-123.19
X162.916Y-131.528
X162.916Y-133.629
X163.068Y-123.19
X163.551Y-109.83
X163.703Y-105.537
X165.029Y-87.56
X165.227Y-93.218
X165.786Y-74.955
X166.954Y-74.955
X169.316Y-126.289
X170.104Y-114.3
X173.101Y-103.759
X173.482Y-146.939
X174.752Y-125.095
X178.435Y-104.521
X179.045Y-73.914
X179.832Y-125.095
X180.061Y-110.109
X181.127Y-75.768
T5
X136.906Y-142.24
X136.906Y-144.78
X139.446Y-142.24
X139.446Y-144.78
X141.986Y-142.24
X141.986Y-144.78
T6
X126.206Y-57.944
X126.206Y-115.094
X164.306Y-57.944
X164.306Y-115.094
T4
X121.489Y-38.734G85X121.489Y-39.334
G05
X121.489Y-42.664G85X121.489Y-43.764
G05
X130.129Y-38.734G85X130.129Y-39.334
G05
X130.129Y-42.664G85X130.129Y-43.764
G05
T0
M30
