G04 #@! TF.GenerationSoftware,KiCad,Pcbnew,(5.1.10)-1*
G04 #@! TF.CreationDate,2021-06-25T21:48:55+02:00*
G04 #@! TF.ProjectId,tfk21-avr,74666b32-312d-4617-9672-2e6b69636164,A*
G04 #@! TF.SameCoordinates,Original*
G04 #@! TF.FileFunction,Copper,L1,Top*
G04 #@! TF.FilePolarity,Positive*
%FSLAX46Y46*%
G04 Gerber Fmt 4.6, Leading zero omitted, Abs format (unit mm)*
G04 Created by KiCad (PCBNEW (5.1.10)-1) date 2021-06-25 21:48:55*
%MOMM*%
%LPD*%
G01*
G04 APERTURE LIST*
G04 #@! TA.AperFunction,ComponentPad*
%ADD10O,1.000000X2.100000*%
G04 #@! TD*
G04 #@! TA.AperFunction,ComponentPad*
%ADD11O,1.000000X1.600000*%
G04 #@! TD*
G04 #@! TA.AperFunction,SMDPad,CuDef*
%ADD12R,1.100000X1.800000*%
G04 #@! TD*
G04 #@! TA.AperFunction,ComponentPad*
%ADD13C,5.000000*%
G04 #@! TD*
G04 #@! TA.AperFunction,SMDPad,CuDef*
%ADD14R,5.000000X5.000000*%
G04 #@! TD*
G04 #@! TA.AperFunction,ComponentPad*
%ADD15C,0.500000*%
G04 #@! TD*
G04 #@! TA.AperFunction,ComponentPad*
%ADD16R,1.700000X1.700000*%
G04 #@! TD*
G04 #@! TA.AperFunction,ComponentPad*
%ADD17C,1.700000*%
G04 #@! TD*
G04 #@! TA.AperFunction,ViaPad*
%ADD18C,0.800000*%
G04 #@! TD*
G04 #@! TA.AperFunction,ViaPad*
%ADD19C,0.600000*%
G04 #@! TD*
G04 #@! TA.AperFunction,Conductor*
%ADD20C,0.381000*%
G04 #@! TD*
G04 #@! TA.AperFunction,Conductor*
%ADD21C,0.254000*%
G04 #@! TD*
G04 APERTURE END LIST*
D10*
X130129375Y-43214375D03*
X121489375Y-43214375D03*
D11*
X121489375Y-39034375D03*
X130129375Y-39034375D03*
D12*
X128056250Y-81284375D03*
X124356250Y-75084375D03*
X124356250Y-81284375D03*
X128056250Y-75084375D03*
D13*
X164306250Y-115093750D03*
X126206250Y-115093750D03*
D14*
X172974000Y-80518000D03*
D15*
X175224000Y-78268000D03*
X174099000Y-78268000D03*
X172974000Y-78268000D03*
X171849000Y-78268000D03*
X170724000Y-78268000D03*
X175224000Y-79393000D03*
X174099000Y-79393000D03*
X172974000Y-79393000D03*
X171849000Y-79393000D03*
X170724000Y-79393000D03*
X175224000Y-80518000D03*
X174099000Y-80518000D03*
X172974000Y-80518000D03*
X171849000Y-80518000D03*
X170724000Y-80518000D03*
X175224000Y-81643000D03*
X174099000Y-81643000D03*
X172974000Y-81643000D03*
X171849000Y-81643000D03*
X170724000Y-81643000D03*
X175224000Y-82768000D03*
X174099000Y-82768000D03*
X172974000Y-82768000D03*
X171849000Y-82768000D03*
X170724000Y-82768000D03*
D16*
X136906000Y-142240000D03*
D17*
X136906000Y-144780000D03*
X139446000Y-142240000D03*
X139446000Y-144780000D03*
X141986000Y-142240000D03*
X141986000Y-144780000D03*
D13*
X164306250Y-57943750D03*
X126206250Y-57943750D03*
D18*
X144830800Y-62534800D03*
X181127400Y-75768200D03*
X165227000Y-93218000D03*
X173101000Y-103759000D03*
X180060600Y-110109000D03*
X162915600Y-133629400D03*
X123317000Y-94488000D03*
X123317000Y-118237000D03*
X123253848Y-75057000D03*
X157480000Y-94361000D03*
X130251200Y-74701400D03*
X163703000Y-105537000D03*
X174752000Y-125095000D03*
X151993600Y-97282000D03*
X163550600Y-109829600D03*
X142494000Y-44323000D03*
X155854400Y-75615800D03*
X169316400Y-126288800D03*
X173482000Y-146939000D03*
X129286000Y-62611000D03*
X165785804Y-74955400D03*
X130251204Y-120650000D03*
X130251200Y-96900996D03*
X120777006Y-44704000D03*
X130810000Y-44735790D03*
X160782000Y-123190000D03*
X147015200Y-62534800D03*
X178435000Y-104521000D03*
X154432000Y-96774000D03*
X162915600Y-131527590D03*
X179044600Y-73914000D03*
X179832000Y-125095000D03*
X125349000Y-120650000D03*
X124714000Y-76938201D03*
X155956000Y-78105000D03*
X165028795Y-87560260D03*
X166954200Y-74955400D03*
X125349000Y-96901000D03*
X170103800Y-114300000D03*
X163068000Y-123190000D03*
X127762000Y-67183000D03*
X124587000Y-67183000D03*
D19*
X115214408Y-56642000D03*
X153314400Y-56642000D03*
X172364400Y-56642000D03*
X176061778Y-119405400D03*
X134239000Y-56642000D03*
X136423400Y-75692000D03*
X153314400Y-75692000D03*
X165227000Y-73558400D03*
X175309365Y-119405400D03*
X115544596Y-75692000D03*
X115214400Y-94742000D03*
X136423400Y-94742000D03*
X174556952Y-119405400D03*
X149987000Y-94742000D03*
X156337006Y-111125006D03*
X115214400Y-113792000D03*
X134264400Y-113792000D03*
X154736800Y-113792000D03*
X173804539Y-119405400D03*
X174498000Y-102743000D03*
X159283401Y-110566199D03*
X121310400Y-132842000D03*
X134264400Y-132842000D03*
X172770800Y-125983980D03*
X153314406Y-132842000D03*
X174599600Y-142748000D03*
X119380008Y-145542000D03*
X147955000Y-145542000D03*
X168325800Y-126288800D03*
X137718800Y-130759200D03*
X171450000Y-128270000D03*
X178308000Y-116967000D03*
X127254000Y-93599000D03*
X125349000Y-94081600D03*
X126847600Y-76403200D03*
X161264606Y-76377800D03*
X163195000Y-86182200D03*
X161290000Y-85013800D03*
X118237000Y-128778000D03*
X121539000Y-123063000D03*
X129895600Y-137845800D03*
X158724600Y-137820400D03*
X162687000Y-137795000D03*
X138328400Y-117297200D03*
X119278400Y-117830600D03*
X140671306Y-103784400D03*
X138963400Y-111734600D03*
X141198600Y-92760800D03*
X157378400Y-117805200D03*
X162687002Y-82423000D03*
X140563596Y-117297200D03*
X133194289Y-121594600D03*
X123621800Y-140639800D03*
X152200160Y-140643160D03*
X163118800Y-140411188D03*
X114071400Y-121589792D03*
X139979400Y-111734606D03*
X141147800Y-121564400D03*
X141732000Y-103784408D03*
X141693900Y-93433900D03*
X152171400Y-121589796D03*
X162445660Y-87122000D03*
X114071394Y-117703600D03*
X113029999Y-116662205D03*
X116260600Y-77686789D03*
X169418004Y-75488800D03*
X157378400Y-122191289D03*
X138430000Y-122191289D03*
X119278398Y-122174000D03*
X128803400Y-141222560D03*
X157378400Y-141224000D03*
X163118820Y-141478000D03*
X142236850Y-94081600D03*
X140995400Y-111734600D03*
X142773400Y-103784400D03*
X164185600Y-87122004D03*
X133019800Y-48869600D03*
X131064000Y-55702200D03*
X133350000Y-77038200D03*
X168719475Y-75044331D03*
X150952200Y-80695800D03*
X150952200Y-118795800D03*
X141122400Y-81686400D03*
X140563600Y-118668796D03*
X154305000Y-75692002D03*
X167970212Y-74371206D03*
X171599102Y-69319898D03*
X116911400Y-73406000D03*
X113284000Y-84835998D03*
X174294800Y-74523596D03*
X139446000Y-78795600D03*
X174828200Y-73964800D03*
X160710600Y-78232000D03*
X155422600Y-114274600D03*
X156011590Y-128005205D03*
X163118800Y-139395200D03*
X160553400Y-138785600D03*
X159588200Y-119811800D03*
X160604200Y-100609400D03*
X161548800Y-92024200D03*
X176403008Y-77038200D03*
X165862004Y-98628200D03*
X156108400Y-113792000D03*
X121412038Y-84836000D03*
X118491000Y-90932000D03*
X119276250Y-98274750D03*
X138326250Y-98274750D03*
X161012750Y-98274750D03*
X119278400Y-79171800D03*
X138328400Y-79171800D03*
X157378400Y-79705198D03*
X162687000Y-79705200D03*
X164388806Y-96545400D03*
X162686992Y-80645008D03*
X170688014Y-99060000D03*
X152220782Y-103122636D03*
X133145444Y-103122636D03*
X152193434Y-83493160D03*
X133143472Y-83493160D03*
X114071416Y-83489800D03*
X114095436Y-103122636D03*
X162687004Y-81534000D03*
X120523000Y-102489000D03*
X168275000Y-92329000D03*
X157375040Y-102543160D03*
X138325048Y-102543160D03*
X138328410Y-84074000D03*
X157378378Y-84074000D03*
X119278400Y-84124800D03*
X176428400Y-60248800D03*
X157378400Y-60274200D03*
X138328400Y-60274200D03*
X119278400Y-60274200D03*
X176428400Y-41224200D03*
X119278400Y-41224200D03*
X138328400Y-41224200D03*
X157378400Y-41224200D03*
X164287200Y-61341000D03*
X171170584Y-45999390D03*
X152247590Y-45999390D03*
X171246800Y-65151000D03*
X114071400Y-65151000D03*
X133146800Y-65151000D03*
X152171400Y-65151000D03*
X114096800Y-45974000D03*
X134188190Y-45999390D03*
X163601400Y-65151000D03*
X157403800Y-45415200D03*
X138328400Y-45415200D03*
X176428400Y-45415200D03*
X176428400Y-64541400D03*
X119278400Y-64541400D03*
X138328400Y-64541400D03*
X157353000Y-64541400D03*
X163017200Y-64541400D03*
X119253000Y-45085000D03*
X122783602Y-47371000D03*
X124561600Y-46939200D03*
X123952000Y-79756000D03*
X159031795Y-131472797D03*
X173101000Y-115824000D03*
X126619000Y-109601000D03*
X171208520Y-111196410D03*
X157127249Y-131473251D03*
X171596255Y-115822812D03*
X156237795Y-131472795D03*
X170843845Y-115824178D03*
X158142792Y-131472798D03*
X172348621Y-115831128D03*
X135255000Y-146304000D03*
X178879493Y-117665493D03*
X140970000Y-52832106D03*
X140970000Y-57912000D03*
X177863506Y-116268506D03*
X142875000Y-131673600D03*
X177419000Y-115570000D03*
X161874200Y-125374406D03*
X168325812Y-127127000D03*
X160655000Y-113792000D03*
X179351009Y-89662000D03*
X178562000Y-126111000D03*
X178155600Y-114300002D03*
X171475400Y-85902800D03*
X155730703Y-93805507D03*
X169494200Y-88087200D03*
X175158400Y-107975400D03*
X170357800Y-88087200D03*
X175971200Y-107975400D03*
X170484800Y-85902800D03*
X155473400Y-92989400D03*
D20*
X128439225Y-74701400D02*
X128056250Y-75084375D01*
X130251200Y-74701400D02*
X128439225Y-74701400D01*
D21*
X160453387Y-56642000D02*
X153314400Y-56642000D01*
X162723512Y-54371875D02*
X160453387Y-56642000D01*
X165830723Y-54371875D02*
X162723512Y-54371875D01*
X168100848Y-56642000D02*
X165830723Y-54371875D01*
X172364400Y-56642000D02*
X168100848Y-56642000D01*
X151320500Y-56642000D02*
X153314400Y-56642000D01*
X149225000Y-58737500D02*
X151320500Y-56642000D01*
X124221875Y-54371875D02*
X128190625Y-54371875D01*
X121951750Y-56642000D02*
X124221875Y-54371875D01*
X115214408Y-56642000D02*
X121951750Y-56642000D01*
X130460750Y-56642000D02*
X128190625Y-54371875D01*
X134239000Y-56642000D02*
X130460750Y-56642000D01*
X136334500Y-58737500D02*
X149225000Y-58737500D01*
X134239000Y-56642000D02*
X136334500Y-58737500D01*
X176631600Y-96605649D02*
X176631600Y-99923600D01*
X176061778Y-115847722D02*
X176061778Y-119405400D01*
X178771609Y-94465640D02*
X176631600Y-96605649D01*
X176631600Y-99923600D02*
X177038000Y-100330000D01*
X175641000Y-72136000D02*
X178771609Y-75266609D01*
X179451000Y-65222514D02*
X175641000Y-69032514D01*
X179451000Y-61087000D02*
X179451000Y-65222514D01*
X177038000Y-114871500D02*
X176061778Y-115847722D01*
X178771609Y-75266609D02*
X178771609Y-94465640D01*
X175006000Y-56642000D02*
X179451000Y-61087000D01*
X177038000Y-100330000D02*
X177038000Y-114871500D01*
X175641000Y-69032514D02*
X175641000Y-72136000D01*
X172364400Y-56642000D02*
X175006000Y-56642000D01*
X136423400Y-75692000D02*
X153314400Y-75692000D01*
X154501812Y-74504588D02*
X153314400Y-75692000D01*
X164280812Y-74504588D02*
X154501812Y-74504588D01*
X165227000Y-73558400D02*
X164280812Y-74504588D01*
X173431200Y-70561200D02*
X168224200Y-70561200D01*
X178365198Y-75495198D02*
X173431200Y-70561200D01*
X176199800Y-96342200D02*
X178365198Y-94176802D01*
X176199800Y-100066550D02*
X176199800Y-96342200D01*
X168224200Y-70561200D02*
X165227000Y-73558400D01*
X176550601Y-100417351D02*
X176199800Y-100066550D01*
X176550601Y-114279399D02*
X176550601Y-100417351D01*
X178365198Y-94176802D02*
X178365198Y-75495198D01*
X175309365Y-115520635D02*
X176550601Y-114279399D01*
X175309365Y-119405400D02*
X175309365Y-115520635D01*
X136423400Y-75692000D02*
X132537200Y-75692000D01*
X132537200Y-75692000D02*
X130663950Y-73818750D01*
X130663950Y-73818750D02*
X117417846Y-73818750D01*
X117417846Y-73818750D02*
X115544596Y-75692000D01*
X132842000Y-94742000D02*
X136423400Y-94742000D01*
X130968750Y-92868750D02*
X132842000Y-94742000D01*
X123428125Y-92868750D02*
X130968750Y-92868750D01*
X121554875Y-94742000D02*
X123428125Y-92868750D01*
X115214400Y-94742000D02*
X121554875Y-94742000D01*
X136423400Y-94742000D02*
X149987000Y-94742000D01*
X156845000Y-111633000D02*
X156337006Y-111125006D01*
X170793926Y-111633000D02*
X156845000Y-111633000D01*
X174556952Y-119405400D02*
X174556952Y-115396026D01*
X174556952Y-115396026D02*
X170793926Y-111633000D01*
X154736800Y-113792000D02*
X134264400Y-113792000D01*
X129961122Y-113792000D02*
X134264400Y-113792000D01*
X124618750Y-111521875D02*
X127690997Y-111521875D01*
X127690997Y-111521875D02*
X129961122Y-113792000D01*
X122348625Y-113792000D02*
X124618750Y-111521875D01*
X115214400Y-113792000D02*
X122348625Y-113792000D01*
X173820351Y-119389588D02*
X173804539Y-119405400D01*
X173820351Y-115451151D02*
X173820351Y-119389588D01*
X170510200Y-112141000D02*
X173820351Y-115451151D01*
X156387800Y-112141000D02*
X170510200Y-112141000D01*
X154736800Y-113792000D02*
X156387800Y-112141000D01*
X174498000Y-102743000D02*
X174498000Y-109245400D01*
X174498000Y-109245400D02*
X173177201Y-110566199D01*
X173177201Y-110566199D02*
X159283401Y-110566199D01*
X134264400Y-132842000D02*
X121310400Y-132842000D01*
X134264400Y-132842000D02*
X153314406Y-132842000D01*
X165912780Y-132842000D02*
X172770800Y-125983980D01*
X159842200Y-133400800D02*
X160401000Y-132842000D01*
X155270200Y-133400800D02*
X159842200Y-133400800D01*
X160401000Y-132842000D02*
X165912780Y-132842000D01*
X154711400Y-132842000D02*
X155270200Y-133400800D01*
X153314406Y-132842000D02*
X154711400Y-132842000D01*
X152019000Y-145542000D02*
X147955000Y-145542000D01*
X156210000Y-149733000D02*
X152019000Y-145542000D01*
X167614600Y-149733000D02*
X156210000Y-149733000D01*
X174599600Y-142748000D02*
X167614600Y-149733000D01*
X144780000Y-145542000D02*
X147955000Y-145542000D01*
X141986000Y-148336000D02*
X144780000Y-145542000D01*
X126904750Y-148336000D02*
X141986000Y-148336000D01*
X124110750Y-145542000D02*
X126904750Y-148336000D01*
X119380008Y-145542000D02*
X124110750Y-145542000D01*
X163830000Y-130784600D02*
X168325800Y-126288800D01*
X160705800Y-130784600D02*
X163830000Y-130784600D01*
X159181800Y-132308600D02*
X160705800Y-130784600D01*
X155778200Y-132308600D02*
X159181800Y-132308600D01*
X143859504Y-131800590D02*
X155270190Y-131800590D01*
X142818114Y-130759200D02*
X143859504Y-131800590D01*
X155270190Y-131800590D02*
X155778200Y-132308600D01*
X137718800Y-130759200D02*
X142818114Y-130759200D01*
X178054000Y-117221000D02*
X178308000Y-116967000D01*
X178054000Y-120650000D02*
X178054000Y-117221000D01*
X173482000Y-125222000D02*
X178054000Y-120650000D01*
X173482000Y-126238000D02*
X173482000Y-125222000D01*
X171450000Y-128270000D02*
X173482000Y-126238000D01*
X125831600Y-93599000D02*
X125349000Y-94081600D01*
X127254000Y-93599000D02*
X125831600Y-93599000D01*
X161239206Y-76403200D02*
X161264606Y-76377800D01*
X126847600Y-76403200D02*
X161239206Y-76403200D01*
X162458400Y-86182200D02*
X161290000Y-85013800D01*
X163195000Y-86182200D02*
X162458400Y-86182200D01*
X121539000Y-123139200D02*
X121539000Y-123063000D01*
X118237000Y-126441200D02*
X121539000Y-123139200D01*
X118237000Y-128778000D02*
X118237000Y-126441200D01*
X139076686Y-137845800D02*
X140803886Y-136118600D01*
X129895600Y-137845800D02*
X139076686Y-137845800D01*
X157022800Y-136118600D02*
X158724600Y-137820400D01*
X140803886Y-136118600D02*
X157022800Y-136118600D01*
X158750000Y-137795000D02*
X158724600Y-137820400D01*
X162687000Y-137795000D02*
X158750000Y-137795000D01*
X129082800Y-117297200D02*
X138328400Y-117297200D01*
X124701300Y-118618000D02*
X127762000Y-118618000D01*
X123380500Y-117297200D02*
X124701300Y-118618000D01*
X127762000Y-118618000D02*
X129082800Y-117297200D01*
X119811800Y-117297200D02*
X123380500Y-117297200D01*
X119278400Y-117830600D02*
X119811800Y-117297200D01*
X142133599Y-108564401D02*
X138963400Y-111734600D01*
X142133599Y-105100399D02*
X142133599Y-108564401D01*
X140817600Y-103784400D02*
X142133599Y-105100399D01*
X140671306Y-103784400D02*
X140817600Y-103784400D01*
X156870400Y-117297200D02*
X157378400Y-117805200D01*
X138328400Y-117297200D02*
X156870400Y-117297200D01*
X144140051Y-89819349D02*
X141198600Y-92760800D01*
X154854165Y-89819349D02*
X144140051Y-89819349D01*
X159989914Y-84683600D02*
X154854165Y-89819349D01*
X160426402Y-84683600D02*
X159989914Y-84683600D01*
X162687002Y-82423000D02*
X160426402Y-84683600D01*
X142621000Y-139700000D02*
X143564160Y-140643160D01*
X136017000Y-139700000D02*
X142621000Y-139700000D01*
X135073840Y-140643160D02*
X136017000Y-139700000D01*
X123621800Y-140639800D02*
X123625160Y-140643160D01*
X123625160Y-140643160D02*
X135073840Y-140643160D01*
X143564160Y-140643160D02*
X152200160Y-140643160D01*
X152200160Y-140643160D02*
X162886828Y-140643160D01*
X162886828Y-140643160D02*
X163118800Y-140411188D01*
X133194289Y-121594600D02*
X114076208Y-121594600D01*
X114076208Y-121594600D02*
X114071400Y-121589792D01*
X120421400Y-132384800D02*
X114071400Y-126034800D01*
X120421400Y-137439400D02*
X120421400Y-132384800D01*
X114071400Y-126034800D02*
X114071400Y-121589792D01*
X123621800Y-140639800D02*
X120421400Y-137439400D01*
X139979400Y-111734606D02*
X142819399Y-108894607D01*
X142819399Y-108894607D02*
X142819399Y-104871807D01*
X142819399Y-104871807D02*
X141732000Y-103784408D01*
X141693900Y-93433900D02*
X141574799Y-93553001D01*
X141117600Y-121594600D02*
X141147800Y-121564400D01*
X133194289Y-121594600D02*
X141117600Y-121594600D01*
X141147800Y-121564400D02*
X152146004Y-121564400D01*
X152146004Y-121564400D02*
X152171400Y-121589796D01*
X158360914Y-91922600D02*
X162445660Y-87837854D01*
X162445660Y-87837854D02*
X162445660Y-87122000D01*
X153035000Y-93599000D02*
X154711400Y-91922600D01*
X151241993Y-93599000D02*
X153035000Y-93599000D01*
X150606993Y-92964000D02*
X151241993Y-93599000D01*
X142163800Y-92964000D02*
X150606993Y-92964000D01*
X154711400Y-91922600D02*
X158360914Y-91922600D01*
X141693900Y-93433900D02*
X142163800Y-92964000D01*
X114071394Y-117703600D02*
X113029999Y-116662205D01*
X116260600Y-77686789D02*
X155368697Y-77686789D01*
X167481205Y-77425599D02*
X169418004Y-75488800D01*
X155368697Y-77686789D02*
X155629887Y-77425599D01*
X155629887Y-77425599D02*
X167481205Y-77425599D01*
X157226000Y-122174000D02*
X152400000Y-122174000D01*
X138430000Y-122191289D02*
X157378400Y-122191289D01*
X138430000Y-122191289D02*
X119295687Y-122191289D01*
X119295687Y-122191289D02*
X119278398Y-122174000D01*
X142367000Y-140208000D02*
X143383000Y-141224000D01*
X136304375Y-140208000D02*
X142367000Y-140208000D01*
X135289815Y-141222560D02*
X136304375Y-140208000D01*
X128803400Y-141222560D02*
X135289815Y-141222560D01*
X143383000Y-141224000D02*
X157378400Y-141224000D01*
X157378400Y-141224000D02*
X162864820Y-141224000D01*
X162864820Y-141224000D02*
X163118820Y-141478000D01*
X143505199Y-109224801D02*
X143505199Y-104516199D01*
X143505199Y-104516199D02*
X142773400Y-103784400D01*
X140995400Y-111734600D02*
X143505199Y-109224801D01*
X158897605Y-92409999D02*
X164185600Y-87122004D01*
X142236850Y-94081600D02*
X153304950Y-94081600D01*
X153304950Y-94081600D02*
X154976551Y-92409999D01*
X154976551Y-92409999D02*
X158897605Y-92409999D01*
X131064000Y-50825400D02*
X131064000Y-55702200D01*
X133019800Y-48869600D02*
X131064000Y-50825400D01*
X133350000Y-77038200D02*
X133369012Y-77019188D01*
X133369012Y-77019188D02*
X166744618Y-77019188D01*
X166744618Y-77019188D02*
X168719475Y-75044331D01*
X150952200Y-80695800D02*
X142113000Y-80695800D01*
X142113000Y-80695800D02*
X141122400Y-81686400D01*
X140690604Y-118795800D02*
X140563600Y-118668796D01*
X150952200Y-118795800D02*
X140690604Y-118795800D01*
X167670213Y-74071207D02*
X167970212Y-74371206D01*
X165588279Y-74071207D02*
X167670213Y-74071207D01*
X164748487Y-74910999D02*
X165588279Y-74071207D01*
X155086003Y-74910999D02*
X164748487Y-74910999D01*
X154305000Y-75692002D02*
X155086003Y-74910999D01*
X116905060Y-73412340D02*
X116911400Y-73406000D01*
X163823623Y-74098177D02*
X168601902Y-69319898D01*
X168601902Y-69319898D02*
X171599102Y-69319898D01*
X153325337Y-74098177D02*
X163823623Y-74098177D01*
X152341114Y-75082400D02*
X153325337Y-74098177D01*
X132641331Y-75082400D02*
X152341114Y-75082400D01*
X130964931Y-73406000D02*
X132641331Y-75082400D01*
X116911400Y-73406000D02*
X130964931Y-73406000D01*
X113284000Y-84835998D02*
X113284000Y-77033400D01*
X116911400Y-73406000D02*
X113284000Y-77033400D01*
X139461801Y-78811401D02*
X139446000Y-78795600D01*
X168736999Y-78811401D02*
X139461801Y-78811401D01*
X173355000Y-74193400D02*
X168736999Y-78811401D01*
X173964604Y-74193400D02*
X173355000Y-74193400D01*
X174294800Y-74523596D02*
X173964604Y-74193400D01*
X168529000Y-78232000D02*
X160710600Y-78232000D01*
X173096199Y-73664801D02*
X168529000Y-78232000D01*
X174528201Y-73664801D02*
X173096199Y-73664801D01*
X174828200Y-73964800D02*
X174528201Y-73664801D01*
X156011590Y-126817410D02*
X156011590Y-128005205D01*
X158369000Y-124460000D02*
X156011590Y-126817410D01*
X158369000Y-117221000D02*
X158369000Y-124460000D01*
X155422600Y-114274600D02*
X158369000Y-117221000D01*
X161163000Y-139395200D02*
X160553400Y-138785600D01*
X163118800Y-139395200D02*
X161163000Y-139395200D01*
X176403008Y-83235792D02*
X176403008Y-77038200D01*
X174315401Y-85323399D02*
X176403008Y-83235792D01*
X168249601Y-85323399D02*
X174315401Y-85323399D01*
X161548800Y-92024200D02*
X168249601Y-85323399D01*
X162585400Y-98628200D02*
X165862004Y-98628200D01*
X160604200Y-100609400D02*
X162585400Y-98628200D01*
X159588200Y-117271800D02*
X156108400Y-113792000D01*
X159588200Y-119811800D02*
X159588200Y-117271800D01*
X118491000Y-88011009D02*
X118491000Y-90932000D01*
X121412038Y-85089971D02*
X118491000Y-88011009D01*
X121412038Y-84836000D02*
X121412038Y-85089971D01*
X138326250Y-98274750D02*
X119276250Y-98274750D01*
X161012750Y-98274750D02*
X138326250Y-98274750D01*
X138328400Y-79171800D02*
X119278400Y-79171800D01*
X162686998Y-79705198D02*
X162687000Y-79705200D01*
X157378400Y-79705198D02*
X162686998Y-79705198D01*
X157048202Y-79375000D02*
X157378400Y-79705198D01*
X138531600Y-79375000D02*
X157048202Y-79375000D01*
X138328400Y-79171800D02*
X138531600Y-79375000D01*
X161012750Y-98274750D02*
X162742100Y-96545400D01*
X162742100Y-96545400D02*
X164388806Y-96545400D01*
X149780440Y-83493160D02*
X130755840Y-83493160D01*
X149780440Y-83493160D02*
X159838840Y-83493160D01*
X159838840Y-83493160D02*
X162686992Y-80645008D01*
X149780440Y-83493160D02*
X152193434Y-83493160D01*
X130755840Y-83493160D02*
X133143472Y-83493160D01*
X114074776Y-83493160D02*
X114071416Y-83489800D01*
X130755840Y-83493160D02*
X114074776Y-83493160D01*
X168022364Y-103122636D02*
X152220782Y-103122636D01*
X170688014Y-100456986D02*
X168022364Y-103122636D01*
X170688014Y-99060000D02*
X170688014Y-100456986D01*
X114095436Y-103122636D02*
X133145444Y-103122636D01*
X152220782Y-103122636D02*
X133145444Y-103122636D01*
X114071416Y-87528384D02*
X114071416Y-83489800D01*
X111760000Y-89839800D02*
X114071416Y-87528384D01*
X111760000Y-100787200D02*
X111760000Y-89839800D01*
X114095436Y-103122636D02*
X111760000Y-100787200D01*
X157375040Y-102543160D02*
X138325048Y-102543160D01*
X120523000Y-102489000D02*
X120577160Y-102543160D01*
X120577160Y-102543160D02*
X138325048Y-102543160D01*
X138328410Y-84074000D02*
X157378378Y-84074000D01*
X162687004Y-81534000D02*
X160147004Y-84074000D01*
X160147004Y-84074000D02*
X157378378Y-84074000D01*
X119329200Y-84074000D02*
X119278400Y-84124800D01*
X138328410Y-84074000D02*
X119329200Y-84074000D01*
X164918840Y-102543160D02*
X157375040Y-102543160D01*
X166560500Y-100901500D02*
X164918840Y-102543160D01*
X166560500Y-93027500D02*
X166560500Y-100901500D01*
X167259000Y-92329000D02*
X166560500Y-93027500D01*
X168275000Y-92329000D02*
X167259000Y-92329000D01*
X157378400Y-60274200D02*
X138328400Y-60274200D01*
X123139200Y-60274200D02*
X119278400Y-60274200D01*
X124206000Y-61341000D02*
X123139200Y-60274200D01*
X128016000Y-61341000D02*
X124206000Y-61341000D01*
X129082800Y-60274200D02*
X128016000Y-61341000D01*
X138328400Y-60274200D02*
X129082800Y-60274200D01*
X157403800Y-60248800D02*
X157378400Y-60274200D01*
X160578800Y-60248800D02*
X157403800Y-60248800D01*
X166624000Y-61341000D02*
X161671000Y-61341000D01*
X161671000Y-61341000D02*
X160578800Y-60248800D01*
X167716200Y-60248800D02*
X166624000Y-61341000D01*
X176428400Y-60248800D02*
X167716200Y-60248800D01*
X138328400Y-41224200D02*
X119278400Y-41224200D01*
X157378400Y-41224200D02*
X138328400Y-41224200D01*
X176428400Y-41224200D02*
X157378400Y-41224200D01*
X152247590Y-45999390D02*
X171170584Y-45999390D01*
X133146800Y-65151000D02*
X114071400Y-65151000D01*
X152171400Y-65151000D02*
X133146800Y-65151000D01*
X134162800Y-45974000D02*
X134188190Y-45999390D01*
X114096800Y-45974000D02*
X134162800Y-45974000D01*
X152247590Y-45999390D02*
X134188190Y-45999390D01*
X163601400Y-65151000D02*
X152171400Y-65151000D01*
X171246800Y-65151000D02*
X163601400Y-65151000D01*
X111760000Y-51892200D02*
X111760000Y-62839600D01*
X111760000Y-62839600D02*
X114071400Y-65151000D01*
X114096800Y-49555400D02*
X111760000Y-51892200D01*
X114096800Y-45974000D02*
X114096800Y-49555400D01*
X176428400Y-45415200D02*
X157403800Y-45415200D01*
X157403800Y-45415200D02*
X138328400Y-45415200D01*
X138328400Y-64541400D02*
X119278400Y-64541400D01*
X157353000Y-64541400D02*
X138328400Y-64541400D01*
X163017200Y-64541400D02*
X157353000Y-64541400D01*
X176428400Y-64541400D02*
X163017200Y-64541400D01*
X138328400Y-45415200D02*
X119583200Y-45415200D01*
X119583200Y-45415200D02*
X119253000Y-45085000D01*
X124129800Y-47371000D02*
X124561600Y-46939200D01*
X122783602Y-47371000D02*
X124129800Y-47371000D01*
X124356250Y-80160250D02*
X123952000Y-79756000D01*
X124356250Y-81284375D02*
X124356250Y-80160250D01*
X152908000Y-113157000D02*
X155702000Y-110363000D01*
X157535667Y-111196410D02*
X171208520Y-111196410D01*
X156702257Y-110363000D02*
X157535667Y-111196410D01*
X130175000Y-113157000D02*
X152908000Y-113157000D01*
X155702000Y-110363000D02*
X156702257Y-110363000D01*
X126619000Y-109601000D02*
X130175000Y-113157000D01*
X173101000Y-120523000D02*
X173101000Y-115824000D01*
X163271200Y-130352800D02*
X173101000Y-120523000D01*
X160151792Y-130352800D02*
X163271200Y-130352800D01*
X159031795Y-131472797D02*
X160151792Y-130352800D01*
X171596255Y-120567245D02*
X171596255Y-115822812D01*
X159111300Y-129489200D02*
X162674300Y-129489200D01*
X162674300Y-129489200D02*
X171596255Y-120567245D01*
X157127249Y-131473251D02*
X159111300Y-129489200D01*
X170843845Y-120621155D02*
X170843845Y-115824178D01*
X162407600Y-129057400D02*
X170843845Y-120621155D01*
X158653190Y-129057400D02*
X162407600Y-129057400D01*
X156237795Y-131472795D02*
X158653190Y-129057400D01*
X172348621Y-120513379D02*
X172348621Y-115831128D01*
X162941000Y-129921000D02*
X172348621Y-120513379D01*
X159694590Y-129921000D02*
X162941000Y-129921000D01*
X158142792Y-131472798D02*
X159694590Y-129921000D01*
X143129000Y-146304000D02*
X135255000Y-146304000D01*
X144470401Y-144962599D02*
X143129000Y-146304000D01*
X152201599Y-144962599D02*
X144470401Y-144962599D01*
X156464000Y-149225000D02*
X152201599Y-144962599D01*
X178689000Y-133604000D02*
X175768000Y-136525000D01*
X167132000Y-149225000D02*
X156464000Y-149225000D01*
X178689000Y-128905000D02*
X178689000Y-133604000D01*
X177292000Y-127508000D02*
X178689000Y-128905000D01*
X177292000Y-122148600D02*
X177292000Y-127508000D01*
X178879493Y-120561107D02*
X177292000Y-122148600D01*
X175768000Y-140589000D02*
X167132000Y-149225000D01*
X175768000Y-136525000D02*
X175768000Y-140589000D01*
X178879493Y-117665493D02*
X178879493Y-120561107D01*
X140970000Y-52832106D02*
X140970000Y-57912000D01*
X143408400Y-132207000D02*
X142875000Y-131673600D01*
X154914600Y-132207000D02*
X143408400Y-132207000D01*
X159512000Y-132816600D02*
X155524200Y-132816600D01*
X160121600Y-132207000D02*
X159512000Y-132816600D01*
X165608000Y-132207000D02*
X160121600Y-132207000D01*
X177419000Y-120396000D02*
X165608000Y-132207000D01*
X155524200Y-132816600D02*
X154914600Y-132207000D01*
X177419000Y-116713012D02*
X177419000Y-120396000D01*
X177863506Y-116268506D02*
X177419000Y-116713012D01*
X176784000Y-116205000D02*
X176784000Y-120142000D01*
X177419000Y-115570000D02*
X176784000Y-116205000D01*
X176784000Y-120142000D02*
X169799000Y-127127000D01*
X169799000Y-127127000D02*
X168325812Y-127127000D01*
X160655000Y-116493302D02*
X160655000Y-113792000D01*
X161874200Y-117712502D02*
X160655000Y-116493302D01*
X161874200Y-125374406D02*
X161874200Y-117712502D01*
X179351009Y-89662000D02*
X179351009Y-94587991D01*
X179351009Y-94587991D02*
X177063400Y-96875600D01*
X177063400Y-96875600D02*
X177063400Y-99720400D01*
X177754001Y-100411001D02*
X177754001Y-113898403D01*
X177063400Y-99720400D02*
X177754001Y-100411001D01*
X177754001Y-113898403D02*
X178155600Y-114300002D01*
X179458894Y-115603296D02*
X178155600Y-114300002D01*
X179458894Y-120743706D02*
X179458894Y-115603296D01*
X178562000Y-121640600D02*
X179458894Y-120743706D01*
X178562000Y-126111000D02*
X178562000Y-121640600D01*
X171475400Y-85902800D02*
X170895999Y-86482201D01*
X170895999Y-86482201D02*
X170057799Y-86482201D01*
X170057799Y-86482201D02*
X163034492Y-93505508D01*
X163034492Y-93505508D02*
X156030702Y-93505508D01*
X156030702Y-93505508D02*
X155730703Y-93805507D01*
X170805660Y-92218060D02*
X169494200Y-90906600D01*
X175158400Y-107975400D02*
X175158400Y-100507800D01*
X169494200Y-90906600D02*
X169494200Y-88087200D01*
X170805660Y-97679060D02*
X170805660Y-92218060D01*
X172608693Y-99482093D02*
X170805660Y-97679060D01*
X174132693Y-99482093D02*
X172608693Y-99482093D01*
X175158400Y-100507800D02*
X174132693Y-99482093D01*
X175971200Y-100573662D02*
X174330538Y-98933000D01*
X175971200Y-107975400D02*
X175971200Y-100573662D01*
X172847000Y-98933000D02*
X171323000Y-97409000D01*
X171323000Y-91973400D02*
X170357800Y-91008200D01*
X170357800Y-91008200D02*
X170357800Y-88087200D01*
X174330538Y-98933000D02*
X172847000Y-98933000D01*
X171323000Y-97409000D02*
X171323000Y-91973400D01*
X169875200Y-85902800D02*
X162788599Y-92989401D01*
X170484800Y-85902800D02*
X169875200Y-85902800D01*
X155897664Y-92989400D02*
X155473400Y-92989400D01*
X162788599Y-92989401D02*
X155897664Y-92989400D01*
M02*
