G04 #@! TF.GenerationSoftware,KiCad,Pcbnew,(5.1.10)-1*
G04 #@! TF.CreationDate,2021-06-25T21:48:55+02:00*
G04 #@! TF.ProjectId,tfk21-avr,74666b32-312d-4617-9672-2e6b69636164,A*
G04 #@! TF.SameCoordinates,Original*
G04 #@! TF.FileFunction,Legend,Top*
G04 #@! TF.FilePolarity,Positive*
%FSLAX46Y46*%
G04 Gerber Fmt 4.6, Leading zero omitted, Abs format (unit mm)*
G04 Created by KiCad (PCBNEW (5.1.10)-1) date 2021-06-25 21:48:55*
%MOMM*%
%LPD*%
G01*
G04 APERTURE LIST*
%ADD10C,0.200000*%
%ADD11C,0.010000*%
%ADD12C,0.150000*%
%ADD13O,1.000000X2.100000*%
%ADD14C,0.650000*%
%ADD15O,1.000000X1.600000*%
%ADD16R,1.100000X1.800000*%
%ADD17C,1.750000*%
%ADD18C,4.000000*%
%ADD19C,3.000000*%
%ADD20C,3.987800*%
%ADD21C,3.048000*%
%ADD22C,5.000000*%
G04 APERTURE END LIST*
D10*
X132082946Y-76683428D02*
X132578184Y-76683428D01*
X132268660Y-76250095D02*
X132268660Y-77364380D01*
X132330565Y-77488190D01*
X132454375Y-77550095D01*
X132578184Y-77550095D01*
X132825803Y-76683428D02*
X133321041Y-76683428D01*
X133011517Y-77550095D02*
X133011517Y-76435809D01*
X133073422Y-76312000D01*
X133197232Y-76250095D01*
X133321041Y-76250095D01*
X133754375Y-77550095D02*
X133754375Y-76250095D01*
X133878184Y-77054857D02*
X134249613Y-77550095D01*
X134249613Y-76683428D02*
X133754375Y-77178666D01*
X134744851Y-76373904D02*
X134806755Y-76312000D01*
X134930565Y-76250095D01*
X135240089Y-76250095D01*
X135363898Y-76312000D01*
X135425803Y-76373904D01*
X135487708Y-76497714D01*
X135487708Y-76621523D01*
X135425803Y-76807238D01*
X134682946Y-77550095D01*
X135487708Y-77550095D01*
X136725803Y-77550095D02*
X135982946Y-77550095D01*
X136354375Y-77550095D02*
X136354375Y-76250095D01*
X136230565Y-76435809D01*
X136106755Y-76559619D01*
X135982946Y-76621523D01*
X137282946Y-77054857D02*
X138273422Y-77054857D01*
X139449613Y-77550095D02*
X139449613Y-76869142D01*
X139387708Y-76745333D01*
X139263898Y-76683428D01*
X139016279Y-76683428D01*
X138892470Y-76745333D01*
X139449613Y-77488190D02*
X139325803Y-77550095D01*
X139016279Y-77550095D01*
X138892470Y-77488190D01*
X138830565Y-77364380D01*
X138830565Y-77240571D01*
X138892470Y-77116761D01*
X139016279Y-77054857D01*
X139325803Y-77054857D01*
X139449613Y-76992952D01*
X139944851Y-76683428D02*
X140254375Y-77550095D01*
X140563898Y-76683428D01*
X141059136Y-77550095D02*
X141059136Y-76683428D01*
X141059136Y-76931047D02*
X141121041Y-76807238D01*
X141182946Y-76745333D01*
X141306755Y-76683428D01*
X141430565Y-76683428D01*
X149267648Y-77581845D02*
X149267648Y-76281845D01*
X149577172Y-76281845D01*
X149762886Y-76343750D01*
X149886696Y-76467559D01*
X149948601Y-76591369D01*
X150010505Y-76838988D01*
X150010505Y-77024702D01*
X149948601Y-77272321D01*
X149886696Y-77396130D01*
X149762886Y-77519940D01*
X149577172Y-77581845D01*
X149267648Y-77581845D01*
X151062886Y-77519940D02*
X150939077Y-77581845D01*
X150691458Y-77581845D01*
X150567648Y-77519940D01*
X150505744Y-77396130D01*
X150505744Y-76900892D01*
X150567648Y-76777083D01*
X150691458Y-76715178D01*
X150939077Y-76715178D01*
X151062886Y-76777083D01*
X151124791Y-76900892D01*
X151124791Y-77024702D01*
X150505744Y-77148511D01*
X151620029Y-77519940D02*
X151743839Y-77581845D01*
X151991458Y-77581845D01*
X152115267Y-77519940D01*
X152177172Y-77396130D01*
X152177172Y-77334226D01*
X152115267Y-77210416D01*
X151991458Y-77148511D01*
X151805744Y-77148511D01*
X151681934Y-77086607D01*
X151620029Y-76962797D01*
X151620029Y-76900892D01*
X151681934Y-76777083D01*
X151805744Y-76715178D01*
X151991458Y-76715178D01*
X152115267Y-76777083D01*
X152734315Y-77581845D02*
X152734315Y-76715178D01*
X152734315Y-76281845D02*
X152672410Y-76343750D01*
X152734315Y-76405654D01*
X152796220Y-76343750D01*
X152734315Y-76281845D01*
X152734315Y-76405654D01*
X153910505Y-76715178D02*
X153910505Y-77767559D01*
X153848601Y-77891369D01*
X153786696Y-77953273D01*
X153662886Y-78015178D01*
X153477172Y-78015178D01*
X153353363Y-77953273D01*
X153910505Y-77519940D02*
X153786696Y-77581845D01*
X153539077Y-77581845D01*
X153415267Y-77519940D01*
X153353363Y-77458035D01*
X153291458Y-77334226D01*
X153291458Y-76962797D01*
X153353363Y-76838988D01*
X153415267Y-76777083D01*
X153539077Y-76715178D01*
X153786696Y-76715178D01*
X153910505Y-76777083D01*
X154529553Y-76715178D02*
X154529553Y-77581845D01*
X154529553Y-76838988D02*
X154591458Y-76777083D01*
X154715267Y-76715178D01*
X154900982Y-76715178D01*
X155024791Y-76777083D01*
X155086696Y-76900892D01*
X155086696Y-77581845D01*
X156200982Y-77519940D02*
X156077172Y-77581845D01*
X155829553Y-77581845D01*
X155705744Y-77519940D01*
X155643839Y-77396130D01*
X155643839Y-76900892D01*
X155705744Y-76777083D01*
X155829553Y-76715178D01*
X156077172Y-76715178D01*
X156200982Y-76777083D01*
X156262886Y-76900892D01*
X156262886Y-77024702D01*
X155643839Y-77148511D01*
X157377172Y-77581845D02*
X157377172Y-76281845D01*
X157377172Y-77519940D02*
X157253363Y-77581845D01*
X157005744Y-77581845D01*
X156881934Y-77519940D01*
X156820029Y-77458035D01*
X156758125Y-77334226D01*
X156758125Y-76962797D01*
X156820029Y-76838988D01*
X156881934Y-76777083D01*
X157005744Y-76715178D01*
X157253363Y-76715178D01*
X157377172Y-76777083D01*
X158986696Y-77581845D02*
X158986696Y-76281845D01*
X158986696Y-76777083D02*
X159110505Y-76715178D01*
X159358125Y-76715178D01*
X159481934Y-76777083D01*
X159543839Y-76838988D01*
X159605744Y-76962797D01*
X159605744Y-77334226D01*
X159543839Y-77458035D01*
X159481934Y-77519940D01*
X159358125Y-77581845D01*
X159110505Y-77581845D01*
X158986696Y-77519940D01*
X160039077Y-76715178D02*
X160348601Y-77581845D01*
X160658125Y-76715178D02*
X160348601Y-77581845D01*
X160224791Y-77891369D01*
X160162886Y-77953273D01*
X160039077Y-78015178D01*
X162143839Y-77581845D02*
X162143839Y-76281845D01*
X162143839Y-76777083D02*
X162267648Y-76715178D01*
X162515267Y-76715178D01*
X162639077Y-76777083D01*
X162700982Y-76838988D01*
X162762886Y-76962797D01*
X162762886Y-77334226D01*
X162700982Y-77458035D01*
X162639077Y-77519940D01*
X162515267Y-77581845D01*
X162267648Y-77581845D01*
X162143839Y-77519940D01*
X163320029Y-77581845D02*
X163320029Y-76715178D01*
X163320029Y-76281845D02*
X163258125Y-76343750D01*
X163320029Y-76405654D01*
X163381934Y-76343750D01*
X163320029Y-76281845D01*
X163320029Y-76405654D01*
X164124791Y-77581845D02*
X164000982Y-77519940D01*
X163939077Y-77458035D01*
X163877172Y-77334226D01*
X163877172Y-76962797D01*
X163939077Y-76838988D01*
X164000982Y-76777083D01*
X164124791Y-76715178D01*
X164310505Y-76715178D01*
X164434315Y-76777083D01*
X164496220Y-76838988D01*
X164558125Y-76962797D01*
X164558125Y-77334226D01*
X164496220Y-77458035D01*
X164434315Y-77519940D01*
X164310505Y-77581845D01*
X164124791Y-77581845D01*
X165053363Y-77519940D02*
X165177172Y-77581845D01*
X165424791Y-77581845D01*
X165548601Y-77519940D01*
X165610505Y-77396130D01*
X165610505Y-77334226D01*
X165548601Y-77210416D01*
X165424791Y-77148511D01*
X165239077Y-77148511D01*
X165115267Y-77086607D01*
X165053363Y-76962797D01*
X165053363Y-76900892D01*
X165115267Y-76777083D01*
X165239077Y-76715178D01*
X165424791Y-76715178D01*
X165548601Y-76777083D01*
X166167648Y-77581845D02*
X166167648Y-76715178D01*
X166167648Y-76838988D02*
X166229553Y-76777083D01*
X166353363Y-76715178D01*
X166539077Y-76715178D01*
X166662886Y-76777083D01*
X166724791Y-76900892D01*
X166724791Y-77581845D01*
X166724791Y-76900892D02*
X166786696Y-76777083D01*
X166910505Y-76715178D01*
X167096220Y-76715178D01*
X167220029Y-76777083D01*
X167281934Y-76900892D01*
X167281934Y-77581845D01*
X168458125Y-77581845D02*
X168458125Y-76900892D01*
X168396220Y-76777083D01*
X168272410Y-76715178D01*
X168024791Y-76715178D01*
X167900982Y-76777083D01*
X168458125Y-77519940D02*
X168334315Y-77581845D01*
X168024791Y-77581845D01*
X167900982Y-77519940D01*
X167839077Y-77396130D01*
X167839077Y-77272321D01*
X167900982Y-77148511D01*
X168024791Y-77086607D01*
X168334315Y-77086607D01*
X168458125Y-77024702D01*
X169077172Y-76715178D02*
X169077172Y-77581845D01*
X169077172Y-76838988D02*
X169139077Y-76777083D01*
X169262886Y-76715178D01*
X169448601Y-76715178D01*
X169572410Y-76777083D01*
X169634315Y-76900892D01*
X169634315Y-77581845D01*
X170810505Y-77581845D02*
X170810505Y-76900892D01*
X170748601Y-76777083D01*
X170624791Y-76715178D01*
X170377172Y-76715178D01*
X170253363Y-76777083D01*
X170810505Y-77519940D02*
X170686696Y-77581845D01*
X170377172Y-77581845D01*
X170253363Y-77519940D01*
X170191458Y-77396130D01*
X170191458Y-77272321D01*
X170253363Y-77148511D01*
X170377172Y-77086607D01*
X170686696Y-77086607D01*
X170810505Y-77024702D01*
X171986696Y-76715178D02*
X171986696Y-77767559D01*
X171924791Y-77891369D01*
X171862886Y-77953273D01*
X171739077Y-78015178D01*
X171553363Y-78015178D01*
X171429553Y-77953273D01*
X171986696Y-77519940D02*
X171862886Y-77581845D01*
X171615267Y-77581845D01*
X171491458Y-77519940D01*
X171429553Y-77458035D01*
X171367648Y-77334226D01*
X171367648Y-76962797D01*
X171429553Y-76838988D01*
X171491458Y-76777083D01*
X171615267Y-76715178D01*
X171862886Y-76715178D01*
X171986696Y-76777083D01*
X173100982Y-77519940D02*
X172977172Y-77581845D01*
X172729553Y-77581845D01*
X172605744Y-77519940D01*
X172543839Y-77396130D01*
X172543839Y-76900892D01*
X172605744Y-76777083D01*
X172729553Y-76715178D01*
X172977172Y-76715178D01*
X173100982Y-76777083D01*
X173162886Y-76900892D01*
X173162886Y-77024702D01*
X172543839Y-77148511D01*
X173720029Y-77581845D02*
X173720029Y-76715178D01*
X173720029Y-76962797D02*
X173781934Y-76838988D01*
X173843839Y-76777083D01*
X173967648Y-76715178D01*
X174091458Y-76715178D01*
D11*
G36*
X145051579Y-76290777D02*
G01*
X145066620Y-76293651D01*
X145068290Y-76294142D01*
X145085895Y-76301202D01*
X145101563Y-76310802D01*
X145115128Y-76322617D01*
X145126426Y-76336321D01*
X145135290Y-76351588D01*
X145141555Y-76368094D01*
X145145055Y-76385511D01*
X145145624Y-76403515D01*
X145143096Y-76421780D01*
X145139528Y-76434174D01*
X145131969Y-76450725D01*
X145121699Y-76465592D01*
X145109084Y-76478504D01*
X145094491Y-76489190D01*
X145078287Y-76497381D01*
X145060838Y-76502804D01*
X145043402Y-76505150D01*
X145035301Y-76505315D01*
X145027269Y-76505079D01*
X145020795Y-76504493D01*
X145019729Y-76504322D01*
X145001610Y-76499397D01*
X144984839Y-76491519D01*
X144969704Y-76480952D01*
X144956497Y-76467961D01*
X144945505Y-76452810D01*
X144937019Y-76435763D01*
X144933513Y-76425637D01*
X144931595Y-76416169D01*
X144930601Y-76404708D01*
X144930531Y-76392518D01*
X144931385Y-76380866D01*
X144933163Y-76371014D01*
X144933513Y-76369757D01*
X144940639Y-76351301D01*
X144950434Y-76334858D01*
X144962738Y-76320595D01*
X144977393Y-76308679D01*
X144994239Y-76299276D01*
X145004806Y-76295089D01*
X145019420Y-76291515D01*
X145035428Y-76290072D01*
X145051579Y-76290777D01*
G37*
X145051579Y-76290777D02*
X145066620Y-76293651D01*
X145068290Y-76294142D01*
X145085895Y-76301202D01*
X145101563Y-76310802D01*
X145115128Y-76322617D01*
X145126426Y-76336321D01*
X145135290Y-76351588D01*
X145141555Y-76368094D01*
X145145055Y-76385511D01*
X145145624Y-76403515D01*
X145143096Y-76421780D01*
X145139528Y-76434174D01*
X145131969Y-76450725D01*
X145121699Y-76465592D01*
X145109084Y-76478504D01*
X145094491Y-76489190D01*
X145078287Y-76497381D01*
X145060838Y-76502804D01*
X145043402Y-76505150D01*
X145035301Y-76505315D01*
X145027269Y-76505079D01*
X145020795Y-76504493D01*
X145019729Y-76504322D01*
X145001610Y-76499397D01*
X144984839Y-76491519D01*
X144969704Y-76480952D01*
X144956497Y-76467961D01*
X144945505Y-76452810D01*
X144937019Y-76435763D01*
X144933513Y-76425637D01*
X144931595Y-76416169D01*
X144930601Y-76404708D01*
X144930531Y-76392518D01*
X144931385Y-76380866D01*
X144933163Y-76371014D01*
X144933513Y-76369757D01*
X144940639Y-76351301D01*
X144950434Y-76334858D01*
X144962738Y-76320595D01*
X144977393Y-76308679D01*
X144994239Y-76299276D01*
X145004806Y-76295089D01*
X145019420Y-76291515D01*
X145035428Y-76290072D01*
X145051579Y-76290777D01*
G36*
X144291331Y-76290793D02*
G01*
X144300895Y-76292059D01*
X144302903Y-76292501D01*
X144320498Y-76298485D01*
X144336620Y-76307331D01*
X144350962Y-76318719D01*
X144363220Y-76332333D01*
X144373088Y-76347853D01*
X144380261Y-76364963D01*
X144383197Y-76376113D01*
X144385277Y-76389071D01*
X144385676Y-76400771D01*
X144384393Y-76412893D01*
X144383227Y-76419135D01*
X144377813Y-76437418D01*
X144369623Y-76454021D01*
X144358929Y-76468708D01*
X144346004Y-76481246D01*
X144331122Y-76491401D01*
X144314555Y-76498940D01*
X144296575Y-76503629D01*
X144282818Y-76505113D01*
X144275434Y-76505335D01*
X144268760Y-76505329D01*
X144263966Y-76505103D01*
X144263110Y-76505000D01*
X144244525Y-76500487D01*
X144227392Y-76493065D01*
X144211975Y-76482997D01*
X144198539Y-76470545D01*
X144187346Y-76455971D01*
X144178662Y-76439539D01*
X144172749Y-76421510D01*
X144171167Y-76413588D01*
X144169952Y-76405424D01*
X144169436Y-76399093D01*
X144169620Y-76393113D01*
X144170503Y-76386004D01*
X144171167Y-76381805D01*
X144175885Y-76362885D01*
X144183486Y-76345608D01*
X144193787Y-76330182D01*
X144206606Y-76316812D01*
X144221760Y-76305704D01*
X144239065Y-76297064D01*
X144249664Y-76293370D01*
X144258157Y-76291620D01*
X144268744Y-76290594D01*
X144280208Y-76290312D01*
X144291331Y-76290793D01*
G37*
X144291331Y-76290793D02*
X144300895Y-76292059D01*
X144302903Y-76292501D01*
X144320498Y-76298485D01*
X144336620Y-76307331D01*
X144350962Y-76318719D01*
X144363220Y-76332333D01*
X144373088Y-76347853D01*
X144380261Y-76364963D01*
X144383197Y-76376113D01*
X144385277Y-76389071D01*
X144385676Y-76400771D01*
X144384393Y-76412893D01*
X144383227Y-76419135D01*
X144377813Y-76437418D01*
X144369623Y-76454021D01*
X144358929Y-76468708D01*
X144346004Y-76481246D01*
X144331122Y-76491401D01*
X144314555Y-76498940D01*
X144296575Y-76503629D01*
X144282818Y-76505113D01*
X144275434Y-76505335D01*
X144268760Y-76505329D01*
X144263966Y-76505103D01*
X144263110Y-76505000D01*
X144244525Y-76500487D01*
X144227392Y-76493065D01*
X144211975Y-76482997D01*
X144198539Y-76470545D01*
X144187346Y-76455971D01*
X144178662Y-76439539D01*
X144172749Y-76421510D01*
X144171167Y-76413588D01*
X144169952Y-76405424D01*
X144169436Y-76399093D01*
X144169620Y-76393113D01*
X144170503Y-76386004D01*
X144171167Y-76381805D01*
X144175885Y-76362885D01*
X144183486Y-76345608D01*
X144193787Y-76330182D01*
X144206606Y-76316812D01*
X144221760Y-76305704D01*
X144239065Y-76297064D01*
X144249664Y-76293370D01*
X144258157Y-76291620D01*
X144268744Y-76290594D01*
X144280208Y-76290312D01*
X144291331Y-76290793D01*
G36*
X144646650Y-75804463D02*
G01*
X144646648Y-75840737D01*
X144646647Y-75873783D01*
X144646649Y-75903758D01*
X144646662Y-75930821D01*
X144646688Y-75955130D01*
X144646733Y-75976843D01*
X144646801Y-75996119D01*
X144646898Y-76013114D01*
X144647027Y-76027989D01*
X144647194Y-76040900D01*
X144647403Y-76052005D01*
X144647659Y-76061464D01*
X144647966Y-76069434D01*
X144648330Y-76076073D01*
X144648755Y-76081540D01*
X144649245Y-76085992D01*
X144649806Y-76089588D01*
X144650442Y-76092486D01*
X144651157Y-76094843D01*
X144651957Y-76096819D01*
X144652847Y-76098572D01*
X144653830Y-76100258D01*
X144654911Y-76102038D01*
X144655517Y-76103057D01*
X144657245Y-76105178D01*
X144661180Y-76109494D01*
X144667131Y-76115807D01*
X144674907Y-76123921D01*
X144684316Y-76133638D01*
X144695168Y-76144764D01*
X144707270Y-76157100D01*
X144720431Y-76170450D01*
X144734461Y-76184617D01*
X144749168Y-76199406D01*
X144752146Y-76202393D01*
X144845311Y-76295803D01*
X144838251Y-76312815D01*
X144834614Y-76322339D01*
X144830889Y-76333351D01*
X144827680Y-76344023D01*
X144826596Y-76348099D01*
X144824927Y-76355026D01*
X144823716Y-76361029D01*
X144822891Y-76366891D01*
X144822381Y-76373395D01*
X144822112Y-76381322D01*
X144822012Y-76391455D01*
X144822002Y-76397697D01*
X144822044Y-76409252D01*
X144822219Y-76418203D01*
X144822598Y-76425333D01*
X144823254Y-76431423D01*
X144824259Y-76437255D01*
X144825687Y-76443613D01*
X144826590Y-76447267D01*
X144834643Y-76473415D01*
X144845173Y-76497392D01*
X144858360Y-76519513D01*
X144874384Y-76540098D01*
X144886635Y-76553029D01*
X144906697Y-76570409D01*
X144928504Y-76585009D01*
X144951773Y-76596760D01*
X144976220Y-76605594D01*
X145001563Y-76611442D01*
X145027517Y-76614236D01*
X145053801Y-76613908D01*
X145080129Y-76610389D01*
X145101811Y-76604996D01*
X145126266Y-76595848D01*
X145149326Y-76583757D01*
X145170751Y-76568963D01*
X145190298Y-76551707D01*
X145207725Y-76532231D01*
X145222791Y-76510775D01*
X145235254Y-76487581D01*
X145244873Y-76462890D01*
X145245114Y-76462132D01*
X145250906Y-76438624D01*
X145253991Y-76413853D01*
X145254369Y-76388588D01*
X145252041Y-76363601D01*
X145247006Y-76339662D01*
X145245114Y-76333261D01*
X145235584Y-76308529D01*
X145223203Y-76285287D01*
X145208211Y-76263776D01*
X145190851Y-76244237D01*
X145171364Y-76226912D01*
X145149992Y-76212040D01*
X145126976Y-76199865D01*
X145102560Y-76190625D01*
X145101811Y-76190397D01*
X145075422Y-76184147D01*
X145048637Y-76181196D01*
X145021750Y-76181531D01*
X144995054Y-76185133D01*
X144968844Y-76191989D01*
X144951805Y-76198351D01*
X144942848Y-76202117D01*
X144862482Y-76121660D01*
X144782117Y-76041203D01*
X144782117Y-75538859D01*
X144791007Y-75540019D01*
X144798460Y-75541159D01*
X144808437Y-75542923D01*
X144820167Y-75545153D01*
X144832878Y-75547692D01*
X144845797Y-75550383D01*
X144858155Y-75553067D01*
X144869180Y-75555587D01*
X144878099Y-75557786D01*
X144878637Y-75557927D01*
X144931251Y-75573497D01*
X144982267Y-75592050D01*
X145031655Y-75613570D01*
X145079387Y-75638040D01*
X145125433Y-75665445D01*
X145169766Y-75695767D01*
X145212357Y-75728990D01*
X145253177Y-75765098D01*
X145273290Y-75784603D01*
X145310704Y-75824363D01*
X145345320Y-75865983D01*
X145377090Y-75909369D01*
X145405966Y-75954426D01*
X145431901Y-76001059D01*
X145454847Y-76049174D01*
X145474756Y-76098676D01*
X145491582Y-76149471D01*
X145505276Y-76201464D01*
X145515790Y-76254559D01*
X145518566Y-76272390D01*
X145520641Y-76287157D01*
X145522321Y-76300417D01*
X145523645Y-76312807D01*
X145524653Y-76324962D01*
X145525384Y-76337520D01*
X145525878Y-76351118D01*
X145526175Y-76366391D01*
X145526313Y-76383977D01*
X145526337Y-76397697D01*
X145526284Y-76417235D01*
X145526100Y-76434025D01*
X145525746Y-76448702D01*
X145525182Y-76461904D01*
X145524368Y-76474267D01*
X145523265Y-76486428D01*
X145521833Y-76499022D01*
X145520033Y-76512688D01*
X145518566Y-76523003D01*
X145509112Y-76576459D01*
X145496445Y-76628863D01*
X145480588Y-76680158D01*
X145461566Y-76730285D01*
X145439403Y-76779186D01*
X145414123Y-76826803D01*
X145385750Y-76873077D01*
X145354646Y-76917499D01*
X145327687Y-76951558D01*
X145298007Y-76985226D01*
X145266259Y-77017850D01*
X145233098Y-77048775D01*
X145199178Y-77077346D01*
X145179999Y-77092146D01*
X145135396Y-77123343D01*
X145089304Y-77151556D01*
X145041842Y-77176742D01*
X144993132Y-77198858D01*
X144943292Y-77217860D01*
X144892445Y-77233706D01*
X144840709Y-77246353D01*
X144788205Y-77255757D01*
X144735054Y-77261875D01*
X144700413Y-77264061D01*
X144673743Y-77265203D01*
X144673743Y-76990930D01*
X144673745Y-76954656D01*
X144673746Y-76921610D01*
X144673744Y-76891635D01*
X144673731Y-76864572D01*
X144673705Y-76840263D01*
X144673660Y-76818550D01*
X144673592Y-76799274D01*
X144673495Y-76782279D01*
X144673366Y-76767404D01*
X144673199Y-76754493D01*
X144672990Y-76743388D01*
X144672734Y-76733929D01*
X144672427Y-76725959D01*
X144672063Y-76719320D01*
X144671638Y-76713853D01*
X144671148Y-76709401D01*
X144670587Y-76705805D01*
X144669951Y-76702907D01*
X144669236Y-76700550D01*
X144668436Y-76698574D01*
X144667546Y-76696821D01*
X144666563Y-76695135D01*
X144665482Y-76693355D01*
X144664876Y-76692337D01*
X144663153Y-76690223D01*
X144659221Y-76685913D01*
X144653269Y-76679602D01*
X144645487Y-76671484D01*
X144636064Y-76661755D01*
X144625191Y-76650608D01*
X144613056Y-76638239D01*
X144599850Y-76624842D01*
X144585761Y-76610613D01*
X144570979Y-76595746D01*
X144566644Y-76591397D01*
X144471876Y-76496385D01*
X144478101Y-76480824D01*
X144481534Y-76471622D01*
X144485096Y-76461064D01*
X144488142Y-76451089D01*
X144488768Y-76448837D01*
X144490292Y-76442971D01*
X144491422Y-76437801D01*
X144492217Y-76432656D01*
X144492735Y-76426867D01*
X144493034Y-76419764D01*
X144493173Y-76410675D01*
X144493208Y-76398932D01*
X144493209Y-76397697D01*
X144493180Y-76385679D01*
X144493053Y-76376377D01*
X144492772Y-76369121D01*
X144492277Y-76363239D01*
X144491509Y-76358062D01*
X144490412Y-76352918D01*
X144488926Y-76347138D01*
X144488756Y-76346508D01*
X144481358Y-76323024D01*
X144472381Y-76301918D01*
X144461429Y-76282394D01*
X144448103Y-76263657D01*
X144446345Y-76261447D01*
X144428256Y-76241604D01*
X144408101Y-76224352D01*
X144386126Y-76209810D01*
X144362577Y-76198093D01*
X144337699Y-76189320D01*
X144311740Y-76183608D01*
X144284945Y-76181074D01*
X144277503Y-76180950D01*
X144250881Y-76182567D01*
X144225222Y-76187291D01*
X144200717Y-76194932D01*
X144177556Y-76205300D01*
X144155928Y-76218206D01*
X144136024Y-76233460D01*
X144118033Y-76250871D01*
X144102146Y-76270250D01*
X144088552Y-76291406D01*
X144077440Y-76314150D01*
X144069002Y-76338293D01*
X144063426Y-76363643D01*
X144060904Y-76390011D01*
X144060770Y-76397697D01*
X144062423Y-76424759D01*
X144067342Y-76451020D01*
X144075469Y-76476318D01*
X144086745Y-76500492D01*
X144101110Y-76523380D01*
X144111813Y-76537179D01*
X144130432Y-76556822D01*
X144151008Y-76573770D01*
X144173318Y-76587919D01*
X144197137Y-76599164D01*
X144222241Y-76607401D01*
X144248406Y-76612526D01*
X144275409Y-76614433D01*
X144277580Y-76614443D01*
X144300396Y-76613400D01*
X144321979Y-76610127D01*
X144343430Y-76604405D01*
X144361077Y-76597983D01*
X144376071Y-76591951D01*
X144457174Y-76673041D01*
X144538277Y-76754130D01*
X144538277Y-77256534D01*
X144529387Y-77255374D01*
X144521933Y-77254234D01*
X144511956Y-77252470D01*
X144500226Y-77250240D01*
X144487515Y-77247701D01*
X144474596Y-77245010D01*
X144462238Y-77242326D01*
X144451213Y-77239806D01*
X144442294Y-77237607D01*
X144441757Y-77237466D01*
X144389142Y-77221896D01*
X144338126Y-77203343D01*
X144288738Y-77181823D01*
X144241006Y-77157353D01*
X144194960Y-77129948D01*
X144150627Y-77099626D01*
X144108036Y-77066403D01*
X144067216Y-77030295D01*
X144047103Y-77010790D01*
X144009689Y-76971030D01*
X143975073Y-76929410D01*
X143943303Y-76886024D01*
X143914427Y-76840967D01*
X143888492Y-76794334D01*
X143865546Y-76746219D01*
X143845637Y-76696717D01*
X143828811Y-76645922D01*
X143815117Y-76593929D01*
X143804603Y-76540834D01*
X143801827Y-76523003D01*
X143799752Y-76508236D01*
X143798072Y-76494976D01*
X143796748Y-76482586D01*
X143795740Y-76470431D01*
X143795009Y-76457873D01*
X143794515Y-76444275D01*
X143794218Y-76429002D01*
X143794080Y-76411416D01*
X143794057Y-76397697D01*
X143794109Y-76378158D01*
X143794293Y-76361368D01*
X143794647Y-76346691D01*
X143795211Y-76333489D01*
X143796025Y-76321126D01*
X143797128Y-76308965D01*
X143798560Y-76296371D01*
X143800360Y-76282705D01*
X143801827Y-76272390D01*
X143811281Y-76218934D01*
X143823948Y-76166530D01*
X143839805Y-76115235D01*
X143858827Y-76065108D01*
X143880990Y-76016207D01*
X143906270Y-75968590D01*
X143934643Y-75922316D01*
X143965747Y-75877894D01*
X143992706Y-75843835D01*
X144022386Y-75810167D01*
X144054134Y-75777543D01*
X144087295Y-75746618D01*
X144121215Y-75718047D01*
X144140394Y-75703247D01*
X144184997Y-75672050D01*
X144231089Y-75643837D01*
X144278551Y-75618651D01*
X144327261Y-75596535D01*
X144377101Y-75577533D01*
X144427948Y-75561687D01*
X144479684Y-75549040D01*
X144532188Y-75539636D01*
X144585339Y-75533518D01*
X144619980Y-75531332D01*
X144646650Y-75530190D01*
X144646650Y-75804463D01*
G37*
X144646650Y-75804463D02*
X144646648Y-75840737D01*
X144646647Y-75873783D01*
X144646649Y-75903758D01*
X144646662Y-75930821D01*
X144646688Y-75955130D01*
X144646733Y-75976843D01*
X144646801Y-75996119D01*
X144646898Y-76013114D01*
X144647027Y-76027989D01*
X144647194Y-76040900D01*
X144647403Y-76052005D01*
X144647659Y-76061464D01*
X144647966Y-76069434D01*
X144648330Y-76076073D01*
X144648755Y-76081540D01*
X144649245Y-76085992D01*
X144649806Y-76089588D01*
X144650442Y-76092486D01*
X144651157Y-76094843D01*
X144651957Y-76096819D01*
X144652847Y-76098572D01*
X144653830Y-76100258D01*
X144654911Y-76102038D01*
X144655517Y-76103057D01*
X144657245Y-76105178D01*
X144661180Y-76109494D01*
X144667131Y-76115807D01*
X144674907Y-76123921D01*
X144684316Y-76133638D01*
X144695168Y-76144764D01*
X144707270Y-76157100D01*
X144720431Y-76170450D01*
X144734461Y-76184617D01*
X144749168Y-76199406D01*
X144752146Y-76202393D01*
X144845311Y-76295803D01*
X144838251Y-76312815D01*
X144834614Y-76322339D01*
X144830889Y-76333351D01*
X144827680Y-76344023D01*
X144826596Y-76348099D01*
X144824927Y-76355026D01*
X144823716Y-76361029D01*
X144822891Y-76366891D01*
X144822381Y-76373395D01*
X144822112Y-76381322D01*
X144822012Y-76391455D01*
X144822002Y-76397697D01*
X144822044Y-76409252D01*
X144822219Y-76418203D01*
X144822598Y-76425333D01*
X144823254Y-76431423D01*
X144824259Y-76437255D01*
X144825687Y-76443613D01*
X144826590Y-76447267D01*
X144834643Y-76473415D01*
X144845173Y-76497392D01*
X144858360Y-76519513D01*
X144874384Y-76540098D01*
X144886635Y-76553029D01*
X144906697Y-76570409D01*
X144928504Y-76585009D01*
X144951773Y-76596760D01*
X144976220Y-76605594D01*
X145001563Y-76611442D01*
X145027517Y-76614236D01*
X145053801Y-76613908D01*
X145080129Y-76610389D01*
X145101811Y-76604996D01*
X145126266Y-76595848D01*
X145149326Y-76583757D01*
X145170751Y-76568963D01*
X145190298Y-76551707D01*
X145207725Y-76532231D01*
X145222791Y-76510775D01*
X145235254Y-76487581D01*
X145244873Y-76462890D01*
X145245114Y-76462132D01*
X145250906Y-76438624D01*
X145253991Y-76413853D01*
X145254369Y-76388588D01*
X145252041Y-76363601D01*
X145247006Y-76339662D01*
X145245114Y-76333261D01*
X145235584Y-76308529D01*
X145223203Y-76285287D01*
X145208211Y-76263776D01*
X145190851Y-76244237D01*
X145171364Y-76226912D01*
X145149992Y-76212040D01*
X145126976Y-76199865D01*
X145102560Y-76190625D01*
X145101811Y-76190397D01*
X145075422Y-76184147D01*
X145048637Y-76181196D01*
X145021750Y-76181531D01*
X144995054Y-76185133D01*
X144968844Y-76191989D01*
X144951805Y-76198351D01*
X144942848Y-76202117D01*
X144862482Y-76121660D01*
X144782117Y-76041203D01*
X144782117Y-75538859D01*
X144791007Y-75540019D01*
X144798460Y-75541159D01*
X144808437Y-75542923D01*
X144820167Y-75545153D01*
X144832878Y-75547692D01*
X144845797Y-75550383D01*
X144858155Y-75553067D01*
X144869180Y-75555587D01*
X144878099Y-75557786D01*
X144878637Y-75557927D01*
X144931251Y-75573497D01*
X144982267Y-75592050D01*
X145031655Y-75613570D01*
X145079387Y-75638040D01*
X145125433Y-75665445D01*
X145169766Y-75695767D01*
X145212357Y-75728990D01*
X145253177Y-75765098D01*
X145273290Y-75784603D01*
X145310704Y-75824363D01*
X145345320Y-75865983D01*
X145377090Y-75909369D01*
X145405966Y-75954426D01*
X145431901Y-76001059D01*
X145454847Y-76049174D01*
X145474756Y-76098676D01*
X145491582Y-76149471D01*
X145505276Y-76201464D01*
X145515790Y-76254559D01*
X145518566Y-76272390D01*
X145520641Y-76287157D01*
X145522321Y-76300417D01*
X145523645Y-76312807D01*
X145524653Y-76324962D01*
X145525384Y-76337520D01*
X145525878Y-76351118D01*
X145526175Y-76366391D01*
X145526313Y-76383977D01*
X145526337Y-76397697D01*
X145526284Y-76417235D01*
X145526100Y-76434025D01*
X145525746Y-76448702D01*
X145525182Y-76461904D01*
X145524368Y-76474267D01*
X145523265Y-76486428D01*
X145521833Y-76499022D01*
X145520033Y-76512688D01*
X145518566Y-76523003D01*
X145509112Y-76576459D01*
X145496445Y-76628863D01*
X145480588Y-76680158D01*
X145461566Y-76730285D01*
X145439403Y-76779186D01*
X145414123Y-76826803D01*
X145385750Y-76873077D01*
X145354646Y-76917499D01*
X145327687Y-76951558D01*
X145298007Y-76985226D01*
X145266259Y-77017850D01*
X145233098Y-77048775D01*
X145199178Y-77077346D01*
X145179999Y-77092146D01*
X145135396Y-77123343D01*
X145089304Y-77151556D01*
X145041842Y-77176742D01*
X144993132Y-77198858D01*
X144943292Y-77217860D01*
X144892445Y-77233706D01*
X144840709Y-77246353D01*
X144788205Y-77255757D01*
X144735054Y-77261875D01*
X144700413Y-77264061D01*
X144673743Y-77265203D01*
X144673743Y-76990930D01*
X144673745Y-76954656D01*
X144673746Y-76921610D01*
X144673744Y-76891635D01*
X144673731Y-76864572D01*
X144673705Y-76840263D01*
X144673660Y-76818550D01*
X144673592Y-76799274D01*
X144673495Y-76782279D01*
X144673366Y-76767404D01*
X144673199Y-76754493D01*
X144672990Y-76743388D01*
X144672734Y-76733929D01*
X144672427Y-76725959D01*
X144672063Y-76719320D01*
X144671638Y-76713853D01*
X144671148Y-76709401D01*
X144670587Y-76705805D01*
X144669951Y-76702907D01*
X144669236Y-76700550D01*
X144668436Y-76698574D01*
X144667546Y-76696821D01*
X144666563Y-76695135D01*
X144665482Y-76693355D01*
X144664876Y-76692337D01*
X144663153Y-76690223D01*
X144659221Y-76685913D01*
X144653269Y-76679602D01*
X144645487Y-76671484D01*
X144636064Y-76661755D01*
X144625191Y-76650608D01*
X144613056Y-76638239D01*
X144599850Y-76624842D01*
X144585761Y-76610613D01*
X144570979Y-76595746D01*
X144566644Y-76591397D01*
X144471876Y-76496385D01*
X144478101Y-76480824D01*
X144481534Y-76471622D01*
X144485096Y-76461064D01*
X144488142Y-76451089D01*
X144488768Y-76448837D01*
X144490292Y-76442971D01*
X144491422Y-76437801D01*
X144492217Y-76432656D01*
X144492735Y-76426867D01*
X144493034Y-76419764D01*
X144493173Y-76410675D01*
X144493208Y-76398932D01*
X144493209Y-76397697D01*
X144493180Y-76385679D01*
X144493053Y-76376377D01*
X144492772Y-76369121D01*
X144492277Y-76363239D01*
X144491509Y-76358062D01*
X144490412Y-76352918D01*
X144488926Y-76347138D01*
X144488756Y-76346508D01*
X144481358Y-76323024D01*
X144472381Y-76301918D01*
X144461429Y-76282394D01*
X144448103Y-76263657D01*
X144446345Y-76261447D01*
X144428256Y-76241604D01*
X144408101Y-76224352D01*
X144386126Y-76209810D01*
X144362577Y-76198093D01*
X144337699Y-76189320D01*
X144311740Y-76183608D01*
X144284945Y-76181074D01*
X144277503Y-76180950D01*
X144250881Y-76182567D01*
X144225222Y-76187291D01*
X144200717Y-76194932D01*
X144177556Y-76205300D01*
X144155928Y-76218206D01*
X144136024Y-76233460D01*
X144118033Y-76250871D01*
X144102146Y-76270250D01*
X144088552Y-76291406D01*
X144077440Y-76314150D01*
X144069002Y-76338293D01*
X144063426Y-76363643D01*
X144060904Y-76390011D01*
X144060770Y-76397697D01*
X144062423Y-76424759D01*
X144067342Y-76451020D01*
X144075469Y-76476318D01*
X144086745Y-76500492D01*
X144101110Y-76523380D01*
X144111813Y-76537179D01*
X144130432Y-76556822D01*
X144151008Y-76573770D01*
X144173318Y-76587919D01*
X144197137Y-76599164D01*
X144222241Y-76607401D01*
X144248406Y-76612526D01*
X144275409Y-76614433D01*
X144277580Y-76614443D01*
X144300396Y-76613400D01*
X144321979Y-76610127D01*
X144343430Y-76604405D01*
X144361077Y-76597983D01*
X144376071Y-76591951D01*
X144457174Y-76673041D01*
X144538277Y-76754130D01*
X144538277Y-77256534D01*
X144529387Y-77255374D01*
X144521933Y-77254234D01*
X144511956Y-77252470D01*
X144500226Y-77250240D01*
X144487515Y-77247701D01*
X144474596Y-77245010D01*
X144462238Y-77242326D01*
X144451213Y-77239806D01*
X144442294Y-77237607D01*
X144441757Y-77237466D01*
X144389142Y-77221896D01*
X144338126Y-77203343D01*
X144288738Y-77181823D01*
X144241006Y-77157353D01*
X144194960Y-77129948D01*
X144150627Y-77099626D01*
X144108036Y-77066403D01*
X144067216Y-77030295D01*
X144047103Y-77010790D01*
X144009689Y-76971030D01*
X143975073Y-76929410D01*
X143943303Y-76886024D01*
X143914427Y-76840967D01*
X143888492Y-76794334D01*
X143865546Y-76746219D01*
X143845637Y-76696717D01*
X143828811Y-76645922D01*
X143815117Y-76593929D01*
X143804603Y-76540834D01*
X143801827Y-76523003D01*
X143799752Y-76508236D01*
X143798072Y-76494976D01*
X143796748Y-76482586D01*
X143795740Y-76470431D01*
X143795009Y-76457873D01*
X143794515Y-76444275D01*
X143794218Y-76429002D01*
X143794080Y-76411416D01*
X143794057Y-76397697D01*
X143794109Y-76378158D01*
X143794293Y-76361368D01*
X143794647Y-76346691D01*
X143795211Y-76333489D01*
X143796025Y-76321126D01*
X143797128Y-76308965D01*
X143798560Y-76296371D01*
X143800360Y-76282705D01*
X143801827Y-76272390D01*
X143811281Y-76218934D01*
X143823948Y-76166530D01*
X143839805Y-76115235D01*
X143858827Y-76065108D01*
X143880990Y-76016207D01*
X143906270Y-75968590D01*
X143934643Y-75922316D01*
X143965747Y-75877894D01*
X143992706Y-75843835D01*
X144022386Y-75810167D01*
X144054134Y-75777543D01*
X144087295Y-75746618D01*
X144121215Y-75718047D01*
X144140394Y-75703247D01*
X144184997Y-75672050D01*
X144231089Y-75643837D01*
X144278551Y-75618651D01*
X144327261Y-75596535D01*
X144377101Y-75577533D01*
X144427948Y-75561687D01*
X144479684Y-75549040D01*
X144532188Y-75539636D01*
X144585339Y-75533518D01*
X144619980Y-75531332D01*
X144646650Y-75530190D01*
X144646650Y-75804463D01*
G36*
X145343807Y-74760251D02*
G01*
X145430798Y-74765243D01*
X145517160Y-74773541D01*
X145602828Y-74785124D01*
X145687739Y-74799974D01*
X145771828Y-74818070D01*
X145855034Y-74839395D01*
X145937291Y-74863928D01*
X146018535Y-74891650D01*
X146098704Y-74922543D01*
X146177733Y-74956586D01*
X146255559Y-74993761D01*
X146332117Y-75034048D01*
X146407344Y-75077428D01*
X146481177Y-75123881D01*
X146494923Y-75132974D01*
X146566778Y-75182892D01*
X146636366Y-75235321D01*
X146703657Y-75290225D01*
X146768618Y-75347572D01*
X146831218Y-75407327D01*
X146891426Y-75469455D01*
X146949210Y-75533923D01*
X147004539Y-75600695D01*
X147057380Y-75669738D01*
X147107703Y-75741018D01*
X147155476Y-75814500D01*
X147200667Y-75890149D01*
X147213794Y-75913403D01*
X147253386Y-75987937D01*
X147290042Y-76064080D01*
X147323734Y-76141707D01*
X147354434Y-76220690D01*
X147382114Y-76300905D01*
X147406747Y-76382226D01*
X147428306Y-76464525D01*
X147446761Y-76547678D01*
X147462085Y-76631557D01*
X147474251Y-76716038D01*
X147483231Y-76800994D01*
X147488996Y-76886299D01*
X147491519Y-76971828D01*
X147490773Y-77057453D01*
X147486729Y-77143049D01*
X147486346Y-77148690D01*
X147478641Y-77235748D01*
X147467642Y-77322057D01*
X147453369Y-77407557D01*
X147435843Y-77492188D01*
X147415085Y-77575891D01*
X147391114Y-77658604D01*
X147363952Y-77740270D01*
X147333618Y-77820828D01*
X147300133Y-77900217D01*
X147263517Y-77978379D01*
X147223791Y-78055254D01*
X147180974Y-78130781D01*
X147135088Y-78204901D01*
X147117026Y-78232423D01*
X147067039Y-78304392D01*
X147014592Y-78374035D01*
X146959701Y-78441335D01*
X146902382Y-78506276D01*
X146842653Y-78568842D01*
X146780528Y-78629016D01*
X146716025Y-78686782D01*
X146649160Y-78742123D01*
X146579949Y-78795023D01*
X146508409Y-78845467D01*
X146494923Y-78854526D01*
X146421348Y-78901562D01*
X146346344Y-78945536D01*
X146269969Y-78986428D01*
X146192285Y-79024217D01*
X146113350Y-79058883D01*
X146033225Y-79090405D01*
X145951970Y-79118764D01*
X145869643Y-79143938D01*
X145786306Y-79165908D01*
X145702017Y-79184653D01*
X145616838Y-79200152D01*
X145530826Y-79212386D01*
X145444043Y-79221334D01*
X145411190Y-79223846D01*
X145383751Y-79225488D01*
X145353880Y-79226811D01*
X145322363Y-79227806D01*
X145289987Y-79228462D01*
X145257538Y-79228770D01*
X145225803Y-79228719D01*
X145195568Y-79228299D01*
X145167620Y-79227500D01*
X145158037Y-79227107D01*
X145070632Y-79221521D01*
X144983886Y-79212632D01*
X144897859Y-79200458D01*
X144812611Y-79185013D01*
X144728201Y-79166314D01*
X144644688Y-79144374D01*
X144562133Y-79119212D01*
X144480595Y-79090840D01*
X144400133Y-79059277D01*
X144320809Y-79024536D01*
X144249563Y-78990124D01*
X144172904Y-78949523D01*
X144098025Y-78906061D01*
X144024998Y-78859802D01*
X143953894Y-78810809D01*
X143884785Y-78759147D01*
X143817744Y-78704879D01*
X143752841Y-78648068D01*
X143690148Y-78588778D01*
X143629737Y-78527072D01*
X143571679Y-78463015D01*
X143516047Y-78396669D01*
X143462912Y-78328099D01*
X143412345Y-78257367D01*
X143395474Y-78232423D01*
X143348439Y-78158854D01*
X143304476Y-78083880D01*
X143263602Y-78007565D01*
X143225838Y-77929973D01*
X143191203Y-77851166D01*
X143159716Y-77771207D01*
X143131395Y-77690162D01*
X143106261Y-77608092D01*
X143084332Y-77525061D01*
X143065627Y-77441134D01*
X143050166Y-77356372D01*
X143037967Y-77270840D01*
X143029051Y-77184601D01*
X143023436Y-77097719D01*
X143021141Y-77010256D01*
X143021082Y-76993750D01*
X143021237Y-76985598D01*
X143157168Y-76985598D01*
X143157435Y-77016123D01*
X143158035Y-77047065D01*
X143158959Y-77077832D01*
X143160198Y-77107835D01*
X143161742Y-77136484D01*
X143163583Y-77163188D01*
X143164260Y-77171550D01*
X143172994Y-77255143D01*
X143185004Y-77337980D01*
X143200248Y-77419979D01*
X143218684Y-77501060D01*
X143240271Y-77581142D01*
X143264965Y-77660144D01*
X143292725Y-77737985D01*
X143323509Y-77814585D01*
X143357274Y-77889862D01*
X143393978Y-77963736D01*
X143433579Y-78036126D01*
X143476036Y-78106951D01*
X143521305Y-78176130D01*
X143569345Y-78243583D01*
X143620114Y-78309229D01*
X143673569Y-78372987D01*
X143729669Y-78434775D01*
X143788370Y-78494514D01*
X143849632Y-78552122D01*
X143912590Y-78606833D01*
X143977833Y-78659138D01*
X144045043Y-78708719D01*
X144114115Y-78755527D01*
X144184944Y-78799512D01*
X144257425Y-78840625D01*
X144331454Y-78878818D01*
X144406926Y-78914041D01*
X144483735Y-78946246D01*
X144561777Y-78975383D01*
X144640947Y-79001403D01*
X144721141Y-79024257D01*
X144802253Y-79043896D01*
X144880102Y-79059537D01*
X144931486Y-79068189D01*
X144982873Y-79075507D01*
X145034931Y-79081563D01*
X145088331Y-79086427D01*
X145143742Y-79090170D01*
X145191903Y-79092483D01*
X145199542Y-79092678D01*
X145210062Y-79092787D01*
X145222961Y-79092818D01*
X145237734Y-79092775D01*
X145253877Y-79092667D01*
X145270888Y-79092499D01*
X145288262Y-79092279D01*
X145305495Y-79092012D01*
X145322084Y-79091705D01*
X145337525Y-79091366D01*
X145351315Y-79091000D01*
X145362949Y-79090614D01*
X145371925Y-79090215D01*
X145373937Y-79090099D01*
X145446978Y-79084525D01*
X145517814Y-79076932D01*
X145587026Y-79067219D01*
X145655198Y-79055291D01*
X145722911Y-79041048D01*
X145790749Y-79024391D01*
X145834674Y-79012369D01*
X145912373Y-78988543D01*
X145989486Y-78961456D01*
X146065791Y-78931214D01*
X146141061Y-78897922D01*
X146215073Y-78861687D01*
X146287603Y-78822614D01*
X146358424Y-78780811D01*
X146427314Y-78736382D01*
X146445817Y-78723769D01*
X146514259Y-78674518D01*
X146580506Y-78622731D01*
X146644496Y-78568488D01*
X146706164Y-78511865D01*
X146765450Y-78452942D01*
X146822290Y-78391796D01*
X146876622Y-78328506D01*
X146928383Y-78263150D01*
X146977510Y-78195806D01*
X147023940Y-78126552D01*
X147067612Y-78055467D01*
X147108462Y-77982629D01*
X147146428Y-77908116D01*
X147181447Y-77832006D01*
X147204987Y-77775800D01*
X147232612Y-77703365D01*
X147257317Y-77630760D01*
X147279165Y-77557705D01*
X147298217Y-77483923D01*
X147314535Y-77409134D01*
X147328179Y-77333061D01*
X147339213Y-77255424D01*
X147347697Y-77175946D01*
X147352868Y-77108050D01*
X147354022Y-77085135D01*
X147354808Y-77059446D01*
X147355234Y-77031572D01*
X147355312Y-77002105D01*
X147355049Y-76971634D01*
X147354456Y-76940752D01*
X147353541Y-76910047D01*
X147352315Y-76880112D01*
X147350785Y-76851536D01*
X147348963Y-76824911D01*
X147348240Y-76815950D01*
X147339474Y-76732036D01*
X147327405Y-76648827D01*
X147312057Y-76566392D01*
X147293454Y-76484800D01*
X147271617Y-76404119D01*
X147246572Y-76324417D01*
X147218342Y-76245765D01*
X147186949Y-76168229D01*
X147152419Y-76091879D01*
X147114773Y-76016784D01*
X147074035Y-75943012D01*
X147030230Y-75870631D01*
X147018697Y-75852599D01*
X146973597Y-75785868D01*
X146925499Y-75720472D01*
X146874603Y-75656631D01*
X146821108Y-75594565D01*
X146765214Y-75534492D01*
X146707121Y-75476633D01*
X146647028Y-75421207D01*
X146585135Y-75368433D01*
X146559270Y-75347601D01*
X146492061Y-75296520D01*
X146423129Y-75248331D01*
X146352553Y-75203067D01*
X146280414Y-75160760D01*
X146206793Y-75121441D01*
X146131770Y-75085143D01*
X146055425Y-75051897D01*
X145977839Y-75021735D01*
X145899093Y-74994689D01*
X145819265Y-74970791D01*
X145738438Y-74950073D01*
X145656692Y-74932566D01*
X145574106Y-74918303D01*
X145490761Y-74907315D01*
X145434050Y-74901760D01*
X145412847Y-74900042D01*
X145393276Y-74898624D01*
X145374683Y-74897481D01*
X145356412Y-74896587D01*
X145337810Y-74895918D01*
X145318222Y-74895449D01*
X145296992Y-74895155D01*
X145273467Y-74895010D01*
X145256250Y-74894985D01*
X145222751Y-74895133D01*
X145191890Y-74895603D01*
X145162932Y-74896435D01*
X145135141Y-74897667D01*
X145107781Y-74899339D01*
X145080115Y-74901491D01*
X145051408Y-74904161D01*
X145020923Y-74907388D01*
X145018337Y-74907677D01*
X144935775Y-74918615D01*
X144854107Y-74932781D01*
X144773408Y-74950117D01*
X144693754Y-74970564D01*
X144615224Y-74994065D01*
X144537893Y-75020560D01*
X144461839Y-75049991D01*
X144387137Y-75082300D01*
X144313865Y-75117429D01*
X144242099Y-75155318D01*
X144171916Y-75195909D01*
X144103392Y-75239144D01*
X144036605Y-75284964D01*
X143971631Y-75333312D01*
X143908547Y-75384127D01*
X143847430Y-75437353D01*
X143788355Y-75492930D01*
X143731400Y-75550801D01*
X143676642Y-75610906D01*
X143624157Y-75673187D01*
X143574022Y-75737586D01*
X143526314Y-75804044D01*
X143481109Y-75872502D01*
X143438484Y-75942903D01*
X143398516Y-76015188D01*
X143361281Y-76089298D01*
X143326857Y-76165176D01*
X143307513Y-76211699D01*
X143280004Y-76283807D01*
X143255394Y-76356063D01*
X143233619Y-76428753D01*
X143214616Y-76502160D01*
X143198322Y-76576570D01*
X143184675Y-76652265D01*
X143173612Y-76729530D01*
X143165069Y-76808651D01*
X143159623Y-76879450D01*
X143158462Y-76902414D01*
X143157672Y-76928153D01*
X143157244Y-76956077D01*
X143157168Y-76985598D01*
X143021237Y-76985598D01*
X143022750Y-76906223D01*
X143027745Y-76819228D01*
X143036052Y-76732826D01*
X143047658Y-76647076D01*
X143062549Y-76562036D01*
X143080710Y-76477767D01*
X143102127Y-76394327D01*
X143126787Y-76311776D01*
X143154675Y-76230172D01*
X143185777Y-76149577D01*
X143220080Y-76070048D01*
X143257568Y-75991645D01*
X143259875Y-75987063D01*
X143300484Y-75910390D01*
X143343951Y-75835500D01*
X143390214Y-75762465D01*
X143439208Y-75691357D01*
X143490873Y-75622246D01*
X143545143Y-75555203D01*
X143601956Y-75490300D01*
X143661249Y-75427607D01*
X143722959Y-75367197D01*
X143787022Y-75309139D01*
X143853376Y-75253506D01*
X143921958Y-75200367D01*
X143992704Y-75149796D01*
X144017577Y-75132974D01*
X144091146Y-75085939D01*
X144166119Y-75041976D01*
X144242434Y-75001102D01*
X144320027Y-74963338D01*
X144398834Y-74928703D01*
X144478792Y-74897216D01*
X144559838Y-74868895D01*
X144641908Y-74843761D01*
X144724938Y-74821832D01*
X144808866Y-74803127D01*
X144893628Y-74787666D01*
X144979159Y-74775467D01*
X145065398Y-74766551D01*
X145152281Y-74760936D01*
X145239743Y-74758641D01*
X145256250Y-74758582D01*
X145343807Y-74760251D01*
G37*
X145343807Y-74760251D02*
X145430798Y-74765243D01*
X145517160Y-74773541D01*
X145602828Y-74785124D01*
X145687739Y-74799974D01*
X145771828Y-74818070D01*
X145855034Y-74839395D01*
X145937291Y-74863928D01*
X146018535Y-74891650D01*
X146098704Y-74922543D01*
X146177733Y-74956586D01*
X146255559Y-74993761D01*
X146332117Y-75034048D01*
X146407344Y-75077428D01*
X146481177Y-75123881D01*
X146494923Y-75132974D01*
X146566778Y-75182892D01*
X146636366Y-75235321D01*
X146703657Y-75290225D01*
X146768618Y-75347572D01*
X146831218Y-75407327D01*
X146891426Y-75469455D01*
X146949210Y-75533923D01*
X147004539Y-75600695D01*
X147057380Y-75669738D01*
X147107703Y-75741018D01*
X147155476Y-75814500D01*
X147200667Y-75890149D01*
X147213794Y-75913403D01*
X147253386Y-75987937D01*
X147290042Y-76064080D01*
X147323734Y-76141707D01*
X147354434Y-76220690D01*
X147382114Y-76300905D01*
X147406747Y-76382226D01*
X147428306Y-76464525D01*
X147446761Y-76547678D01*
X147462085Y-76631557D01*
X147474251Y-76716038D01*
X147483231Y-76800994D01*
X147488996Y-76886299D01*
X147491519Y-76971828D01*
X147490773Y-77057453D01*
X147486729Y-77143049D01*
X147486346Y-77148690D01*
X147478641Y-77235748D01*
X147467642Y-77322057D01*
X147453369Y-77407557D01*
X147435843Y-77492188D01*
X147415085Y-77575891D01*
X147391114Y-77658604D01*
X147363952Y-77740270D01*
X147333618Y-77820828D01*
X147300133Y-77900217D01*
X147263517Y-77978379D01*
X147223791Y-78055254D01*
X147180974Y-78130781D01*
X147135088Y-78204901D01*
X147117026Y-78232423D01*
X147067039Y-78304392D01*
X147014592Y-78374035D01*
X146959701Y-78441335D01*
X146902382Y-78506276D01*
X146842653Y-78568842D01*
X146780528Y-78629016D01*
X146716025Y-78686782D01*
X146649160Y-78742123D01*
X146579949Y-78795023D01*
X146508409Y-78845467D01*
X146494923Y-78854526D01*
X146421348Y-78901562D01*
X146346344Y-78945536D01*
X146269969Y-78986428D01*
X146192285Y-79024217D01*
X146113350Y-79058883D01*
X146033225Y-79090405D01*
X145951970Y-79118764D01*
X145869643Y-79143938D01*
X145786306Y-79165908D01*
X145702017Y-79184653D01*
X145616838Y-79200152D01*
X145530826Y-79212386D01*
X145444043Y-79221334D01*
X145411190Y-79223846D01*
X145383751Y-79225488D01*
X145353880Y-79226811D01*
X145322363Y-79227806D01*
X145289987Y-79228462D01*
X145257538Y-79228770D01*
X145225803Y-79228719D01*
X145195568Y-79228299D01*
X145167620Y-79227500D01*
X145158037Y-79227107D01*
X145070632Y-79221521D01*
X144983886Y-79212632D01*
X144897859Y-79200458D01*
X144812611Y-79185013D01*
X144728201Y-79166314D01*
X144644688Y-79144374D01*
X144562133Y-79119212D01*
X144480595Y-79090840D01*
X144400133Y-79059277D01*
X144320809Y-79024536D01*
X144249563Y-78990124D01*
X144172904Y-78949523D01*
X144098025Y-78906061D01*
X144024998Y-78859802D01*
X143953894Y-78810809D01*
X143884785Y-78759147D01*
X143817744Y-78704879D01*
X143752841Y-78648068D01*
X143690148Y-78588778D01*
X143629737Y-78527072D01*
X143571679Y-78463015D01*
X143516047Y-78396669D01*
X143462912Y-78328099D01*
X143412345Y-78257367D01*
X143395474Y-78232423D01*
X143348439Y-78158854D01*
X143304476Y-78083880D01*
X143263602Y-78007565D01*
X143225838Y-77929973D01*
X143191203Y-77851166D01*
X143159716Y-77771207D01*
X143131395Y-77690162D01*
X143106261Y-77608092D01*
X143084332Y-77525061D01*
X143065627Y-77441134D01*
X143050166Y-77356372D01*
X143037967Y-77270840D01*
X143029051Y-77184601D01*
X143023436Y-77097719D01*
X143021141Y-77010256D01*
X143021082Y-76993750D01*
X143021237Y-76985598D01*
X143157168Y-76985598D01*
X143157435Y-77016123D01*
X143158035Y-77047065D01*
X143158959Y-77077832D01*
X143160198Y-77107835D01*
X143161742Y-77136484D01*
X143163583Y-77163188D01*
X143164260Y-77171550D01*
X143172994Y-77255143D01*
X143185004Y-77337980D01*
X143200248Y-77419979D01*
X143218684Y-77501060D01*
X143240271Y-77581142D01*
X143264965Y-77660144D01*
X143292725Y-77737985D01*
X143323509Y-77814585D01*
X143357274Y-77889862D01*
X143393978Y-77963736D01*
X143433579Y-78036126D01*
X143476036Y-78106951D01*
X143521305Y-78176130D01*
X143569345Y-78243583D01*
X143620114Y-78309229D01*
X143673569Y-78372987D01*
X143729669Y-78434775D01*
X143788370Y-78494514D01*
X143849632Y-78552122D01*
X143912590Y-78606833D01*
X143977833Y-78659138D01*
X144045043Y-78708719D01*
X144114115Y-78755527D01*
X144184944Y-78799512D01*
X144257425Y-78840625D01*
X144331454Y-78878818D01*
X144406926Y-78914041D01*
X144483735Y-78946246D01*
X144561777Y-78975383D01*
X144640947Y-79001403D01*
X144721141Y-79024257D01*
X144802253Y-79043896D01*
X144880102Y-79059537D01*
X144931486Y-79068189D01*
X144982873Y-79075507D01*
X145034931Y-79081563D01*
X145088331Y-79086427D01*
X145143742Y-79090170D01*
X145191903Y-79092483D01*
X145199542Y-79092678D01*
X145210062Y-79092787D01*
X145222961Y-79092818D01*
X145237734Y-79092775D01*
X145253877Y-79092667D01*
X145270888Y-79092499D01*
X145288262Y-79092279D01*
X145305495Y-79092012D01*
X145322084Y-79091705D01*
X145337525Y-79091366D01*
X145351315Y-79091000D01*
X145362949Y-79090614D01*
X145371925Y-79090215D01*
X145373937Y-79090099D01*
X145446978Y-79084525D01*
X145517814Y-79076932D01*
X145587026Y-79067219D01*
X145655198Y-79055291D01*
X145722911Y-79041048D01*
X145790749Y-79024391D01*
X145834674Y-79012369D01*
X145912373Y-78988543D01*
X145989486Y-78961456D01*
X146065791Y-78931214D01*
X146141061Y-78897922D01*
X146215073Y-78861687D01*
X146287603Y-78822614D01*
X146358424Y-78780811D01*
X146427314Y-78736382D01*
X146445817Y-78723769D01*
X146514259Y-78674518D01*
X146580506Y-78622731D01*
X146644496Y-78568488D01*
X146706164Y-78511865D01*
X146765450Y-78452942D01*
X146822290Y-78391796D01*
X146876622Y-78328506D01*
X146928383Y-78263150D01*
X146977510Y-78195806D01*
X147023940Y-78126552D01*
X147067612Y-78055467D01*
X147108462Y-77982629D01*
X147146428Y-77908116D01*
X147181447Y-77832006D01*
X147204987Y-77775800D01*
X147232612Y-77703365D01*
X147257317Y-77630760D01*
X147279165Y-77557705D01*
X147298217Y-77483923D01*
X147314535Y-77409134D01*
X147328179Y-77333061D01*
X147339213Y-77255424D01*
X147347697Y-77175946D01*
X147352868Y-77108050D01*
X147354022Y-77085135D01*
X147354808Y-77059446D01*
X147355234Y-77031572D01*
X147355312Y-77002105D01*
X147355049Y-76971634D01*
X147354456Y-76940752D01*
X147353541Y-76910047D01*
X147352315Y-76880112D01*
X147350785Y-76851536D01*
X147348963Y-76824911D01*
X147348240Y-76815950D01*
X147339474Y-76732036D01*
X147327405Y-76648827D01*
X147312057Y-76566392D01*
X147293454Y-76484800D01*
X147271617Y-76404119D01*
X147246572Y-76324417D01*
X147218342Y-76245765D01*
X147186949Y-76168229D01*
X147152419Y-76091879D01*
X147114773Y-76016784D01*
X147074035Y-75943012D01*
X147030230Y-75870631D01*
X147018697Y-75852599D01*
X146973597Y-75785868D01*
X146925499Y-75720472D01*
X146874603Y-75656631D01*
X146821108Y-75594565D01*
X146765214Y-75534492D01*
X146707121Y-75476633D01*
X146647028Y-75421207D01*
X146585135Y-75368433D01*
X146559270Y-75347601D01*
X146492061Y-75296520D01*
X146423129Y-75248331D01*
X146352553Y-75203067D01*
X146280414Y-75160760D01*
X146206793Y-75121441D01*
X146131770Y-75085143D01*
X146055425Y-75051897D01*
X145977839Y-75021735D01*
X145899093Y-74994689D01*
X145819265Y-74970791D01*
X145738438Y-74950073D01*
X145656692Y-74932566D01*
X145574106Y-74918303D01*
X145490761Y-74907315D01*
X145434050Y-74901760D01*
X145412847Y-74900042D01*
X145393276Y-74898624D01*
X145374683Y-74897481D01*
X145356412Y-74896587D01*
X145337810Y-74895918D01*
X145318222Y-74895449D01*
X145296992Y-74895155D01*
X145273467Y-74895010D01*
X145256250Y-74894985D01*
X145222751Y-74895133D01*
X145191890Y-74895603D01*
X145162932Y-74896435D01*
X145135141Y-74897667D01*
X145107781Y-74899339D01*
X145080115Y-74901491D01*
X145051408Y-74904161D01*
X145020923Y-74907388D01*
X145018337Y-74907677D01*
X144935775Y-74918615D01*
X144854107Y-74932781D01*
X144773408Y-74950117D01*
X144693754Y-74970564D01*
X144615224Y-74994065D01*
X144537893Y-75020560D01*
X144461839Y-75049991D01*
X144387137Y-75082300D01*
X144313865Y-75117429D01*
X144242099Y-75155318D01*
X144171916Y-75195909D01*
X144103392Y-75239144D01*
X144036605Y-75284964D01*
X143971631Y-75333312D01*
X143908547Y-75384127D01*
X143847430Y-75437353D01*
X143788355Y-75492930D01*
X143731400Y-75550801D01*
X143676642Y-75610906D01*
X143624157Y-75673187D01*
X143574022Y-75737586D01*
X143526314Y-75804044D01*
X143481109Y-75872502D01*
X143438484Y-75942903D01*
X143398516Y-76015188D01*
X143361281Y-76089298D01*
X143326857Y-76165176D01*
X143307513Y-76211699D01*
X143280004Y-76283807D01*
X143255394Y-76356063D01*
X143233619Y-76428753D01*
X143214616Y-76502160D01*
X143198322Y-76576570D01*
X143184675Y-76652265D01*
X143173612Y-76729530D01*
X143165069Y-76808651D01*
X143159623Y-76879450D01*
X143158462Y-76902414D01*
X143157672Y-76928153D01*
X143157244Y-76956077D01*
X143157168Y-76985598D01*
X143021237Y-76985598D01*
X143022750Y-76906223D01*
X143027745Y-76819228D01*
X143036052Y-76732826D01*
X143047658Y-76647076D01*
X143062549Y-76562036D01*
X143080710Y-76477767D01*
X143102127Y-76394327D01*
X143126787Y-76311776D01*
X143154675Y-76230172D01*
X143185777Y-76149577D01*
X143220080Y-76070048D01*
X143257568Y-75991645D01*
X143259875Y-75987063D01*
X143300484Y-75910390D01*
X143343951Y-75835500D01*
X143390214Y-75762465D01*
X143439208Y-75691357D01*
X143490873Y-75622246D01*
X143545143Y-75555203D01*
X143601956Y-75490300D01*
X143661249Y-75427607D01*
X143722959Y-75367197D01*
X143787022Y-75309139D01*
X143853376Y-75253506D01*
X143921958Y-75200367D01*
X143992704Y-75149796D01*
X144017577Y-75132974D01*
X144091146Y-75085939D01*
X144166119Y-75041976D01*
X144242434Y-75001102D01*
X144320027Y-74963338D01*
X144398834Y-74928703D01*
X144478792Y-74897216D01*
X144559838Y-74868895D01*
X144641908Y-74843761D01*
X144724938Y-74821832D01*
X144808866Y-74803127D01*
X144893628Y-74787666D01*
X144979159Y-74775467D01*
X145065398Y-74766551D01*
X145152281Y-74760936D01*
X145239743Y-74758641D01*
X145256250Y-74758582D01*
X145343807Y-74760251D01*
D12*
X124968154Y-73080505D02*
X124634821Y-72604315D01*
X124396726Y-73080505D02*
X124396726Y-72080505D01*
X124777678Y-72080505D01*
X124872916Y-72128125D01*
X124920535Y-72175744D01*
X124968154Y-72270982D01*
X124968154Y-72413839D01*
X124920535Y-72509077D01*
X124872916Y-72556696D01*
X124777678Y-72604315D01*
X124396726Y-72604315D01*
X125777678Y-73032886D02*
X125682440Y-73080505D01*
X125491964Y-73080505D01*
X125396726Y-73032886D01*
X125349107Y-72937648D01*
X125349107Y-72556696D01*
X125396726Y-72461458D01*
X125491964Y-72413839D01*
X125682440Y-72413839D01*
X125777678Y-72461458D01*
X125825297Y-72556696D01*
X125825297Y-72651934D01*
X125349107Y-72747172D01*
X126206250Y-73032886D02*
X126301488Y-73080505D01*
X126491964Y-73080505D01*
X126587202Y-73032886D01*
X126634821Y-72937648D01*
X126634821Y-72890029D01*
X126587202Y-72794791D01*
X126491964Y-72747172D01*
X126349107Y-72747172D01*
X126253869Y-72699553D01*
X126206250Y-72604315D01*
X126206250Y-72556696D01*
X126253869Y-72461458D01*
X126349107Y-72413839D01*
X126491964Y-72413839D01*
X126587202Y-72461458D01*
X127444345Y-73032886D02*
X127349107Y-73080505D01*
X127158630Y-73080505D01*
X127063392Y-73032886D01*
X127015773Y-72937648D01*
X127015773Y-72556696D01*
X127063392Y-72461458D01*
X127158630Y-72413839D01*
X127349107Y-72413839D01*
X127444345Y-72461458D01*
X127491964Y-72556696D01*
X127491964Y-72651934D01*
X127015773Y-72747172D01*
X127777678Y-72413839D02*
X128158630Y-72413839D01*
X127920535Y-72080505D02*
X127920535Y-72937648D01*
X127968154Y-73032886D01*
X128063392Y-73080505D01*
X128158630Y-73080505D01*
%LPC*%
D13*
X130129375Y-43214375D03*
X121489375Y-43214375D03*
D14*
X122919375Y-42684375D03*
D15*
X121489375Y-39034375D03*
D14*
X128699375Y-42684375D03*
D15*
X130129375Y-39034375D03*
D16*
X128056250Y-81284375D03*
X124356250Y-75084375D03*
X124356250Y-81284375D03*
X128056250Y-75084375D03*
D17*
X173831250Y-139223750D03*
X173831250Y-129063750D03*
D18*
X173831250Y-134143750D03*
D19*
X178911250Y-136683750D03*
X176371250Y-130333750D03*
D17*
X121126250Y-143668750D03*
X131286250Y-143668750D03*
D18*
X126206250Y-143668750D03*
D19*
X123666250Y-148748750D03*
X130016250Y-146208750D03*
D17*
X173831250Y-101123750D03*
X173831250Y-90963750D03*
D18*
X173831250Y-96043750D03*
D19*
X178911250Y-98583750D03*
X176371250Y-92233750D03*
D17*
X149701250Y-143668750D03*
X159861250Y-143668750D03*
D18*
X154781250Y-143668750D03*
D19*
X152241250Y-148748750D03*
X158591250Y-146208750D03*
D17*
X149701250Y-124618750D03*
X159861250Y-124618750D03*
D18*
X154781250Y-124618750D03*
D19*
X152241250Y-129698750D03*
X158591250Y-127158750D03*
D17*
X130651250Y-124618750D03*
X140811250Y-124618750D03*
D18*
X135731250Y-124618750D03*
D19*
X133191250Y-129698750D03*
X139541250Y-127158750D03*
D17*
X111601250Y-124618750D03*
X121761250Y-124618750D03*
D18*
X116681250Y-124618750D03*
D19*
X114141250Y-129698750D03*
X120491250Y-127158750D03*
D17*
X149701250Y-105568750D03*
X159861250Y-105568750D03*
D18*
X154781250Y-105568750D03*
D19*
X152241250Y-110648750D03*
X158591250Y-108108750D03*
D17*
X130651250Y-105568750D03*
X140811250Y-105568750D03*
D18*
X135731250Y-105568750D03*
D19*
X133191250Y-110648750D03*
X139541250Y-108108750D03*
D17*
X111601250Y-105568750D03*
X121761250Y-105568750D03*
D18*
X116681250Y-105568750D03*
D19*
X114141250Y-110648750D03*
X120491250Y-108108750D03*
D17*
X149701250Y-86518750D03*
X159861250Y-86518750D03*
D18*
X154781250Y-86518750D03*
D19*
X152241250Y-91598750D03*
X158591250Y-89058750D03*
D17*
X130651250Y-86518750D03*
X140811250Y-86518750D03*
D18*
X135731250Y-86518750D03*
D19*
X133191250Y-91598750D03*
X139541250Y-89058750D03*
D17*
X111601250Y-86518750D03*
X121761250Y-86518750D03*
D18*
X116681250Y-86518750D03*
D19*
X114141250Y-91598750D03*
X120491250Y-89058750D03*
D17*
X168751250Y-67468750D03*
X178911250Y-67468750D03*
D18*
X173831250Y-67468750D03*
D19*
X171291250Y-72548750D03*
X177641250Y-70008750D03*
D17*
X149701250Y-67468750D03*
X159861250Y-67468750D03*
D18*
X154781250Y-67468750D03*
D19*
X152241250Y-72548750D03*
X158591250Y-70008750D03*
D17*
X130651250Y-67468750D03*
X140811250Y-67468750D03*
D18*
X135731250Y-67468750D03*
D19*
X133191250Y-72548750D03*
X139541250Y-70008750D03*
D17*
X111601250Y-67468750D03*
X121761250Y-67468750D03*
D18*
X116681250Y-67468750D03*
D19*
X114141250Y-72548750D03*
X120491250Y-70008750D03*
D17*
X168751250Y-48418750D03*
X178911250Y-48418750D03*
D18*
X173831250Y-48418750D03*
D19*
X171291250Y-53498750D03*
X177641250Y-50958750D03*
D17*
X149701250Y-48418750D03*
X159861250Y-48418750D03*
D18*
X154781250Y-48418750D03*
D19*
X152241250Y-53498750D03*
X158591250Y-50958750D03*
D17*
X130651250Y-48418750D03*
X140811250Y-48418750D03*
D18*
X135731250Y-48418750D03*
D19*
X133191250Y-53498750D03*
X139541250Y-50958750D03*
D17*
X111601250Y-48418750D03*
X121761250Y-48418750D03*
D18*
X116681250Y-48418750D03*
D19*
X114141250Y-53498750D03*
X120491250Y-50958750D03*
D20*
X138144250Y-135413750D03*
X114268250Y-135413750D03*
D21*
X138144250Y-150653750D03*
X114268250Y-150653750D03*
D20*
X165576250Y-122205750D03*
X165576250Y-146081750D03*
D21*
X180816250Y-122205750D03*
X180816250Y-146081750D03*
D20*
X165576250Y-84105750D03*
X165576250Y-107981750D03*
D21*
X180816250Y-84105750D03*
X180816250Y-107981750D03*
D22*
X164306250Y-115093750D03*
X126206250Y-115093750D03*
X164306250Y-57943750D03*
X126206250Y-57943750D03*
M02*
