G04 #@! TF.GenerationSoftware,KiCad,Pcbnew,(5.1.10)-1*
G04 #@! TF.CreationDate,2021-06-25T21:48:55+02:00*
G04 #@! TF.ProjectId,tfk21-avr,74666b32-312d-4617-9672-2e6b69636164,A*
G04 #@! TF.SameCoordinates,Original*
G04 #@! TF.FileFunction,Paste,Bot*
G04 #@! TF.FilePolarity,Positive*
%FSLAX46Y46*%
G04 Gerber Fmt 4.6, Leading zero omitted, Abs format (unit mm)*
G04 Created by KiCad (PCBNEW (5.1.10)-1) date 2021-06-25 21:48:55*
%MOMM*%
%LPD*%
G01*
G04 APERTURE LIST*
%ADD10R,0.600000X1.450000*%
%ADD11R,0.300000X1.450000*%
%ADD12R,2.500000X2.550000*%
%ADD13R,2.550000X2.500000*%
%ADD14R,1.190000X0.900000*%
%ADD15R,0.900000X1.190000*%
%ADD16R,1.500000X1.000000*%
%ADD17R,0.550000X1.500000*%
%ADD18R,1.500000X0.550000*%
%ADD19R,2.100000X1.800000*%
%ADD20C,0.100000*%
%ADD21R,0.900000X1.200000*%
%ADD22R,1.200000X0.900000*%
%ADD23R,1.400000X1.000000*%
%ADD24R,1.400000X1.200000*%
G04 APERTURE END LIST*
D10*
X129059375Y-44129375D03*
X128259375Y-44129375D03*
X123359375Y-44129375D03*
X122559375Y-44129375D03*
X122559375Y-44129375D03*
X123359375Y-44129375D03*
X128259375Y-44129375D03*
X129059375Y-44129375D03*
D11*
X124059375Y-44129375D03*
X124559375Y-44129375D03*
X125059375Y-44129375D03*
X126059375Y-44129375D03*
X126559375Y-44129375D03*
X127059375Y-44129375D03*
X127559375Y-44129375D03*
X125559375Y-44129375D03*
D12*
X178911250Y-139985750D03*
X176371250Y-127058750D03*
D13*
X120364250Y-148748750D03*
X133291250Y-146208750D03*
D12*
X178911250Y-101885750D03*
X176371250Y-88958750D03*
D14*
X119276250Y-42588750D03*
X114086250Y-44088750D03*
X114086250Y-42588750D03*
X119276250Y-44088750D03*
X138326250Y-61638750D03*
X133136250Y-63138750D03*
X133136250Y-61638750D03*
X138326250Y-63138750D03*
D15*
X168001250Y-131548750D03*
X169501250Y-136738750D03*
X168001250Y-136738750D03*
X169501250Y-131548750D03*
D14*
X157376250Y-137838750D03*
X152186250Y-139338750D03*
X152186250Y-137838750D03*
X157376250Y-139338750D03*
X128801250Y-137838750D03*
X123611250Y-139338750D03*
X123611250Y-137838750D03*
X128801250Y-139338750D03*
X157376250Y-118788750D03*
X152186250Y-120288750D03*
X152186250Y-118788750D03*
X157376250Y-120288750D03*
X138326250Y-118788750D03*
X133136250Y-120288750D03*
X133136250Y-118788750D03*
X138326250Y-120288750D03*
X119276250Y-118788750D03*
X114086250Y-120288750D03*
X114086250Y-118788750D03*
X119276250Y-120288750D03*
D15*
X168001250Y-93448750D03*
X169501250Y-98638750D03*
X168001250Y-98638750D03*
X169501250Y-93448750D03*
D14*
X157376250Y-99738750D03*
X152186250Y-101238750D03*
X152186250Y-99738750D03*
X157376250Y-101238750D03*
X138326250Y-99738750D03*
X133136250Y-101238750D03*
X133136250Y-99738750D03*
X138326250Y-101238750D03*
X119276250Y-99738750D03*
X114086250Y-101238750D03*
X114086250Y-99738750D03*
X119276250Y-101238750D03*
X157376250Y-80688750D03*
X152186250Y-82188750D03*
X152186250Y-80688750D03*
X157376250Y-82188750D03*
X138326250Y-80688750D03*
X133136250Y-82188750D03*
X133136250Y-80688750D03*
X138326250Y-82188750D03*
X119276250Y-80688750D03*
X114086250Y-82188750D03*
X114086250Y-80688750D03*
X119276250Y-82188750D03*
X176426250Y-61638750D03*
X171236250Y-63138750D03*
X171236250Y-61638750D03*
X176426250Y-63138750D03*
X157376250Y-61638750D03*
X152186250Y-63138750D03*
X152186250Y-61638750D03*
X157376250Y-63138750D03*
X119276250Y-61638750D03*
X114086250Y-63138750D03*
X114086250Y-61638750D03*
X119276250Y-63138750D03*
X176426250Y-42588750D03*
X171236250Y-44088750D03*
X171236250Y-42588750D03*
X176426250Y-44088750D03*
X157376250Y-42588750D03*
X152186250Y-44088750D03*
X152186250Y-42588750D03*
X157376250Y-44088750D03*
X138326250Y-42588750D03*
X133136250Y-44088750D03*
X133136250Y-42588750D03*
X138326250Y-44088750D03*
D13*
X148939250Y-148748750D03*
X161866250Y-146208750D03*
X148939250Y-129698750D03*
X161866250Y-127158750D03*
X129889250Y-129698750D03*
X142816250Y-127158750D03*
X110839250Y-129698750D03*
X123766250Y-127158750D03*
X148939250Y-110648750D03*
X161866250Y-108108750D03*
X129889250Y-110648750D03*
X142816250Y-108108750D03*
X110839250Y-110648750D03*
X123766250Y-108108750D03*
X148939250Y-91598750D03*
X161866250Y-89058750D03*
X129889250Y-91598750D03*
X142816250Y-89058750D03*
X110839250Y-91598750D03*
X123766250Y-89058750D03*
X167989250Y-72548750D03*
X180916250Y-70008750D03*
X148939250Y-72548750D03*
X161866250Y-70008750D03*
X129889250Y-72548750D03*
X142816250Y-70008750D03*
X110839250Y-72548750D03*
X123766250Y-70008750D03*
X167989250Y-53498750D03*
X180916250Y-50958750D03*
X148939250Y-53498750D03*
X161866250Y-50958750D03*
X129889250Y-53498750D03*
X142816250Y-50958750D03*
X110839250Y-53498750D03*
X123766250Y-50958750D03*
G36*
G01*
X123933000Y-80829999D02*
X123933000Y-81730001D01*
G75*
G02*
X123683001Y-81980000I-249999J0D01*
G01*
X122982999Y-81980000D01*
G75*
G02*
X122733000Y-81730001I0J249999D01*
G01*
X122733000Y-80829999D01*
G75*
G02*
X122982999Y-80580000I249999J0D01*
G01*
X123683001Y-80580000D01*
G75*
G02*
X123933000Y-80829999I0J-249999D01*
G01*
G37*
G36*
G01*
X125933000Y-80829999D02*
X125933000Y-81730001D01*
G75*
G02*
X125683001Y-81980000I-249999J0D01*
G01*
X124982999Y-81980000D01*
G75*
G02*
X124733000Y-81730001I0J249999D01*
G01*
X124733000Y-80829999D01*
G75*
G02*
X124982999Y-80580000I249999J0D01*
G01*
X125683001Y-80580000D01*
G75*
G02*
X125933000Y-80829999I0J-249999D01*
G01*
G37*
D16*
X159475000Y-98437500D03*
X159475000Y-95237500D03*
X164375000Y-98437500D03*
X164375000Y-95237500D03*
X159475000Y-78990625D03*
X159475000Y-75790625D03*
X164375000Y-78990625D03*
X164375000Y-75790625D03*
X125343750Y-78990625D03*
X125343750Y-75790625D03*
X130243750Y-78990625D03*
X130243750Y-75790625D03*
X125343750Y-98437500D03*
X125343750Y-95237500D03*
X130243750Y-98437500D03*
X130243750Y-95237500D03*
X125343750Y-122250000D03*
X125343750Y-119050000D03*
X130243750Y-122250000D03*
X130243750Y-119050000D03*
X165825000Y-129489000D03*
X165825000Y-126289000D03*
X170725000Y-129489000D03*
X170725000Y-126289000D03*
G36*
G01*
X157955000Y-96324000D02*
X157005000Y-96324000D01*
G75*
G02*
X156755000Y-96074000I0J250000D01*
G01*
X156755000Y-95399000D01*
G75*
G02*
X157005000Y-95149000I250000J0D01*
G01*
X157955000Y-95149000D01*
G75*
G02*
X158205000Y-95399000I0J-250000D01*
G01*
X158205000Y-96074000D01*
G75*
G02*
X157955000Y-96324000I-250000J0D01*
G01*
G37*
G36*
G01*
X157955000Y-98399000D02*
X157005000Y-98399000D01*
G75*
G02*
X156755000Y-98149000I0J250000D01*
G01*
X156755000Y-97474000D01*
G75*
G02*
X157005000Y-97224000I250000J0D01*
G01*
X157955000Y-97224000D01*
G75*
G02*
X158205000Y-97474000I0J-250000D01*
G01*
X158205000Y-98149000D01*
G75*
G02*
X157955000Y-98399000I-250000J0D01*
G01*
G37*
G36*
G01*
X157955000Y-76893000D02*
X157005000Y-76893000D01*
G75*
G02*
X156755000Y-76643000I0J250000D01*
G01*
X156755000Y-75968000D01*
G75*
G02*
X157005000Y-75718000I250000J0D01*
G01*
X157955000Y-75718000D01*
G75*
G02*
X158205000Y-75968000I0J-250000D01*
G01*
X158205000Y-76643000D01*
G75*
G02*
X157955000Y-76893000I-250000J0D01*
G01*
G37*
G36*
G01*
X157955000Y-78968000D02*
X157005000Y-78968000D01*
G75*
G02*
X156755000Y-78718000I0J250000D01*
G01*
X156755000Y-78043000D01*
G75*
G02*
X157005000Y-77793000I250000J0D01*
G01*
X157955000Y-77793000D01*
G75*
G02*
X158205000Y-78043000I0J-250000D01*
G01*
X158205000Y-78718000D01*
G75*
G02*
X157955000Y-78968000I-250000J0D01*
G01*
G37*
G36*
G01*
X123792000Y-76893000D02*
X122842000Y-76893000D01*
G75*
G02*
X122592000Y-76643000I0J250000D01*
G01*
X122592000Y-75968000D01*
G75*
G02*
X122842000Y-75718000I250000J0D01*
G01*
X123792000Y-75718000D01*
G75*
G02*
X124042000Y-75968000I0J-250000D01*
G01*
X124042000Y-76643000D01*
G75*
G02*
X123792000Y-76893000I-250000J0D01*
G01*
G37*
G36*
G01*
X123792000Y-78968000D02*
X122842000Y-78968000D01*
G75*
G02*
X122592000Y-78718000I0J250000D01*
G01*
X122592000Y-78043000D01*
G75*
G02*
X122842000Y-77793000I250000J0D01*
G01*
X123792000Y-77793000D01*
G75*
G02*
X124042000Y-78043000I0J-250000D01*
G01*
X124042000Y-78718000D01*
G75*
G02*
X123792000Y-78968000I-250000J0D01*
G01*
G37*
G36*
G01*
X123792000Y-96387500D02*
X122842000Y-96387500D01*
G75*
G02*
X122592000Y-96137500I0J250000D01*
G01*
X122592000Y-95462500D01*
G75*
G02*
X122842000Y-95212500I250000J0D01*
G01*
X123792000Y-95212500D01*
G75*
G02*
X124042000Y-95462500I0J-250000D01*
G01*
X124042000Y-96137500D01*
G75*
G02*
X123792000Y-96387500I-250000J0D01*
G01*
G37*
G36*
G01*
X123792000Y-98462500D02*
X122842000Y-98462500D01*
G75*
G02*
X122592000Y-98212500I0J250000D01*
G01*
X122592000Y-97537500D01*
G75*
G02*
X122842000Y-97287500I250000J0D01*
G01*
X123792000Y-97287500D01*
G75*
G02*
X124042000Y-97537500I0J-250000D01*
G01*
X124042000Y-98212500D01*
G75*
G02*
X123792000Y-98462500I-250000J0D01*
G01*
G37*
G36*
G01*
X123792000Y-120200000D02*
X122842000Y-120200000D01*
G75*
G02*
X122592000Y-119950000I0J250000D01*
G01*
X122592000Y-119275000D01*
G75*
G02*
X122842000Y-119025000I250000J0D01*
G01*
X123792000Y-119025000D01*
G75*
G02*
X124042000Y-119275000I0J-250000D01*
G01*
X124042000Y-119950000D01*
G75*
G02*
X123792000Y-120200000I-250000J0D01*
G01*
G37*
G36*
G01*
X123792000Y-122275000D02*
X122842000Y-122275000D01*
G75*
G02*
X122592000Y-122025000I0J250000D01*
G01*
X122592000Y-121350000D01*
G75*
G02*
X122842000Y-121100000I250000J0D01*
G01*
X123792000Y-121100000D01*
G75*
G02*
X124042000Y-121350000I0J-250000D01*
G01*
X124042000Y-122025000D01*
G75*
G02*
X123792000Y-122275000I-250000J0D01*
G01*
G37*
G36*
G01*
X163990000Y-133038000D02*
X164940000Y-133038000D01*
G75*
G02*
X165190000Y-133288000I0J-250000D01*
G01*
X165190000Y-133963000D01*
G75*
G02*
X164940000Y-134213000I-250000J0D01*
G01*
X163990000Y-134213000D01*
G75*
G02*
X163740000Y-133963000I0J250000D01*
G01*
X163740000Y-133288000D01*
G75*
G02*
X163990000Y-133038000I250000J0D01*
G01*
G37*
G36*
G01*
X163990000Y-130963000D02*
X164940000Y-130963000D01*
G75*
G02*
X165190000Y-131213000I0J-250000D01*
G01*
X165190000Y-131888000D01*
G75*
G02*
X164940000Y-132138000I-250000J0D01*
G01*
X163990000Y-132138000D01*
G75*
G02*
X163740000Y-131888000I0J250000D01*
G01*
X163740000Y-131213000D01*
G75*
G02*
X163990000Y-130963000I250000J0D01*
G01*
G37*
D17*
X170371000Y-120793750D03*
X171171000Y-120793750D03*
X171971000Y-120793750D03*
X172771000Y-120793750D03*
X173571000Y-120793750D03*
X174371000Y-120793750D03*
X175171000Y-120793750D03*
X175971000Y-120793750D03*
X176771000Y-120793750D03*
X177571000Y-120793750D03*
X178371000Y-120793750D03*
D18*
X180071000Y-119093750D03*
X180071000Y-118293750D03*
X180071000Y-117493750D03*
X180071000Y-116693750D03*
X180071000Y-115893750D03*
X180071000Y-115093750D03*
X180071000Y-114293750D03*
X180071000Y-113493750D03*
X180071000Y-112693750D03*
X180071000Y-111893750D03*
X180071000Y-111093750D03*
D17*
X178371000Y-109393750D03*
X177571000Y-109393750D03*
X176771000Y-109393750D03*
X175971000Y-109393750D03*
X175171000Y-109393750D03*
X174371000Y-109393750D03*
X173571000Y-109393750D03*
X172771000Y-109393750D03*
X171971000Y-109393750D03*
X171171000Y-109393750D03*
X170371000Y-109393750D03*
D18*
X168671000Y-111093750D03*
X168671000Y-111893750D03*
X168671000Y-112693750D03*
X168671000Y-113493750D03*
X168671000Y-114293750D03*
X168671000Y-115093750D03*
X168671000Y-115893750D03*
X168671000Y-116693750D03*
X168671000Y-117493750D03*
X168671000Y-118293750D03*
X168671000Y-119093750D03*
D19*
X168963000Y-101847000D03*
X166063000Y-101847000D03*
X166063000Y-104147000D03*
X168963000Y-104147000D03*
D20*
G36*
X174974104Y-78328859D02*
G01*
X174996074Y-78335524D01*
X175016321Y-78346346D01*
X175034068Y-78360911D01*
X175131089Y-78457932D01*
X175145654Y-78475679D01*
X175156476Y-78495926D01*
X175163141Y-78517896D01*
X175165391Y-78540744D01*
X175165391Y-79120256D01*
X175163141Y-79143104D01*
X175156476Y-79165074D01*
X175145654Y-79185321D01*
X175131089Y-79203068D01*
X175034068Y-79300089D01*
X175016321Y-79314654D01*
X174996074Y-79325476D01*
X174974104Y-79332141D01*
X174951256Y-79334391D01*
X174371744Y-79334391D01*
X174348896Y-79332141D01*
X174326926Y-79325476D01*
X174306679Y-79314654D01*
X174288932Y-79300089D01*
X174191911Y-79203068D01*
X174177346Y-79185321D01*
X174166524Y-79165074D01*
X174159859Y-79143104D01*
X174157609Y-79120256D01*
X174157609Y-78540744D01*
X174159859Y-78517896D01*
X174166524Y-78495926D01*
X174177346Y-78475679D01*
X174191911Y-78457932D01*
X174288932Y-78360911D01*
X174306679Y-78346346D01*
X174326926Y-78335524D01*
X174348896Y-78328859D01*
X174371744Y-78326609D01*
X174951256Y-78326609D01*
X174974104Y-78328859D01*
G37*
G36*
X174974104Y-79453859D02*
G01*
X174996074Y-79460524D01*
X175016321Y-79471346D01*
X175034068Y-79485911D01*
X175131089Y-79582932D01*
X175145654Y-79600679D01*
X175156476Y-79620926D01*
X175163141Y-79642896D01*
X175165391Y-79665744D01*
X175165391Y-80245256D01*
X175163141Y-80268104D01*
X175156476Y-80290074D01*
X175145654Y-80310321D01*
X175131089Y-80328068D01*
X175034068Y-80425089D01*
X175016321Y-80439654D01*
X174996074Y-80450476D01*
X174974104Y-80457141D01*
X174951256Y-80459391D01*
X174371744Y-80459391D01*
X174348896Y-80457141D01*
X174326926Y-80450476D01*
X174306679Y-80439654D01*
X174288932Y-80425089D01*
X174191911Y-80328068D01*
X174177346Y-80310321D01*
X174166524Y-80290074D01*
X174159859Y-80268104D01*
X174157609Y-80245256D01*
X174157609Y-79665744D01*
X174159859Y-79642896D01*
X174166524Y-79620926D01*
X174177346Y-79600679D01*
X174191911Y-79582932D01*
X174288932Y-79485911D01*
X174306679Y-79471346D01*
X174326926Y-79460524D01*
X174348896Y-79453859D01*
X174371744Y-79451609D01*
X174951256Y-79451609D01*
X174974104Y-79453859D01*
G37*
G36*
X174974104Y-80578859D02*
G01*
X174996074Y-80585524D01*
X175016321Y-80596346D01*
X175034068Y-80610911D01*
X175131089Y-80707932D01*
X175145654Y-80725679D01*
X175156476Y-80745926D01*
X175163141Y-80767896D01*
X175165391Y-80790744D01*
X175165391Y-81370256D01*
X175163141Y-81393104D01*
X175156476Y-81415074D01*
X175145654Y-81435321D01*
X175131089Y-81453068D01*
X175034068Y-81550089D01*
X175016321Y-81564654D01*
X174996074Y-81575476D01*
X174974104Y-81582141D01*
X174951256Y-81584391D01*
X174371744Y-81584391D01*
X174348896Y-81582141D01*
X174326926Y-81575476D01*
X174306679Y-81564654D01*
X174288932Y-81550089D01*
X174191911Y-81453068D01*
X174177346Y-81435321D01*
X174166524Y-81415074D01*
X174159859Y-81393104D01*
X174157609Y-81370256D01*
X174157609Y-80790744D01*
X174159859Y-80767896D01*
X174166524Y-80745926D01*
X174177346Y-80725679D01*
X174191911Y-80707932D01*
X174288932Y-80610911D01*
X174306679Y-80596346D01*
X174326926Y-80585524D01*
X174348896Y-80578859D01*
X174371744Y-80576609D01*
X174951256Y-80576609D01*
X174974104Y-80578859D01*
G37*
G36*
X174974104Y-81703859D02*
G01*
X174996074Y-81710524D01*
X175016321Y-81721346D01*
X175034068Y-81735911D01*
X175131089Y-81832932D01*
X175145654Y-81850679D01*
X175156476Y-81870926D01*
X175163141Y-81892896D01*
X175165391Y-81915744D01*
X175165391Y-82495256D01*
X175163141Y-82518104D01*
X175156476Y-82540074D01*
X175145654Y-82560321D01*
X175131089Y-82578068D01*
X175034068Y-82675089D01*
X175016321Y-82689654D01*
X174996074Y-82700476D01*
X174974104Y-82707141D01*
X174951256Y-82709391D01*
X174371744Y-82709391D01*
X174348896Y-82707141D01*
X174326926Y-82700476D01*
X174306679Y-82689654D01*
X174288932Y-82675089D01*
X174191911Y-82578068D01*
X174177346Y-82560321D01*
X174166524Y-82540074D01*
X174159859Y-82518104D01*
X174157609Y-82495256D01*
X174157609Y-81915744D01*
X174159859Y-81892896D01*
X174166524Y-81870926D01*
X174177346Y-81850679D01*
X174191911Y-81832932D01*
X174288932Y-81735911D01*
X174306679Y-81721346D01*
X174326926Y-81710524D01*
X174348896Y-81703859D01*
X174371744Y-81701609D01*
X174951256Y-81701609D01*
X174974104Y-81703859D01*
G37*
G36*
X173849104Y-78328859D02*
G01*
X173871074Y-78335524D01*
X173891321Y-78346346D01*
X173909068Y-78360911D01*
X174006089Y-78457932D01*
X174020654Y-78475679D01*
X174031476Y-78495926D01*
X174038141Y-78517896D01*
X174040391Y-78540744D01*
X174040391Y-79120256D01*
X174038141Y-79143104D01*
X174031476Y-79165074D01*
X174020654Y-79185321D01*
X174006089Y-79203068D01*
X173909068Y-79300089D01*
X173891321Y-79314654D01*
X173871074Y-79325476D01*
X173849104Y-79332141D01*
X173826256Y-79334391D01*
X173246744Y-79334391D01*
X173223896Y-79332141D01*
X173201926Y-79325476D01*
X173181679Y-79314654D01*
X173163932Y-79300089D01*
X173066911Y-79203068D01*
X173052346Y-79185321D01*
X173041524Y-79165074D01*
X173034859Y-79143104D01*
X173032609Y-79120256D01*
X173032609Y-78540744D01*
X173034859Y-78517896D01*
X173041524Y-78495926D01*
X173052346Y-78475679D01*
X173066911Y-78457932D01*
X173163932Y-78360911D01*
X173181679Y-78346346D01*
X173201926Y-78335524D01*
X173223896Y-78328859D01*
X173246744Y-78326609D01*
X173826256Y-78326609D01*
X173849104Y-78328859D01*
G37*
G36*
X173849104Y-79453859D02*
G01*
X173871074Y-79460524D01*
X173891321Y-79471346D01*
X173909068Y-79485911D01*
X174006089Y-79582932D01*
X174020654Y-79600679D01*
X174031476Y-79620926D01*
X174038141Y-79642896D01*
X174040391Y-79665744D01*
X174040391Y-80245256D01*
X174038141Y-80268104D01*
X174031476Y-80290074D01*
X174020654Y-80310321D01*
X174006089Y-80328068D01*
X173909068Y-80425089D01*
X173891321Y-80439654D01*
X173871074Y-80450476D01*
X173849104Y-80457141D01*
X173826256Y-80459391D01*
X173246744Y-80459391D01*
X173223896Y-80457141D01*
X173201926Y-80450476D01*
X173181679Y-80439654D01*
X173163932Y-80425089D01*
X173066911Y-80328068D01*
X173052346Y-80310321D01*
X173041524Y-80290074D01*
X173034859Y-80268104D01*
X173032609Y-80245256D01*
X173032609Y-79665744D01*
X173034859Y-79642896D01*
X173041524Y-79620926D01*
X173052346Y-79600679D01*
X173066911Y-79582932D01*
X173163932Y-79485911D01*
X173181679Y-79471346D01*
X173201926Y-79460524D01*
X173223896Y-79453859D01*
X173246744Y-79451609D01*
X173826256Y-79451609D01*
X173849104Y-79453859D01*
G37*
G36*
X173849104Y-80578859D02*
G01*
X173871074Y-80585524D01*
X173891321Y-80596346D01*
X173909068Y-80610911D01*
X174006089Y-80707932D01*
X174020654Y-80725679D01*
X174031476Y-80745926D01*
X174038141Y-80767896D01*
X174040391Y-80790744D01*
X174040391Y-81370256D01*
X174038141Y-81393104D01*
X174031476Y-81415074D01*
X174020654Y-81435321D01*
X174006089Y-81453068D01*
X173909068Y-81550089D01*
X173891321Y-81564654D01*
X173871074Y-81575476D01*
X173849104Y-81582141D01*
X173826256Y-81584391D01*
X173246744Y-81584391D01*
X173223896Y-81582141D01*
X173201926Y-81575476D01*
X173181679Y-81564654D01*
X173163932Y-81550089D01*
X173066911Y-81453068D01*
X173052346Y-81435321D01*
X173041524Y-81415074D01*
X173034859Y-81393104D01*
X173032609Y-81370256D01*
X173032609Y-80790744D01*
X173034859Y-80767896D01*
X173041524Y-80745926D01*
X173052346Y-80725679D01*
X173066911Y-80707932D01*
X173163932Y-80610911D01*
X173181679Y-80596346D01*
X173201926Y-80585524D01*
X173223896Y-80578859D01*
X173246744Y-80576609D01*
X173826256Y-80576609D01*
X173849104Y-80578859D01*
G37*
G36*
X173849104Y-81703859D02*
G01*
X173871074Y-81710524D01*
X173891321Y-81721346D01*
X173909068Y-81735911D01*
X174006089Y-81832932D01*
X174020654Y-81850679D01*
X174031476Y-81870926D01*
X174038141Y-81892896D01*
X174040391Y-81915744D01*
X174040391Y-82495256D01*
X174038141Y-82518104D01*
X174031476Y-82540074D01*
X174020654Y-82560321D01*
X174006089Y-82578068D01*
X173909068Y-82675089D01*
X173891321Y-82689654D01*
X173871074Y-82700476D01*
X173849104Y-82707141D01*
X173826256Y-82709391D01*
X173246744Y-82709391D01*
X173223896Y-82707141D01*
X173201926Y-82700476D01*
X173181679Y-82689654D01*
X173163932Y-82675089D01*
X173066911Y-82578068D01*
X173052346Y-82560321D01*
X173041524Y-82540074D01*
X173034859Y-82518104D01*
X173032609Y-82495256D01*
X173032609Y-81915744D01*
X173034859Y-81892896D01*
X173041524Y-81870926D01*
X173052346Y-81850679D01*
X173066911Y-81832932D01*
X173163932Y-81735911D01*
X173181679Y-81721346D01*
X173201926Y-81710524D01*
X173223896Y-81703859D01*
X173246744Y-81701609D01*
X173826256Y-81701609D01*
X173849104Y-81703859D01*
G37*
G36*
X172724104Y-78328859D02*
G01*
X172746074Y-78335524D01*
X172766321Y-78346346D01*
X172784068Y-78360911D01*
X172881089Y-78457932D01*
X172895654Y-78475679D01*
X172906476Y-78495926D01*
X172913141Y-78517896D01*
X172915391Y-78540744D01*
X172915391Y-79120256D01*
X172913141Y-79143104D01*
X172906476Y-79165074D01*
X172895654Y-79185321D01*
X172881089Y-79203068D01*
X172784068Y-79300089D01*
X172766321Y-79314654D01*
X172746074Y-79325476D01*
X172724104Y-79332141D01*
X172701256Y-79334391D01*
X172121744Y-79334391D01*
X172098896Y-79332141D01*
X172076926Y-79325476D01*
X172056679Y-79314654D01*
X172038932Y-79300089D01*
X171941911Y-79203068D01*
X171927346Y-79185321D01*
X171916524Y-79165074D01*
X171909859Y-79143104D01*
X171907609Y-79120256D01*
X171907609Y-78540744D01*
X171909859Y-78517896D01*
X171916524Y-78495926D01*
X171927346Y-78475679D01*
X171941911Y-78457932D01*
X172038932Y-78360911D01*
X172056679Y-78346346D01*
X172076926Y-78335524D01*
X172098896Y-78328859D01*
X172121744Y-78326609D01*
X172701256Y-78326609D01*
X172724104Y-78328859D01*
G37*
G36*
X172724104Y-79453859D02*
G01*
X172746074Y-79460524D01*
X172766321Y-79471346D01*
X172784068Y-79485911D01*
X172881089Y-79582932D01*
X172895654Y-79600679D01*
X172906476Y-79620926D01*
X172913141Y-79642896D01*
X172915391Y-79665744D01*
X172915391Y-80245256D01*
X172913141Y-80268104D01*
X172906476Y-80290074D01*
X172895654Y-80310321D01*
X172881089Y-80328068D01*
X172784068Y-80425089D01*
X172766321Y-80439654D01*
X172746074Y-80450476D01*
X172724104Y-80457141D01*
X172701256Y-80459391D01*
X172121744Y-80459391D01*
X172098896Y-80457141D01*
X172076926Y-80450476D01*
X172056679Y-80439654D01*
X172038932Y-80425089D01*
X171941911Y-80328068D01*
X171927346Y-80310321D01*
X171916524Y-80290074D01*
X171909859Y-80268104D01*
X171907609Y-80245256D01*
X171907609Y-79665744D01*
X171909859Y-79642896D01*
X171916524Y-79620926D01*
X171927346Y-79600679D01*
X171941911Y-79582932D01*
X172038932Y-79485911D01*
X172056679Y-79471346D01*
X172076926Y-79460524D01*
X172098896Y-79453859D01*
X172121744Y-79451609D01*
X172701256Y-79451609D01*
X172724104Y-79453859D01*
G37*
G36*
X172724104Y-80578859D02*
G01*
X172746074Y-80585524D01*
X172766321Y-80596346D01*
X172784068Y-80610911D01*
X172881089Y-80707932D01*
X172895654Y-80725679D01*
X172906476Y-80745926D01*
X172913141Y-80767896D01*
X172915391Y-80790744D01*
X172915391Y-81370256D01*
X172913141Y-81393104D01*
X172906476Y-81415074D01*
X172895654Y-81435321D01*
X172881089Y-81453068D01*
X172784068Y-81550089D01*
X172766321Y-81564654D01*
X172746074Y-81575476D01*
X172724104Y-81582141D01*
X172701256Y-81584391D01*
X172121744Y-81584391D01*
X172098896Y-81582141D01*
X172076926Y-81575476D01*
X172056679Y-81564654D01*
X172038932Y-81550089D01*
X171941911Y-81453068D01*
X171927346Y-81435321D01*
X171916524Y-81415074D01*
X171909859Y-81393104D01*
X171907609Y-81370256D01*
X171907609Y-80790744D01*
X171909859Y-80767896D01*
X171916524Y-80745926D01*
X171927346Y-80725679D01*
X171941911Y-80707932D01*
X172038932Y-80610911D01*
X172056679Y-80596346D01*
X172076926Y-80585524D01*
X172098896Y-80578859D01*
X172121744Y-80576609D01*
X172701256Y-80576609D01*
X172724104Y-80578859D01*
G37*
G36*
X172724104Y-81703859D02*
G01*
X172746074Y-81710524D01*
X172766321Y-81721346D01*
X172784068Y-81735911D01*
X172881089Y-81832932D01*
X172895654Y-81850679D01*
X172906476Y-81870926D01*
X172913141Y-81892896D01*
X172915391Y-81915744D01*
X172915391Y-82495256D01*
X172913141Y-82518104D01*
X172906476Y-82540074D01*
X172895654Y-82560321D01*
X172881089Y-82578068D01*
X172784068Y-82675089D01*
X172766321Y-82689654D01*
X172746074Y-82700476D01*
X172724104Y-82707141D01*
X172701256Y-82709391D01*
X172121744Y-82709391D01*
X172098896Y-82707141D01*
X172076926Y-82700476D01*
X172056679Y-82689654D01*
X172038932Y-82675089D01*
X171941911Y-82578068D01*
X171927346Y-82560321D01*
X171916524Y-82540074D01*
X171909859Y-82518104D01*
X171907609Y-82495256D01*
X171907609Y-81915744D01*
X171909859Y-81892896D01*
X171916524Y-81870926D01*
X171927346Y-81850679D01*
X171941911Y-81832932D01*
X172038932Y-81735911D01*
X172056679Y-81721346D01*
X172076926Y-81710524D01*
X172098896Y-81703859D01*
X172121744Y-81701609D01*
X172701256Y-81701609D01*
X172724104Y-81703859D01*
G37*
G36*
X171599104Y-78328859D02*
G01*
X171621074Y-78335524D01*
X171641321Y-78346346D01*
X171659068Y-78360911D01*
X171756089Y-78457932D01*
X171770654Y-78475679D01*
X171781476Y-78495926D01*
X171788141Y-78517896D01*
X171790391Y-78540744D01*
X171790391Y-79120256D01*
X171788141Y-79143104D01*
X171781476Y-79165074D01*
X171770654Y-79185321D01*
X171756089Y-79203068D01*
X171659068Y-79300089D01*
X171641321Y-79314654D01*
X171621074Y-79325476D01*
X171599104Y-79332141D01*
X171576256Y-79334391D01*
X170996744Y-79334391D01*
X170973896Y-79332141D01*
X170951926Y-79325476D01*
X170931679Y-79314654D01*
X170913932Y-79300089D01*
X170816911Y-79203068D01*
X170802346Y-79185321D01*
X170791524Y-79165074D01*
X170784859Y-79143104D01*
X170782609Y-79120256D01*
X170782609Y-78540744D01*
X170784859Y-78517896D01*
X170791524Y-78495926D01*
X170802346Y-78475679D01*
X170816911Y-78457932D01*
X170913932Y-78360911D01*
X170931679Y-78346346D01*
X170951926Y-78335524D01*
X170973896Y-78328859D01*
X170996744Y-78326609D01*
X171576256Y-78326609D01*
X171599104Y-78328859D01*
G37*
G36*
X171599104Y-79453859D02*
G01*
X171621074Y-79460524D01*
X171641321Y-79471346D01*
X171659068Y-79485911D01*
X171756089Y-79582932D01*
X171770654Y-79600679D01*
X171781476Y-79620926D01*
X171788141Y-79642896D01*
X171790391Y-79665744D01*
X171790391Y-80245256D01*
X171788141Y-80268104D01*
X171781476Y-80290074D01*
X171770654Y-80310321D01*
X171756089Y-80328068D01*
X171659068Y-80425089D01*
X171641321Y-80439654D01*
X171621074Y-80450476D01*
X171599104Y-80457141D01*
X171576256Y-80459391D01*
X170996744Y-80459391D01*
X170973896Y-80457141D01*
X170951926Y-80450476D01*
X170931679Y-80439654D01*
X170913932Y-80425089D01*
X170816911Y-80328068D01*
X170802346Y-80310321D01*
X170791524Y-80290074D01*
X170784859Y-80268104D01*
X170782609Y-80245256D01*
X170782609Y-79665744D01*
X170784859Y-79642896D01*
X170791524Y-79620926D01*
X170802346Y-79600679D01*
X170816911Y-79582932D01*
X170913932Y-79485911D01*
X170931679Y-79471346D01*
X170951926Y-79460524D01*
X170973896Y-79453859D01*
X170996744Y-79451609D01*
X171576256Y-79451609D01*
X171599104Y-79453859D01*
G37*
G36*
X171599104Y-80578859D02*
G01*
X171621074Y-80585524D01*
X171641321Y-80596346D01*
X171659068Y-80610911D01*
X171756089Y-80707932D01*
X171770654Y-80725679D01*
X171781476Y-80745926D01*
X171788141Y-80767896D01*
X171790391Y-80790744D01*
X171790391Y-81370256D01*
X171788141Y-81393104D01*
X171781476Y-81415074D01*
X171770654Y-81435321D01*
X171756089Y-81453068D01*
X171659068Y-81550089D01*
X171641321Y-81564654D01*
X171621074Y-81575476D01*
X171599104Y-81582141D01*
X171576256Y-81584391D01*
X170996744Y-81584391D01*
X170973896Y-81582141D01*
X170951926Y-81575476D01*
X170931679Y-81564654D01*
X170913932Y-81550089D01*
X170816911Y-81453068D01*
X170802346Y-81435321D01*
X170791524Y-81415074D01*
X170784859Y-81393104D01*
X170782609Y-81370256D01*
X170782609Y-80790744D01*
X170784859Y-80767896D01*
X170791524Y-80745926D01*
X170802346Y-80725679D01*
X170816911Y-80707932D01*
X170913932Y-80610911D01*
X170931679Y-80596346D01*
X170951926Y-80585524D01*
X170973896Y-80578859D01*
X170996744Y-80576609D01*
X171576256Y-80576609D01*
X171599104Y-80578859D01*
G37*
G36*
X171599104Y-81703859D02*
G01*
X171621074Y-81710524D01*
X171641321Y-81721346D01*
X171659068Y-81735911D01*
X171756089Y-81832932D01*
X171770654Y-81850679D01*
X171781476Y-81870926D01*
X171788141Y-81892896D01*
X171790391Y-81915744D01*
X171790391Y-82495256D01*
X171788141Y-82518104D01*
X171781476Y-82540074D01*
X171770654Y-82560321D01*
X171756089Y-82578068D01*
X171659068Y-82675089D01*
X171641321Y-82689654D01*
X171621074Y-82700476D01*
X171599104Y-82707141D01*
X171576256Y-82709391D01*
X170996744Y-82709391D01*
X170973896Y-82707141D01*
X170951926Y-82700476D01*
X170931679Y-82689654D01*
X170913932Y-82675089D01*
X170816911Y-82578068D01*
X170802346Y-82560321D01*
X170791524Y-82540074D01*
X170784859Y-82518104D01*
X170782609Y-82495256D01*
X170782609Y-81915744D01*
X170784859Y-81892896D01*
X170791524Y-81870926D01*
X170802346Y-81850679D01*
X170816911Y-81832932D01*
X170913932Y-81735911D01*
X170931679Y-81721346D01*
X170951926Y-81710524D01*
X170973896Y-81703859D01*
X170996744Y-81701609D01*
X171576256Y-81701609D01*
X171599104Y-81703859D01*
G37*
G36*
G01*
X170074000Y-85343000D02*
X170074000Y-84018000D01*
G75*
G02*
X170149000Y-83943000I75000J0D01*
G01*
X170299000Y-83943000D01*
G75*
G02*
X170374000Y-84018000I0J-75000D01*
G01*
X170374000Y-85343000D01*
G75*
G02*
X170299000Y-85418000I-75000J0D01*
G01*
X170149000Y-85418000D01*
G75*
G02*
X170074000Y-85343000I0J75000D01*
G01*
G37*
G36*
G01*
X170574000Y-85343000D02*
X170574000Y-84018000D01*
G75*
G02*
X170649000Y-83943000I75000J0D01*
G01*
X170799000Y-83943000D01*
G75*
G02*
X170874000Y-84018000I0J-75000D01*
G01*
X170874000Y-85343000D01*
G75*
G02*
X170799000Y-85418000I-75000J0D01*
G01*
X170649000Y-85418000D01*
G75*
G02*
X170574000Y-85343000I0J75000D01*
G01*
G37*
G36*
G01*
X171074000Y-85343000D02*
X171074000Y-84018000D01*
G75*
G02*
X171149000Y-83943000I75000J0D01*
G01*
X171299000Y-83943000D01*
G75*
G02*
X171374000Y-84018000I0J-75000D01*
G01*
X171374000Y-85343000D01*
G75*
G02*
X171299000Y-85418000I-75000J0D01*
G01*
X171149000Y-85418000D01*
G75*
G02*
X171074000Y-85343000I0J75000D01*
G01*
G37*
G36*
G01*
X171574000Y-85343000D02*
X171574000Y-84018000D01*
G75*
G02*
X171649000Y-83943000I75000J0D01*
G01*
X171799000Y-83943000D01*
G75*
G02*
X171874000Y-84018000I0J-75000D01*
G01*
X171874000Y-85343000D01*
G75*
G02*
X171799000Y-85418000I-75000J0D01*
G01*
X171649000Y-85418000D01*
G75*
G02*
X171574000Y-85343000I0J75000D01*
G01*
G37*
G36*
G01*
X172074000Y-85343000D02*
X172074000Y-84018000D01*
G75*
G02*
X172149000Y-83943000I75000J0D01*
G01*
X172299000Y-83943000D01*
G75*
G02*
X172374000Y-84018000I0J-75000D01*
G01*
X172374000Y-85343000D01*
G75*
G02*
X172299000Y-85418000I-75000J0D01*
G01*
X172149000Y-85418000D01*
G75*
G02*
X172074000Y-85343000I0J75000D01*
G01*
G37*
G36*
G01*
X172574000Y-85343000D02*
X172574000Y-84018000D01*
G75*
G02*
X172649000Y-83943000I75000J0D01*
G01*
X172799000Y-83943000D01*
G75*
G02*
X172874000Y-84018000I0J-75000D01*
G01*
X172874000Y-85343000D01*
G75*
G02*
X172799000Y-85418000I-75000J0D01*
G01*
X172649000Y-85418000D01*
G75*
G02*
X172574000Y-85343000I0J75000D01*
G01*
G37*
G36*
G01*
X173074000Y-85343000D02*
X173074000Y-84018000D01*
G75*
G02*
X173149000Y-83943000I75000J0D01*
G01*
X173299000Y-83943000D01*
G75*
G02*
X173374000Y-84018000I0J-75000D01*
G01*
X173374000Y-85343000D01*
G75*
G02*
X173299000Y-85418000I-75000J0D01*
G01*
X173149000Y-85418000D01*
G75*
G02*
X173074000Y-85343000I0J75000D01*
G01*
G37*
G36*
G01*
X173574000Y-85343000D02*
X173574000Y-84018000D01*
G75*
G02*
X173649000Y-83943000I75000J0D01*
G01*
X173799000Y-83943000D01*
G75*
G02*
X173874000Y-84018000I0J-75000D01*
G01*
X173874000Y-85343000D01*
G75*
G02*
X173799000Y-85418000I-75000J0D01*
G01*
X173649000Y-85418000D01*
G75*
G02*
X173574000Y-85343000I0J75000D01*
G01*
G37*
G36*
G01*
X174074000Y-85343000D02*
X174074000Y-84018000D01*
G75*
G02*
X174149000Y-83943000I75000J0D01*
G01*
X174299000Y-83943000D01*
G75*
G02*
X174374000Y-84018000I0J-75000D01*
G01*
X174374000Y-85343000D01*
G75*
G02*
X174299000Y-85418000I-75000J0D01*
G01*
X174149000Y-85418000D01*
G75*
G02*
X174074000Y-85343000I0J75000D01*
G01*
G37*
G36*
G01*
X174574000Y-85343000D02*
X174574000Y-84018000D01*
G75*
G02*
X174649000Y-83943000I75000J0D01*
G01*
X174799000Y-83943000D01*
G75*
G02*
X174874000Y-84018000I0J-75000D01*
G01*
X174874000Y-85343000D01*
G75*
G02*
X174799000Y-85418000I-75000J0D01*
G01*
X174649000Y-85418000D01*
G75*
G02*
X174574000Y-85343000I0J75000D01*
G01*
G37*
G36*
G01*
X175074000Y-85343000D02*
X175074000Y-84018000D01*
G75*
G02*
X175149000Y-83943000I75000J0D01*
G01*
X175299000Y-83943000D01*
G75*
G02*
X175374000Y-84018000I0J-75000D01*
G01*
X175374000Y-85343000D01*
G75*
G02*
X175299000Y-85418000I-75000J0D01*
G01*
X175149000Y-85418000D01*
G75*
G02*
X175074000Y-85343000I0J75000D01*
G01*
G37*
G36*
G01*
X175574000Y-85343000D02*
X175574000Y-84018000D01*
G75*
G02*
X175649000Y-83943000I75000J0D01*
G01*
X175799000Y-83943000D01*
G75*
G02*
X175874000Y-84018000I0J-75000D01*
G01*
X175874000Y-85343000D01*
G75*
G02*
X175799000Y-85418000I-75000J0D01*
G01*
X175649000Y-85418000D01*
G75*
G02*
X175574000Y-85343000I0J75000D01*
G01*
G37*
G36*
G01*
X176399000Y-83343000D02*
X176399000Y-83193000D01*
G75*
G02*
X176474000Y-83118000I75000J0D01*
G01*
X177799000Y-83118000D01*
G75*
G02*
X177874000Y-83193000I0J-75000D01*
G01*
X177874000Y-83343000D01*
G75*
G02*
X177799000Y-83418000I-75000J0D01*
G01*
X176474000Y-83418000D01*
G75*
G02*
X176399000Y-83343000I0J75000D01*
G01*
G37*
G36*
G01*
X176399000Y-82843000D02*
X176399000Y-82693000D01*
G75*
G02*
X176474000Y-82618000I75000J0D01*
G01*
X177799000Y-82618000D01*
G75*
G02*
X177874000Y-82693000I0J-75000D01*
G01*
X177874000Y-82843000D01*
G75*
G02*
X177799000Y-82918000I-75000J0D01*
G01*
X176474000Y-82918000D01*
G75*
G02*
X176399000Y-82843000I0J75000D01*
G01*
G37*
G36*
G01*
X176399000Y-82343000D02*
X176399000Y-82193000D01*
G75*
G02*
X176474000Y-82118000I75000J0D01*
G01*
X177799000Y-82118000D01*
G75*
G02*
X177874000Y-82193000I0J-75000D01*
G01*
X177874000Y-82343000D01*
G75*
G02*
X177799000Y-82418000I-75000J0D01*
G01*
X176474000Y-82418000D01*
G75*
G02*
X176399000Y-82343000I0J75000D01*
G01*
G37*
G36*
G01*
X176399000Y-81843000D02*
X176399000Y-81693000D01*
G75*
G02*
X176474000Y-81618000I75000J0D01*
G01*
X177799000Y-81618000D01*
G75*
G02*
X177874000Y-81693000I0J-75000D01*
G01*
X177874000Y-81843000D01*
G75*
G02*
X177799000Y-81918000I-75000J0D01*
G01*
X176474000Y-81918000D01*
G75*
G02*
X176399000Y-81843000I0J75000D01*
G01*
G37*
G36*
G01*
X176399000Y-81343000D02*
X176399000Y-81193000D01*
G75*
G02*
X176474000Y-81118000I75000J0D01*
G01*
X177799000Y-81118000D01*
G75*
G02*
X177874000Y-81193000I0J-75000D01*
G01*
X177874000Y-81343000D01*
G75*
G02*
X177799000Y-81418000I-75000J0D01*
G01*
X176474000Y-81418000D01*
G75*
G02*
X176399000Y-81343000I0J75000D01*
G01*
G37*
G36*
G01*
X176399000Y-80843000D02*
X176399000Y-80693000D01*
G75*
G02*
X176474000Y-80618000I75000J0D01*
G01*
X177799000Y-80618000D01*
G75*
G02*
X177874000Y-80693000I0J-75000D01*
G01*
X177874000Y-80843000D01*
G75*
G02*
X177799000Y-80918000I-75000J0D01*
G01*
X176474000Y-80918000D01*
G75*
G02*
X176399000Y-80843000I0J75000D01*
G01*
G37*
G36*
G01*
X176399000Y-80343000D02*
X176399000Y-80193000D01*
G75*
G02*
X176474000Y-80118000I75000J0D01*
G01*
X177799000Y-80118000D01*
G75*
G02*
X177874000Y-80193000I0J-75000D01*
G01*
X177874000Y-80343000D01*
G75*
G02*
X177799000Y-80418000I-75000J0D01*
G01*
X176474000Y-80418000D01*
G75*
G02*
X176399000Y-80343000I0J75000D01*
G01*
G37*
G36*
G01*
X176399000Y-79843000D02*
X176399000Y-79693000D01*
G75*
G02*
X176474000Y-79618000I75000J0D01*
G01*
X177799000Y-79618000D01*
G75*
G02*
X177874000Y-79693000I0J-75000D01*
G01*
X177874000Y-79843000D01*
G75*
G02*
X177799000Y-79918000I-75000J0D01*
G01*
X176474000Y-79918000D01*
G75*
G02*
X176399000Y-79843000I0J75000D01*
G01*
G37*
G36*
G01*
X176399000Y-79343000D02*
X176399000Y-79193000D01*
G75*
G02*
X176474000Y-79118000I75000J0D01*
G01*
X177799000Y-79118000D01*
G75*
G02*
X177874000Y-79193000I0J-75000D01*
G01*
X177874000Y-79343000D01*
G75*
G02*
X177799000Y-79418000I-75000J0D01*
G01*
X176474000Y-79418000D01*
G75*
G02*
X176399000Y-79343000I0J75000D01*
G01*
G37*
G36*
G01*
X176399000Y-78843000D02*
X176399000Y-78693000D01*
G75*
G02*
X176474000Y-78618000I75000J0D01*
G01*
X177799000Y-78618000D01*
G75*
G02*
X177874000Y-78693000I0J-75000D01*
G01*
X177874000Y-78843000D01*
G75*
G02*
X177799000Y-78918000I-75000J0D01*
G01*
X176474000Y-78918000D01*
G75*
G02*
X176399000Y-78843000I0J75000D01*
G01*
G37*
G36*
G01*
X176399000Y-78343000D02*
X176399000Y-78193000D01*
G75*
G02*
X176474000Y-78118000I75000J0D01*
G01*
X177799000Y-78118000D01*
G75*
G02*
X177874000Y-78193000I0J-75000D01*
G01*
X177874000Y-78343000D01*
G75*
G02*
X177799000Y-78418000I-75000J0D01*
G01*
X176474000Y-78418000D01*
G75*
G02*
X176399000Y-78343000I0J75000D01*
G01*
G37*
G36*
G01*
X176399000Y-77843000D02*
X176399000Y-77693000D01*
G75*
G02*
X176474000Y-77618000I75000J0D01*
G01*
X177799000Y-77618000D01*
G75*
G02*
X177874000Y-77693000I0J-75000D01*
G01*
X177874000Y-77843000D01*
G75*
G02*
X177799000Y-77918000I-75000J0D01*
G01*
X176474000Y-77918000D01*
G75*
G02*
X176399000Y-77843000I0J75000D01*
G01*
G37*
G36*
G01*
X175574000Y-77018000D02*
X175574000Y-75693000D01*
G75*
G02*
X175649000Y-75618000I75000J0D01*
G01*
X175799000Y-75618000D01*
G75*
G02*
X175874000Y-75693000I0J-75000D01*
G01*
X175874000Y-77018000D01*
G75*
G02*
X175799000Y-77093000I-75000J0D01*
G01*
X175649000Y-77093000D01*
G75*
G02*
X175574000Y-77018000I0J75000D01*
G01*
G37*
G36*
G01*
X175074000Y-77018000D02*
X175074000Y-75693000D01*
G75*
G02*
X175149000Y-75618000I75000J0D01*
G01*
X175299000Y-75618000D01*
G75*
G02*
X175374000Y-75693000I0J-75000D01*
G01*
X175374000Y-77018000D01*
G75*
G02*
X175299000Y-77093000I-75000J0D01*
G01*
X175149000Y-77093000D01*
G75*
G02*
X175074000Y-77018000I0J75000D01*
G01*
G37*
G36*
G01*
X174574000Y-77018000D02*
X174574000Y-75693000D01*
G75*
G02*
X174649000Y-75618000I75000J0D01*
G01*
X174799000Y-75618000D01*
G75*
G02*
X174874000Y-75693000I0J-75000D01*
G01*
X174874000Y-77018000D01*
G75*
G02*
X174799000Y-77093000I-75000J0D01*
G01*
X174649000Y-77093000D01*
G75*
G02*
X174574000Y-77018000I0J75000D01*
G01*
G37*
G36*
G01*
X174074000Y-77018000D02*
X174074000Y-75693000D01*
G75*
G02*
X174149000Y-75618000I75000J0D01*
G01*
X174299000Y-75618000D01*
G75*
G02*
X174374000Y-75693000I0J-75000D01*
G01*
X174374000Y-77018000D01*
G75*
G02*
X174299000Y-77093000I-75000J0D01*
G01*
X174149000Y-77093000D01*
G75*
G02*
X174074000Y-77018000I0J75000D01*
G01*
G37*
G36*
G01*
X173574000Y-77018000D02*
X173574000Y-75693000D01*
G75*
G02*
X173649000Y-75618000I75000J0D01*
G01*
X173799000Y-75618000D01*
G75*
G02*
X173874000Y-75693000I0J-75000D01*
G01*
X173874000Y-77018000D01*
G75*
G02*
X173799000Y-77093000I-75000J0D01*
G01*
X173649000Y-77093000D01*
G75*
G02*
X173574000Y-77018000I0J75000D01*
G01*
G37*
G36*
G01*
X173074000Y-77018000D02*
X173074000Y-75693000D01*
G75*
G02*
X173149000Y-75618000I75000J0D01*
G01*
X173299000Y-75618000D01*
G75*
G02*
X173374000Y-75693000I0J-75000D01*
G01*
X173374000Y-77018000D01*
G75*
G02*
X173299000Y-77093000I-75000J0D01*
G01*
X173149000Y-77093000D01*
G75*
G02*
X173074000Y-77018000I0J75000D01*
G01*
G37*
G36*
G01*
X172574000Y-77018000D02*
X172574000Y-75693000D01*
G75*
G02*
X172649000Y-75618000I75000J0D01*
G01*
X172799000Y-75618000D01*
G75*
G02*
X172874000Y-75693000I0J-75000D01*
G01*
X172874000Y-77018000D01*
G75*
G02*
X172799000Y-77093000I-75000J0D01*
G01*
X172649000Y-77093000D01*
G75*
G02*
X172574000Y-77018000I0J75000D01*
G01*
G37*
G36*
G01*
X172074000Y-77018000D02*
X172074000Y-75693000D01*
G75*
G02*
X172149000Y-75618000I75000J0D01*
G01*
X172299000Y-75618000D01*
G75*
G02*
X172374000Y-75693000I0J-75000D01*
G01*
X172374000Y-77018000D01*
G75*
G02*
X172299000Y-77093000I-75000J0D01*
G01*
X172149000Y-77093000D01*
G75*
G02*
X172074000Y-77018000I0J75000D01*
G01*
G37*
G36*
G01*
X171574000Y-77018000D02*
X171574000Y-75693000D01*
G75*
G02*
X171649000Y-75618000I75000J0D01*
G01*
X171799000Y-75618000D01*
G75*
G02*
X171874000Y-75693000I0J-75000D01*
G01*
X171874000Y-77018000D01*
G75*
G02*
X171799000Y-77093000I-75000J0D01*
G01*
X171649000Y-77093000D01*
G75*
G02*
X171574000Y-77018000I0J75000D01*
G01*
G37*
G36*
G01*
X171074000Y-77018000D02*
X171074000Y-75693000D01*
G75*
G02*
X171149000Y-75618000I75000J0D01*
G01*
X171299000Y-75618000D01*
G75*
G02*
X171374000Y-75693000I0J-75000D01*
G01*
X171374000Y-77018000D01*
G75*
G02*
X171299000Y-77093000I-75000J0D01*
G01*
X171149000Y-77093000D01*
G75*
G02*
X171074000Y-77018000I0J75000D01*
G01*
G37*
G36*
G01*
X170574000Y-77018000D02*
X170574000Y-75693000D01*
G75*
G02*
X170649000Y-75618000I75000J0D01*
G01*
X170799000Y-75618000D01*
G75*
G02*
X170874000Y-75693000I0J-75000D01*
G01*
X170874000Y-77018000D01*
G75*
G02*
X170799000Y-77093000I-75000J0D01*
G01*
X170649000Y-77093000D01*
G75*
G02*
X170574000Y-77018000I0J75000D01*
G01*
G37*
G36*
G01*
X170074000Y-77018000D02*
X170074000Y-75693000D01*
G75*
G02*
X170149000Y-75618000I75000J0D01*
G01*
X170299000Y-75618000D01*
G75*
G02*
X170374000Y-75693000I0J-75000D01*
G01*
X170374000Y-77018000D01*
G75*
G02*
X170299000Y-77093000I-75000J0D01*
G01*
X170149000Y-77093000D01*
G75*
G02*
X170074000Y-77018000I0J75000D01*
G01*
G37*
G36*
G01*
X168074000Y-77843000D02*
X168074000Y-77693000D01*
G75*
G02*
X168149000Y-77618000I75000J0D01*
G01*
X169474000Y-77618000D01*
G75*
G02*
X169549000Y-77693000I0J-75000D01*
G01*
X169549000Y-77843000D01*
G75*
G02*
X169474000Y-77918000I-75000J0D01*
G01*
X168149000Y-77918000D01*
G75*
G02*
X168074000Y-77843000I0J75000D01*
G01*
G37*
G36*
G01*
X168074000Y-78343000D02*
X168074000Y-78193000D01*
G75*
G02*
X168149000Y-78118000I75000J0D01*
G01*
X169474000Y-78118000D01*
G75*
G02*
X169549000Y-78193000I0J-75000D01*
G01*
X169549000Y-78343000D01*
G75*
G02*
X169474000Y-78418000I-75000J0D01*
G01*
X168149000Y-78418000D01*
G75*
G02*
X168074000Y-78343000I0J75000D01*
G01*
G37*
G36*
G01*
X168074000Y-78843000D02*
X168074000Y-78693000D01*
G75*
G02*
X168149000Y-78618000I75000J0D01*
G01*
X169474000Y-78618000D01*
G75*
G02*
X169549000Y-78693000I0J-75000D01*
G01*
X169549000Y-78843000D01*
G75*
G02*
X169474000Y-78918000I-75000J0D01*
G01*
X168149000Y-78918000D01*
G75*
G02*
X168074000Y-78843000I0J75000D01*
G01*
G37*
G36*
G01*
X168074000Y-79343000D02*
X168074000Y-79193000D01*
G75*
G02*
X168149000Y-79118000I75000J0D01*
G01*
X169474000Y-79118000D01*
G75*
G02*
X169549000Y-79193000I0J-75000D01*
G01*
X169549000Y-79343000D01*
G75*
G02*
X169474000Y-79418000I-75000J0D01*
G01*
X168149000Y-79418000D01*
G75*
G02*
X168074000Y-79343000I0J75000D01*
G01*
G37*
G36*
G01*
X168074000Y-79843000D02*
X168074000Y-79693000D01*
G75*
G02*
X168149000Y-79618000I75000J0D01*
G01*
X169474000Y-79618000D01*
G75*
G02*
X169549000Y-79693000I0J-75000D01*
G01*
X169549000Y-79843000D01*
G75*
G02*
X169474000Y-79918000I-75000J0D01*
G01*
X168149000Y-79918000D01*
G75*
G02*
X168074000Y-79843000I0J75000D01*
G01*
G37*
G36*
G01*
X168074000Y-80343000D02*
X168074000Y-80193000D01*
G75*
G02*
X168149000Y-80118000I75000J0D01*
G01*
X169474000Y-80118000D01*
G75*
G02*
X169549000Y-80193000I0J-75000D01*
G01*
X169549000Y-80343000D01*
G75*
G02*
X169474000Y-80418000I-75000J0D01*
G01*
X168149000Y-80418000D01*
G75*
G02*
X168074000Y-80343000I0J75000D01*
G01*
G37*
G36*
G01*
X168074000Y-80843000D02*
X168074000Y-80693000D01*
G75*
G02*
X168149000Y-80618000I75000J0D01*
G01*
X169474000Y-80618000D01*
G75*
G02*
X169549000Y-80693000I0J-75000D01*
G01*
X169549000Y-80843000D01*
G75*
G02*
X169474000Y-80918000I-75000J0D01*
G01*
X168149000Y-80918000D01*
G75*
G02*
X168074000Y-80843000I0J75000D01*
G01*
G37*
G36*
G01*
X168074000Y-81343000D02*
X168074000Y-81193000D01*
G75*
G02*
X168149000Y-81118000I75000J0D01*
G01*
X169474000Y-81118000D01*
G75*
G02*
X169549000Y-81193000I0J-75000D01*
G01*
X169549000Y-81343000D01*
G75*
G02*
X169474000Y-81418000I-75000J0D01*
G01*
X168149000Y-81418000D01*
G75*
G02*
X168074000Y-81343000I0J75000D01*
G01*
G37*
G36*
G01*
X168074000Y-81843000D02*
X168074000Y-81693000D01*
G75*
G02*
X168149000Y-81618000I75000J0D01*
G01*
X169474000Y-81618000D01*
G75*
G02*
X169549000Y-81693000I0J-75000D01*
G01*
X169549000Y-81843000D01*
G75*
G02*
X169474000Y-81918000I-75000J0D01*
G01*
X168149000Y-81918000D01*
G75*
G02*
X168074000Y-81843000I0J75000D01*
G01*
G37*
G36*
G01*
X168074000Y-82343000D02*
X168074000Y-82193000D01*
G75*
G02*
X168149000Y-82118000I75000J0D01*
G01*
X169474000Y-82118000D01*
G75*
G02*
X169549000Y-82193000I0J-75000D01*
G01*
X169549000Y-82343000D01*
G75*
G02*
X169474000Y-82418000I-75000J0D01*
G01*
X168149000Y-82418000D01*
G75*
G02*
X168074000Y-82343000I0J75000D01*
G01*
G37*
G36*
G01*
X168074000Y-82843000D02*
X168074000Y-82693000D01*
G75*
G02*
X168149000Y-82618000I75000J0D01*
G01*
X169474000Y-82618000D01*
G75*
G02*
X169549000Y-82693000I0J-75000D01*
G01*
X169549000Y-82843000D01*
G75*
G02*
X169474000Y-82918000I-75000J0D01*
G01*
X168149000Y-82918000D01*
G75*
G02*
X168074000Y-82843000I0J75000D01*
G01*
G37*
G36*
G01*
X168074000Y-83343000D02*
X168074000Y-83193000D01*
G75*
G02*
X168149000Y-83118000I75000J0D01*
G01*
X169474000Y-83118000D01*
G75*
G02*
X169549000Y-83193000I0J-75000D01*
G01*
X169549000Y-83343000D01*
G75*
G02*
X169474000Y-83418000I-75000J0D01*
G01*
X168149000Y-83418000D01*
G75*
G02*
X168074000Y-83343000I0J75000D01*
G01*
G37*
G36*
G01*
X179686000Y-80956999D02*
X179686000Y-81857001D01*
G75*
G02*
X179436001Y-82107000I-249999J0D01*
G01*
X178735999Y-82107000D01*
G75*
G02*
X178486000Y-81857001I0J249999D01*
G01*
X178486000Y-80956999D01*
G75*
G02*
X178735999Y-80707000I249999J0D01*
G01*
X179436001Y-80707000D01*
G75*
G02*
X179686000Y-80956999I0J-249999D01*
G01*
G37*
G36*
G01*
X181686000Y-80956999D02*
X181686000Y-81857001D01*
G75*
G02*
X181436001Y-82107000I-249999J0D01*
G01*
X180735999Y-82107000D01*
G75*
G02*
X180486000Y-81857001I0J249999D01*
G01*
X180486000Y-80956999D01*
G75*
G02*
X180735999Y-80707000I249999J0D01*
G01*
X181436001Y-80707000D01*
G75*
G02*
X181686000Y-80956999I0J-249999D01*
G01*
G37*
G36*
G01*
X153866001Y-96374000D02*
X152965999Y-96374000D01*
G75*
G02*
X152716000Y-96124001I0J249999D01*
G01*
X152716000Y-95423999D01*
G75*
G02*
X152965999Y-95174000I249999J0D01*
G01*
X153866001Y-95174000D01*
G75*
G02*
X154116000Y-95423999I0J-249999D01*
G01*
X154116000Y-96124001D01*
G75*
G02*
X153866001Y-96374000I-249999J0D01*
G01*
G37*
G36*
G01*
X153866001Y-98374000D02*
X152965999Y-98374000D01*
G75*
G02*
X152716000Y-98124001I0J249999D01*
G01*
X152716000Y-97423999D01*
G75*
G02*
X152965999Y-97174000I249999J0D01*
G01*
X153866001Y-97174000D01*
G75*
G02*
X154116000Y-97423999I0J-249999D01*
G01*
X154116000Y-98124001D01*
G75*
G02*
X153866001Y-98374000I-249999J0D01*
G01*
G37*
G36*
G01*
X172066000Y-87052999D02*
X172066000Y-87953001D01*
G75*
G02*
X171816001Y-88203000I-249999J0D01*
G01*
X171115999Y-88203000D01*
G75*
G02*
X170866000Y-87953001I0J249999D01*
G01*
X170866000Y-87052999D01*
G75*
G02*
X171115999Y-86803000I249999J0D01*
G01*
X171816001Y-86803000D01*
G75*
G02*
X172066000Y-87052999I0J-249999D01*
G01*
G37*
G36*
G01*
X174066000Y-87052999D02*
X174066000Y-87953001D01*
G75*
G02*
X173816001Y-88203000I-249999J0D01*
G01*
X173115999Y-88203000D01*
G75*
G02*
X172866000Y-87953001I0J249999D01*
G01*
X172866000Y-87052999D01*
G75*
G02*
X173115999Y-86803000I249999J0D01*
G01*
X173816001Y-86803000D01*
G75*
G02*
X174066000Y-87052999I0J-249999D01*
G01*
G37*
G36*
G01*
X167786000Y-87953001D02*
X167786000Y-87052999D01*
G75*
G02*
X168035999Y-86803000I249999J0D01*
G01*
X168736001Y-86803000D01*
G75*
G02*
X168986000Y-87052999I0J-249999D01*
G01*
X168986000Y-87953001D01*
G75*
G02*
X168736001Y-88203000I-249999J0D01*
G01*
X168035999Y-88203000D01*
G75*
G02*
X167786000Y-87953001I0J249999D01*
G01*
G37*
G36*
G01*
X165786000Y-87953001D02*
X165786000Y-87052999D01*
G75*
G02*
X166035999Y-86803000I249999J0D01*
G01*
X166736001Y-86803000D01*
G75*
G02*
X166986000Y-87052999I0J-249999D01*
G01*
X166986000Y-87953001D01*
G75*
G02*
X166736001Y-88203000I-249999J0D01*
G01*
X166035999Y-88203000D01*
G75*
G02*
X165786000Y-87953001I0J249999D01*
G01*
G37*
G36*
G01*
X155898001Y-96374000D02*
X154997999Y-96374000D01*
G75*
G02*
X154748000Y-96124001I0J249999D01*
G01*
X154748000Y-95423999D01*
G75*
G02*
X154997999Y-95174000I249999J0D01*
G01*
X155898001Y-95174000D01*
G75*
G02*
X156148000Y-95423999I0J-249999D01*
G01*
X156148000Y-96124001D01*
G75*
G02*
X155898001Y-96374000I-249999J0D01*
G01*
G37*
G36*
G01*
X155898001Y-98374000D02*
X154997999Y-98374000D01*
G75*
G02*
X154748000Y-98124001I0J249999D01*
G01*
X154748000Y-97423999D01*
G75*
G02*
X154997999Y-97174000I249999J0D01*
G01*
X155898001Y-97174000D01*
G75*
G02*
X156148000Y-97423999I0J-249999D01*
G01*
X156148000Y-98124001D01*
G75*
G02*
X155898001Y-98374000I-249999J0D01*
G01*
G37*
G36*
G01*
X164280001Y-41764000D02*
X163379999Y-41764000D01*
G75*
G02*
X163130000Y-41514001I0J249999D01*
G01*
X163130000Y-40813999D01*
G75*
G02*
X163379999Y-40564000I249999J0D01*
G01*
X164280001Y-40564000D01*
G75*
G02*
X164530000Y-40813999I0J-249999D01*
G01*
X164530000Y-41514001D01*
G75*
G02*
X164280001Y-41764000I-249999J0D01*
G01*
G37*
G36*
G01*
X164280001Y-43764000D02*
X163379999Y-43764000D01*
G75*
G02*
X163130000Y-43514001I0J249999D01*
G01*
X163130000Y-42813999D01*
G75*
G02*
X163379999Y-42564000I249999J0D01*
G01*
X164280001Y-42564000D01*
G75*
G02*
X164530000Y-42813999I0J-249999D01*
G01*
X164530000Y-43514001D01*
G75*
G02*
X164280001Y-43764000I-249999J0D01*
G01*
G37*
G36*
G01*
X176168000Y-147389001D02*
X176168000Y-146488999D01*
G75*
G02*
X176417999Y-146239000I249999J0D01*
G01*
X177118001Y-146239000D01*
G75*
G02*
X177368000Y-146488999I0J-249999D01*
G01*
X177368000Y-147389001D01*
G75*
G02*
X177118001Y-147639000I-249999J0D01*
G01*
X176417999Y-147639000D01*
G75*
G02*
X176168000Y-147389001I0J249999D01*
G01*
G37*
G36*
G01*
X174168000Y-147389001D02*
X174168000Y-146488999D01*
G75*
G02*
X174417999Y-146239000I249999J0D01*
G01*
X175118001Y-146239000D01*
G75*
G02*
X175368000Y-146488999I0J-249999D01*
G01*
X175368000Y-147389001D01*
G75*
G02*
X175118001Y-147639000I-249999J0D01*
G01*
X174417999Y-147639000D01*
G75*
G02*
X174168000Y-147389001I0J249999D01*
G01*
G37*
G36*
G01*
X144456999Y-65424000D02*
X145357001Y-65424000D01*
G75*
G02*
X145607000Y-65673999I0J-249999D01*
G01*
X145607000Y-66374001D01*
G75*
G02*
X145357001Y-66624000I-249999J0D01*
G01*
X144456999Y-66624000D01*
G75*
G02*
X144207000Y-66374001I0J249999D01*
G01*
X144207000Y-65673999D01*
G75*
G02*
X144456999Y-65424000I249999J0D01*
G01*
G37*
G36*
G01*
X144456999Y-63424000D02*
X145357001Y-63424000D01*
G75*
G02*
X145607000Y-63673999I0J-249999D01*
G01*
X145607000Y-64374001D01*
G75*
G02*
X145357001Y-64624000I-249999J0D01*
G01*
X144456999Y-64624000D01*
G75*
G02*
X144207000Y-64374001I0J249999D01*
G01*
X144207000Y-63673999D01*
G75*
G02*
X144456999Y-63424000I249999J0D01*
G01*
G37*
G36*
G01*
X146488999Y-65424000D02*
X147389001Y-65424000D01*
G75*
G02*
X147639000Y-65673999I0J-249999D01*
G01*
X147639000Y-66374001D01*
G75*
G02*
X147389001Y-66624000I-249999J0D01*
G01*
X146488999Y-66624000D01*
G75*
G02*
X146239000Y-66374001I0J249999D01*
G01*
X146239000Y-65673999D01*
G75*
G02*
X146488999Y-65424000I249999J0D01*
G01*
G37*
G36*
G01*
X146488999Y-63424000D02*
X147389001Y-63424000D01*
G75*
G02*
X147639000Y-63673999I0J-249999D01*
G01*
X147639000Y-64374001D01*
G75*
G02*
X147389001Y-64624000I-249999J0D01*
G01*
X146488999Y-64624000D01*
G75*
G02*
X146239000Y-64374001I0J249999D01*
G01*
X146239000Y-63673999D01*
G75*
G02*
X146488999Y-63424000I249999J0D01*
G01*
G37*
G36*
G01*
X143186999Y-42564000D02*
X144087001Y-42564000D01*
G75*
G02*
X144337000Y-42813999I0J-249999D01*
G01*
X144337000Y-43514001D01*
G75*
G02*
X144087001Y-43764000I-249999J0D01*
G01*
X143186999Y-43764000D01*
G75*
G02*
X142937000Y-43514001I0J249999D01*
G01*
X142937000Y-42813999D01*
G75*
G02*
X143186999Y-42564000I249999J0D01*
G01*
G37*
G36*
G01*
X143186999Y-40564000D02*
X144087001Y-40564000D01*
G75*
G02*
X144337000Y-40813999I0J-249999D01*
G01*
X144337000Y-41514001D01*
G75*
G02*
X144087001Y-41764000I-249999J0D01*
G01*
X143186999Y-41764000D01*
G75*
G02*
X142937000Y-41514001I0J249999D01*
G01*
X142937000Y-40813999D01*
G75*
G02*
X143186999Y-40564000I249999J0D01*
G01*
G37*
G36*
G01*
X131337000Y-46805001D02*
X131337000Y-45904999D01*
G75*
G02*
X131586999Y-45655000I249999J0D01*
G01*
X132287001Y-45655000D01*
G75*
G02*
X132537000Y-45904999I0J-249999D01*
G01*
X132537000Y-46805001D01*
G75*
G02*
X132287001Y-47055000I-249999J0D01*
G01*
X131586999Y-47055000D01*
G75*
G02*
X131337000Y-46805001I0J249999D01*
G01*
G37*
G36*
G01*
X129337000Y-46805001D02*
X129337000Y-45904999D01*
G75*
G02*
X129586999Y-45655000I249999J0D01*
G01*
X130287001Y-45655000D01*
G75*
G02*
X130537000Y-45904999I0J-249999D01*
G01*
X130537000Y-46805001D01*
G75*
G02*
X130287001Y-47055000I-249999J0D01*
G01*
X129586999Y-47055000D01*
G75*
G02*
X129337000Y-46805001I0J249999D01*
G01*
G37*
G36*
G01*
X121050000Y-46805001D02*
X121050000Y-45904999D01*
G75*
G02*
X121299999Y-45655000I249999J0D01*
G01*
X122000001Y-45655000D01*
G75*
G02*
X122250000Y-45904999I0J-249999D01*
G01*
X122250000Y-46805001D01*
G75*
G02*
X122000001Y-47055000I-249999J0D01*
G01*
X121299999Y-47055000D01*
G75*
G02*
X121050000Y-46805001I0J249999D01*
G01*
G37*
G36*
G01*
X119050000Y-46805001D02*
X119050000Y-45904999D01*
G75*
G02*
X119299999Y-45655000I249999J0D01*
G01*
X120000001Y-45655000D01*
G75*
G02*
X120250000Y-45904999I0J-249999D01*
G01*
X120250000Y-46805001D01*
G75*
G02*
X120000001Y-47055000I-249999J0D01*
G01*
X119299999Y-47055000D01*
G75*
G02*
X119050000Y-46805001I0J249999D01*
G01*
G37*
G36*
G01*
X125212000Y-63487000D02*
X123962000Y-63487000D01*
G75*
G02*
X123712000Y-63237000I0J250000D01*
G01*
X123712000Y-62312000D01*
G75*
G02*
X123962000Y-62062000I250000J0D01*
G01*
X125212000Y-62062000D01*
G75*
G02*
X125462000Y-62312000I0J-250000D01*
G01*
X125462000Y-63237000D01*
G75*
G02*
X125212000Y-63487000I-250000J0D01*
G01*
G37*
G36*
G01*
X125212000Y-66462000D02*
X123962000Y-66462000D01*
G75*
G02*
X123712000Y-66212000I0J250000D01*
G01*
X123712000Y-65287000D01*
G75*
G02*
X123962000Y-65037000I250000J0D01*
G01*
X125212000Y-65037000D01*
G75*
G02*
X125462000Y-65287000I0J-250000D01*
G01*
X125462000Y-66212000D01*
G75*
G02*
X125212000Y-66462000I-250000J0D01*
G01*
G37*
D21*
X178942000Y-142748000D03*
X175642000Y-142748000D03*
D22*
X146177000Y-148843000D03*
X146177000Y-145543000D03*
X117602000Y-148843000D03*
X117602000Y-145543000D03*
D21*
X148972000Y-132842000D03*
X152272000Y-132842000D03*
X129922000Y-132842000D03*
X133222000Y-132842000D03*
X116968000Y-132842000D03*
X120268000Y-132842000D03*
X157098000Y-113792000D03*
X153798000Y-113792000D03*
X148972000Y-113792000D03*
X152272000Y-113792000D03*
X129922000Y-113792000D03*
X133222000Y-113792000D03*
X110872000Y-113792000D03*
X114172000Y-113792000D03*
X148368750Y-94742000D03*
X151668750Y-94742000D03*
X132081000Y-94742000D03*
X135381000Y-94742000D03*
X110872000Y-94742000D03*
X114172000Y-94742000D03*
D22*
X165227000Y-69216000D03*
X165227000Y-72516000D03*
D21*
X148972000Y-75692000D03*
X152272000Y-75692000D03*
X132081000Y-75692000D03*
X135381000Y-75692000D03*
X110872000Y-75692000D03*
X114172000Y-75692000D03*
X168022000Y-56642000D03*
X171322000Y-56642000D03*
X148972000Y-56642000D03*
X152272000Y-56642000D03*
X129922000Y-56642000D03*
X133222000Y-56642000D03*
X110872000Y-56642000D03*
X114172000Y-56642000D03*
D22*
X164973000Y-48259000D03*
X164973000Y-44959000D03*
D23*
X147023000Y-61275000D03*
X147023000Y-59375000D03*
X144823000Y-59375000D03*
D24*
X144823000Y-61095000D03*
D22*
X127762000Y-62612000D03*
X127762000Y-65912000D03*
G36*
G01*
X169766000Y-89974000D02*
X168816000Y-89974000D01*
G75*
G02*
X168566000Y-89724000I0J250000D01*
G01*
X168566000Y-89049000D01*
G75*
G02*
X168816000Y-88799000I250000J0D01*
G01*
X169766000Y-88799000D01*
G75*
G02*
X170016000Y-89049000I0J-250000D01*
G01*
X170016000Y-89724000D01*
G75*
G02*
X169766000Y-89974000I-250000J0D01*
G01*
G37*
G36*
G01*
X169766000Y-92049000D02*
X168816000Y-92049000D01*
G75*
G02*
X168566000Y-91799000I0J250000D01*
G01*
X168566000Y-91124000D01*
G75*
G02*
X168816000Y-90874000I250000J0D01*
G01*
X169766000Y-90874000D01*
G75*
G02*
X170016000Y-91124000I0J-250000D01*
G01*
X170016000Y-91799000D01*
G75*
G02*
X169766000Y-92049000I-250000J0D01*
G01*
G37*
G36*
G01*
X170848000Y-90874000D02*
X171798000Y-90874000D01*
G75*
G02*
X172048000Y-91124000I0J-250000D01*
G01*
X172048000Y-91799000D01*
G75*
G02*
X171798000Y-92049000I-250000J0D01*
G01*
X170848000Y-92049000D01*
G75*
G02*
X170598000Y-91799000I0J250000D01*
G01*
X170598000Y-91124000D01*
G75*
G02*
X170848000Y-90874000I250000J0D01*
G01*
G37*
G36*
G01*
X170848000Y-88799000D02*
X171798000Y-88799000D01*
G75*
G02*
X172048000Y-89049000I0J-250000D01*
G01*
X172048000Y-89724000D01*
G75*
G02*
X171798000Y-89974000I-250000J0D01*
G01*
X170848000Y-89974000D01*
G75*
G02*
X170598000Y-89724000I0J250000D01*
G01*
X170598000Y-89049000D01*
G75*
G02*
X170848000Y-88799000I250000J0D01*
G01*
G37*
G36*
G01*
X180536000Y-79850000D02*
X180536000Y-78900000D01*
G75*
G02*
X180786000Y-78650000I250000J0D01*
G01*
X181461000Y-78650000D01*
G75*
G02*
X181711000Y-78900000I0J-250000D01*
G01*
X181711000Y-79850000D01*
G75*
G02*
X181461000Y-80100000I-250000J0D01*
G01*
X180786000Y-80100000D01*
G75*
G02*
X180536000Y-79850000I0J250000D01*
G01*
G37*
G36*
G01*
X178461000Y-79850000D02*
X178461000Y-78900000D01*
G75*
G02*
X178711000Y-78650000I250000J0D01*
G01*
X179386000Y-78650000D01*
G75*
G02*
X179636000Y-78900000I0J-250000D01*
G01*
X179636000Y-79850000D01*
G75*
G02*
X179386000Y-80100000I-250000J0D01*
G01*
X178711000Y-80100000D01*
G75*
G02*
X178461000Y-79850000I0J250000D01*
G01*
G37*
G36*
G01*
X180536000Y-77818000D02*
X180536000Y-76868000D01*
G75*
G02*
X180786000Y-76618000I250000J0D01*
G01*
X181461000Y-76618000D01*
G75*
G02*
X181711000Y-76868000I0J-250000D01*
G01*
X181711000Y-77818000D01*
G75*
G02*
X181461000Y-78068000I-250000J0D01*
G01*
X180786000Y-78068000D01*
G75*
G02*
X180536000Y-77818000I0J250000D01*
G01*
G37*
G36*
G01*
X178461000Y-77818000D02*
X178461000Y-76868000D01*
G75*
G02*
X178711000Y-76618000I250000J0D01*
G01*
X179386000Y-76618000D01*
G75*
G02*
X179636000Y-76868000I0J-250000D01*
G01*
X179636000Y-77818000D01*
G75*
G02*
X179386000Y-78068000I-250000J0D01*
G01*
X178711000Y-78068000D01*
G75*
G02*
X178461000Y-77818000I0J250000D01*
G01*
G37*
G36*
G01*
X166834400Y-75852000D02*
X166834400Y-76802000D01*
G75*
G02*
X166584400Y-77052000I-250000J0D01*
G01*
X165909400Y-77052000D01*
G75*
G02*
X165659400Y-76802000I0J250000D01*
G01*
X165659400Y-75852000D01*
G75*
G02*
X165909400Y-75602000I250000J0D01*
G01*
X166584400Y-75602000D01*
G75*
G02*
X166834400Y-75852000I0J-250000D01*
G01*
G37*
G36*
G01*
X168909400Y-75852000D02*
X168909400Y-76802000D01*
G75*
G02*
X168659400Y-77052000I-250000J0D01*
G01*
X167984400Y-77052000D01*
G75*
G02*
X167734400Y-76802000I0J250000D01*
G01*
X167734400Y-75852000D01*
G75*
G02*
X167984400Y-75602000I250000J0D01*
G01*
X168659400Y-75602000D01*
G75*
G02*
X168909400Y-75852000I0J-250000D01*
G01*
G37*
G36*
G01*
X166784000Y-90874000D02*
X167734000Y-90874000D01*
G75*
G02*
X167984000Y-91124000I0J-250000D01*
G01*
X167984000Y-91799000D01*
G75*
G02*
X167734000Y-92049000I-250000J0D01*
G01*
X166784000Y-92049000D01*
G75*
G02*
X166534000Y-91799000I0J250000D01*
G01*
X166534000Y-91124000D01*
G75*
G02*
X166784000Y-90874000I250000J0D01*
G01*
G37*
G36*
G01*
X166784000Y-88799000D02*
X167734000Y-88799000D01*
G75*
G02*
X167984000Y-89049000I0J-250000D01*
G01*
X167984000Y-89724000D01*
G75*
G02*
X167734000Y-89974000I-250000J0D01*
G01*
X166784000Y-89974000D01*
G75*
G02*
X166534000Y-89724000I0J250000D01*
G01*
X166534000Y-89049000D01*
G75*
G02*
X166784000Y-88799000I250000J0D01*
G01*
G37*
G36*
G01*
X164752000Y-90874000D02*
X165702000Y-90874000D01*
G75*
G02*
X165952000Y-91124000I0J-250000D01*
G01*
X165952000Y-91799000D01*
G75*
G02*
X165702000Y-92049000I-250000J0D01*
G01*
X164752000Y-92049000D01*
G75*
G02*
X164502000Y-91799000I0J250000D01*
G01*
X164502000Y-91124000D01*
G75*
G02*
X164752000Y-90874000I250000J0D01*
G01*
G37*
G36*
G01*
X164752000Y-88799000D02*
X165702000Y-88799000D01*
G75*
G02*
X165952000Y-89049000I0J-250000D01*
G01*
X165952000Y-89724000D01*
G75*
G02*
X165702000Y-89974000I-250000J0D01*
G01*
X164752000Y-89974000D01*
G75*
G02*
X164502000Y-89724000I0J250000D01*
G01*
X164502000Y-89049000D01*
G75*
G02*
X164752000Y-88799000I250000J0D01*
G01*
G37*
G36*
G01*
X163228000Y-103447000D02*
X164178000Y-103447000D01*
G75*
G02*
X164428000Y-103697000I0J-250000D01*
G01*
X164428000Y-104372000D01*
G75*
G02*
X164178000Y-104622000I-250000J0D01*
G01*
X163228000Y-104622000D01*
G75*
G02*
X162978000Y-104372000I0J250000D01*
G01*
X162978000Y-103697000D01*
G75*
G02*
X163228000Y-103447000I250000J0D01*
G01*
G37*
G36*
G01*
X163228000Y-101372000D02*
X164178000Y-101372000D01*
G75*
G02*
X164428000Y-101622000I0J-250000D01*
G01*
X164428000Y-102297000D01*
G75*
G02*
X164178000Y-102547000I-250000J0D01*
G01*
X163228000Y-102547000D01*
G75*
G02*
X162978000Y-102297000I0J250000D01*
G01*
X162978000Y-101622000D01*
G75*
G02*
X163228000Y-101372000I250000J0D01*
G01*
G37*
G36*
G01*
X170848000Y-103447000D02*
X171798000Y-103447000D01*
G75*
G02*
X172048000Y-103697000I0J-250000D01*
G01*
X172048000Y-104372000D01*
G75*
G02*
X171798000Y-104622000I-250000J0D01*
G01*
X170848000Y-104622000D01*
G75*
G02*
X170598000Y-104372000I0J250000D01*
G01*
X170598000Y-103697000D01*
G75*
G02*
X170848000Y-103447000I250000J0D01*
G01*
G37*
G36*
G01*
X170848000Y-101372000D02*
X171798000Y-101372000D01*
G75*
G02*
X172048000Y-101622000I0J-250000D01*
G01*
X172048000Y-102297000D01*
G75*
G02*
X171798000Y-102547000I-250000J0D01*
G01*
X170848000Y-102547000D01*
G75*
G02*
X170598000Y-102297000I0J250000D01*
G01*
X170598000Y-101622000D01*
G75*
G02*
X170848000Y-101372000I250000J0D01*
G01*
G37*
G36*
G01*
X166591000Y-41714000D02*
X165641000Y-41714000D01*
G75*
G02*
X165391000Y-41464000I0J250000D01*
G01*
X165391000Y-40789000D01*
G75*
G02*
X165641000Y-40539000I250000J0D01*
G01*
X166591000Y-40539000D01*
G75*
G02*
X166841000Y-40789000I0J-250000D01*
G01*
X166841000Y-41464000D01*
G75*
G02*
X166591000Y-41714000I-250000J0D01*
G01*
G37*
G36*
G01*
X166591000Y-43789000D02*
X165641000Y-43789000D01*
G75*
G02*
X165391000Y-43539000I0J250000D01*
G01*
X165391000Y-42864000D01*
G75*
G02*
X165641000Y-42614000I250000J0D01*
G01*
X166591000Y-42614000D01*
G75*
G02*
X166841000Y-42864000I0J-250000D01*
G01*
X166841000Y-43539000D01*
G75*
G02*
X166591000Y-43789000I-250000J0D01*
G01*
G37*
G36*
G01*
X164904000Y-110777000D02*
X164904000Y-111727000D01*
G75*
G02*
X164654000Y-111977000I-250000J0D01*
G01*
X163979000Y-111977000D01*
G75*
G02*
X163729000Y-111727000I0J250000D01*
G01*
X163729000Y-110777000D01*
G75*
G02*
X163979000Y-110527000I250000J0D01*
G01*
X164654000Y-110527000D01*
G75*
G02*
X164904000Y-110777000I0J-250000D01*
G01*
G37*
G36*
G01*
X166979000Y-110777000D02*
X166979000Y-111727000D01*
G75*
G02*
X166729000Y-111977000I-250000J0D01*
G01*
X166054000Y-111977000D01*
G75*
G02*
X165804000Y-111727000I0J250000D01*
G01*
X165804000Y-110777000D01*
G75*
G02*
X166054000Y-110527000I250000J0D01*
G01*
X166729000Y-110527000D01*
G75*
G02*
X166979000Y-110777000I0J-250000D01*
G01*
G37*
G36*
G01*
X140876000Y-42614000D02*
X141826000Y-42614000D01*
G75*
G02*
X142076000Y-42864000I0J-250000D01*
G01*
X142076000Y-43539000D01*
G75*
G02*
X141826000Y-43789000I-250000J0D01*
G01*
X140876000Y-43789000D01*
G75*
G02*
X140626000Y-43539000I0J250000D01*
G01*
X140626000Y-42864000D01*
G75*
G02*
X140876000Y-42614000I250000J0D01*
G01*
G37*
G36*
G01*
X140876000Y-40539000D02*
X141826000Y-40539000D01*
G75*
G02*
X142076000Y-40789000I0J-250000D01*
G01*
X142076000Y-41464000D01*
G75*
G02*
X141826000Y-41714000I-250000J0D01*
G01*
X140876000Y-41714000D01*
G75*
G02*
X140626000Y-41464000I0J250000D01*
G01*
X140626000Y-40789000D01*
G75*
G02*
X140876000Y-40539000I250000J0D01*
G01*
G37*
G36*
G01*
X162400000Y-122740000D02*
X161450000Y-122740000D01*
G75*
G02*
X161200000Y-122490000I0J250000D01*
G01*
X161200000Y-121815000D01*
G75*
G02*
X161450000Y-121565000I250000J0D01*
G01*
X162400000Y-121565000D01*
G75*
G02*
X162650000Y-121815000I0J-250000D01*
G01*
X162650000Y-122490000D01*
G75*
G02*
X162400000Y-122740000I-250000J0D01*
G01*
G37*
G36*
G01*
X162400000Y-124815000D02*
X161450000Y-124815000D01*
G75*
G02*
X161200000Y-124565000I0J250000D01*
G01*
X161200000Y-123890000D01*
G75*
G02*
X161450000Y-123640000I250000J0D01*
G01*
X162400000Y-123640000D01*
G75*
G02*
X162650000Y-123890000I0J-250000D01*
G01*
X162650000Y-124565000D01*
G75*
G02*
X162400000Y-124815000I-250000J0D01*
G01*
G37*
G36*
G01*
X176842000Y-123985000D02*
X176842000Y-124935000D01*
G75*
G02*
X176592000Y-125185000I-250000J0D01*
G01*
X175917000Y-125185000D01*
G75*
G02*
X175667000Y-124935000I0J250000D01*
G01*
X175667000Y-123985000D01*
G75*
G02*
X175917000Y-123735000I250000J0D01*
G01*
X176592000Y-123735000D01*
G75*
G02*
X176842000Y-123985000I0J-250000D01*
G01*
G37*
G36*
G01*
X178917000Y-123985000D02*
X178917000Y-124935000D01*
G75*
G02*
X178667000Y-125185000I-250000J0D01*
G01*
X177992000Y-125185000D01*
G75*
G02*
X177742000Y-124935000I0J250000D01*
G01*
X177742000Y-123985000D01*
G75*
G02*
X177992000Y-123735000I250000J0D01*
G01*
X178667000Y-123735000D01*
G75*
G02*
X178917000Y-123985000I0J-250000D01*
G01*
G37*
G36*
G01*
X170122000Y-123411000D02*
X170122000Y-122461000D01*
G75*
G02*
X170372000Y-122211000I250000J0D01*
G01*
X171047000Y-122211000D01*
G75*
G02*
X171297000Y-122461000I0J-250000D01*
G01*
X171297000Y-123411000D01*
G75*
G02*
X171047000Y-123661000I-250000J0D01*
G01*
X170372000Y-123661000D01*
G75*
G02*
X170122000Y-123411000I0J250000D01*
G01*
G37*
G36*
G01*
X168047000Y-123411000D02*
X168047000Y-122461000D01*
G75*
G02*
X168297000Y-122211000I250000J0D01*
G01*
X168972000Y-122211000D01*
G75*
G02*
X169222000Y-122461000I0J-250000D01*
G01*
X169222000Y-123411000D01*
G75*
G02*
X168972000Y-123661000I-250000J0D01*
G01*
X168297000Y-123661000D01*
G75*
G02*
X168047000Y-123411000I0J250000D01*
G01*
G37*
G36*
G01*
X175572000Y-106078000D02*
X175572000Y-107028000D01*
G75*
G02*
X175322000Y-107278000I-250000J0D01*
G01*
X174647000Y-107278000D01*
G75*
G02*
X174397000Y-107028000I0J250000D01*
G01*
X174397000Y-106078000D01*
G75*
G02*
X174647000Y-105828000I250000J0D01*
G01*
X175322000Y-105828000D01*
G75*
G02*
X175572000Y-106078000I0J-250000D01*
G01*
G37*
G36*
G01*
X177647000Y-106078000D02*
X177647000Y-107028000D01*
G75*
G02*
X177397000Y-107278000I-250000J0D01*
G01*
X176722000Y-107278000D01*
G75*
G02*
X176472000Y-107028000I0J250000D01*
G01*
X176472000Y-106078000D01*
G75*
G02*
X176722000Y-105828000I250000J0D01*
G01*
X177397000Y-105828000D01*
G75*
G02*
X177647000Y-106078000I0J-250000D01*
G01*
G37*
G36*
G01*
X175572000Y-104046000D02*
X175572000Y-104996000D01*
G75*
G02*
X175322000Y-105246000I-250000J0D01*
G01*
X174647000Y-105246000D01*
G75*
G02*
X174397000Y-104996000I0J250000D01*
G01*
X174397000Y-104046000D01*
G75*
G02*
X174647000Y-103796000I250000J0D01*
G01*
X175322000Y-103796000D01*
G75*
G02*
X175572000Y-104046000I0J-250000D01*
G01*
G37*
G36*
G01*
X177647000Y-104046000D02*
X177647000Y-104996000D01*
G75*
G02*
X177397000Y-105246000I-250000J0D01*
G01*
X176722000Y-105246000D01*
G75*
G02*
X176472000Y-104996000I0J250000D01*
G01*
X176472000Y-104046000D01*
G75*
G02*
X176722000Y-103796000I250000J0D01*
G01*
X177397000Y-103796000D01*
G75*
G02*
X177647000Y-104046000I0J-250000D01*
G01*
G37*
M02*
