M48
; DRILL file {KiCad (5.1.10)-1} date 06/25/21 21:48:58
; FORMAT={-:-/ absolute / metric / decimal}
; #@! TF.CreationDate,2021-06-25T21:48:58+02:00
; #@! TF.GenerationSoftware,Kicad,Pcbnew,(5.1.10)-1
; #@! TF.FileFunction,NonPlated,1,4,NPTH
FMAT,2
METRIC
T1C0.650
T2C1.750
T3C3.000
T4C3.048
T5C3.988
T6C4.000
%
G90
G05
T1
X122.919Y-42.684
X128.699Y-42.684
T2
X111.601Y-48.419
X111.601Y-67.469
X111.601Y-86.519
X111.601Y-105.569
X111.601Y-124.619
X121.126Y-143.669
X121.761Y-48.419
X121.761Y-67.469
X121.761Y-86.519
X121.761Y-105.569
X121.761Y-124.619
X130.651Y-48.419
X130.651Y-67.469
X130.651Y-86.519
X130.651Y-105.569
X130.651Y-124.619
X131.286Y-143.669
X140.811Y-48.419
X140.811Y-67.469
X140.811Y-86.519
X140.811Y-105.569
X140.811Y-124.619
X149.701Y-48.419
X149.701Y-67.469
X149.701Y-86.519
X149.701Y-105.569
X149.701Y-124.619
X149.701Y-143.669
X159.861Y-48.419
X159.861Y-67.469
X159.861Y-86.519
X159.861Y-105.569
X159.861Y-124.619
X159.861Y-143.669
X168.751Y-48.419
X168.751Y-67.469
X173.831Y-90.964
X173.831Y-101.124
X173.831Y-129.064
X173.831Y-139.224
X178.911Y-48.419
X178.911Y-67.469
T3
X114.141Y-53.499
X114.141Y-72.549
X114.141Y-91.599
X114.141Y-110.649
X114.141Y-129.699
X120.491Y-50.959
X120.491Y-70.009
X120.491Y-89.059
X120.491Y-108.109
X120.491Y-127.159
X123.666Y-148.749
X130.016Y-146.209
X133.191Y-53.499
X133.191Y-72.549
X133.191Y-91.599
X133.191Y-110.649
X133.191Y-129.699
X139.541Y-50.959
X139.541Y-70.009
X139.541Y-89.059
X139.541Y-108.109
X139.541Y-127.159
X152.241Y-53.499
X152.241Y-72.549
X152.241Y-91.599
X152.241Y-110.649
X152.241Y-129.699
X152.241Y-148.749
X158.591Y-50.959
X158.591Y-70.009
X158.591Y-89.059
X158.591Y-108.109
X158.591Y-127.159
X158.591Y-146.209
X171.291Y-53.499
X171.291Y-72.549
X176.371Y-92.234
X176.371Y-130.334
X177.641Y-50.959
X177.641Y-70.009
X178.911Y-98.584
X178.911Y-136.684
T4
X114.268Y-150.654
X138.144Y-150.654
X180.816Y-84.106
X180.816Y-107.982
X180.816Y-122.206
X180.816Y-146.082
T5
X114.268Y-135.414
X138.144Y-135.414
X165.576Y-84.106
X165.576Y-107.982
X165.576Y-122.206
X165.576Y-146.082
T6
X116.681Y-48.419
X116.681Y-67.469
X116.681Y-86.519
X116.681Y-105.569
X116.681Y-124.619
X126.206Y-143.669
X135.731Y-48.419
X135.731Y-67.469
X135.731Y-86.519
X135.731Y-105.569
X135.731Y-124.619
X154.781Y-48.419
X154.781Y-67.469
X154.781Y-86.519
X154.781Y-105.569
X154.781Y-124.619
X154.781Y-143.669
X173.831Y-48.419
X173.831Y-67.469
X173.831Y-96.044
X173.831Y-134.144
T0
M30
