%FSLAX45Y45*%
G04 Gerber Fmt 4.5, Leading zero omitted, Abs format (unit mm)*
G04 Created by KiCad (PCBNEW (5.1.10)-1) date 2021-06-25 21:49:00*
%MOMM*%
%LPD*%
G01*
G04 APERTURE LIST*
%TA.AperFunction,Profile*%
%ADD10C,0.100000*%
%TD*%
%ADD11C,0.200000*%
%ADD12C,0.300000*%
G04 APERTURE END LIST*
D10*
X12065000Y-3810000D02*
X12065000Y-3849687D01*
X13096875Y-3810000D02*
X13096875Y-3849687D01*
X12025312Y-3889375D02*
X11985625Y-3889375D01*
X13057187Y-3770312D02*
X12104687Y-3770312D01*
X13136562Y-3889375D02*
X13255625Y-3889375D01*
X13057187Y-3770312D02*
G75*
G02*
X13096875Y-3810000I0J-39688D01*
G01*
X12065000Y-3849687D02*
G75*
G02*
X12025312Y-3889375I-39688J0D01*
G01*
X12065000Y-3810000D02*
G75*
G02*
X12104687Y-3770312I39688J0D01*
G01*
X13136562Y-3889375D02*
G75*
G02*
X13096875Y-3849687I0J39688D01*
G01*
X10715625Y-15081250D02*
X10715625Y-4127500D01*
X10953750Y-15319375D02*
G75*
G02*
X10715625Y-15081250I0J238125D01*
G01*
X18097500Y-15319375D02*
X10953750Y-15319375D01*
X18335625Y-15081250D02*
G75*
G02*
X18097500Y-15319375I-238125J0D01*
G01*
X18335625Y-4127500D02*
X18335625Y-15081250D01*
X18097500Y-3889375D02*
G75*
G02*
X18335625Y-4127500I0J-238125D01*
G01*
X13255625Y-3889375D02*
X18097500Y-3889375D01*
X10953750Y-3889375D02*
X11985625Y-3889375D01*
X10715625Y-4127500D02*
G75*
G02*
X10953750Y-3889375I238125J0D01*
G01*
D11*
X17062400Y-7816800D02*
X17082400Y-7836800D01*
X17082400Y-7816800D02*
X17062400Y-7836800D01*
X17062400Y-7929300D02*
X17082400Y-7949300D01*
X17082400Y-7929300D02*
X17062400Y-7949300D01*
X17062400Y-8041800D02*
X17082400Y-8061800D01*
X17082400Y-8041800D02*
X17062400Y-8061800D01*
X17062400Y-8154300D02*
X17082400Y-8174300D01*
X17082400Y-8154300D02*
X17062400Y-8174300D01*
X17062400Y-8266800D02*
X17082400Y-8286800D01*
X17082400Y-8266800D02*
X17062400Y-8286800D01*
X17174900Y-7816800D02*
X17194900Y-7836800D01*
X17194900Y-7816800D02*
X17174900Y-7836800D01*
X17174900Y-7929300D02*
X17194900Y-7949300D01*
X17194900Y-7929300D02*
X17174900Y-7949300D01*
X17174900Y-8041800D02*
X17194900Y-8061800D01*
X17194900Y-8041800D02*
X17174900Y-8061800D01*
X17174900Y-8154300D02*
X17194900Y-8174300D01*
X17194900Y-8154300D02*
X17174900Y-8174300D01*
X17174900Y-8266800D02*
X17194900Y-8286800D01*
X17194900Y-8266800D02*
X17174900Y-8286800D01*
X17287400Y-7816800D02*
X17307400Y-7836800D01*
X17307400Y-7816800D02*
X17287400Y-7836800D01*
X17287400Y-7929300D02*
X17307400Y-7949300D01*
X17307400Y-7929300D02*
X17287400Y-7949300D01*
X17287400Y-8041800D02*
X17307400Y-8061800D01*
X17307400Y-8041800D02*
X17287400Y-8061800D01*
X17287400Y-8154300D02*
X17307400Y-8174300D01*
X17307400Y-8154300D02*
X17287400Y-8174300D01*
X17287400Y-8266800D02*
X17307400Y-8286800D01*
X17307400Y-8266800D02*
X17287400Y-8286800D01*
X17399900Y-7816800D02*
X17419900Y-7836800D01*
X17419900Y-7816800D02*
X17399900Y-7836800D01*
X17399900Y-7929300D02*
X17419900Y-7949300D01*
X17419900Y-7929300D02*
X17399900Y-7949300D01*
X17399900Y-8041800D02*
X17419900Y-8061800D01*
X17419900Y-8041800D02*
X17399900Y-8061800D01*
X17399900Y-8154300D02*
X17419900Y-8174300D01*
X17419900Y-8154300D02*
X17399900Y-8174300D01*
X17399900Y-8266800D02*
X17419900Y-8286800D01*
X17419900Y-8266800D02*
X17399900Y-8286800D01*
X17512400Y-7816800D02*
X17532400Y-7836800D01*
X17532400Y-7816800D02*
X17512400Y-7836800D01*
X17512400Y-7929300D02*
X17532400Y-7949300D01*
X17532400Y-7929300D02*
X17512400Y-7949300D01*
X17512400Y-8041800D02*
X17532400Y-8061800D01*
X17532400Y-8041800D02*
X17512400Y-8061800D01*
X17512400Y-8154300D02*
X17532400Y-8174300D01*
X17532400Y-8154300D02*
X17512400Y-8174300D01*
X17512400Y-8266800D02*
X17532400Y-8286800D01*
X17532400Y-8266800D02*
X17512400Y-8286800D01*
X11318000Y-11666220D02*
G75*
G03*
X11318000Y-11666220I-15000J0D01*
G01*
X11343400Y-8483600D02*
G75*
G03*
X11343400Y-8483600I-15000J0D01*
G01*
X11422139Y-11770360D02*
G75*
G03*
X11422139Y-11770360I-15000J0D01*
G01*
X11422140Y-6515100D02*
G75*
G03*
X11422140Y-6515100I-15000J0D01*
G01*
X11422140Y-12158979D02*
G75*
G03*
X11422140Y-12158979I-15000J0D01*
G01*
X11422142Y-8348980D02*
G75*
G03*
X11422142Y-8348980I-15000J0D01*
G01*
X11424544Y-10312264D02*
G75*
G03*
X11424544Y-10312264I-15000J0D01*
G01*
X11424680Y-4597400D02*
G75*
G03*
X11424680Y-4597400I-15000J0D01*
G01*
X11536440Y-9474200D02*
G75*
G03*
X11536440Y-9474200I-15000J0D01*
G01*
X11536440Y-11379200D02*
G75*
G03*
X11536440Y-11379200I-15000J0D01*
G01*
X11536441Y-5664200D02*
G75*
G03*
X11536441Y-5664200I-15000J0D01*
G01*
X11569460Y-7569200D02*
G75*
G03*
X11569460Y-7569200I-15000J0D01*
G01*
X11641060Y-7768679D02*
G75*
G03*
X11641060Y-7768679I-15000J0D01*
G01*
X11706140Y-7340600D02*
G75*
G03*
X11706140Y-7340600I-15000J0D01*
G01*
X11838700Y-12877800D02*
G75*
G03*
X11838700Y-12877800I-15000J0D01*
G01*
X11864100Y-9093200D02*
G75*
G03*
X11864100Y-9093200I-15000J0D01*
G01*
X11940300Y-4508500D02*
G75*
G03*
X11940300Y-4508500I-15000J0D01*
G01*
X11942625Y-9827475D02*
G75*
G03*
X11942625Y-9827475I-15000J0D01*
G01*
X11942840Y-12217400D02*
G75*
G03*
X11942840Y-12217400I-15000J0D01*
G01*
X11942840Y-4122420D02*
G75*
G03*
X11942840Y-4122420I-15000J0D01*
G01*
X11942840Y-6027420D02*
G75*
G03*
X11942840Y-6027420I-15000J0D01*
G01*
X11942840Y-6454140D02*
G75*
G03*
X11942840Y-6454140I-15000J0D01*
G01*
X11942840Y-7917180D02*
G75*
G03*
X11942840Y-7917180I-15000J0D01*
G01*
X11942840Y-8412480D02*
G75*
G03*
X11942840Y-8412480I-15000J0D01*
G01*
X11942840Y-11783060D02*
G75*
G03*
X11942840Y-11783060I-15000J0D01*
G01*
X11953001Y-14554200D02*
G75*
G03*
X11953001Y-14554200I-15000J0D01*
G01*
X12067300Y-10248900D02*
G75*
G03*
X12067300Y-10248900I-15000J0D01*
G01*
X12146040Y-13284200D02*
G75*
G03*
X12146040Y-13284200I-15000J0D01*
G01*
X12156204Y-8483600D02*
G75*
G03*
X12156204Y-8483600I-15000J0D01*
G01*
X12168900Y-12306300D02*
G75*
G03*
X12168900Y-12306300I-15000J0D01*
G01*
X12293360Y-4737100D02*
G75*
G03*
X12293360Y-4737100I-15000J0D01*
G01*
X12377180Y-14063980D02*
G75*
G03*
X12377180Y-14063980I-15000J0D01*
G01*
X12410200Y-7975600D02*
G75*
G03*
X12410200Y-7975600I-15000J0D01*
G01*
X12471160Y-4693920D02*
G75*
G03*
X12471160Y-4693920I-15000J0D01*
G01*
X12549900Y-9408160D02*
G75*
G03*
X12549900Y-9408160I-15000J0D01*
G01*
X12676900Y-10960100D02*
G75*
G03*
X12676900Y-10960100I-15000J0D01*
G01*
X12699760Y-7640320D02*
G75*
G03*
X12699760Y-7640320I-15000J0D01*
G01*
X12740400Y-9359900D02*
G75*
G03*
X12740400Y-9359900I-15000J0D01*
G01*
X12895340Y-14122256D02*
G75*
G03*
X12895340Y-14122256I-15000J0D01*
G01*
X13004560Y-13784580D02*
G75*
G03*
X13004560Y-13784580I-15000J0D01*
G01*
X13121400Y-5570220D02*
G75*
G03*
X13121400Y-5570220I-15000J0D01*
G01*
X13316980Y-4886960D02*
G75*
G03*
X13316980Y-4886960I-15000J0D01*
G01*
X13329347Y-8349316D02*
G75*
G03*
X13329347Y-8349316I-15000J0D01*
G01*
X13329544Y-10312264D02*
G75*
G03*
X13329544Y-10312264I-15000J0D01*
G01*
X13329680Y-6515100D02*
G75*
G03*
X13329680Y-6515100I-15000J0D01*
G01*
X13334429Y-12159460D02*
G75*
G03*
X13334429Y-12159460I-15000J0D01*
G01*
X13350000Y-7703820D02*
G75*
G03*
X13350000Y-7703820I-15000J0D01*
G01*
X13433819Y-4599939D02*
G75*
G03*
X13433819Y-4599939I-15000J0D01*
G01*
X13438900Y-5664200D02*
G75*
G03*
X13438900Y-5664200I-15000J0D01*
G01*
X13441440Y-11379200D02*
G75*
G03*
X13441440Y-11379200I-15000J0D01*
G01*
X13441440Y-13284200D02*
G75*
G03*
X13441440Y-13284200I-15000J0D01*
G01*
X13540500Y-14630400D02*
G75*
G03*
X13540500Y-14630400I-15000J0D01*
G01*
X13657340Y-7569200D02*
G75*
G03*
X13657340Y-7569200I-15000J0D01*
G01*
X13657340Y-9474200D02*
G75*
G03*
X13657340Y-9474200I-15000J0D01*
G01*
X13786880Y-13075920D02*
G75*
G03*
X13786880Y-13075920I-15000J0D01*
G01*
X13847505Y-10254316D02*
G75*
G03*
X13847505Y-10254316I-15000J0D01*
G01*
X13847625Y-9827475D02*
G75*
G03*
X13847625Y-9827475I-15000J0D01*
G01*
X13847840Y-4122420D02*
G75*
G03*
X13847840Y-4122420I-15000J0D01*
G01*
X13847840Y-4541520D02*
G75*
G03*
X13847840Y-4541520I-15000J0D01*
G01*
X13847840Y-6027420D02*
G75*
G03*
X13847840Y-6027420I-15000J0D01*
G01*
X13847840Y-6454140D02*
G75*
G03*
X13847840Y-6454140I-15000J0D01*
G01*
X13847840Y-7917180D02*
G75*
G03*
X13847840Y-7917180I-15000J0D01*
G01*
X13847840Y-11729720D02*
G75*
G03*
X13847840Y-11729720I-15000J0D01*
G01*
X13847841Y-8407400D02*
G75*
G03*
X13847841Y-8407400I-15000J0D01*
G01*
X13858000Y-12219129D02*
G75*
G03*
X13858000Y-12219129I-15000J0D01*
G01*
X13911340Y-11173460D02*
G75*
G03*
X13911340Y-11173460I-15000J0D01*
G01*
X13959600Y-7879560D02*
G75*
G03*
X13959600Y-7879560I-15000J0D01*
G01*
X14012940Y-11173461D02*
G75*
G03*
X14012940Y-11173461I-15000J0D01*
G01*
X14071360Y-11729720D02*
G75*
G03*
X14071360Y-11729720I-15000J0D01*
G01*
X14071360Y-11866880D02*
G75*
G03*
X14071360Y-11866880I-15000J0D01*
G01*
X14082131Y-10378440D02*
G75*
G03*
X14082131Y-10378440I-15000J0D01*
G01*
X14112000Y-5283211D02*
G75*
G03*
X14112000Y-5283211I-15000J0D01*
G01*
X14112000Y-5791200D02*
G75*
G03*
X14112000Y-5791200I-15000J0D01*
G01*
X14114540Y-11173460D02*
G75*
G03*
X14114540Y-11173460I-15000J0D01*
G01*
X14127240Y-8168640D02*
G75*
G03*
X14127240Y-8168640I-15000J0D01*
G01*
X14129780Y-12156440D02*
G75*
G03*
X14129780Y-12156440I-15000J0D01*
G01*
X14134860Y-9276080D02*
G75*
G03*
X14134860Y-9276080I-15000J0D01*
G01*
X14184390Y-9343390D02*
G75*
G03*
X14184390Y-9343390I-15000J0D01*
G01*
X14188200Y-10378441D02*
G75*
G03*
X14188200Y-10378441I-15000J0D01*
G01*
X14238685Y-9408160D02*
G75*
G03*
X14238685Y-9408160I-15000J0D01*
G01*
X14292340Y-10378440D02*
G75*
G03*
X14292340Y-10378440I-15000J0D01*
G01*
X14302500Y-13167360D02*
G75*
G03*
X14302500Y-13167360I-15000J0D01*
G01*
X14810500Y-14554200D02*
G75*
G03*
X14810500Y-14554200I-15000J0D01*
G01*
X15013700Y-9474200D02*
G75*
G03*
X15013700Y-9474200I-15000J0D01*
G01*
X15110220Y-8069580D02*
G75*
G03*
X15110220Y-8069580I-15000J0D01*
G01*
X15110220Y-11879580D02*
G75*
G03*
X15110220Y-11879580I-15000J0D01*
G01*
X15232140Y-6515100D02*
G75*
G03*
X15232140Y-6515100I-15000J0D01*
G01*
X15232140Y-12158980D02*
G75*
G03*
X15232140Y-12158980I-15000J0D01*
G01*
X15234343Y-8349316D02*
G75*
G03*
X15234343Y-8349316I-15000J0D01*
G01*
X15235016Y-14064316D02*
G75*
G03*
X15235016Y-14064316I-15000J0D01*
G01*
X15237078Y-10312264D02*
G75*
G03*
X15237078Y-10312264I-15000J0D01*
G01*
X15239759Y-4599939D02*
G75*
G03*
X15239759Y-4599939I-15000J0D01*
G01*
X15346440Y-5664200D02*
G75*
G03*
X15346440Y-5664200I-15000J0D01*
G01*
X15346440Y-7569200D02*
G75*
G03*
X15346440Y-7569200I-15000J0D01*
G01*
X15346441Y-13284200D02*
G75*
G03*
X15346441Y-13284200I-15000J0D01*
G01*
X15445500Y-7569200D02*
G75*
G03*
X15445500Y-7569200I-15000J0D01*
G01*
X15488680Y-11379200D02*
G75*
G03*
X15488680Y-11379200I-15000J0D01*
G01*
X15557260Y-11427460D02*
G75*
G03*
X15557260Y-11427460I-15000J0D01*
G01*
X15562340Y-9298940D02*
G75*
G03*
X15562340Y-9298940I-15000J0D01*
G01*
X15588070Y-9380551D02*
G75*
G03*
X15588070Y-9380551I-15000J0D01*
G01*
X15616159Y-12800520D02*
G75*
G03*
X15616159Y-12800520I-15000J0D01*
G01*
X15625840Y-11379200D02*
G75*
G03*
X15625840Y-11379200I-15000J0D01*
G01*
X15638779Y-13147279D02*
G75*
G03*
X15638779Y-13147279I-15000J0D01*
G01*
X15648701Y-11112501D02*
G75*
G03*
X15648701Y-11112501I-15000J0D01*
G01*
X15727725Y-13147325D02*
G75*
G03*
X15727725Y-13147325I-15000J0D01*
G01*
X15750300Y-6454140D02*
G75*
G03*
X15750300Y-6454140I-15000J0D01*
G01*
X15752504Y-10254316D02*
G75*
G03*
X15752504Y-10254316I-15000J0D01*
G01*
X15752838Y-8407400D02*
G75*
G03*
X15752838Y-8407400I-15000J0D01*
G01*
X15752840Y-4122420D02*
G75*
G03*
X15752840Y-4122420I-15000J0D01*
G01*
X15752840Y-6027420D02*
G75*
G03*
X15752840Y-6027420I-15000J0D01*
G01*
X15752840Y-7970520D02*
G75*
G03*
X15752840Y-7970520I-15000J0D01*
G01*
X15752840Y-11780520D02*
G75*
G03*
X15752840Y-11780520I-15000J0D01*
G01*
X15752840Y-12219129D02*
G75*
G03*
X15752840Y-12219129I-15000J0D01*
G01*
X15752840Y-14122400D02*
G75*
G03*
X15752840Y-14122400I-15000J0D01*
G01*
X15755380Y-4541520D02*
G75*
G03*
X15755380Y-4541520I-15000J0D01*
G01*
X15829279Y-13147280D02*
G75*
G03*
X15829279Y-13147280I-15000J0D01*
G01*
X15887460Y-13782040D02*
G75*
G03*
X15887460Y-13782040I-15000J0D01*
G01*
X15918179Y-13147280D02*
G75*
G03*
X15918179Y-13147280I-15000J0D01*
G01*
X15943340Y-11056620D02*
G75*
G03*
X15943340Y-11056620I-15000J0D01*
G01*
X15973820Y-11981180D02*
G75*
G03*
X15973820Y-11981180I-15000J0D01*
G01*
X16070340Y-13878560D02*
G75*
G03*
X16070340Y-13878560I-15000J0D01*
G01*
X16075420Y-10060940D02*
G75*
G03*
X16075420Y-10060940I-15000J0D01*
G01*
X16080500Y-11379200D02*
G75*
G03*
X16080500Y-11379200I-15000J0D01*
G01*
X16086060Y-7823200D02*
G75*
G03*
X16086060Y-7823200I-15000J0D01*
G01*
X16116275Y-9827475D02*
G75*
G03*
X16116275Y-9827475I-15000J0D01*
G01*
X16141461Y-7637780D02*
G75*
G03*
X16141461Y-7637780I-15000J0D01*
G01*
X16144000Y-8501380D02*
G75*
G03*
X16144000Y-8501380I-15000J0D01*
G01*
X16169880Y-9202420D02*
G75*
G03*
X16169880Y-9202420I-15000J0D01*
G01*
X16202420Y-12537441D02*
G75*
G03*
X16202420Y-12537441I-15000J0D01*
G01*
X16259566Y-8712200D02*
G75*
G03*
X16259566Y-8712200I-15000J0D01*
G01*
X16283699Y-8064501D02*
G75*
G03*
X16283699Y-8064501I-15000J0D01*
G01*
X16283700Y-7970520D02*
G75*
G03*
X16283700Y-7970520I-15000J0D01*
G01*
X16283700Y-13779500D02*
G75*
G03*
X16283700Y-13779500I-15000J0D01*
G01*
X16283700Y-8242300D02*
G75*
G03*
X16283700Y-8242300I-15000J0D01*
G01*
X16283700Y-8153400D02*
G75*
G03*
X16283700Y-8153400I-15000J0D01*
G01*
X16316720Y-6454140D02*
G75*
G03*
X16316720Y-6454140I-15000J0D01*
G01*
X16326880Y-13939520D02*
G75*
G03*
X16326880Y-13939520I-15000J0D01*
G01*
X16326880Y-14041119D02*
G75*
G03*
X16326880Y-14041119I-15000J0D01*
G01*
X16326882Y-14147800D02*
G75*
G03*
X16326882Y-14147800I-15000J0D01*
G01*
X16334500Y-8618220D02*
G75*
G03*
X16334500Y-8618220I-15000J0D01*
G01*
X16375140Y-6515100D02*
G75*
G03*
X16375140Y-6515100I-15000J0D01*
G01*
X16433560Y-8712200D02*
G75*
G03*
X16433560Y-8712200I-15000J0D01*
G01*
X16443720Y-6134100D02*
G75*
G03*
X16443720Y-6134100I-15000J0D01*
G01*
X16453881Y-9654540D02*
G75*
G03*
X16453881Y-9654540I-15000J0D01*
G01*
X16537700Y-7355840D02*
G75*
G03*
X16537700Y-7355840I-15000J0D01*
G01*
X16601200Y-9862820D02*
G75*
G03*
X16601200Y-9862820I-15000J0D01*
G01*
X16812021Y-7437121D02*
G75*
G03*
X16812021Y-7437121I-15000J0D01*
G01*
X16842500Y-9232900D02*
G75*
G03*
X16842500Y-9232900I-15000J0D01*
G01*
X16847580Y-12628880D02*
G75*
G03*
X16847580Y-12628880I-15000J0D01*
G01*
X16847581Y-12712700D02*
G75*
G03*
X16847581Y-12712700I-15000J0D01*
G01*
X16886948Y-7504433D02*
G75*
G03*
X16886948Y-7504433I-15000J0D01*
G01*
X16956800Y-7548880D02*
G75*
G03*
X16956800Y-7548880I-15000J0D01*
G01*
X16964420Y-8808720D02*
G75*
G03*
X16964420Y-8808720I-15000J0D01*
G01*
X17050780Y-8808720D02*
G75*
G03*
X17050780Y-8808720I-15000J0D01*
G01*
X17063480Y-8590280D02*
G75*
G03*
X17063480Y-8590280I-15000J0D01*
G01*
X17083801Y-9906000D02*
G75*
G03*
X17083801Y-9906000I-15000J0D01*
G01*
X17099385Y-11582418D02*
G75*
G03*
X17099385Y-11582418I-15000J0D01*
G01*
X17132058Y-4599939D02*
G75*
G03*
X17132058Y-4599939I-15000J0D01*
G01*
X17135852Y-11119641D02*
G75*
G03*
X17135852Y-11119641I-15000J0D01*
G01*
X17139680Y-6515100D02*
G75*
G03*
X17139680Y-6515100I-15000J0D01*
G01*
X17160000Y-12827000D02*
G75*
G03*
X17160000Y-12827000I-15000J0D01*
G01*
X17162540Y-8590280D02*
G75*
G03*
X17162540Y-8590280I-15000J0D01*
G01*
X17174626Y-11582281D02*
G75*
G03*
X17174626Y-11582281I-15000J0D01*
G01*
X17174910Y-6931990D02*
G75*
G03*
X17174910Y-6931990I-15000J0D01*
G01*
X17249862Y-11583113D02*
G75*
G03*
X17249862Y-11583113I-15000J0D01*
G01*
X17251440Y-5664200D02*
G75*
G03*
X17251440Y-5664200I-15000J0D01*
G01*
X17292080Y-12598398D02*
G75*
G03*
X17292080Y-12598398I-15000J0D01*
G01*
X17325100Y-11582400D02*
G75*
G03*
X17325100Y-11582400I-15000J0D01*
G01*
X17395454Y-11940540D02*
G75*
G03*
X17395454Y-11940540I-15000J0D01*
G01*
X17444480Y-7452360D02*
G75*
G03*
X17444480Y-7452360I-15000J0D01*
G01*
X17464800Y-10274300D02*
G75*
G03*
X17464800Y-10274300I-15000J0D01*
G01*
X17470695Y-11940540D02*
G75*
G03*
X17470695Y-11940540I-15000J0D01*
G01*
X17474960Y-14274800D02*
G75*
G03*
X17474960Y-14274800I-15000J0D01*
G01*
X17497820Y-7396480D02*
G75*
G03*
X17497820Y-7396480I-15000J0D01*
G01*
X17530840Y-10797540D02*
G75*
G03*
X17530840Y-10797540I-15000J0D01*
G01*
X17545937Y-11940540D02*
G75*
G03*
X17545937Y-11940540I-15000J0D01*
G01*
X17612120Y-10797540D02*
G75*
G03*
X17612120Y-10797540I-15000J0D01*
G01*
X17621178Y-11940540D02*
G75*
G03*
X17621178Y-11940540I-15000J0D01*
G01*
X17655301Y-7703820D02*
G75*
G03*
X17655301Y-7703820I-15000J0D01*
G01*
X17657840Y-4122420D02*
G75*
G03*
X17657840Y-4122420I-15000J0D01*
G01*
X17657840Y-4541520D02*
G75*
G03*
X17657840Y-4541520I-15000J0D01*
G01*
X17657840Y-6024880D02*
G75*
G03*
X17657840Y-6024880I-15000J0D01*
G01*
X17657840Y-6454140D02*
G75*
G03*
X17657840Y-6454140I-15000J0D01*
G01*
X17756900Y-11557000D02*
G75*
G03*
X17756900Y-11557000I-15000J0D01*
G01*
X17801351Y-11626851D02*
G75*
G03*
X17801351Y-11626851I-15000J0D01*
G01*
X17830560Y-11430000D02*
G75*
G03*
X17830560Y-11430000I-15000J0D01*
G01*
X17845800Y-11696700D02*
G75*
G03*
X17845800Y-11696700I-15000J0D01*
G01*
X17871200Y-12611100D02*
G75*
G03*
X17871200Y-12611100I-15000J0D01*
G01*
X17902949Y-11766549D02*
G75*
G03*
X17902949Y-11766549I-15000J0D01*
G01*
X17950101Y-8966200D02*
G75*
G03*
X17950101Y-8966200I-15000J0D01*
G01*
X12077701Y-4450400D02*
X12077701Y-4490400D01*
X12057701Y-4470400D02*
X12097701Y-4470400D01*
X12325385Y-7485700D02*
X12325385Y-7525700D01*
X12305385Y-7505700D02*
X12345385Y-7505700D01*
X12331700Y-9428800D02*
X12331700Y-9468800D01*
X12311700Y-9448800D02*
X12351700Y-9448800D01*
X12331700Y-11803700D02*
X12331700Y-11843700D01*
X12311700Y-11823700D02*
X12351700Y-11823700D01*
X12458700Y-6698300D02*
X12458700Y-6738300D01*
X12438700Y-6718300D02*
X12478700Y-6718300D01*
X12471400Y-7673820D02*
X12471400Y-7713820D01*
X12451400Y-7693820D02*
X12491400Y-7693820D01*
X12534900Y-9670100D02*
X12534900Y-9710100D01*
X12514900Y-9690100D02*
X12554900Y-9690100D01*
X12534900Y-12045000D02*
X12534900Y-12085000D01*
X12514900Y-12065000D02*
X12554900Y-12065000D01*
X12776200Y-6698300D02*
X12776200Y-6738300D01*
X12756200Y-6718300D02*
X12796200Y-6718300D01*
X12928600Y-6241100D02*
X12928600Y-6281100D01*
X12908600Y-6261100D02*
X12948600Y-6261100D01*
X13025120Y-7450140D02*
X13025120Y-7490140D01*
X13005120Y-7470140D02*
X13045120Y-7470140D01*
X13025120Y-9670100D02*
X13025120Y-9710100D01*
X13005120Y-9690100D02*
X13045120Y-9690100D01*
X13025120Y-12045000D02*
X13025120Y-12085000D01*
X13005120Y-12065000D02*
X13045120Y-12065000D01*
X13081000Y-4453579D02*
X13081000Y-4493579D01*
X13061000Y-4473579D02*
X13101000Y-4473579D01*
X14249400Y-4412300D02*
X14249400Y-4452300D01*
X14229400Y-4432300D02*
X14269400Y-4432300D01*
X14483080Y-6233480D02*
X14483080Y-6273480D01*
X14463080Y-6253480D02*
X14503080Y-6253480D01*
X14701520Y-6233480D02*
X14701520Y-6273480D01*
X14681520Y-6253480D02*
X14721520Y-6253480D01*
X15199360Y-9708200D02*
X15199360Y-9748200D01*
X15179360Y-9728200D02*
X15219360Y-9728200D01*
X15443200Y-9657400D02*
X15443200Y-9697400D01*
X15423200Y-9677400D02*
X15463200Y-9677400D01*
X15585440Y-7541580D02*
X15585440Y-7581580D01*
X15565440Y-7561580D02*
X15605440Y-7561580D01*
X15595600Y-7790500D02*
X15595600Y-7830500D01*
X15575600Y-7810500D02*
X15615600Y-7810500D01*
X15748000Y-9416100D02*
X15748000Y-9456100D01*
X15728000Y-9436100D02*
X15768000Y-9436100D01*
X16078200Y-12299000D02*
X16078200Y-12339000D01*
X16058200Y-12319000D02*
X16098200Y-12319000D01*
X16291560Y-13132759D02*
X16291560Y-13172759D01*
X16271560Y-13152759D02*
X16311560Y-13152759D01*
X16291560Y-13342940D02*
X16291560Y-13382940D01*
X16271560Y-13362940D02*
X16311560Y-13362940D01*
X16306800Y-12299000D02*
X16306800Y-12339000D01*
X16286800Y-12319000D02*
X16326800Y-12319000D01*
X16355060Y-10962960D02*
X16355060Y-11002960D01*
X16335060Y-10982960D02*
X16375060Y-10982960D01*
X16370300Y-10533700D02*
X16370300Y-10573700D01*
X16350300Y-10553700D02*
X16390300Y-10553700D01*
X16502879Y-8736026D02*
X16502879Y-8776026D01*
X16482879Y-8756026D02*
X16522879Y-8756026D01*
X16522700Y-9301800D02*
X16522700Y-9341800D01*
X16502700Y-9321800D02*
X16542700Y-9321800D01*
X16578580Y-7475540D02*
X16578580Y-7515540D01*
X16558580Y-7495540D02*
X16598580Y-7495540D01*
X16695420Y-7475540D02*
X16695420Y-7515540D01*
X16675420Y-7495540D02*
X16715420Y-7495540D01*
X16931640Y-12608880D02*
X16931640Y-12648880D01*
X16911640Y-12628880D02*
X16951640Y-12628880D01*
X17010380Y-11410000D02*
X17010380Y-11450000D01*
X16990380Y-11430000D02*
X17030380Y-11430000D01*
X17310100Y-10355900D02*
X17310100Y-10395900D01*
X17290100Y-10375900D02*
X17330100Y-10375900D01*
X17348200Y-14673900D02*
X17348200Y-14713900D01*
X17328200Y-14693900D02*
X17368200Y-14693900D01*
X17475200Y-12489500D02*
X17475200Y-12529500D01*
X17455200Y-12509500D02*
X17495200Y-12509500D01*
X17843500Y-10432100D02*
X17843500Y-10472100D01*
X17823500Y-10452100D02*
X17863500Y-10452100D01*
X17904460Y-7371400D02*
X17904460Y-7411400D01*
X17884460Y-7391400D02*
X17924460Y-7391400D01*
X17983200Y-12489500D02*
X17983200Y-12529500D01*
X17963200Y-12509500D02*
X18003200Y-12509500D01*
X18006060Y-10990900D02*
X18006060Y-11030900D01*
X17986060Y-11010900D02*
X18026060Y-11010900D01*
X18112740Y-7556820D02*
X18112740Y-7596820D01*
X18092740Y-7576820D02*
X18132740Y-7576820D01*
X12170151Y-3924651D02*
X12170151Y-3882224D01*
X12127724Y-3882224D01*
X12127724Y-3924651D01*
X12170151Y-3924651D01*
X12128937Y-3873437D02*
X12128937Y-3933437D01*
X12168937Y-3873437D02*
X12168937Y-3933437D01*
X12128937Y-3933437D02*
G75*
G03*
X12168937Y-3933437I20000J0D01*
G01*
X12168937Y-3873437D02*
G75*
G03*
X12128937Y-3873437I-20000J0D01*
G01*
X12170151Y-4342651D02*
X12170151Y-4300224D01*
X12127724Y-4300224D01*
X12127724Y-4342651D01*
X12170151Y-4342651D01*
X12128937Y-4266438D02*
X12128937Y-4376438D01*
X12168937Y-4266438D02*
X12168937Y-4376438D01*
X12128937Y-4376438D02*
G75*
G03*
X12168937Y-4376438I20000J0D01*
G01*
X12168937Y-4266438D02*
G75*
G03*
X12128937Y-4266438I-20000J0D01*
G01*
X13034151Y-3924651D02*
X13034151Y-3882224D01*
X12991724Y-3882224D01*
X12991724Y-3924651D01*
X13034151Y-3924651D01*
X12992937Y-3873437D02*
X12992937Y-3933437D01*
X13032937Y-3873437D02*
X13032937Y-3933437D01*
X12992937Y-3933437D02*
G75*
G03*
X13032937Y-3933437I20000J0D01*
G01*
X13032937Y-3873437D02*
G75*
G03*
X12992937Y-3873437I-20000J0D01*
G01*
X13034151Y-4342651D02*
X13034151Y-4300224D01*
X12991724Y-4300224D01*
X12991724Y-4342651D01*
X13034151Y-4342651D01*
X12992937Y-4266438D02*
X12992937Y-4376438D01*
X13032937Y-4266438D02*
X13032937Y-4376438D01*
X12992937Y-4376438D02*
G75*
G03*
X13032937Y-4376438I20000J0D01*
G01*
X13032937Y-4266438D02*
G75*
G03*
X12992937Y-4266438I-20000J0D01*
G01*
X13690600Y-14274000D02*
X13740600Y-14224000D01*
X13690600Y-14174000D01*
X13640600Y-14224000D01*
X13690600Y-14274000D01*
X13690600Y-14528000D02*
X13740600Y-14478000D01*
X13690600Y-14428000D01*
X13640600Y-14478000D01*
X13690600Y-14528000D01*
X13944600Y-14274000D02*
X13994600Y-14224000D01*
X13944600Y-14174000D01*
X13894600Y-14224000D01*
X13944600Y-14274000D01*
X13944600Y-14528000D02*
X13994600Y-14478000D01*
X13944600Y-14428000D01*
X13894600Y-14478000D01*
X13944600Y-14528000D01*
X14198600Y-14274000D02*
X14248600Y-14224000D01*
X14198600Y-14174000D01*
X14148600Y-14224000D01*
X14198600Y-14274000D01*
X14198600Y-14528000D02*
X14248600Y-14478000D01*
X14198600Y-14428000D01*
X14148600Y-14478000D01*
X14198600Y-14528000D01*
X12495625Y-5669375D02*
X12745625Y-5919375D01*
X12745625Y-5669375D02*
X12495625Y-5919375D01*
X12745625Y-5794375D02*
G75*
G03*
X12745625Y-5794375I-125000J0D01*
G01*
X12495625Y-11384375D02*
X12745625Y-11634375D01*
X12745625Y-11384375D02*
X12495625Y-11634375D01*
X12745625Y-11509375D02*
G75*
G03*
X12745625Y-11509375I-125000J0D01*
G01*
X16305625Y-5669375D02*
X16555625Y-5919375D01*
X16555625Y-5669375D02*
X16305625Y-5919375D01*
X16555625Y-5794375D02*
G75*
G03*
X16555625Y-5794375I-125000J0D01*
G01*
X16305625Y-11384375D02*
X16555625Y-11634375D01*
X16555625Y-11384375D02*
X16305625Y-11634375D01*
X16555625Y-11509375D02*
G75*
G03*
X16555625Y-11509375I-125000J0D01*
G01*
D12*
X10997053Y-15790089D02*
X10997053Y-15490089D01*
X11068482Y-15490089D01*
X11111339Y-15504375D01*
X11139911Y-15532946D01*
X11154196Y-15561518D01*
X11168482Y-15618661D01*
X11168482Y-15661518D01*
X11154196Y-15718661D01*
X11139911Y-15747232D01*
X11111339Y-15775804D01*
X11068482Y-15790089D01*
X10997053Y-15790089D01*
X11297053Y-15790089D02*
X11297053Y-15590089D01*
X11297053Y-15647232D02*
X11311339Y-15618661D01*
X11325625Y-15604375D01*
X11354196Y-15590089D01*
X11382768Y-15590089D01*
X11482768Y-15790089D02*
X11482768Y-15590089D01*
X11482768Y-15490089D02*
X11468482Y-15504375D01*
X11482768Y-15518661D01*
X11497053Y-15504375D01*
X11482768Y-15490089D01*
X11482768Y-15518661D01*
X11668482Y-15790089D02*
X11639911Y-15775804D01*
X11625625Y-15747232D01*
X11625625Y-15490089D01*
X11825625Y-15790089D02*
X11797053Y-15775804D01*
X11782768Y-15747232D01*
X11782768Y-15490089D01*
X12168482Y-15790089D02*
X12168482Y-15490089D01*
X12268482Y-15704375D01*
X12368482Y-15490089D01*
X12368482Y-15790089D01*
X12639911Y-15790089D02*
X12639911Y-15632946D01*
X12625625Y-15604375D01*
X12597053Y-15590089D01*
X12539911Y-15590089D01*
X12511339Y-15604375D01*
X12639911Y-15775804D02*
X12611339Y-15790089D01*
X12539911Y-15790089D01*
X12511339Y-15775804D01*
X12497053Y-15747232D01*
X12497053Y-15718661D01*
X12511339Y-15690089D01*
X12539911Y-15675804D01*
X12611339Y-15675804D01*
X12639911Y-15661518D01*
X12782768Y-15590089D02*
X12782768Y-15890089D01*
X12782768Y-15604375D02*
X12811339Y-15590089D01*
X12868482Y-15590089D01*
X12897053Y-15604375D01*
X12911339Y-15618661D01*
X12925625Y-15647232D01*
X12925625Y-15732946D01*
X12911339Y-15761518D01*
X12897053Y-15775804D01*
X12868482Y-15790089D01*
X12811339Y-15790089D01*
X12782768Y-15775804D01*
X13054196Y-15761518D02*
X13068482Y-15775804D01*
X13054196Y-15790089D01*
X13039911Y-15775804D01*
X13054196Y-15761518D01*
X13054196Y-15790089D01*
X13054196Y-15604375D02*
X13068482Y-15618661D01*
X13054196Y-15632946D01*
X13039911Y-15618661D01*
X13054196Y-15604375D01*
X13054196Y-15632946D01*
X10690625Y-16274375D02*
X10710625Y-16294375D01*
X10710625Y-16274375D02*
X10690625Y-16294375D01*
X11054196Y-16120089D02*
X11082768Y-16120089D01*
X11111339Y-16134375D01*
X11125625Y-16148661D01*
X11139911Y-16177232D01*
X11154196Y-16234375D01*
X11154196Y-16305804D01*
X11139911Y-16362946D01*
X11125625Y-16391518D01*
X11111339Y-16405804D01*
X11082768Y-16420089D01*
X11054196Y-16420089D01*
X11025625Y-16405804D01*
X11011339Y-16391518D01*
X10997053Y-16362946D01*
X10982768Y-16305804D01*
X10982768Y-16234375D01*
X10997053Y-16177232D01*
X11011339Y-16148661D01*
X11025625Y-16134375D01*
X11054196Y-16120089D01*
X11282768Y-16391518D02*
X11297053Y-16405804D01*
X11282768Y-16420089D01*
X11268482Y-16405804D01*
X11282768Y-16391518D01*
X11282768Y-16420089D01*
X11411339Y-16148661D02*
X11425625Y-16134375D01*
X11454196Y-16120089D01*
X11525625Y-16120089D01*
X11554196Y-16134375D01*
X11568482Y-16148661D01*
X11582768Y-16177232D01*
X11582768Y-16205804D01*
X11568482Y-16248661D01*
X11397053Y-16420089D01*
X11582768Y-16420089D01*
X11768482Y-16120089D02*
X11797053Y-16120089D01*
X11825625Y-16134375D01*
X11839911Y-16148661D01*
X11854196Y-16177232D01*
X11868482Y-16234375D01*
X11868482Y-16305804D01*
X11854196Y-16362946D01*
X11839911Y-16391518D01*
X11825625Y-16405804D01*
X11797053Y-16420089D01*
X11768482Y-16420089D01*
X11739911Y-16405804D01*
X11725625Y-16391518D01*
X11711339Y-16362946D01*
X11697053Y-16305804D01*
X11697053Y-16234375D01*
X11711339Y-16177232D01*
X11725625Y-16148661D01*
X11739911Y-16134375D01*
X11768482Y-16120089D01*
X12054196Y-16120089D02*
X12082768Y-16120089D01*
X12111339Y-16134375D01*
X12125625Y-16148661D01*
X12139911Y-16177232D01*
X12154196Y-16234375D01*
X12154196Y-16305804D01*
X12139911Y-16362946D01*
X12125625Y-16391518D01*
X12111339Y-16405804D01*
X12082768Y-16420089D01*
X12054196Y-16420089D01*
X12025625Y-16405804D01*
X12011339Y-16391518D01*
X11997053Y-16362946D01*
X11982768Y-16305804D01*
X11982768Y-16234375D01*
X11997053Y-16177232D01*
X12011339Y-16148661D01*
X12025625Y-16134375D01*
X12054196Y-16120089D01*
X12282768Y-16420089D02*
X12282768Y-16220089D01*
X12282768Y-16248661D02*
X12297053Y-16234375D01*
X12325625Y-16220089D01*
X12368482Y-16220089D01*
X12397053Y-16234375D01*
X12411339Y-16262946D01*
X12411339Y-16420089D01*
X12411339Y-16262946D02*
X12425625Y-16234375D01*
X12454196Y-16220089D01*
X12497053Y-16220089D01*
X12525625Y-16234375D01*
X12539911Y-16262946D01*
X12539911Y-16420089D01*
X12682768Y-16420089D02*
X12682768Y-16220089D01*
X12682768Y-16248661D02*
X12697053Y-16234375D01*
X12725625Y-16220089D01*
X12768482Y-16220089D01*
X12797053Y-16234375D01*
X12811339Y-16262946D01*
X12811339Y-16420089D01*
X12811339Y-16262946D02*
X12825625Y-16234375D01*
X12854196Y-16220089D01*
X12897053Y-16220089D01*
X12925625Y-16234375D01*
X12939911Y-16262946D01*
X12939911Y-16420089D01*
X13525625Y-16105804D02*
X13268482Y-16491518D01*
X13911339Y-16120089D02*
X13939911Y-16120089D01*
X13968482Y-16134375D01*
X13982768Y-16148661D01*
X13997053Y-16177232D01*
X14011339Y-16234375D01*
X14011339Y-16305804D01*
X13997053Y-16362946D01*
X13982768Y-16391518D01*
X13968482Y-16405804D01*
X13939911Y-16420089D01*
X13911339Y-16420089D01*
X13882768Y-16405804D01*
X13868482Y-16391518D01*
X13854196Y-16362946D01*
X13839911Y-16305804D01*
X13839911Y-16234375D01*
X13854196Y-16177232D01*
X13868482Y-16148661D01*
X13882768Y-16134375D01*
X13911339Y-16120089D01*
X14139911Y-16391518D02*
X14154196Y-16405804D01*
X14139911Y-16420089D01*
X14125625Y-16405804D01*
X14139911Y-16391518D01*
X14139911Y-16420089D01*
X14339911Y-16120089D02*
X14368482Y-16120089D01*
X14397053Y-16134375D01*
X14411339Y-16148661D01*
X14425625Y-16177232D01*
X14439911Y-16234375D01*
X14439911Y-16305804D01*
X14425625Y-16362946D01*
X14411339Y-16391518D01*
X14397053Y-16405804D01*
X14368482Y-16420089D01*
X14339911Y-16420089D01*
X14311339Y-16405804D01*
X14297053Y-16391518D01*
X14282768Y-16362946D01*
X14268482Y-16305804D01*
X14268482Y-16234375D01*
X14282768Y-16177232D01*
X14297053Y-16148661D01*
X14311339Y-16134375D01*
X14339911Y-16120089D01*
X14625625Y-16120089D02*
X14654196Y-16120089D01*
X14682768Y-16134375D01*
X14697053Y-16148661D01*
X14711339Y-16177232D01*
X14725625Y-16234375D01*
X14725625Y-16305804D01*
X14711339Y-16362946D01*
X14697053Y-16391518D01*
X14682768Y-16405804D01*
X14654196Y-16420089D01*
X14625625Y-16420089D01*
X14597053Y-16405804D01*
X14582768Y-16391518D01*
X14568482Y-16362946D01*
X14554196Y-16305804D01*
X14554196Y-16234375D01*
X14568482Y-16177232D01*
X14582768Y-16148661D01*
X14597053Y-16134375D01*
X14625625Y-16120089D01*
X14825625Y-16120089D02*
X15025625Y-16120089D01*
X14897053Y-16420089D01*
X15154196Y-16420089D02*
X15211339Y-16420089D01*
X15239911Y-16405804D01*
X15254196Y-16391518D01*
X15282768Y-16348661D01*
X15297053Y-16291518D01*
X15297053Y-16177232D01*
X15282768Y-16148661D01*
X15268482Y-16134375D01*
X15239911Y-16120089D01*
X15182768Y-16120089D01*
X15154196Y-16134375D01*
X15139911Y-16148661D01*
X15125625Y-16177232D01*
X15125625Y-16248661D01*
X15139911Y-16277232D01*
X15154196Y-16291518D01*
X15182768Y-16305804D01*
X15239911Y-16305804D01*
X15268482Y-16291518D01*
X15282768Y-16277232D01*
X15297053Y-16248661D01*
X15411339Y-16120089D02*
X15411339Y-16177232D01*
X15525625Y-16120089D02*
X15525625Y-16177232D01*
X15968482Y-16534375D02*
X15954196Y-16520089D01*
X15925625Y-16477232D01*
X15911339Y-16448661D01*
X15897053Y-16405804D01*
X15882768Y-16334375D01*
X15882768Y-16277232D01*
X15897053Y-16205804D01*
X15911339Y-16162946D01*
X15925625Y-16134375D01*
X15954196Y-16091518D01*
X15968482Y-16077232D01*
X16068482Y-16148661D02*
X16082768Y-16134375D01*
X16111339Y-16120089D01*
X16182768Y-16120089D01*
X16211339Y-16134375D01*
X16225625Y-16148661D01*
X16239911Y-16177232D01*
X16239911Y-16205804D01*
X16225625Y-16248661D01*
X16054196Y-16420089D01*
X16239911Y-16420089D01*
X16511339Y-16120089D02*
X16368482Y-16120089D01*
X16354196Y-16262946D01*
X16368482Y-16248661D01*
X16397053Y-16234375D01*
X16468482Y-16234375D01*
X16497053Y-16248661D01*
X16511339Y-16262946D01*
X16525625Y-16291518D01*
X16525625Y-16362946D01*
X16511339Y-16391518D01*
X16497053Y-16405804D01*
X16468482Y-16420089D01*
X16397053Y-16420089D01*
X16368482Y-16405804D01*
X16354196Y-16391518D01*
X16882768Y-16420089D02*
X16882768Y-16120089D01*
X17011339Y-16420089D02*
X17011339Y-16262946D01*
X16997053Y-16234375D01*
X16968482Y-16220089D01*
X16925625Y-16220089D01*
X16897053Y-16234375D01*
X16882768Y-16248661D01*
X17197053Y-16420089D02*
X17168482Y-16405804D01*
X17154196Y-16391518D01*
X17139911Y-16362946D01*
X17139911Y-16277232D01*
X17154196Y-16248661D01*
X17168482Y-16234375D01*
X17197053Y-16220089D01*
X17239911Y-16220089D01*
X17268482Y-16234375D01*
X17282768Y-16248661D01*
X17297053Y-16277232D01*
X17297053Y-16362946D01*
X17282768Y-16391518D01*
X17268482Y-16405804D01*
X17239911Y-16420089D01*
X17197053Y-16420089D01*
X17468482Y-16420089D02*
X17439911Y-16405804D01*
X17425625Y-16377232D01*
X17425625Y-16120089D01*
X17697053Y-16405804D02*
X17668482Y-16420089D01*
X17611339Y-16420089D01*
X17582768Y-16405804D01*
X17568482Y-16377232D01*
X17568482Y-16262946D01*
X17582768Y-16234375D01*
X17611339Y-16220089D01*
X17668482Y-16220089D01*
X17697053Y-16234375D01*
X17711339Y-16262946D01*
X17711339Y-16291518D01*
X17568482Y-16320089D01*
X17825625Y-16405804D02*
X17854196Y-16420089D01*
X17911339Y-16420089D01*
X17939911Y-16405804D01*
X17954196Y-16377232D01*
X17954196Y-16362946D01*
X17939911Y-16334375D01*
X17911339Y-16320089D01*
X17868482Y-16320089D01*
X17839911Y-16305804D01*
X17825625Y-16277232D01*
X17825625Y-16262946D01*
X17839911Y-16234375D01*
X17868482Y-16220089D01*
X17911339Y-16220089D01*
X17939911Y-16234375D01*
X18054196Y-16534375D02*
X18068482Y-16520089D01*
X18097053Y-16477232D01*
X18111339Y-16448661D01*
X18125625Y-16405804D01*
X18139911Y-16334375D01*
X18139911Y-16277232D01*
X18125625Y-16205804D01*
X18111339Y-16162946D01*
X18097053Y-16134375D01*
X18068482Y-16091518D01*
X18054196Y-16077232D01*
X10710625Y-16680375D02*
G75*
G03*
X10710625Y-16680375I-15000J0D01*
G01*
X11054196Y-16516089D02*
X11082768Y-16516089D01*
X11111339Y-16530375D01*
X11125625Y-16544661D01*
X11139911Y-16573232D01*
X11154196Y-16630375D01*
X11154196Y-16701804D01*
X11139911Y-16758946D01*
X11125625Y-16787518D01*
X11111339Y-16801804D01*
X11082768Y-16816089D01*
X11054196Y-16816089D01*
X11025625Y-16801804D01*
X11011339Y-16787518D01*
X10997053Y-16758946D01*
X10982768Y-16701804D01*
X10982768Y-16630375D01*
X10997053Y-16573232D01*
X11011339Y-16544661D01*
X11025625Y-16530375D01*
X11054196Y-16516089D01*
X11282768Y-16787518D02*
X11297053Y-16801804D01*
X11282768Y-16816089D01*
X11268482Y-16801804D01*
X11282768Y-16787518D01*
X11282768Y-16816089D01*
X11397053Y-16516089D02*
X11582768Y-16516089D01*
X11482768Y-16630375D01*
X11525625Y-16630375D01*
X11554196Y-16644661D01*
X11568482Y-16658946D01*
X11582768Y-16687518D01*
X11582768Y-16758946D01*
X11568482Y-16787518D01*
X11554196Y-16801804D01*
X11525625Y-16816089D01*
X11439911Y-16816089D01*
X11411339Y-16801804D01*
X11397053Y-16787518D01*
X11768482Y-16516089D02*
X11797053Y-16516089D01*
X11825625Y-16530375D01*
X11839911Y-16544661D01*
X11854196Y-16573232D01*
X11868482Y-16630375D01*
X11868482Y-16701804D01*
X11854196Y-16758946D01*
X11839911Y-16787518D01*
X11825625Y-16801804D01*
X11797053Y-16816089D01*
X11768482Y-16816089D01*
X11739911Y-16801804D01*
X11725625Y-16787518D01*
X11711339Y-16758946D01*
X11697053Y-16701804D01*
X11697053Y-16630375D01*
X11711339Y-16573232D01*
X11725625Y-16544661D01*
X11739911Y-16530375D01*
X11768482Y-16516089D01*
X12054196Y-16516089D02*
X12082768Y-16516089D01*
X12111339Y-16530375D01*
X12125625Y-16544661D01*
X12139911Y-16573232D01*
X12154196Y-16630375D01*
X12154196Y-16701804D01*
X12139911Y-16758946D01*
X12125625Y-16787518D01*
X12111339Y-16801804D01*
X12082768Y-16816089D01*
X12054196Y-16816089D01*
X12025625Y-16801804D01*
X12011339Y-16787518D01*
X11997053Y-16758946D01*
X11982768Y-16701804D01*
X11982768Y-16630375D01*
X11997053Y-16573232D01*
X12011339Y-16544661D01*
X12025625Y-16530375D01*
X12054196Y-16516089D01*
X12282768Y-16816089D02*
X12282768Y-16616089D01*
X12282768Y-16644661D02*
X12297053Y-16630375D01*
X12325625Y-16616089D01*
X12368482Y-16616089D01*
X12397053Y-16630375D01*
X12411339Y-16658946D01*
X12411339Y-16816089D01*
X12411339Y-16658946D02*
X12425625Y-16630375D01*
X12454196Y-16616089D01*
X12497053Y-16616089D01*
X12525625Y-16630375D01*
X12539911Y-16658946D01*
X12539911Y-16816089D01*
X12682768Y-16816089D02*
X12682768Y-16616089D01*
X12682768Y-16644661D02*
X12697053Y-16630375D01*
X12725625Y-16616089D01*
X12768482Y-16616089D01*
X12797053Y-16630375D01*
X12811339Y-16658946D01*
X12811339Y-16816089D01*
X12811339Y-16658946D02*
X12825625Y-16630375D01*
X12854196Y-16616089D01*
X12897053Y-16616089D01*
X12925625Y-16630375D01*
X12939911Y-16658946D01*
X12939911Y-16816089D01*
X13525625Y-16501804D02*
X13268482Y-16887518D01*
X13911339Y-16516089D02*
X13939911Y-16516089D01*
X13968482Y-16530375D01*
X13982768Y-16544661D01*
X13997053Y-16573232D01*
X14011339Y-16630375D01*
X14011339Y-16701804D01*
X13997053Y-16758946D01*
X13982768Y-16787518D01*
X13968482Y-16801804D01*
X13939911Y-16816089D01*
X13911339Y-16816089D01*
X13882768Y-16801804D01*
X13868482Y-16787518D01*
X13854196Y-16758946D01*
X13839911Y-16701804D01*
X13839911Y-16630375D01*
X13854196Y-16573232D01*
X13868482Y-16544661D01*
X13882768Y-16530375D01*
X13911339Y-16516089D01*
X14139911Y-16787518D02*
X14154196Y-16801804D01*
X14139911Y-16816089D01*
X14125625Y-16801804D01*
X14139911Y-16787518D01*
X14139911Y-16816089D01*
X14339911Y-16516089D02*
X14368482Y-16516089D01*
X14397053Y-16530375D01*
X14411339Y-16544661D01*
X14425625Y-16573232D01*
X14439911Y-16630375D01*
X14439911Y-16701804D01*
X14425625Y-16758946D01*
X14411339Y-16787518D01*
X14397053Y-16801804D01*
X14368482Y-16816089D01*
X14339911Y-16816089D01*
X14311339Y-16801804D01*
X14297053Y-16787518D01*
X14282768Y-16758946D01*
X14268482Y-16701804D01*
X14268482Y-16630375D01*
X14282768Y-16573232D01*
X14297053Y-16544661D01*
X14311339Y-16530375D01*
X14339911Y-16516089D01*
X14725625Y-16816089D02*
X14554196Y-16816089D01*
X14639911Y-16816089D02*
X14639911Y-16516089D01*
X14611339Y-16558946D01*
X14582768Y-16587518D01*
X14554196Y-16601804D01*
X15011339Y-16816089D02*
X14839911Y-16816089D01*
X14925625Y-16816089D02*
X14925625Y-16516089D01*
X14897053Y-16558946D01*
X14868482Y-16587518D01*
X14839911Y-16601804D01*
X15182768Y-16644661D02*
X15154196Y-16630375D01*
X15139911Y-16616089D01*
X15125625Y-16587518D01*
X15125625Y-16573232D01*
X15139911Y-16544661D01*
X15154196Y-16530375D01*
X15182768Y-16516089D01*
X15239911Y-16516089D01*
X15268482Y-16530375D01*
X15282768Y-16544661D01*
X15297053Y-16573232D01*
X15297053Y-16587518D01*
X15282768Y-16616089D01*
X15268482Y-16630375D01*
X15239911Y-16644661D01*
X15182768Y-16644661D01*
X15154196Y-16658946D01*
X15139911Y-16673232D01*
X15125625Y-16701804D01*
X15125625Y-16758946D01*
X15139911Y-16787518D01*
X15154196Y-16801804D01*
X15182768Y-16816089D01*
X15239911Y-16816089D01*
X15268482Y-16801804D01*
X15282768Y-16787518D01*
X15297053Y-16758946D01*
X15297053Y-16701804D01*
X15282768Y-16673232D01*
X15268482Y-16658946D01*
X15239911Y-16644661D01*
X15411339Y-16516089D02*
X15411339Y-16573232D01*
X15525625Y-16516089D02*
X15525625Y-16573232D01*
X15968482Y-16930375D02*
X15954196Y-16916089D01*
X15925625Y-16873232D01*
X15911339Y-16844661D01*
X15897053Y-16801804D01*
X15882768Y-16730375D01*
X15882768Y-16673232D01*
X15897053Y-16601804D01*
X15911339Y-16558946D01*
X15925625Y-16530375D01*
X15954196Y-16487518D01*
X15968482Y-16473232D01*
X16239911Y-16816089D02*
X16068482Y-16816089D01*
X16154196Y-16816089D02*
X16154196Y-16516089D01*
X16125625Y-16558946D01*
X16097053Y-16587518D01*
X16068482Y-16601804D01*
X16382768Y-16816089D02*
X16439911Y-16816089D01*
X16468482Y-16801804D01*
X16482768Y-16787518D01*
X16511339Y-16744661D01*
X16525625Y-16687518D01*
X16525625Y-16573232D01*
X16511339Y-16544661D01*
X16497053Y-16530375D01*
X16468482Y-16516089D01*
X16411339Y-16516089D01*
X16382768Y-16530375D01*
X16368482Y-16544661D01*
X16354196Y-16573232D01*
X16354196Y-16644661D01*
X16368482Y-16673232D01*
X16382768Y-16687518D01*
X16411339Y-16701804D01*
X16468482Y-16701804D01*
X16497053Y-16687518D01*
X16511339Y-16673232D01*
X16525625Y-16644661D01*
X16711339Y-16516089D02*
X16739911Y-16516089D01*
X16768482Y-16530375D01*
X16782768Y-16544661D01*
X16797053Y-16573232D01*
X16811339Y-16630375D01*
X16811339Y-16701804D01*
X16797053Y-16758946D01*
X16782768Y-16787518D01*
X16768482Y-16801804D01*
X16739911Y-16816089D01*
X16711339Y-16816089D01*
X16682768Y-16801804D01*
X16668482Y-16787518D01*
X16654196Y-16758946D01*
X16639911Y-16701804D01*
X16639911Y-16630375D01*
X16654196Y-16573232D01*
X16668482Y-16544661D01*
X16682768Y-16530375D01*
X16711339Y-16516089D01*
X17168482Y-16816089D02*
X17168482Y-16516089D01*
X17297053Y-16816089D02*
X17297053Y-16658946D01*
X17282768Y-16630375D01*
X17254196Y-16616089D01*
X17211339Y-16616089D01*
X17182768Y-16630375D01*
X17168482Y-16644661D01*
X17482768Y-16816089D02*
X17454196Y-16801804D01*
X17439911Y-16787518D01*
X17425625Y-16758946D01*
X17425625Y-16673232D01*
X17439911Y-16644661D01*
X17454196Y-16630375D01*
X17482768Y-16616089D01*
X17525625Y-16616089D01*
X17554196Y-16630375D01*
X17568482Y-16644661D01*
X17582768Y-16673232D01*
X17582768Y-16758946D01*
X17568482Y-16787518D01*
X17554196Y-16801804D01*
X17525625Y-16816089D01*
X17482768Y-16816089D01*
X17754196Y-16816089D02*
X17725625Y-16801804D01*
X17711339Y-16773232D01*
X17711339Y-16516089D01*
X17982768Y-16801804D02*
X17954196Y-16816089D01*
X17897053Y-16816089D01*
X17868482Y-16801804D01*
X17854196Y-16773232D01*
X17854196Y-16658946D01*
X17868482Y-16630375D01*
X17897053Y-16616089D01*
X17954196Y-16616089D01*
X17982768Y-16630375D01*
X17997053Y-16658946D01*
X17997053Y-16687518D01*
X17854196Y-16716089D01*
X18111339Y-16801804D02*
X18139911Y-16816089D01*
X18197053Y-16816089D01*
X18225625Y-16801804D01*
X18239911Y-16773232D01*
X18239911Y-16758946D01*
X18225625Y-16730375D01*
X18197053Y-16716089D01*
X18154196Y-16716089D01*
X18125625Y-16701804D01*
X18111339Y-16673232D01*
X18111339Y-16658946D01*
X18125625Y-16630375D01*
X18154196Y-16616089D01*
X18197053Y-16616089D01*
X18225625Y-16630375D01*
X18339911Y-16930375D02*
X18354196Y-16916089D01*
X18382768Y-16873232D01*
X18397053Y-16844661D01*
X18411339Y-16801804D01*
X18425625Y-16730375D01*
X18425625Y-16673232D01*
X18411339Y-16601804D01*
X18397053Y-16558946D01*
X18382768Y-16530375D01*
X18354196Y-16487518D01*
X18339911Y-16473232D01*
X10690625Y-17056375D02*
X10690625Y-17096375D01*
X10670625Y-17076375D02*
X10710625Y-17076375D01*
X11054196Y-16912089D02*
X11082768Y-16912089D01*
X11111339Y-16926375D01*
X11125625Y-16940661D01*
X11139911Y-16969232D01*
X11154196Y-17026375D01*
X11154196Y-17097804D01*
X11139911Y-17154947D01*
X11125625Y-17183518D01*
X11111339Y-17197804D01*
X11082768Y-17212089D01*
X11054196Y-17212089D01*
X11025625Y-17197804D01*
X11011339Y-17183518D01*
X10997053Y-17154947D01*
X10982768Y-17097804D01*
X10982768Y-17026375D01*
X10997053Y-16969232D01*
X11011339Y-16940661D01*
X11025625Y-16926375D01*
X11054196Y-16912089D01*
X11282768Y-17183518D02*
X11297053Y-17197804D01*
X11282768Y-17212089D01*
X11268482Y-17197804D01*
X11282768Y-17183518D01*
X11282768Y-17212089D01*
X11554196Y-17012089D02*
X11554196Y-17212089D01*
X11482768Y-16897804D02*
X11411339Y-17112089D01*
X11597053Y-17112089D01*
X11768482Y-16912089D02*
X11797053Y-16912089D01*
X11825625Y-16926375D01*
X11839911Y-16940661D01*
X11854196Y-16969232D01*
X11868482Y-17026375D01*
X11868482Y-17097804D01*
X11854196Y-17154947D01*
X11839911Y-17183518D01*
X11825625Y-17197804D01*
X11797053Y-17212089D01*
X11768482Y-17212089D01*
X11739911Y-17197804D01*
X11725625Y-17183518D01*
X11711339Y-17154947D01*
X11697053Y-17097804D01*
X11697053Y-17026375D01*
X11711339Y-16969232D01*
X11725625Y-16940661D01*
X11739911Y-16926375D01*
X11768482Y-16912089D01*
X12054196Y-16912089D02*
X12082768Y-16912089D01*
X12111339Y-16926375D01*
X12125625Y-16940661D01*
X12139911Y-16969232D01*
X12154196Y-17026375D01*
X12154196Y-17097804D01*
X12139911Y-17154947D01*
X12125625Y-17183518D01*
X12111339Y-17197804D01*
X12082768Y-17212089D01*
X12054196Y-17212089D01*
X12025625Y-17197804D01*
X12011339Y-17183518D01*
X11997053Y-17154947D01*
X11982768Y-17097804D01*
X11982768Y-17026375D01*
X11997053Y-16969232D01*
X12011339Y-16940661D01*
X12025625Y-16926375D01*
X12054196Y-16912089D01*
X12282768Y-17212089D02*
X12282768Y-17012089D01*
X12282768Y-17040661D02*
X12297053Y-17026375D01*
X12325625Y-17012089D01*
X12368482Y-17012089D01*
X12397053Y-17026375D01*
X12411339Y-17054947D01*
X12411339Y-17212089D01*
X12411339Y-17054947D02*
X12425625Y-17026375D01*
X12454196Y-17012089D01*
X12497053Y-17012089D01*
X12525625Y-17026375D01*
X12539911Y-17054947D01*
X12539911Y-17212089D01*
X12682768Y-17212089D02*
X12682768Y-17012089D01*
X12682768Y-17040661D02*
X12697053Y-17026375D01*
X12725625Y-17012089D01*
X12768482Y-17012089D01*
X12797053Y-17026375D01*
X12811339Y-17054947D01*
X12811339Y-17212089D01*
X12811339Y-17054947D02*
X12825625Y-17026375D01*
X12854196Y-17012089D01*
X12897053Y-17012089D01*
X12925625Y-17026375D01*
X12939911Y-17054947D01*
X12939911Y-17212089D01*
X13525625Y-16897804D02*
X13268482Y-17283518D01*
X13911339Y-16912089D02*
X13939911Y-16912089D01*
X13968482Y-16926375D01*
X13982768Y-16940661D01*
X13997053Y-16969232D01*
X14011339Y-17026375D01*
X14011339Y-17097804D01*
X13997053Y-17154947D01*
X13982768Y-17183518D01*
X13968482Y-17197804D01*
X13939911Y-17212089D01*
X13911339Y-17212089D01*
X13882768Y-17197804D01*
X13868482Y-17183518D01*
X13854196Y-17154947D01*
X13839911Y-17097804D01*
X13839911Y-17026375D01*
X13854196Y-16969232D01*
X13868482Y-16940661D01*
X13882768Y-16926375D01*
X13911339Y-16912089D01*
X14139911Y-17183518D02*
X14154196Y-17197804D01*
X14139911Y-17212089D01*
X14125625Y-17197804D01*
X14139911Y-17183518D01*
X14139911Y-17212089D01*
X14339911Y-16912089D02*
X14368482Y-16912089D01*
X14397053Y-16926375D01*
X14411339Y-16940661D01*
X14425625Y-16969232D01*
X14439911Y-17026375D01*
X14439911Y-17097804D01*
X14425625Y-17154947D01*
X14411339Y-17183518D01*
X14397053Y-17197804D01*
X14368482Y-17212089D01*
X14339911Y-17212089D01*
X14311339Y-17197804D01*
X14297053Y-17183518D01*
X14282768Y-17154947D01*
X14268482Y-17097804D01*
X14268482Y-17026375D01*
X14282768Y-16969232D01*
X14297053Y-16940661D01*
X14311339Y-16926375D01*
X14339911Y-16912089D01*
X14725625Y-17212089D02*
X14554196Y-17212089D01*
X14639911Y-17212089D02*
X14639911Y-16912089D01*
X14611339Y-16954947D01*
X14582768Y-16983518D01*
X14554196Y-16997804D01*
X14997053Y-16912089D02*
X14854196Y-16912089D01*
X14839911Y-17054947D01*
X14854196Y-17040661D01*
X14882768Y-17026375D01*
X14954196Y-17026375D01*
X14982768Y-17040661D01*
X14997053Y-17054947D01*
X15011339Y-17083518D01*
X15011339Y-17154947D01*
X14997053Y-17183518D01*
X14982768Y-17197804D01*
X14954196Y-17212089D01*
X14882768Y-17212089D01*
X14854196Y-17197804D01*
X14839911Y-17183518D01*
X15111339Y-16912089D02*
X15311339Y-16912089D01*
X15182768Y-17212089D01*
X15411339Y-16912089D02*
X15411339Y-16969232D01*
X15525625Y-16912089D02*
X15525625Y-16969232D01*
X15968482Y-17326375D02*
X15954196Y-17312089D01*
X15925625Y-17269232D01*
X15911339Y-17240661D01*
X15897053Y-17197804D01*
X15882768Y-17126375D01*
X15882768Y-17069232D01*
X15897053Y-16997804D01*
X15911339Y-16954947D01*
X15925625Y-16926375D01*
X15954196Y-16883518D01*
X15968482Y-16869232D01*
X16211339Y-17012089D02*
X16211339Y-17212089D01*
X16139911Y-16897804D02*
X16068482Y-17112089D01*
X16254196Y-17112089D01*
X16354196Y-16940661D02*
X16368482Y-16926375D01*
X16397053Y-16912089D01*
X16468482Y-16912089D01*
X16497053Y-16926375D01*
X16511339Y-16940661D01*
X16525625Y-16969232D01*
X16525625Y-16997804D01*
X16511339Y-17040661D01*
X16339911Y-17212089D01*
X16525625Y-17212089D01*
X16882768Y-17212089D02*
X16882768Y-16912089D01*
X17011339Y-17212089D02*
X17011339Y-17054947D01*
X16997053Y-17026375D01*
X16968482Y-17012089D01*
X16925625Y-17012089D01*
X16897053Y-17026375D01*
X16882768Y-17040661D01*
X17197053Y-17212089D02*
X17168482Y-17197804D01*
X17154196Y-17183518D01*
X17139911Y-17154947D01*
X17139911Y-17069232D01*
X17154196Y-17040661D01*
X17168482Y-17026375D01*
X17197053Y-17012089D01*
X17239911Y-17012089D01*
X17268482Y-17026375D01*
X17282768Y-17040661D01*
X17297053Y-17069232D01*
X17297053Y-17154947D01*
X17282768Y-17183518D01*
X17268482Y-17197804D01*
X17239911Y-17212089D01*
X17197053Y-17212089D01*
X17468482Y-17212089D02*
X17439911Y-17197804D01*
X17425625Y-17169232D01*
X17425625Y-16912089D01*
X17697053Y-17197804D02*
X17668482Y-17212089D01*
X17611339Y-17212089D01*
X17582768Y-17197804D01*
X17568482Y-17169232D01*
X17568482Y-17054947D01*
X17582768Y-17026375D01*
X17611339Y-17012089D01*
X17668482Y-17012089D01*
X17697053Y-17026375D01*
X17711339Y-17054947D01*
X17711339Y-17083518D01*
X17568482Y-17112089D01*
X17825625Y-17197804D02*
X17854196Y-17212089D01*
X17911339Y-17212089D01*
X17939911Y-17197804D01*
X17954196Y-17169232D01*
X17954196Y-17154947D01*
X17939911Y-17126375D01*
X17911339Y-17112089D01*
X17868482Y-17112089D01*
X17839911Y-17097804D01*
X17825625Y-17069232D01*
X17825625Y-17054947D01*
X17839911Y-17026375D01*
X17868482Y-17012089D01*
X17911339Y-17012089D01*
X17939911Y-17026375D01*
X18054196Y-17326375D02*
X18068482Y-17312089D01*
X18097053Y-17269232D01*
X18111339Y-17240661D01*
X18125625Y-17197804D01*
X18139911Y-17126375D01*
X18139911Y-17069232D01*
X18125625Y-16997804D01*
X18111339Y-16954947D01*
X18097053Y-16926375D01*
X18068482Y-16883518D01*
X18054196Y-16869232D01*
X10701838Y-17493589D02*
X10701838Y-17451162D01*
X10659412Y-17451162D01*
X10659412Y-17493589D01*
X10701838Y-17493589D01*
X11054196Y-17308089D02*
X11082768Y-17308089D01*
X11111339Y-17322375D01*
X11125625Y-17336661D01*
X11139911Y-17365232D01*
X11154196Y-17422375D01*
X11154196Y-17493804D01*
X11139911Y-17550947D01*
X11125625Y-17579518D01*
X11111339Y-17593804D01*
X11082768Y-17608089D01*
X11054196Y-17608089D01*
X11025625Y-17593804D01*
X11011339Y-17579518D01*
X10997053Y-17550947D01*
X10982768Y-17493804D01*
X10982768Y-17422375D01*
X10997053Y-17365232D01*
X11011339Y-17336661D01*
X11025625Y-17322375D01*
X11054196Y-17308089D01*
X11282768Y-17579518D02*
X11297053Y-17593804D01*
X11282768Y-17608089D01*
X11268482Y-17593804D01*
X11282768Y-17579518D01*
X11282768Y-17608089D01*
X11554196Y-17308089D02*
X11497053Y-17308089D01*
X11468482Y-17322375D01*
X11454196Y-17336661D01*
X11425625Y-17379518D01*
X11411339Y-17436661D01*
X11411339Y-17550947D01*
X11425625Y-17579518D01*
X11439911Y-17593804D01*
X11468482Y-17608089D01*
X11525625Y-17608089D01*
X11554196Y-17593804D01*
X11568482Y-17579518D01*
X11582768Y-17550947D01*
X11582768Y-17479518D01*
X11568482Y-17450947D01*
X11554196Y-17436661D01*
X11525625Y-17422375D01*
X11468482Y-17422375D01*
X11439911Y-17436661D01*
X11425625Y-17450947D01*
X11411339Y-17479518D01*
X11768482Y-17308089D02*
X11797053Y-17308089D01*
X11825625Y-17322375D01*
X11839911Y-17336661D01*
X11854196Y-17365232D01*
X11868482Y-17422375D01*
X11868482Y-17493804D01*
X11854196Y-17550947D01*
X11839911Y-17579518D01*
X11825625Y-17593804D01*
X11797053Y-17608089D01*
X11768482Y-17608089D01*
X11739911Y-17593804D01*
X11725625Y-17579518D01*
X11711339Y-17550947D01*
X11697053Y-17493804D01*
X11697053Y-17422375D01*
X11711339Y-17365232D01*
X11725625Y-17336661D01*
X11739911Y-17322375D01*
X11768482Y-17308089D01*
X12054196Y-17308089D02*
X12082768Y-17308089D01*
X12111339Y-17322375D01*
X12125625Y-17336661D01*
X12139911Y-17365232D01*
X12154196Y-17422375D01*
X12154196Y-17493804D01*
X12139911Y-17550947D01*
X12125625Y-17579518D01*
X12111339Y-17593804D01*
X12082768Y-17608089D01*
X12054196Y-17608089D01*
X12025625Y-17593804D01*
X12011339Y-17579518D01*
X11997053Y-17550947D01*
X11982768Y-17493804D01*
X11982768Y-17422375D01*
X11997053Y-17365232D01*
X12011339Y-17336661D01*
X12025625Y-17322375D01*
X12054196Y-17308089D01*
X12282768Y-17608089D02*
X12282768Y-17408089D01*
X12282768Y-17436661D02*
X12297053Y-17422375D01*
X12325625Y-17408089D01*
X12368482Y-17408089D01*
X12397053Y-17422375D01*
X12411339Y-17450947D01*
X12411339Y-17608089D01*
X12411339Y-17450947D02*
X12425625Y-17422375D01*
X12454196Y-17408089D01*
X12497053Y-17408089D01*
X12525625Y-17422375D01*
X12539911Y-17450947D01*
X12539911Y-17608089D01*
X12682768Y-17608089D02*
X12682768Y-17408089D01*
X12682768Y-17436661D02*
X12697053Y-17422375D01*
X12725625Y-17408089D01*
X12768482Y-17408089D01*
X12797053Y-17422375D01*
X12811339Y-17450947D01*
X12811339Y-17608089D01*
X12811339Y-17450947D02*
X12825625Y-17422375D01*
X12854196Y-17408089D01*
X12897053Y-17408089D01*
X12925625Y-17422375D01*
X12939911Y-17450947D01*
X12939911Y-17608089D01*
X13525625Y-17293804D02*
X13268482Y-17679518D01*
X13911339Y-17308089D02*
X13939911Y-17308089D01*
X13968482Y-17322375D01*
X13982768Y-17336661D01*
X13997053Y-17365232D01*
X14011339Y-17422375D01*
X14011339Y-17493804D01*
X13997053Y-17550947D01*
X13982768Y-17579518D01*
X13968482Y-17593804D01*
X13939911Y-17608089D01*
X13911339Y-17608089D01*
X13882768Y-17593804D01*
X13868482Y-17579518D01*
X13854196Y-17550947D01*
X13839911Y-17493804D01*
X13839911Y-17422375D01*
X13854196Y-17365232D01*
X13868482Y-17336661D01*
X13882768Y-17322375D01*
X13911339Y-17308089D01*
X14139911Y-17579518D02*
X14154196Y-17593804D01*
X14139911Y-17608089D01*
X14125625Y-17593804D01*
X14139911Y-17579518D01*
X14139911Y-17608089D01*
X14339911Y-17308089D02*
X14368482Y-17308089D01*
X14397053Y-17322375D01*
X14411339Y-17336661D01*
X14425625Y-17365232D01*
X14439911Y-17422375D01*
X14439911Y-17493804D01*
X14425625Y-17550947D01*
X14411339Y-17579518D01*
X14397053Y-17593804D01*
X14368482Y-17608089D01*
X14339911Y-17608089D01*
X14311339Y-17593804D01*
X14297053Y-17579518D01*
X14282768Y-17550947D01*
X14268482Y-17493804D01*
X14268482Y-17422375D01*
X14282768Y-17365232D01*
X14297053Y-17336661D01*
X14311339Y-17322375D01*
X14339911Y-17308089D01*
X14554196Y-17336661D02*
X14568482Y-17322375D01*
X14597053Y-17308089D01*
X14668482Y-17308089D01*
X14697053Y-17322375D01*
X14711339Y-17336661D01*
X14725625Y-17365232D01*
X14725625Y-17393804D01*
X14711339Y-17436661D01*
X14539911Y-17608089D01*
X14725625Y-17608089D01*
X14825625Y-17308089D02*
X15011339Y-17308089D01*
X14911339Y-17422375D01*
X14954196Y-17422375D01*
X14982768Y-17436661D01*
X14997053Y-17450947D01*
X15011339Y-17479518D01*
X15011339Y-17550947D01*
X14997053Y-17579518D01*
X14982768Y-17593804D01*
X14954196Y-17608089D01*
X14868482Y-17608089D01*
X14839911Y-17593804D01*
X14825625Y-17579518D01*
X15268482Y-17308089D02*
X15211339Y-17308089D01*
X15182768Y-17322375D01*
X15168482Y-17336661D01*
X15139911Y-17379518D01*
X15125625Y-17436661D01*
X15125625Y-17550947D01*
X15139911Y-17579518D01*
X15154196Y-17593804D01*
X15182768Y-17608089D01*
X15239911Y-17608089D01*
X15268482Y-17593804D01*
X15282768Y-17579518D01*
X15297053Y-17550947D01*
X15297053Y-17479518D01*
X15282768Y-17450947D01*
X15268482Y-17436661D01*
X15239911Y-17422375D01*
X15182768Y-17422375D01*
X15154196Y-17436661D01*
X15139911Y-17450947D01*
X15125625Y-17479518D01*
X15411339Y-17308089D02*
X15411339Y-17365232D01*
X15525625Y-17308089D02*
X15525625Y-17365232D01*
X15968482Y-17722375D02*
X15954196Y-17708089D01*
X15925625Y-17665232D01*
X15911339Y-17636661D01*
X15897053Y-17593804D01*
X15882768Y-17522375D01*
X15882768Y-17465232D01*
X15897053Y-17393804D01*
X15911339Y-17350947D01*
X15925625Y-17322375D01*
X15954196Y-17279518D01*
X15968482Y-17265232D01*
X16139911Y-17308089D02*
X16168482Y-17308089D01*
X16197053Y-17322375D01*
X16211339Y-17336661D01*
X16225625Y-17365232D01*
X16239911Y-17422375D01*
X16239911Y-17493804D01*
X16225625Y-17550947D01*
X16211339Y-17579518D01*
X16197053Y-17593804D01*
X16168482Y-17608089D01*
X16139911Y-17608089D01*
X16111339Y-17593804D01*
X16097053Y-17579518D01*
X16082768Y-17550947D01*
X16068482Y-17493804D01*
X16068482Y-17422375D01*
X16082768Y-17365232D01*
X16097053Y-17336661D01*
X16111339Y-17322375D01*
X16139911Y-17308089D01*
X16597053Y-17608089D02*
X16597053Y-17308089D01*
X16725625Y-17608089D02*
X16725625Y-17450947D01*
X16711339Y-17422375D01*
X16682768Y-17408089D01*
X16639911Y-17408089D01*
X16611339Y-17422375D01*
X16597053Y-17436661D01*
X16911339Y-17608089D02*
X16882768Y-17593804D01*
X16868482Y-17579518D01*
X16854196Y-17550947D01*
X16854196Y-17465232D01*
X16868482Y-17436661D01*
X16882768Y-17422375D01*
X16911339Y-17408089D01*
X16954196Y-17408089D01*
X16982768Y-17422375D01*
X16997053Y-17436661D01*
X17011339Y-17465232D01*
X17011339Y-17550947D01*
X16997053Y-17579518D01*
X16982768Y-17593804D01*
X16954196Y-17608089D01*
X16911339Y-17608089D01*
X17182768Y-17608089D02*
X17154196Y-17593804D01*
X17139911Y-17565232D01*
X17139911Y-17308089D01*
X17411339Y-17593804D02*
X17382768Y-17608089D01*
X17325625Y-17608089D01*
X17297053Y-17593804D01*
X17282768Y-17565232D01*
X17282768Y-17450947D01*
X17297053Y-17422375D01*
X17325625Y-17408089D01*
X17382768Y-17408089D01*
X17411339Y-17422375D01*
X17425625Y-17450947D01*
X17425625Y-17479518D01*
X17282768Y-17508089D01*
X17539911Y-17593804D02*
X17568482Y-17608089D01*
X17625625Y-17608089D01*
X17654196Y-17593804D01*
X17668482Y-17565232D01*
X17668482Y-17550947D01*
X17654196Y-17522375D01*
X17625625Y-17508089D01*
X17582768Y-17508089D01*
X17554196Y-17493804D01*
X17539911Y-17465232D01*
X17539911Y-17450947D01*
X17554196Y-17422375D01*
X17582768Y-17408089D01*
X17625625Y-17408089D01*
X17654196Y-17422375D01*
X18025625Y-17493804D02*
X18254196Y-17493804D01*
X18139911Y-17608089D02*
X18139911Y-17379518D01*
X18754196Y-17408089D02*
X18754196Y-17608089D01*
X18682768Y-17293804D02*
X18611339Y-17508089D01*
X18797053Y-17508089D01*
X19125625Y-17593804D02*
X19154196Y-17608089D01*
X19211339Y-17608089D01*
X19239911Y-17593804D01*
X19254196Y-17565232D01*
X19254196Y-17550947D01*
X19239911Y-17522375D01*
X19211339Y-17508089D01*
X19168482Y-17508089D01*
X19139911Y-17493804D01*
X19125625Y-17465232D01*
X19125625Y-17450947D01*
X19139911Y-17422375D01*
X19168482Y-17408089D01*
X19211339Y-17408089D01*
X19239911Y-17422375D01*
X19425625Y-17608089D02*
X19397053Y-17593804D01*
X19382768Y-17565232D01*
X19382768Y-17308089D01*
X19582768Y-17608089D02*
X19554196Y-17593804D01*
X19539911Y-17579518D01*
X19525625Y-17550947D01*
X19525625Y-17465232D01*
X19539911Y-17436661D01*
X19554196Y-17422375D01*
X19582768Y-17408089D01*
X19625625Y-17408089D01*
X19654196Y-17422375D01*
X19668482Y-17436661D01*
X19682768Y-17465232D01*
X19682768Y-17550947D01*
X19668482Y-17579518D01*
X19654196Y-17593804D01*
X19625625Y-17608089D01*
X19582768Y-17608089D01*
X19768482Y-17408089D02*
X19882768Y-17408089D01*
X19811339Y-17308089D02*
X19811339Y-17565232D01*
X19825625Y-17593804D01*
X19854196Y-17608089D01*
X19882768Y-17608089D01*
X19968482Y-17593804D02*
X19997053Y-17608089D01*
X20054196Y-17608089D01*
X20082768Y-17593804D01*
X20097053Y-17565232D01*
X20097053Y-17550947D01*
X20082768Y-17522375D01*
X20054196Y-17508089D01*
X20011339Y-17508089D01*
X19982768Y-17493804D01*
X19968482Y-17465232D01*
X19968482Y-17450947D01*
X19982768Y-17422375D01*
X20011339Y-17408089D01*
X20054196Y-17408089D01*
X20082768Y-17422375D01*
X20197053Y-17722375D02*
X20211339Y-17708089D01*
X20239911Y-17665232D01*
X20254196Y-17636661D01*
X20268482Y-17593804D01*
X20282768Y-17522375D01*
X20282768Y-17465232D01*
X20268482Y-17393804D01*
X20254196Y-17350947D01*
X20239911Y-17322375D01*
X20211339Y-17279518D01*
X20197053Y-17265232D01*
X10660625Y-17918375D02*
X10710625Y-17868375D01*
X10660625Y-17818375D01*
X10610625Y-17868375D01*
X10660625Y-17918375D01*
X11154196Y-18004089D02*
X10982768Y-18004089D01*
X11068482Y-18004089D02*
X11068482Y-17704089D01*
X11039911Y-17746947D01*
X11011339Y-17775518D01*
X10982768Y-17789804D01*
X11282768Y-17975518D02*
X11297053Y-17989804D01*
X11282768Y-18004089D01*
X11268482Y-17989804D01*
X11282768Y-17975518D01*
X11282768Y-18004089D01*
X11482768Y-17704089D02*
X11511339Y-17704089D01*
X11539911Y-17718375D01*
X11554196Y-17732661D01*
X11568482Y-17761232D01*
X11582768Y-17818375D01*
X11582768Y-17889804D01*
X11568482Y-17946947D01*
X11554196Y-17975518D01*
X11539911Y-17989804D01*
X11511339Y-18004089D01*
X11482768Y-18004089D01*
X11454196Y-17989804D01*
X11439911Y-17975518D01*
X11425625Y-17946947D01*
X11411339Y-17889804D01*
X11411339Y-17818375D01*
X11425625Y-17761232D01*
X11439911Y-17732661D01*
X11454196Y-17718375D01*
X11482768Y-17704089D01*
X11768482Y-17704089D02*
X11797053Y-17704089D01*
X11825625Y-17718375D01*
X11839911Y-17732661D01*
X11854196Y-17761232D01*
X11868482Y-17818375D01*
X11868482Y-17889804D01*
X11854196Y-17946947D01*
X11839911Y-17975518D01*
X11825625Y-17989804D01*
X11797053Y-18004089D01*
X11768482Y-18004089D01*
X11739911Y-17989804D01*
X11725625Y-17975518D01*
X11711339Y-17946947D01*
X11697053Y-17889804D01*
X11697053Y-17818375D01*
X11711339Y-17761232D01*
X11725625Y-17732661D01*
X11739911Y-17718375D01*
X11768482Y-17704089D01*
X12054196Y-17704089D02*
X12082768Y-17704089D01*
X12111339Y-17718375D01*
X12125625Y-17732661D01*
X12139911Y-17761232D01*
X12154196Y-17818375D01*
X12154196Y-17889804D01*
X12139911Y-17946947D01*
X12125625Y-17975518D01*
X12111339Y-17989804D01*
X12082768Y-18004089D01*
X12054196Y-18004089D01*
X12025625Y-17989804D01*
X12011339Y-17975518D01*
X11997053Y-17946947D01*
X11982768Y-17889804D01*
X11982768Y-17818375D01*
X11997053Y-17761232D01*
X12011339Y-17732661D01*
X12025625Y-17718375D01*
X12054196Y-17704089D01*
X12282768Y-18004089D02*
X12282768Y-17804089D01*
X12282768Y-17832661D02*
X12297053Y-17818375D01*
X12325625Y-17804089D01*
X12368482Y-17804089D01*
X12397053Y-17818375D01*
X12411339Y-17846947D01*
X12411339Y-18004089D01*
X12411339Y-17846947D02*
X12425625Y-17818375D01*
X12454196Y-17804089D01*
X12497053Y-17804089D01*
X12525625Y-17818375D01*
X12539911Y-17846947D01*
X12539911Y-18004089D01*
X12682768Y-18004089D02*
X12682768Y-17804089D01*
X12682768Y-17832661D02*
X12697053Y-17818375D01*
X12725625Y-17804089D01*
X12768482Y-17804089D01*
X12797053Y-17818375D01*
X12811339Y-17846947D01*
X12811339Y-18004089D01*
X12811339Y-17846947D02*
X12825625Y-17818375D01*
X12854196Y-17804089D01*
X12897053Y-17804089D01*
X12925625Y-17818375D01*
X12939911Y-17846947D01*
X12939911Y-18004089D01*
X13525625Y-17689804D02*
X13268482Y-18075518D01*
X13911339Y-17704089D02*
X13939911Y-17704089D01*
X13968482Y-17718375D01*
X13982768Y-17732661D01*
X13997053Y-17761232D01*
X14011339Y-17818375D01*
X14011339Y-17889804D01*
X13997053Y-17946947D01*
X13982768Y-17975518D01*
X13968482Y-17989804D01*
X13939911Y-18004089D01*
X13911339Y-18004089D01*
X13882768Y-17989804D01*
X13868482Y-17975518D01*
X13854196Y-17946947D01*
X13839911Y-17889804D01*
X13839911Y-17818375D01*
X13854196Y-17761232D01*
X13868482Y-17732661D01*
X13882768Y-17718375D01*
X13911339Y-17704089D01*
X14139911Y-17975518D02*
X14154196Y-17989804D01*
X14139911Y-18004089D01*
X14125625Y-17989804D01*
X14139911Y-17975518D01*
X14139911Y-18004089D01*
X14339911Y-17704089D02*
X14368482Y-17704089D01*
X14397053Y-17718375D01*
X14411339Y-17732661D01*
X14425625Y-17761232D01*
X14439911Y-17818375D01*
X14439911Y-17889804D01*
X14425625Y-17946947D01*
X14411339Y-17975518D01*
X14397053Y-17989804D01*
X14368482Y-18004089D01*
X14339911Y-18004089D01*
X14311339Y-17989804D01*
X14297053Y-17975518D01*
X14282768Y-17946947D01*
X14268482Y-17889804D01*
X14268482Y-17818375D01*
X14282768Y-17761232D01*
X14297053Y-17732661D01*
X14311339Y-17718375D01*
X14339911Y-17704089D01*
X14539911Y-17704089D02*
X14725625Y-17704089D01*
X14625625Y-17818375D01*
X14668482Y-17818375D01*
X14697053Y-17832661D01*
X14711339Y-17846947D01*
X14725625Y-17875518D01*
X14725625Y-17946947D01*
X14711339Y-17975518D01*
X14697053Y-17989804D01*
X14668482Y-18004089D01*
X14582768Y-18004089D01*
X14554196Y-17989804D01*
X14539911Y-17975518D01*
X14868482Y-18004089D02*
X14925625Y-18004089D01*
X14954196Y-17989804D01*
X14968482Y-17975518D01*
X14997053Y-17932661D01*
X15011339Y-17875518D01*
X15011339Y-17761232D01*
X14997053Y-17732661D01*
X14982768Y-17718375D01*
X14954196Y-17704089D01*
X14897053Y-17704089D01*
X14868482Y-17718375D01*
X14854196Y-17732661D01*
X14839911Y-17761232D01*
X14839911Y-17832661D01*
X14854196Y-17861232D01*
X14868482Y-17875518D01*
X14897053Y-17889804D01*
X14954196Y-17889804D01*
X14982768Y-17875518D01*
X14997053Y-17861232D01*
X15011339Y-17832661D01*
X15268482Y-17804089D02*
X15268482Y-18004089D01*
X15197053Y-17689804D02*
X15125625Y-17904089D01*
X15311339Y-17904089D01*
X15411339Y-17704089D02*
X15411339Y-17761232D01*
X15525625Y-17704089D02*
X15525625Y-17761232D01*
X15968482Y-18118375D02*
X15954196Y-18104089D01*
X15925625Y-18061232D01*
X15911339Y-18032661D01*
X15897053Y-17989804D01*
X15882768Y-17918375D01*
X15882768Y-17861232D01*
X15897053Y-17789804D01*
X15911339Y-17746947D01*
X15925625Y-17718375D01*
X15954196Y-17675518D01*
X15968482Y-17661232D01*
X16211339Y-17704089D02*
X16154196Y-17704089D01*
X16125625Y-17718375D01*
X16111339Y-17732661D01*
X16082768Y-17775518D01*
X16068482Y-17832661D01*
X16068482Y-17946947D01*
X16082768Y-17975518D01*
X16097053Y-17989804D01*
X16125625Y-18004089D01*
X16182768Y-18004089D01*
X16211339Y-17989804D01*
X16225625Y-17975518D01*
X16239911Y-17946947D01*
X16239911Y-17875518D01*
X16225625Y-17846947D01*
X16211339Y-17832661D01*
X16182768Y-17818375D01*
X16125625Y-17818375D01*
X16097053Y-17832661D01*
X16082768Y-17846947D01*
X16068482Y-17875518D01*
X16597053Y-18004089D02*
X16597053Y-17704089D01*
X16725625Y-18004089D02*
X16725625Y-17846947D01*
X16711339Y-17818375D01*
X16682768Y-17804089D01*
X16639911Y-17804089D01*
X16611339Y-17818375D01*
X16597053Y-17832661D01*
X16911339Y-18004089D02*
X16882768Y-17989804D01*
X16868482Y-17975518D01*
X16854196Y-17946947D01*
X16854196Y-17861232D01*
X16868482Y-17832661D01*
X16882768Y-17818375D01*
X16911339Y-17804089D01*
X16954196Y-17804089D01*
X16982768Y-17818375D01*
X16997053Y-17832661D01*
X17011339Y-17861232D01*
X17011339Y-17946947D01*
X16997053Y-17975518D01*
X16982768Y-17989804D01*
X16954196Y-18004089D01*
X16911339Y-18004089D01*
X17182768Y-18004089D02*
X17154196Y-17989804D01*
X17139911Y-17961232D01*
X17139911Y-17704089D01*
X17411339Y-17989804D02*
X17382768Y-18004089D01*
X17325625Y-18004089D01*
X17297053Y-17989804D01*
X17282768Y-17961232D01*
X17282768Y-17846947D01*
X17297053Y-17818375D01*
X17325625Y-17804089D01*
X17382768Y-17804089D01*
X17411339Y-17818375D01*
X17425625Y-17846947D01*
X17425625Y-17875518D01*
X17282768Y-17904089D01*
X17539911Y-17989804D02*
X17568482Y-18004089D01*
X17625625Y-18004089D01*
X17654196Y-17989804D01*
X17668482Y-17961232D01*
X17668482Y-17946947D01*
X17654196Y-17918375D01*
X17625625Y-17904089D01*
X17582768Y-17904089D01*
X17554196Y-17889804D01*
X17539911Y-17861232D01*
X17539911Y-17846947D01*
X17554196Y-17818375D01*
X17582768Y-17804089D01*
X17625625Y-17804089D01*
X17654196Y-17818375D01*
X17768482Y-18118375D02*
X17782768Y-18104089D01*
X17811339Y-18061232D01*
X17825625Y-18032661D01*
X17839911Y-17989804D01*
X17854196Y-17918375D01*
X17854196Y-17861232D01*
X17839911Y-17789804D01*
X17825625Y-17746947D01*
X17811339Y-17718375D01*
X17782768Y-17675518D01*
X17768482Y-17661232D01*
X10460625Y-18139375D02*
X10710625Y-18389375D01*
X10710625Y-18139375D02*
X10460625Y-18389375D01*
X10710625Y-18264375D02*
G75*
G03*
X10710625Y-18264375I-125000J0D01*
G01*
X10982768Y-18128661D02*
X10997053Y-18114375D01*
X11025625Y-18100089D01*
X11097053Y-18100089D01*
X11125625Y-18114375D01*
X11139911Y-18128661D01*
X11154196Y-18157232D01*
X11154196Y-18185804D01*
X11139911Y-18228661D01*
X10968482Y-18400089D01*
X11154196Y-18400089D01*
X11282768Y-18371518D02*
X11297053Y-18385804D01*
X11282768Y-18400089D01*
X11268482Y-18385804D01*
X11282768Y-18371518D01*
X11282768Y-18400089D01*
X11568482Y-18100089D02*
X11425625Y-18100089D01*
X11411339Y-18242947D01*
X11425625Y-18228661D01*
X11454196Y-18214375D01*
X11525625Y-18214375D01*
X11554196Y-18228661D01*
X11568482Y-18242947D01*
X11582768Y-18271518D01*
X11582768Y-18342947D01*
X11568482Y-18371518D01*
X11554196Y-18385804D01*
X11525625Y-18400089D01*
X11454196Y-18400089D01*
X11425625Y-18385804D01*
X11411339Y-18371518D01*
X11768482Y-18100089D02*
X11797053Y-18100089D01*
X11825625Y-18114375D01*
X11839911Y-18128661D01*
X11854196Y-18157232D01*
X11868482Y-18214375D01*
X11868482Y-18285804D01*
X11854196Y-18342947D01*
X11839911Y-18371518D01*
X11825625Y-18385804D01*
X11797053Y-18400089D01*
X11768482Y-18400089D01*
X11739911Y-18385804D01*
X11725625Y-18371518D01*
X11711339Y-18342947D01*
X11697053Y-18285804D01*
X11697053Y-18214375D01*
X11711339Y-18157232D01*
X11725625Y-18128661D01*
X11739911Y-18114375D01*
X11768482Y-18100089D01*
X12054196Y-18100089D02*
X12082768Y-18100089D01*
X12111339Y-18114375D01*
X12125625Y-18128661D01*
X12139911Y-18157232D01*
X12154196Y-18214375D01*
X12154196Y-18285804D01*
X12139911Y-18342947D01*
X12125625Y-18371518D01*
X12111339Y-18385804D01*
X12082768Y-18400089D01*
X12054196Y-18400089D01*
X12025625Y-18385804D01*
X12011339Y-18371518D01*
X11997053Y-18342947D01*
X11982768Y-18285804D01*
X11982768Y-18214375D01*
X11997053Y-18157232D01*
X12011339Y-18128661D01*
X12025625Y-18114375D01*
X12054196Y-18100089D01*
X12282768Y-18400089D02*
X12282768Y-18200089D01*
X12282768Y-18228661D02*
X12297053Y-18214375D01*
X12325625Y-18200089D01*
X12368482Y-18200089D01*
X12397053Y-18214375D01*
X12411339Y-18242947D01*
X12411339Y-18400089D01*
X12411339Y-18242947D02*
X12425625Y-18214375D01*
X12454196Y-18200089D01*
X12497053Y-18200089D01*
X12525625Y-18214375D01*
X12539911Y-18242947D01*
X12539911Y-18400089D01*
X12682768Y-18400089D02*
X12682768Y-18200089D01*
X12682768Y-18228661D02*
X12697053Y-18214375D01*
X12725625Y-18200089D01*
X12768482Y-18200089D01*
X12797053Y-18214375D01*
X12811339Y-18242947D01*
X12811339Y-18400089D01*
X12811339Y-18242947D02*
X12825625Y-18214375D01*
X12854196Y-18200089D01*
X12897053Y-18200089D01*
X12925625Y-18214375D01*
X12939911Y-18242947D01*
X12939911Y-18400089D01*
X13525625Y-18085804D02*
X13268482Y-18471518D01*
X13911339Y-18100089D02*
X13939911Y-18100089D01*
X13968482Y-18114375D01*
X13982768Y-18128661D01*
X13997053Y-18157232D01*
X14011339Y-18214375D01*
X14011339Y-18285804D01*
X13997053Y-18342947D01*
X13982768Y-18371518D01*
X13968482Y-18385804D01*
X13939911Y-18400089D01*
X13911339Y-18400089D01*
X13882768Y-18385804D01*
X13868482Y-18371518D01*
X13854196Y-18342947D01*
X13839911Y-18285804D01*
X13839911Y-18214375D01*
X13854196Y-18157232D01*
X13868482Y-18128661D01*
X13882768Y-18114375D01*
X13911339Y-18100089D01*
X14139911Y-18371518D02*
X14154196Y-18385804D01*
X14139911Y-18400089D01*
X14125625Y-18385804D01*
X14139911Y-18371518D01*
X14139911Y-18400089D01*
X14339911Y-18100089D02*
X14368482Y-18100089D01*
X14397053Y-18114375D01*
X14411339Y-18128661D01*
X14425625Y-18157232D01*
X14439911Y-18214375D01*
X14439911Y-18285804D01*
X14425625Y-18342947D01*
X14411339Y-18371518D01*
X14397053Y-18385804D01*
X14368482Y-18400089D01*
X14339911Y-18400089D01*
X14311339Y-18385804D01*
X14297053Y-18371518D01*
X14282768Y-18342947D01*
X14268482Y-18285804D01*
X14268482Y-18214375D01*
X14282768Y-18157232D01*
X14297053Y-18128661D01*
X14311339Y-18114375D01*
X14339911Y-18100089D01*
X14582768Y-18400089D02*
X14639911Y-18400089D01*
X14668482Y-18385804D01*
X14682768Y-18371518D01*
X14711339Y-18328661D01*
X14725625Y-18271518D01*
X14725625Y-18157232D01*
X14711339Y-18128661D01*
X14697053Y-18114375D01*
X14668482Y-18100089D01*
X14611339Y-18100089D01*
X14582768Y-18114375D01*
X14568482Y-18128661D01*
X14554196Y-18157232D01*
X14554196Y-18228661D01*
X14568482Y-18257232D01*
X14582768Y-18271518D01*
X14611339Y-18285804D01*
X14668482Y-18285804D01*
X14697053Y-18271518D01*
X14711339Y-18257232D01*
X14725625Y-18228661D01*
X14897053Y-18228661D02*
X14868482Y-18214375D01*
X14854196Y-18200089D01*
X14839911Y-18171518D01*
X14839911Y-18157232D01*
X14854196Y-18128661D01*
X14868482Y-18114375D01*
X14897053Y-18100089D01*
X14954196Y-18100089D01*
X14982768Y-18114375D01*
X14997053Y-18128661D01*
X15011339Y-18157232D01*
X15011339Y-18171518D01*
X14997053Y-18200089D01*
X14982768Y-18214375D01*
X14954196Y-18228661D01*
X14897053Y-18228661D01*
X14868482Y-18242947D01*
X14854196Y-18257232D01*
X14839911Y-18285804D01*
X14839911Y-18342947D01*
X14854196Y-18371518D01*
X14868482Y-18385804D01*
X14897053Y-18400089D01*
X14954196Y-18400089D01*
X14982768Y-18385804D01*
X14997053Y-18371518D01*
X15011339Y-18342947D01*
X15011339Y-18285804D01*
X14997053Y-18257232D01*
X14982768Y-18242947D01*
X14954196Y-18228661D01*
X15268482Y-18200089D02*
X15268482Y-18400089D01*
X15197053Y-18085804D02*
X15125625Y-18300089D01*
X15311339Y-18300089D01*
X15411339Y-18100089D02*
X15411339Y-18157232D01*
X15525625Y-18100089D02*
X15525625Y-18157232D01*
X15968482Y-18514375D02*
X15954196Y-18500089D01*
X15925625Y-18457232D01*
X15911339Y-18428661D01*
X15897053Y-18385804D01*
X15882768Y-18314375D01*
X15882768Y-18257232D01*
X15897053Y-18185804D01*
X15911339Y-18142947D01*
X15925625Y-18114375D01*
X15954196Y-18071518D01*
X15968482Y-18057232D01*
X16211339Y-18200089D02*
X16211339Y-18400089D01*
X16139911Y-18085804D02*
X16068482Y-18300089D01*
X16254196Y-18300089D01*
X16597053Y-18400089D02*
X16597053Y-18100089D01*
X16725625Y-18400089D02*
X16725625Y-18242947D01*
X16711339Y-18214375D01*
X16682768Y-18200089D01*
X16639911Y-18200089D01*
X16611339Y-18214375D01*
X16597053Y-18228661D01*
X16911339Y-18400089D02*
X16882768Y-18385804D01*
X16868482Y-18371518D01*
X16854196Y-18342947D01*
X16854196Y-18257232D01*
X16868482Y-18228661D01*
X16882768Y-18214375D01*
X16911339Y-18200089D01*
X16954196Y-18200089D01*
X16982768Y-18214375D01*
X16997053Y-18228661D01*
X17011339Y-18257232D01*
X17011339Y-18342947D01*
X16997053Y-18371518D01*
X16982768Y-18385804D01*
X16954196Y-18400089D01*
X16911339Y-18400089D01*
X17182768Y-18400089D02*
X17154196Y-18385804D01*
X17139911Y-18357232D01*
X17139911Y-18100089D01*
X17411339Y-18385804D02*
X17382768Y-18400089D01*
X17325625Y-18400089D01*
X17297053Y-18385804D01*
X17282768Y-18357232D01*
X17282768Y-18242947D01*
X17297053Y-18214375D01*
X17325625Y-18200089D01*
X17382768Y-18200089D01*
X17411339Y-18214375D01*
X17425625Y-18242947D01*
X17425625Y-18271518D01*
X17282768Y-18300089D01*
X17539911Y-18385804D02*
X17568482Y-18400089D01*
X17625625Y-18400089D01*
X17654196Y-18385804D01*
X17668482Y-18357232D01*
X17668482Y-18342947D01*
X17654196Y-18314375D01*
X17625625Y-18300089D01*
X17582768Y-18300089D01*
X17554196Y-18285804D01*
X17539911Y-18257232D01*
X17539911Y-18242947D01*
X17554196Y-18214375D01*
X17582768Y-18200089D01*
X17625625Y-18200089D01*
X17654196Y-18214375D01*
X17768482Y-18514375D02*
X17782768Y-18500089D01*
X17811339Y-18457232D01*
X17825625Y-18428661D01*
X17839911Y-18385804D01*
X17854196Y-18314375D01*
X17854196Y-18257232D01*
X17839911Y-18185804D01*
X17825625Y-18142947D01*
X17811339Y-18114375D01*
X17782768Y-18071518D01*
X17768482Y-18057232D01*
M02*
