%TF.GenerationSoftware,KiCad,Pcbnew,(5.1.9)-1*%
%TF.CreationDate,2021-06-12T17:38:07+02:00*%
%TF.ProjectId,tfk20-avr,74666b32-302d-4617-9672-2e6b69636164,rev?*%
%TF.SameCoordinates,Original*%
%TF.FileFunction,Legend,Bot*%
%TF.FilePolarity,Positive*%
%FSLAX46Y46*%
G04 Gerber Fmt 4.6, Leading zero omitted, Abs format (unit mm)*
G04 Created by KiCad (PCBNEW (5.1.9)-1) date 2021-06-12 17:38:07*
%MOMM*%
%LPD*%
G01*
G04 APERTURE LIST*
%ADD10C,0.120000*%
%ADD11C,0.150000*%
%ADD12C,0.250000*%
G04 APERTURE END LIST*
D10*
%TO.C,MX10*%
X135931250Y-89218750D02*
X130831250Y-89218750D01*
X139831250Y-93418750D02*
X134731250Y-93418750D01*
X141831250Y-91418750D02*
G75*
G02*
X139831250Y-93418750I-2000000J0D01*
G01*
X137931250Y-87218750D02*
G75*
G02*
X135931250Y-89218750I-2000000J0D01*
G01*
%TO.C,R1*%
X125576064Y-84609000D02*
X125121936Y-84609000D01*
X125576064Y-86079000D02*
X125121936Y-86079000D01*
%TO.C,D30*%
X165575000Y-94087500D02*
X165575000Y-95237500D01*
X158275000Y-94087500D02*
X165575000Y-94087500D01*
X158275000Y-99587500D02*
X165575000Y-99587500D01*
%TO.C,D29*%
X165575000Y-75037500D02*
X165575000Y-76187500D01*
X158275000Y-75037500D02*
X165575000Y-75037500D01*
X158275000Y-80537500D02*
X165575000Y-80537500D01*
%TO.C,D28*%
X131443750Y-75037500D02*
X131443750Y-76187500D01*
X124143750Y-75037500D02*
X131443750Y-75037500D01*
X124143750Y-80537500D02*
X131443750Y-80537500D01*
%TO.C,D27*%
X131443750Y-94087500D02*
X131443750Y-95237500D01*
X124143750Y-94087500D02*
X131443750Y-94087500D01*
X124143750Y-99587500D02*
X131443750Y-99587500D01*
%TO.C,D26*%
X129888000Y-118535000D02*
X129888000Y-119685000D01*
X122588000Y-118535000D02*
X129888000Y-118535000D01*
X122588000Y-124035000D02*
X129888000Y-124035000D01*
%TO.C,D25*%
X171925000Y-125139000D02*
X171925000Y-126289000D01*
X164625000Y-125139000D02*
X171925000Y-125139000D01*
X164625000Y-130639000D02*
X171925000Y-130639000D01*
%TO.C,C16*%
X160266748Y-101246000D02*
X160789252Y-101246000D01*
X160266748Y-102716000D02*
X160789252Y-102716000D01*
%TO.C,C15*%
X160139748Y-82196000D02*
X160662252Y-82196000D01*
X160139748Y-83666000D02*
X160662252Y-83666000D01*
%TO.C,C14*%
X127119748Y-82196000D02*
X127642252Y-82196000D01*
X127119748Y-83666000D02*
X127642252Y-83666000D01*
%TO.C,C13*%
X126738748Y-102452500D02*
X127261252Y-102452500D01*
X126738748Y-103922500D02*
X127261252Y-103922500D01*
%TO.C,C12*%
X119768252Y-116051000D02*
X119245748Y-116051000D01*
X119768252Y-114581000D02*
X119245748Y-114581000D01*
%TO.C,C11*%
X164438000Y-136898748D02*
X164438000Y-137421252D01*
X162968000Y-136898748D02*
X162968000Y-137421252D01*
D11*
%TO.C,U1*%
X174625000Y-122412305D02*
X174218414Y-122005719D01*
X181943555Y-115093750D02*
X181466258Y-114616453D01*
X174625000Y-107775195D02*
X175102297Y-108252492D01*
X167306445Y-115093750D02*
X167783742Y-115571047D01*
X174625000Y-122412305D02*
X175102297Y-121935008D01*
X167306445Y-115093750D02*
X167783742Y-114616453D01*
X174625000Y-107775195D02*
X174147703Y-108252492D01*
X181943555Y-115093750D02*
X181466258Y-115571047D01*
X174218414Y-122005719D02*
X173316852Y-122907280D01*
%TO.C,D31*%
X114381250Y-41618750D02*
G75*
G03*
X114381250Y-41618750I-200000J0D01*
G01*
%TO.C,D36*%
X133431250Y-60668750D02*
G75*
G03*
X133431250Y-60668750I-200000J0D01*
G01*
D10*
%TO.C,J1*%
X121109375Y-38084375D02*
X121109375Y-36184375D01*
X121109375Y-41984375D02*
X121109375Y-39984375D01*
X130509375Y-38084375D02*
X130509375Y-36184375D01*
X130509375Y-41984375D02*
X130509375Y-39984375D01*
X121109375Y-36184375D02*
X130509375Y-36184375D01*
%TO.C,Y1*%
X170181250Y-100143750D02*
X170181250Y-104643750D01*
X170181250Y-104643750D02*
X164781250Y-104643750D01*
%TO.C,U2*%
X176705500Y-76971500D02*
X177155500Y-76971500D01*
X177155500Y-76971500D02*
X177155500Y-77421500D01*
X170385500Y-76971500D02*
X169935500Y-76971500D01*
X169935500Y-76971500D02*
X169935500Y-77421500D01*
X176705500Y-84191500D02*
X177155500Y-84191500D01*
X177155500Y-84191500D02*
X177155500Y-83741500D01*
X170385500Y-84191500D02*
X169935500Y-84191500D01*
X169935500Y-84191500D02*
X169935500Y-83741500D01*
X169935500Y-83741500D02*
X168645500Y-83741500D01*
%TO.C,R13*%
X182599000Y-89508064D02*
X182599000Y-89053936D01*
X181129000Y-89508064D02*
X181129000Y-89053936D01*
%TO.C,R12*%
X147928000Y-80618064D02*
X147928000Y-80163936D01*
X146458000Y-80618064D02*
X146458000Y-80163936D01*
%TO.C,R11*%
X172693064Y-86895000D02*
X172238936Y-86895000D01*
X172693064Y-88365000D02*
X172238936Y-88365000D01*
%TO.C,R10*%
X167158936Y-88365000D02*
X167613064Y-88365000D01*
X167158936Y-86895000D02*
X167613064Y-86895000D01*
%TO.C,R9*%
X146458000Y-84227936D02*
X146458000Y-84682064D01*
X147928000Y-84227936D02*
X147928000Y-84682064D01*
%TO.C,R8*%
X164565000Y-42391064D02*
X164565000Y-41936936D01*
X163095000Y-42391064D02*
X163095000Y-41936936D01*
%TO.C,R7*%
X181192500Y-103722436D02*
X181192500Y-104176564D01*
X182662500Y-103722436D02*
X182662500Y-104176564D01*
%TO.C,R6*%
X141346250Y-61685436D02*
X141346250Y-62139564D01*
X142816250Y-61685436D02*
X142816250Y-62139564D01*
%TO.C,R5*%
X147696250Y-61685436D02*
X147696250Y-62139564D01*
X149166250Y-61685436D02*
X149166250Y-62139564D01*
%TO.C,R4*%
X142902000Y-41936936D02*
X142902000Y-42391064D01*
X144372000Y-41936936D02*
X144372000Y-42391064D01*
%TO.C,R3*%
X131471936Y-47090000D02*
X131926064Y-47090000D01*
X131471936Y-45620000D02*
X131926064Y-45620000D01*
%TO.C,R2*%
X120422936Y-47090000D02*
X120877064Y-47090000D01*
X120422936Y-45620000D02*
X120877064Y-45620000D01*
%TO.C,MX21*%
X176531250Y-133943750D02*
X176531250Y-139043750D01*
X180731250Y-130043750D02*
X180731250Y-135143750D01*
X178731250Y-128043750D02*
G75*
G02*
X180731250Y-130043750I0J-2000000D01*
G01*
X174531250Y-131943750D02*
G75*
G02*
X176531250Y-133943750I0J-2000000D01*
G01*
%TO.C,MX20*%
X154981250Y-146368750D02*
X149881250Y-146368750D01*
X158881250Y-150568750D02*
X153781250Y-150568750D01*
X160881250Y-148568750D02*
G75*
G02*
X158881250Y-150568750I-2000000J0D01*
G01*
X156981250Y-144368750D02*
G75*
G02*
X154981250Y-146368750I-2000000J0D01*
G01*
%TO.C,MX19*%
X126406250Y-146368750D02*
X121306250Y-146368750D01*
X130306250Y-150568750D02*
X125206250Y-150568750D01*
X132306250Y-148568750D02*
G75*
G02*
X130306250Y-150568750I-2000000J0D01*
G01*
X128406250Y-144368750D02*
G75*
G02*
X126406250Y-146368750I-2000000J0D01*
G01*
%TO.C,MX18*%
X154981250Y-127318750D02*
X149881250Y-127318750D01*
X158881250Y-131518750D02*
X153781250Y-131518750D01*
X160881250Y-129518750D02*
G75*
G02*
X158881250Y-131518750I-2000000J0D01*
G01*
X156981250Y-125318750D02*
G75*
G02*
X154981250Y-127318750I-2000000J0D01*
G01*
%TO.C,MX17*%
X135931250Y-127318750D02*
X130831250Y-127318750D01*
X139831250Y-131518750D02*
X134731250Y-131518750D01*
X141831250Y-129518750D02*
G75*
G02*
X139831250Y-131518750I-2000000J0D01*
G01*
X137931250Y-125318750D02*
G75*
G02*
X135931250Y-127318750I-2000000J0D01*
G01*
%TO.C,MX16*%
X116881250Y-127318750D02*
X111781250Y-127318750D01*
X120781250Y-131518750D02*
X115681250Y-131518750D01*
X122781250Y-129518750D02*
G75*
G02*
X120781250Y-131518750I-2000000J0D01*
G01*
X118881250Y-125318750D02*
G75*
G02*
X116881250Y-127318750I-2000000J0D01*
G01*
%TO.C,MX15*%
X176531250Y-95843750D02*
X176531250Y-100943750D01*
X180731250Y-91943750D02*
X180731250Y-97043750D01*
X178731250Y-89943750D02*
G75*
G02*
X180731250Y-91943750I0J-2000000D01*
G01*
X174531250Y-93843750D02*
G75*
G02*
X176531250Y-95843750I0J-2000000D01*
G01*
%TO.C,MX14*%
X154981250Y-108268750D02*
X149881250Y-108268750D01*
X158881250Y-112468750D02*
X153781250Y-112468750D01*
X160881250Y-110468750D02*
G75*
G02*
X158881250Y-112468750I-2000000J0D01*
G01*
X156981250Y-106268750D02*
G75*
G02*
X154981250Y-108268750I-2000000J0D01*
G01*
%TO.C,MX13*%
X135931250Y-108268750D02*
X130831250Y-108268750D01*
X139831250Y-112468750D02*
X134731250Y-112468750D01*
X141831250Y-110468750D02*
G75*
G02*
X139831250Y-112468750I-2000000J0D01*
G01*
X137931250Y-106268750D02*
G75*
G02*
X135931250Y-108268750I-2000000J0D01*
G01*
%TO.C,MX12*%
X116881250Y-108268750D02*
X111781250Y-108268750D01*
X120781250Y-112468750D02*
X115681250Y-112468750D01*
X122781250Y-110468750D02*
G75*
G02*
X120781250Y-112468750I-2000000J0D01*
G01*
X118881250Y-106268750D02*
G75*
G02*
X116881250Y-108268750I-2000000J0D01*
G01*
%TO.C,MX11*%
X154981250Y-89218750D02*
X149881250Y-89218750D01*
X158881250Y-93418750D02*
X153781250Y-93418750D01*
X160881250Y-91418750D02*
G75*
G02*
X158881250Y-93418750I-2000000J0D01*
G01*
X156981250Y-87218750D02*
G75*
G02*
X154981250Y-89218750I-2000000J0D01*
G01*
%TO.C,MX9*%
X116881250Y-89218750D02*
X111781250Y-89218750D01*
X120781250Y-93418750D02*
X115681250Y-93418750D01*
X122781250Y-91418750D02*
G75*
G02*
X120781250Y-93418750I-2000000J0D01*
G01*
X118881250Y-87218750D02*
G75*
G02*
X116881250Y-89218750I-2000000J0D01*
G01*
%TO.C,MX8*%
X174031250Y-70168750D02*
X168931250Y-70168750D01*
X177931250Y-74368750D02*
X172831250Y-74368750D01*
X179931250Y-72368750D02*
G75*
G02*
X177931250Y-74368750I-2000000J0D01*
G01*
X176031250Y-68168750D02*
G75*
G02*
X174031250Y-70168750I-2000000J0D01*
G01*
%TO.C,MX7*%
X154981250Y-70168750D02*
X149881250Y-70168750D01*
X158881250Y-74368750D02*
X153781250Y-74368750D01*
X160881250Y-72368750D02*
G75*
G02*
X158881250Y-74368750I-2000000J0D01*
G01*
X156981250Y-68168750D02*
G75*
G02*
X154981250Y-70168750I-2000000J0D01*
G01*
%TO.C,MX6*%
X135931250Y-70168750D02*
X130831250Y-70168750D01*
X139831250Y-74368750D02*
X134731250Y-74368750D01*
X141831250Y-72368750D02*
G75*
G02*
X139831250Y-74368750I-2000000J0D01*
G01*
X137931250Y-68168750D02*
G75*
G02*
X135931250Y-70168750I-2000000J0D01*
G01*
%TO.C,MX5*%
X116881250Y-70168750D02*
X111781250Y-70168750D01*
X120781250Y-74368750D02*
X115681250Y-74368750D01*
X122781250Y-72368750D02*
G75*
G02*
X120781250Y-74368750I-2000000J0D01*
G01*
X118881250Y-68168750D02*
G75*
G02*
X116881250Y-70168750I-2000000J0D01*
G01*
%TO.C,MX4*%
X174031250Y-51118750D02*
X168931250Y-51118750D01*
X177931250Y-55318750D02*
X172831250Y-55318750D01*
X179931250Y-53318750D02*
G75*
G02*
X177931250Y-55318750I-2000000J0D01*
G01*
X176031250Y-49118750D02*
G75*
G02*
X174031250Y-51118750I-2000000J0D01*
G01*
%TO.C,MX3*%
X154981250Y-51118750D02*
X149881250Y-51118750D01*
X158881250Y-55318750D02*
X153781250Y-55318750D01*
X160881250Y-53318750D02*
G75*
G02*
X158881250Y-55318750I-2000000J0D01*
G01*
X156981250Y-49118750D02*
G75*
G02*
X154981250Y-51118750I-2000000J0D01*
G01*
%TO.C,MX2*%
X135931250Y-51118750D02*
X130831250Y-51118750D01*
X139831250Y-55318750D02*
X134731250Y-55318750D01*
X141831250Y-53318750D02*
G75*
G02*
X139831250Y-55318750I-2000000J0D01*
G01*
X137931250Y-49118750D02*
G75*
G02*
X135931250Y-51118750I-2000000J0D01*
G01*
%TO.C,MX1*%
X116881250Y-51118750D02*
X111781250Y-51118750D01*
X120781250Y-55318750D02*
X115681250Y-55318750D01*
X122781250Y-53318750D02*
G75*
G02*
X120781250Y-55318750I-2000000J0D01*
G01*
X118881250Y-49118750D02*
G75*
G02*
X116881250Y-51118750I-2000000J0D01*
G01*
D12*
%TO.C,J2*%
X135696000Y-146010000D02*
X138196000Y-146010000D01*
X135696000Y-141010000D02*
X135696000Y-146010000D01*
X138196000Y-141010000D02*
X135696000Y-141010000D01*
X138196000Y-146010000D02*
X138196000Y-141010000D01*
D10*
%TO.C,F1*%
X128703750Y-64895814D02*
X128703750Y-63691686D01*
X126883750Y-64895814D02*
X126883750Y-63691686D01*
D11*
%TO.C,D51*%
X167231250Y-136643750D02*
G75*
G03*
X167231250Y-136643750I-200000J0D01*
G01*
%TO.C,D50*%
X152481250Y-136868750D02*
G75*
G03*
X152481250Y-136868750I-200000J0D01*
G01*
%TO.C,D49*%
X123906250Y-136868750D02*
G75*
G03*
X123906250Y-136868750I-200000J0D01*
G01*
%TO.C,D48*%
X152481250Y-117818750D02*
G75*
G03*
X152481250Y-117818750I-200000J0D01*
G01*
%TO.C,D47*%
X133431250Y-117818750D02*
G75*
G03*
X133431250Y-117818750I-200000J0D01*
G01*
%TO.C,D46*%
X114381250Y-117818750D02*
G75*
G03*
X114381250Y-117818750I-200000J0D01*
G01*
%TO.C,D45*%
X167231250Y-98543750D02*
G75*
G03*
X167231250Y-98543750I-200000J0D01*
G01*
%TO.C,D44*%
X152481250Y-98768750D02*
G75*
G03*
X152481250Y-98768750I-200000J0D01*
G01*
%TO.C,D43*%
X133431250Y-98768750D02*
G75*
G03*
X133431250Y-98768750I-200000J0D01*
G01*
%TO.C,D42*%
X114381250Y-98768750D02*
G75*
G03*
X114381250Y-98768750I-200000J0D01*
G01*
%TO.C,D41*%
X152481250Y-79718750D02*
G75*
G03*
X152481250Y-79718750I-200000J0D01*
G01*
%TO.C,D40*%
X133431250Y-79718750D02*
G75*
G03*
X133431250Y-79718750I-200000J0D01*
G01*
%TO.C,D39*%
X114381250Y-79718750D02*
G75*
G03*
X114381250Y-79718750I-200000J0D01*
G01*
%TO.C,D38*%
X171531250Y-60668750D02*
G75*
G03*
X171531250Y-60668750I-200000J0D01*
G01*
%TO.C,D37*%
X152481250Y-60668750D02*
G75*
G03*
X152481250Y-60668750I-200000J0D01*
G01*
%TO.C,D35*%
X114381250Y-60668750D02*
G75*
G03*
X114381250Y-60668750I-200000J0D01*
G01*
%TO.C,D34*%
X171531250Y-41618750D02*
G75*
G03*
X171531250Y-41618750I-200000J0D01*
G01*
%TO.C,D33*%
X152481250Y-41618750D02*
G75*
G03*
X152481250Y-41618750I-200000J0D01*
G01*
%TO.C,D32*%
X133431250Y-41618750D02*
G75*
G03*
X133431250Y-41618750I-200000J0D01*
G01*
D10*
%TO.C,D24*%
X171581250Y-143875000D02*
X171581250Y-141875000D01*
X171581250Y-141875000D02*
X175481250Y-141875000D01*
X171581250Y-143875000D02*
X175481250Y-143875000D01*
%TO.C,D23*%
X145050000Y-144593750D02*
X147050000Y-144593750D01*
X147050000Y-144593750D02*
X147050000Y-148493750D01*
X145050000Y-144593750D02*
X145050000Y-148493750D01*
%TO.C,D22*%
X116475000Y-144593750D02*
X118475000Y-144593750D01*
X118475000Y-144593750D02*
X118475000Y-148493750D01*
X116475000Y-144593750D02*
X116475000Y-148493750D01*
%TO.C,D21*%
X152268750Y-133143750D02*
X152268750Y-135143750D01*
X152268750Y-135143750D02*
X148368750Y-135143750D01*
X152268750Y-133143750D02*
X148368750Y-133143750D01*
%TO.C,D20*%
X133218750Y-133143750D02*
X133218750Y-135143750D01*
X133218750Y-135143750D02*
X129318750Y-135143750D01*
X133218750Y-133143750D02*
X129318750Y-133143750D01*
%TO.C,D19*%
X122900000Y-134731250D02*
X122900000Y-136731250D01*
X122900000Y-136731250D02*
X119000000Y-136731250D01*
X122900000Y-134731250D02*
X119000000Y-134731250D01*
%TO.C,D18*%
X156500000Y-116093750D02*
X156500000Y-114093750D01*
X156500000Y-114093750D02*
X160400000Y-114093750D01*
X156500000Y-116093750D02*
X160400000Y-116093750D01*
%TO.C,D17*%
X152268750Y-114093750D02*
X152268750Y-116093750D01*
X152268750Y-116093750D02*
X148368750Y-116093750D01*
X152268750Y-114093750D02*
X148368750Y-114093750D01*
%TO.C,D16*%
X142743750Y-114093750D02*
X142743750Y-116093750D01*
X142743750Y-116093750D02*
X138843750Y-116093750D01*
X142743750Y-114093750D02*
X138843750Y-114093750D01*
%TO.C,D15*%
X114962500Y-114093750D02*
X114962500Y-116093750D01*
X114962500Y-116093750D02*
X111062500Y-116093750D01*
X114962500Y-114093750D02*
X111062500Y-114093750D01*
%TO.C,D14*%
X153062500Y-95043750D02*
X153062500Y-97043750D01*
X153062500Y-97043750D02*
X149162500Y-97043750D01*
X153062500Y-95043750D02*
X149162500Y-95043750D01*
%TO.C,D13*%
X142743750Y-95043750D02*
X142743750Y-97043750D01*
X142743750Y-97043750D02*
X138843750Y-97043750D01*
X142743750Y-95043750D02*
X138843750Y-95043750D01*
%TO.C,D12*%
X114962500Y-95043750D02*
X114962500Y-97043750D01*
X114962500Y-97043750D02*
X111062500Y-97043750D01*
X114962500Y-95043750D02*
X111062500Y-95043750D01*
%TO.C,D11*%
X166100000Y-74481250D02*
X164100000Y-74481250D01*
X164100000Y-74481250D02*
X164100000Y-70581250D01*
X166100000Y-74481250D02*
X166100000Y-70581250D01*
%TO.C,D10*%
X153062500Y-75993750D02*
X153062500Y-77993750D01*
X153062500Y-77993750D02*
X149162500Y-77993750D01*
X153062500Y-75993750D02*
X149162500Y-75993750D01*
%TO.C,D9*%
X141950000Y-75993750D02*
X141950000Y-77993750D01*
X141950000Y-77993750D02*
X138050000Y-77993750D01*
X141950000Y-75993750D02*
X138050000Y-75993750D01*
%TO.C,D8*%
X114962500Y-75993750D02*
X114962500Y-77993750D01*
X114962500Y-77993750D02*
X111062500Y-77993750D01*
X114962500Y-75993750D02*
X111062500Y-75993750D01*
%TO.C,D7*%
X172112500Y-56943750D02*
X172112500Y-58943750D01*
X172112500Y-58943750D02*
X168212500Y-58943750D01*
X172112500Y-56943750D02*
X168212500Y-56943750D01*
%TO.C,D6*%
X153062500Y-56943750D02*
X153062500Y-58943750D01*
X153062500Y-58943750D02*
X149162500Y-58943750D01*
X153062500Y-56943750D02*
X149162500Y-56943750D01*
%TO.C,D5*%
X134012500Y-56943750D02*
X134012500Y-58943750D01*
X134012500Y-58943750D02*
X130112500Y-58943750D01*
X134012500Y-56943750D02*
X130112500Y-56943750D01*
%TO.C,D4*%
X114962500Y-56943750D02*
X114962500Y-58943750D01*
X114962500Y-58943750D02*
X111062500Y-58943750D01*
X114962500Y-56943750D02*
X111062500Y-56943750D01*
%TO.C,D3*%
X163973000Y-44359000D02*
X165973000Y-44359000D01*
X165973000Y-44359000D02*
X165973000Y-48259000D01*
X163973000Y-44359000D02*
X163973000Y-48259000D01*
%TO.C,D2*%
X144056250Y-60362500D02*
X146456250Y-60362500D01*
X146456250Y-63462500D02*
X143506250Y-63462500D01*
%TO.C,D1*%
X123618750Y-62043750D02*
X125618750Y-62043750D01*
X125618750Y-62043750D02*
X125618750Y-65943750D01*
X123618750Y-62043750D02*
X123618750Y-65943750D01*
%TO.C,C23*%
X168683000Y-90939252D02*
X168683000Y-90416748D01*
X170153000Y-90939252D02*
X170153000Y-90416748D01*
%TO.C,C22*%
X172312000Y-90416748D02*
X172312000Y-90939252D01*
X170842000Y-90416748D02*
X170842000Y-90939252D01*
%TO.C,C21*%
X180459748Y-79856000D02*
X180982252Y-79856000D01*
X180459748Y-78386000D02*
X180982252Y-78386000D01*
%TO.C,C20*%
X180459748Y-77697000D02*
X180982252Y-77697000D01*
X180459748Y-76227000D02*
X180982252Y-76227000D01*
%TO.C,C19*%
X167774252Y-75592000D02*
X167251748Y-75592000D01*
X167774252Y-77062000D02*
X167251748Y-77062000D01*
%TO.C,C18*%
X166524000Y-90416748D02*
X166524000Y-90939252D01*
X167994000Y-90416748D02*
X167994000Y-90939252D01*
%TO.C,C17*%
X165835000Y-90416748D02*
X165835000Y-90939252D01*
X164365000Y-90416748D02*
X164365000Y-90939252D01*
%TO.C,C10*%
X162841000Y-102132498D02*
X162841000Y-102655002D01*
X164311000Y-102132498D02*
X164311000Y-102655002D01*
%TO.C,C9*%
X170588000Y-102227748D02*
X170588000Y-102750252D01*
X172058000Y-102227748D02*
X172058000Y-102750252D01*
%TO.C,C8*%
X166851000Y-42425252D02*
X166851000Y-41902748D01*
X165381000Y-42425252D02*
X165381000Y-41902748D01*
%TO.C,C7*%
X161233752Y-121693000D02*
X160711248Y-121693000D01*
X161233752Y-123163000D02*
X160711248Y-123163000D01*
%TO.C,C6*%
X140616000Y-41902748D02*
X140616000Y-42425252D01*
X142086000Y-41902748D02*
X142086000Y-42425252D01*
%TO.C,C5*%
X162122752Y-118327500D02*
X161600248Y-118327500D01*
X162122752Y-119797500D02*
X161600248Y-119797500D01*
%TO.C,C4*%
X177475248Y-125131500D02*
X177997752Y-125131500D01*
X177475248Y-123661500D02*
X177997752Y-123661500D01*
%TO.C,C3*%
X171139752Y-123153500D02*
X170617248Y-123153500D01*
X171139752Y-124623500D02*
X170617248Y-124623500D01*
%TO.C,C2*%
X178046748Y-105256000D02*
X178569252Y-105256000D01*
X178046748Y-103786000D02*
X178569252Y-103786000D01*
%TO.C,C1*%
X174632252Y-103786000D02*
X174109748Y-103786000D01*
X174632252Y-105256000D02*
X174109748Y-105256000D01*
%TO.C,MX10*%
D11*
X137493154Y-94971130D02*
X137493154Y-93971130D01*
X137159821Y-94685416D01*
X136826488Y-93971130D01*
X136826488Y-94971130D01*
X136445535Y-93971130D02*
X135778869Y-94971130D01*
X135778869Y-93971130D02*
X136445535Y-94971130D01*
X134874107Y-94971130D02*
X135445535Y-94971130D01*
X135159821Y-94971130D02*
X135159821Y-93971130D01*
X135255059Y-94113988D01*
X135350297Y-94209226D01*
X135445535Y-94256845D01*
X134255059Y-93971130D02*
X134159821Y-93971130D01*
X134064583Y-94018750D01*
X134016964Y-94066369D01*
X133969345Y-94161607D01*
X133921726Y-94352083D01*
X133921726Y-94590178D01*
X133969345Y-94780654D01*
X134016964Y-94875892D01*
X134064583Y-94923511D01*
X134159821Y-94971130D01*
X134255059Y-94971130D01*
X134350297Y-94923511D01*
X134397916Y-94875892D01*
X134445535Y-94780654D01*
X134493154Y-94590178D01*
X134493154Y-94352083D01*
X134445535Y-94161607D01*
X134397916Y-94066369D01*
X134350297Y-94018750D01*
X134255059Y-93971130D01*
%TO.C,R1*%
X122721666Y-84145380D02*
X123055000Y-83669190D01*
X123293095Y-84145380D02*
X123293095Y-83145380D01*
X122912142Y-83145380D01*
X122816904Y-83193000D01*
X122769285Y-83240619D01*
X122721666Y-83335857D01*
X122721666Y-83478714D01*
X122769285Y-83573952D01*
X122816904Y-83621571D01*
X122912142Y-83669190D01*
X123293095Y-83669190D01*
X121769285Y-84145380D02*
X122340714Y-84145380D01*
X122055000Y-84145380D02*
X122055000Y-83145380D01*
X122150238Y-83288238D01*
X122245476Y-83383476D01*
X122340714Y-83431095D01*
%TO.C,D30*%
X163139285Y-100789880D02*
X163139285Y-99789880D01*
X162901190Y-99789880D01*
X162758333Y-99837500D01*
X162663095Y-99932738D01*
X162615476Y-100027976D01*
X162567857Y-100218452D01*
X162567857Y-100361309D01*
X162615476Y-100551785D01*
X162663095Y-100647023D01*
X162758333Y-100742261D01*
X162901190Y-100789880D01*
X163139285Y-100789880D01*
X162234523Y-99789880D02*
X161615476Y-99789880D01*
X161948809Y-100170833D01*
X161805952Y-100170833D01*
X161710714Y-100218452D01*
X161663095Y-100266071D01*
X161615476Y-100361309D01*
X161615476Y-100599404D01*
X161663095Y-100694642D01*
X161710714Y-100742261D01*
X161805952Y-100789880D01*
X162091666Y-100789880D01*
X162186904Y-100742261D01*
X162234523Y-100694642D01*
X160996428Y-99789880D02*
X160901190Y-99789880D01*
X160805952Y-99837500D01*
X160758333Y-99885119D01*
X160710714Y-99980357D01*
X160663095Y-100170833D01*
X160663095Y-100408928D01*
X160710714Y-100599404D01*
X160758333Y-100694642D01*
X160805952Y-100742261D01*
X160901190Y-100789880D01*
X160996428Y-100789880D01*
X161091666Y-100742261D01*
X161139285Y-100694642D01*
X161186904Y-100599404D01*
X161234523Y-100408928D01*
X161234523Y-100170833D01*
X161186904Y-99980357D01*
X161139285Y-99885119D01*
X161091666Y-99837500D01*
X160996428Y-99789880D01*
X157489285Y-98889880D02*
X158060714Y-98889880D01*
X157775000Y-98889880D02*
X157775000Y-97889880D01*
X157870238Y-98032738D01*
X157965476Y-98127976D01*
X158060714Y-98175595D01*
%TO.C,D29*%
X163139285Y-81739880D02*
X163139285Y-80739880D01*
X162901190Y-80739880D01*
X162758333Y-80787500D01*
X162663095Y-80882738D01*
X162615476Y-80977976D01*
X162567857Y-81168452D01*
X162567857Y-81311309D01*
X162615476Y-81501785D01*
X162663095Y-81597023D01*
X162758333Y-81692261D01*
X162901190Y-81739880D01*
X163139285Y-81739880D01*
X162186904Y-80835119D02*
X162139285Y-80787500D01*
X162044047Y-80739880D01*
X161805952Y-80739880D01*
X161710714Y-80787500D01*
X161663095Y-80835119D01*
X161615476Y-80930357D01*
X161615476Y-81025595D01*
X161663095Y-81168452D01*
X162234523Y-81739880D01*
X161615476Y-81739880D01*
X161139285Y-81739880D02*
X160948809Y-81739880D01*
X160853571Y-81692261D01*
X160805952Y-81644642D01*
X160710714Y-81501785D01*
X160663095Y-81311309D01*
X160663095Y-80930357D01*
X160710714Y-80835119D01*
X160758333Y-80787500D01*
X160853571Y-80739880D01*
X161044047Y-80739880D01*
X161139285Y-80787500D01*
X161186904Y-80835119D01*
X161234523Y-80930357D01*
X161234523Y-81168452D01*
X161186904Y-81263690D01*
X161139285Y-81311309D01*
X161044047Y-81358928D01*
X160853571Y-81358928D01*
X160758333Y-81311309D01*
X160710714Y-81263690D01*
X160663095Y-81168452D01*
X157489285Y-79839880D02*
X158060714Y-79839880D01*
X157775000Y-79839880D02*
X157775000Y-78839880D01*
X157870238Y-78982738D01*
X157965476Y-79077976D01*
X158060714Y-79125595D01*
%TO.C,D28*%
X129008035Y-81739880D02*
X129008035Y-80739880D01*
X128769940Y-80739880D01*
X128627083Y-80787500D01*
X128531845Y-80882738D01*
X128484226Y-80977976D01*
X128436607Y-81168452D01*
X128436607Y-81311309D01*
X128484226Y-81501785D01*
X128531845Y-81597023D01*
X128627083Y-81692261D01*
X128769940Y-81739880D01*
X129008035Y-81739880D01*
X128055654Y-80835119D02*
X128008035Y-80787500D01*
X127912797Y-80739880D01*
X127674702Y-80739880D01*
X127579464Y-80787500D01*
X127531845Y-80835119D01*
X127484226Y-80930357D01*
X127484226Y-81025595D01*
X127531845Y-81168452D01*
X128103273Y-81739880D01*
X127484226Y-81739880D01*
X126912797Y-81168452D02*
X127008035Y-81120833D01*
X127055654Y-81073214D01*
X127103273Y-80977976D01*
X127103273Y-80930357D01*
X127055654Y-80835119D01*
X127008035Y-80787500D01*
X126912797Y-80739880D01*
X126722321Y-80739880D01*
X126627083Y-80787500D01*
X126579464Y-80835119D01*
X126531845Y-80930357D01*
X126531845Y-80977976D01*
X126579464Y-81073214D01*
X126627083Y-81120833D01*
X126722321Y-81168452D01*
X126912797Y-81168452D01*
X127008035Y-81216071D01*
X127055654Y-81263690D01*
X127103273Y-81358928D01*
X127103273Y-81549404D01*
X127055654Y-81644642D01*
X127008035Y-81692261D01*
X126912797Y-81739880D01*
X126722321Y-81739880D01*
X126627083Y-81692261D01*
X126579464Y-81644642D01*
X126531845Y-81549404D01*
X126531845Y-81358928D01*
X126579464Y-81263690D01*
X126627083Y-81216071D01*
X126722321Y-81168452D01*
X123358035Y-79839880D02*
X123929464Y-79839880D01*
X123643750Y-79839880D02*
X123643750Y-78839880D01*
X123738988Y-78982738D01*
X123834226Y-79077976D01*
X123929464Y-79125595D01*
%TO.C,D27*%
X129008035Y-100789880D02*
X129008035Y-99789880D01*
X128769940Y-99789880D01*
X128627083Y-99837500D01*
X128531845Y-99932738D01*
X128484226Y-100027976D01*
X128436607Y-100218452D01*
X128436607Y-100361309D01*
X128484226Y-100551785D01*
X128531845Y-100647023D01*
X128627083Y-100742261D01*
X128769940Y-100789880D01*
X129008035Y-100789880D01*
X128055654Y-99885119D02*
X128008035Y-99837500D01*
X127912797Y-99789880D01*
X127674702Y-99789880D01*
X127579464Y-99837500D01*
X127531845Y-99885119D01*
X127484226Y-99980357D01*
X127484226Y-100075595D01*
X127531845Y-100218452D01*
X128103273Y-100789880D01*
X127484226Y-100789880D01*
X127150892Y-99789880D02*
X126484226Y-99789880D01*
X126912797Y-100789880D01*
X123358035Y-98889880D02*
X123929464Y-98889880D01*
X123643750Y-98889880D02*
X123643750Y-97889880D01*
X123738988Y-98032738D01*
X123834226Y-98127976D01*
X123929464Y-98175595D01*
%TO.C,D26*%
X127452285Y-125237380D02*
X127452285Y-124237380D01*
X127214190Y-124237380D01*
X127071333Y-124285000D01*
X126976095Y-124380238D01*
X126928476Y-124475476D01*
X126880857Y-124665952D01*
X126880857Y-124808809D01*
X126928476Y-124999285D01*
X126976095Y-125094523D01*
X127071333Y-125189761D01*
X127214190Y-125237380D01*
X127452285Y-125237380D01*
X126499904Y-124332619D02*
X126452285Y-124285000D01*
X126357047Y-124237380D01*
X126118952Y-124237380D01*
X126023714Y-124285000D01*
X125976095Y-124332619D01*
X125928476Y-124427857D01*
X125928476Y-124523095D01*
X125976095Y-124665952D01*
X126547523Y-125237380D01*
X125928476Y-125237380D01*
X125071333Y-124237380D02*
X125261809Y-124237380D01*
X125357047Y-124285000D01*
X125404666Y-124332619D01*
X125499904Y-124475476D01*
X125547523Y-124665952D01*
X125547523Y-125046904D01*
X125499904Y-125142142D01*
X125452285Y-125189761D01*
X125357047Y-125237380D01*
X125166571Y-125237380D01*
X125071333Y-125189761D01*
X125023714Y-125142142D01*
X124976095Y-125046904D01*
X124976095Y-124808809D01*
X125023714Y-124713571D01*
X125071333Y-124665952D01*
X125166571Y-124618333D01*
X125357047Y-124618333D01*
X125452285Y-124665952D01*
X125499904Y-124713571D01*
X125547523Y-124808809D01*
X121802285Y-123337380D02*
X122373714Y-123337380D01*
X122088000Y-123337380D02*
X122088000Y-122337380D01*
X122183238Y-122480238D01*
X122278476Y-122575476D01*
X122373714Y-122623095D01*
%TO.C,D25*%
X165298285Y-132024380D02*
X165298285Y-131024380D01*
X165060190Y-131024380D01*
X164917333Y-131072000D01*
X164822095Y-131167238D01*
X164774476Y-131262476D01*
X164726857Y-131452952D01*
X164726857Y-131595809D01*
X164774476Y-131786285D01*
X164822095Y-131881523D01*
X164917333Y-131976761D01*
X165060190Y-132024380D01*
X165298285Y-132024380D01*
X164345904Y-131119619D02*
X164298285Y-131072000D01*
X164203047Y-131024380D01*
X163964952Y-131024380D01*
X163869714Y-131072000D01*
X163822095Y-131119619D01*
X163774476Y-131214857D01*
X163774476Y-131310095D01*
X163822095Y-131452952D01*
X164393523Y-132024380D01*
X163774476Y-132024380D01*
X162869714Y-131024380D02*
X163345904Y-131024380D01*
X163393523Y-131500571D01*
X163345904Y-131452952D01*
X163250666Y-131405333D01*
X163012571Y-131405333D01*
X162917333Y-131452952D01*
X162869714Y-131500571D01*
X162822095Y-131595809D01*
X162822095Y-131833904D01*
X162869714Y-131929142D01*
X162917333Y-131976761D01*
X163012571Y-132024380D01*
X163250666Y-132024380D01*
X163345904Y-131976761D01*
X163393523Y-131929142D01*
X163839285Y-129941380D02*
X164410714Y-129941380D01*
X164125000Y-129941380D02*
X164125000Y-128941380D01*
X164220238Y-129084238D01*
X164315476Y-129179476D01*
X164410714Y-129227095D01*
%TO.C,C16*%
X161170857Y-104018142D02*
X161218476Y-104065761D01*
X161361333Y-104113380D01*
X161456571Y-104113380D01*
X161599428Y-104065761D01*
X161694666Y-103970523D01*
X161742285Y-103875285D01*
X161789904Y-103684809D01*
X161789904Y-103541952D01*
X161742285Y-103351476D01*
X161694666Y-103256238D01*
X161599428Y-103161000D01*
X161456571Y-103113380D01*
X161361333Y-103113380D01*
X161218476Y-103161000D01*
X161170857Y-103208619D01*
X160218476Y-104113380D02*
X160789904Y-104113380D01*
X160504190Y-104113380D02*
X160504190Y-103113380D01*
X160599428Y-103256238D01*
X160694666Y-103351476D01*
X160789904Y-103399095D01*
X159361333Y-103113380D02*
X159551809Y-103113380D01*
X159647047Y-103161000D01*
X159694666Y-103208619D01*
X159789904Y-103351476D01*
X159837523Y-103541952D01*
X159837523Y-103922904D01*
X159789904Y-104018142D01*
X159742285Y-104065761D01*
X159647047Y-104113380D01*
X159456571Y-104113380D01*
X159361333Y-104065761D01*
X159313714Y-104018142D01*
X159266095Y-103922904D01*
X159266095Y-103684809D01*
X159313714Y-103589571D01*
X159361333Y-103541952D01*
X159456571Y-103494333D01*
X159647047Y-103494333D01*
X159742285Y-103541952D01*
X159789904Y-103589571D01*
X159837523Y-103684809D01*
%TO.C,C15*%
X161043857Y-84968142D02*
X161091476Y-85015761D01*
X161234333Y-85063380D01*
X161329571Y-85063380D01*
X161472428Y-85015761D01*
X161567666Y-84920523D01*
X161615285Y-84825285D01*
X161662904Y-84634809D01*
X161662904Y-84491952D01*
X161615285Y-84301476D01*
X161567666Y-84206238D01*
X161472428Y-84111000D01*
X161329571Y-84063380D01*
X161234333Y-84063380D01*
X161091476Y-84111000D01*
X161043857Y-84158619D01*
X160091476Y-85063380D02*
X160662904Y-85063380D01*
X160377190Y-85063380D02*
X160377190Y-84063380D01*
X160472428Y-84206238D01*
X160567666Y-84301476D01*
X160662904Y-84349095D01*
X159186714Y-84063380D02*
X159662904Y-84063380D01*
X159710523Y-84539571D01*
X159662904Y-84491952D01*
X159567666Y-84444333D01*
X159329571Y-84444333D01*
X159234333Y-84491952D01*
X159186714Y-84539571D01*
X159139095Y-84634809D01*
X159139095Y-84872904D01*
X159186714Y-84968142D01*
X159234333Y-85015761D01*
X159329571Y-85063380D01*
X159567666Y-85063380D01*
X159662904Y-85015761D01*
X159710523Y-84968142D01*
%TO.C,C14*%
X131452857Y-83288142D02*
X131500476Y-83335761D01*
X131643333Y-83383380D01*
X131738571Y-83383380D01*
X131881428Y-83335761D01*
X131976666Y-83240523D01*
X132024285Y-83145285D01*
X132071904Y-82954809D01*
X132071904Y-82811952D01*
X132024285Y-82621476D01*
X131976666Y-82526238D01*
X131881428Y-82431000D01*
X131738571Y-82383380D01*
X131643333Y-82383380D01*
X131500476Y-82431000D01*
X131452857Y-82478619D01*
X130500476Y-83383380D02*
X131071904Y-83383380D01*
X130786190Y-83383380D02*
X130786190Y-82383380D01*
X130881428Y-82526238D01*
X130976666Y-82621476D01*
X131071904Y-82669095D01*
X129643333Y-82716714D02*
X129643333Y-83383380D01*
X129881428Y-82335761D02*
X130119523Y-83050047D01*
X129500476Y-83050047D01*
%TO.C,C13*%
X127642857Y-105224642D02*
X127690476Y-105272261D01*
X127833333Y-105319880D01*
X127928571Y-105319880D01*
X128071428Y-105272261D01*
X128166666Y-105177023D01*
X128214285Y-105081785D01*
X128261904Y-104891309D01*
X128261904Y-104748452D01*
X128214285Y-104557976D01*
X128166666Y-104462738D01*
X128071428Y-104367500D01*
X127928571Y-104319880D01*
X127833333Y-104319880D01*
X127690476Y-104367500D01*
X127642857Y-104415119D01*
X126690476Y-105319880D02*
X127261904Y-105319880D01*
X126976190Y-105319880D02*
X126976190Y-104319880D01*
X127071428Y-104462738D01*
X127166666Y-104557976D01*
X127261904Y-104605595D01*
X126357142Y-104319880D02*
X125738095Y-104319880D01*
X126071428Y-104700833D01*
X125928571Y-104700833D01*
X125833333Y-104748452D01*
X125785714Y-104796071D01*
X125738095Y-104891309D01*
X125738095Y-105129404D01*
X125785714Y-105224642D01*
X125833333Y-105272261D01*
X125928571Y-105319880D01*
X126214285Y-105319880D01*
X126309523Y-105272261D01*
X126357142Y-105224642D01*
%TO.C,C12*%
X120149857Y-113993142D02*
X120197476Y-114040761D01*
X120340333Y-114088380D01*
X120435571Y-114088380D01*
X120578428Y-114040761D01*
X120673666Y-113945523D01*
X120721285Y-113850285D01*
X120768904Y-113659809D01*
X120768904Y-113516952D01*
X120721285Y-113326476D01*
X120673666Y-113231238D01*
X120578428Y-113136000D01*
X120435571Y-113088380D01*
X120340333Y-113088380D01*
X120197476Y-113136000D01*
X120149857Y-113183619D01*
X119197476Y-114088380D02*
X119768904Y-114088380D01*
X119483190Y-114088380D02*
X119483190Y-113088380D01*
X119578428Y-113231238D01*
X119673666Y-113326476D01*
X119768904Y-113374095D01*
X118816523Y-113183619D02*
X118768904Y-113136000D01*
X118673666Y-113088380D01*
X118435571Y-113088380D01*
X118340333Y-113136000D01*
X118292714Y-113183619D01*
X118245095Y-113278857D01*
X118245095Y-113374095D01*
X118292714Y-113516952D01*
X118864142Y-114088380D01*
X118245095Y-114088380D01*
%TO.C,C11*%
X165965142Y-136517142D02*
X166012761Y-136469523D01*
X166060380Y-136326666D01*
X166060380Y-136231428D01*
X166012761Y-136088571D01*
X165917523Y-135993333D01*
X165822285Y-135945714D01*
X165631809Y-135898095D01*
X165488952Y-135898095D01*
X165298476Y-135945714D01*
X165203238Y-135993333D01*
X165108000Y-136088571D01*
X165060380Y-136231428D01*
X165060380Y-136326666D01*
X165108000Y-136469523D01*
X165155619Y-136517142D01*
X166060380Y-137469523D02*
X166060380Y-136898095D01*
X166060380Y-137183809D02*
X165060380Y-137183809D01*
X165203238Y-137088571D01*
X165298476Y-136993333D01*
X165346095Y-136898095D01*
X166060380Y-138421904D02*
X166060380Y-137850476D01*
X166060380Y-138136190D02*
X165060380Y-138136190D01*
X165203238Y-138040952D01*
X165298476Y-137945714D01*
X165346095Y-137850476D01*
%TO.C,U1*%
X174776522Y-114136025D02*
X175348942Y-114708445D01*
X175382614Y-114809460D01*
X175382614Y-114876804D01*
X175348942Y-114977819D01*
X175214255Y-115112506D01*
X175113240Y-115146178D01*
X175045896Y-115146178D01*
X174944881Y-115112506D01*
X174372461Y-114540086D01*
X174372461Y-115954300D02*
X174776522Y-115550239D01*
X174574492Y-115752269D02*
X173867385Y-115045163D01*
X174035744Y-115078834D01*
X174170431Y-115078834D01*
X174271446Y-115045163D01*
%TO.C,D31*%
X117895535Y-40871130D02*
X117895535Y-39871130D01*
X117657440Y-39871130D01*
X117514583Y-39918750D01*
X117419345Y-40013988D01*
X117371726Y-40109226D01*
X117324107Y-40299702D01*
X117324107Y-40442559D01*
X117371726Y-40633035D01*
X117419345Y-40728273D01*
X117514583Y-40823511D01*
X117657440Y-40871130D01*
X117895535Y-40871130D01*
X116990773Y-39871130D02*
X116371726Y-39871130D01*
X116705059Y-40252083D01*
X116562202Y-40252083D01*
X116466964Y-40299702D01*
X116419345Y-40347321D01*
X116371726Y-40442559D01*
X116371726Y-40680654D01*
X116419345Y-40775892D01*
X116466964Y-40823511D01*
X116562202Y-40871130D01*
X116847916Y-40871130D01*
X116943154Y-40823511D01*
X116990773Y-40775892D01*
X115419345Y-40871130D02*
X115990773Y-40871130D01*
X115705059Y-40871130D02*
X115705059Y-39871130D01*
X115800297Y-40013988D01*
X115895535Y-40109226D01*
X115990773Y-40156845D01*
%TO.C,D36*%
X136945535Y-59921130D02*
X136945535Y-58921130D01*
X136707440Y-58921130D01*
X136564583Y-58968750D01*
X136469345Y-59063988D01*
X136421726Y-59159226D01*
X136374107Y-59349702D01*
X136374107Y-59492559D01*
X136421726Y-59683035D01*
X136469345Y-59778273D01*
X136564583Y-59873511D01*
X136707440Y-59921130D01*
X136945535Y-59921130D01*
X136040773Y-58921130D02*
X135421726Y-58921130D01*
X135755059Y-59302083D01*
X135612202Y-59302083D01*
X135516964Y-59349702D01*
X135469345Y-59397321D01*
X135421726Y-59492559D01*
X135421726Y-59730654D01*
X135469345Y-59825892D01*
X135516964Y-59873511D01*
X135612202Y-59921130D01*
X135897916Y-59921130D01*
X135993154Y-59873511D01*
X136040773Y-59825892D01*
X134564583Y-58921130D02*
X134755059Y-58921130D01*
X134850297Y-58968750D01*
X134897916Y-59016369D01*
X134993154Y-59159226D01*
X135040773Y-59349702D01*
X135040773Y-59730654D01*
X134993154Y-59825892D01*
X134945535Y-59873511D01*
X134850297Y-59921130D01*
X134659821Y-59921130D01*
X134564583Y-59873511D01*
X134516964Y-59825892D01*
X134469345Y-59730654D01*
X134469345Y-59492559D01*
X134516964Y-59397321D01*
X134564583Y-59349702D01*
X134659821Y-59302083D01*
X134850297Y-59302083D01*
X134945535Y-59349702D01*
X134993154Y-59397321D01*
X135040773Y-59492559D01*
%TO.C,J1*%
X126142708Y-41124255D02*
X126142708Y-41838541D01*
X126190327Y-41981398D01*
X126285565Y-42076636D01*
X126428422Y-42124255D01*
X126523660Y-42124255D01*
X125142708Y-42124255D02*
X125714136Y-42124255D01*
X125428422Y-42124255D02*
X125428422Y-41124255D01*
X125523660Y-41267113D01*
X125618898Y-41362351D01*
X125714136Y-41409970D01*
%TO.C,Y1*%
X168243190Y-105640190D02*
X168243190Y-106116380D01*
X168576523Y-105116380D02*
X168243190Y-105640190D01*
X167909857Y-105116380D01*
X167052714Y-106116380D02*
X167624142Y-106116380D01*
X167338428Y-106116380D02*
X167338428Y-105116380D01*
X167433666Y-105259238D01*
X167528904Y-105354476D01*
X167624142Y-105402095D01*
%TO.C,U2*%
X169798904Y-84415380D02*
X169798904Y-85224904D01*
X169751285Y-85320142D01*
X169703666Y-85367761D01*
X169608428Y-85415380D01*
X169417952Y-85415380D01*
X169322714Y-85367761D01*
X169275095Y-85320142D01*
X169227476Y-85224904D01*
X169227476Y-84415380D01*
X168798904Y-84510619D02*
X168751285Y-84463000D01*
X168656047Y-84415380D01*
X168417952Y-84415380D01*
X168322714Y-84463000D01*
X168275095Y-84510619D01*
X168227476Y-84605857D01*
X168227476Y-84701095D01*
X168275095Y-84843952D01*
X168846523Y-85415380D01*
X168227476Y-85415380D01*
%TO.C,R13*%
X180093857Y-89733380D02*
X180427190Y-89257190D01*
X180665285Y-89733380D02*
X180665285Y-88733380D01*
X180284333Y-88733380D01*
X180189095Y-88781000D01*
X180141476Y-88828619D01*
X180093857Y-88923857D01*
X180093857Y-89066714D01*
X180141476Y-89161952D01*
X180189095Y-89209571D01*
X180284333Y-89257190D01*
X180665285Y-89257190D01*
X179141476Y-89733380D02*
X179712904Y-89733380D01*
X179427190Y-89733380D02*
X179427190Y-88733380D01*
X179522428Y-88876238D01*
X179617666Y-88971476D01*
X179712904Y-89019095D01*
X178808142Y-88733380D02*
X178189095Y-88733380D01*
X178522428Y-89114333D01*
X178379571Y-89114333D01*
X178284333Y-89161952D01*
X178236714Y-89209571D01*
X178189095Y-89304809D01*
X178189095Y-89542904D01*
X178236714Y-89638142D01*
X178284333Y-89685761D01*
X178379571Y-89733380D01*
X178665285Y-89733380D01*
X178760523Y-89685761D01*
X178808142Y-89638142D01*
%TO.C,R12*%
X145994380Y-79748142D02*
X145518190Y-79414809D01*
X145994380Y-79176714D02*
X144994380Y-79176714D01*
X144994380Y-79557666D01*
X145042000Y-79652904D01*
X145089619Y-79700523D01*
X145184857Y-79748142D01*
X145327714Y-79748142D01*
X145422952Y-79700523D01*
X145470571Y-79652904D01*
X145518190Y-79557666D01*
X145518190Y-79176714D01*
X145994380Y-80700523D02*
X145994380Y-80129095D01*
X145994380Y-80414809D02*
X144994380Y-80414809D01*
X145137238Y-80319571D01*
X145232476Y-80224333D01*
X145280095Y-80129095D01*
X145089619Y-81081476D02*
X145042000Y-81129095D01*
X144994380Y-81224333D01*
X144994380Y-81462428D01*
X145042000Y-81557666D01*
X145089619Y-81605285D01*
X145184857Y-81652904D01*
X145280095Y-81652904D01*
X145422952Y-81605285D01*
X145994380Y-81033857D01*
X145994380Y-81652904D01*
%TO.C,R11*%
X176410857Y-87320380D02*
X176744190Y-86844190D01*
X176982285Y-87320380D02*
X176982285Y-86320380D01*
X176601333Y-86320380D01*
X176506095Y-86368000D01*
X176458476Y-86415619D01*
X176410857Y-86510857D01*
X176410857Y-86653714D01*
X176458476Y-86748952D01*
X176506095Y-86796571D01*
X176601333Y-86844190D01*
X176982285Y-86844190D01*
X175458476Y-87320380D02*
X176029904Y-87320380D01*
X175744190Y-87320380D02*
X175744190Y-86320380D01*
X175839428Y-86463238D01*
X175934666Y-86558476D01*
X176029904Y-86606095D01*
X174506095Y-87320380D02*
X175077523Y-87320380D01*
X174791809Y-87320380D02*
X174791809Y-86320380D01*
X174887047Y-86463238D01*
X174982285Y-86558476D01*
X175077523Y-86606095D01*
%TO.C,R10*%
X164726857Y-88209380D02*
X165060190Y-87733190D01*
X165298285Y-88209380D02*
X165298285Y-87209380D01*
X164917333Y-87209380D01*
X164822095Y-87257000D01*
X164774476Y-87304619D01*
X164726857Y-87399857D01*
X164726857Y-87542714D01*
X164774476Y-87637952D01*
X164822095Y-87685571D01*
X164917333Y-87733190D01*
X165298285Y-87733190D01*
X163774476Y-88209380D02*
X164345904Y-88209380D01*
X164060190Y-88209380D02*
X164060190Y-87209380D01*
X164155428Y-87352238D01*
X164250666Y-87447476D01*
X164345904Y-87495095D01*
X163155428Y-87209380D02*
X163060190Y-87209380D01*
X162964952Y-87257000D01*
X162917333Y-87304619D01*
X162869714Y-87399857D01*
X162822095Y-87590333D01*
X162822095Y-87828428D01*
X162869714Y-88018904D01*
X162917333Y-88114142D01*
X162964952Y-88161761D01*
X163060190Y-88209380D01*
X163155428Y-88209380D01*
X163250666Y-88161761D01*
X163298285Y-88114142D01*
X163345904Y-88018904D01*
X163393523Y-87828428D01*
X163393523Y-87590333D01*
X163345904Y-87399857D01*
X163298285Y-87304619D01*
X163250666Y-87257000D01*
X163155428Y-87209380D01*
%TO.C,R9*%
X145994380Y-84034333D02*
X145518190Y-83701000D01*
X145994380Y-83462904D02*
X144994380Y-83462904D01*
X144994380Y-83843857D01*
X145042000Y-83939095D01*
X145089619Y-83986714D01*
X145184857Y-84034333D01*
X145327714Y-84034333D01*
X145422952Y-83986714D01*
X145470571Y-83939095D01*
X145518190Y-83843857D01*
X145518190Y-83462904D01*
X145994380Y-84510523D02*
X145994380Y-84701000D01*
X145946761Y-84796238D01*
X145899142Y-84843857D01*
X145756285Y-84939095D01*
X145565809Y-84986714D01*
X145184857Y-84986714D01*
X145089619Y-84939095D01*
X145042000Y-84891476D01*
X144994380Y-84796238D01*
X144994380Y-84605761D01*
X145042000Y-84510523D01*
X145089619Y-84462904D01*
X145184857Y-84415285D01*
X145422952Y-84415285D01*
X145518190Y-84462904D01*
X145565809Y-84510523D01*
X145613428Y-84605761D01*
X145613428Y-84796238D01*
X145565809Y-84891476D01*
X145518190Y-84939095D01*
X145422952Y-84986714D01*
%TO.C,R8*%
X162631380Y-41997333D02*
X162155190Y-41664000D01*
X162631380Y-41425904D02*
X161631380Y-41425904D01*
X161631380Y-41806857D01*
X161679000Y-41902095D01*
X161726619Y-41949714D01*
X161821857Y-41997333D01*
X161964714Y-41997333D01*
X162059952Y-41949714D01*
X162107571Y-41902095D01*
X162155190Y-41806857D01*
X162155190Y-41425904D01*
X162059952Y-42568761D02*
X162012333Y-42473523D01*
X161964714Y-42425904D01*
X161869476Y-42378285D01*
X161821857Y-42378285D01*
X161726619Y-42425904D01*
X161679000Y-42473523D01*
X161631380Y-42568761D01*
X161631380Y-42759238D01*
X161679000Y-42854476D01*
X161726619Y-42902095D01*
X161821857Y-42949714D01*
X161869476Y-42949714D01*
X161964714Y-42902095D01*
X162012333Y-42854476D01*
X162059952Y-42759238D01*
X162059952Y-42568761D01*
X162107571Y-42473523D01*
X162155190Y-42425904D01*
X162250428Y-42378285D01*
X162440904Y-42378285D01*
X162536142Y-42425904D01*
X162583761Y-42473523D01*
X162631380Y-42568761D01*
X162631380Y-42759238D01*
X162583761Y-42854476D01*
X162536142Y-42902095D01*
X162440904Y-42949714D01*
X162250428Y-42949714D01*
X162155190Y-42902095D01*
X162107571Y-42854476D01*
X162059952Y-42759238D01*
%TO.C,R7*%
X182443380Y-100798333D02*
X181967190Y-100465000D01*
X182443380Y-100226904D02*
X181443380Y-100226904D01*
X181443380Y-100607857D01*
X181491000Y-100703095D01*
X181538619Y-100750714D01*
X181633857Y-100798333D01*
X181776714Y-100798333D01*
X181871952Y-100750714D01*
X181919571Y-100703095D01*
X181967190Y-100607857D01*
X181967190Y-100226904D01*
X181443380Y-101131666D02*
X181443380Y-101798333D01*
X182443380Y-101369761D01*
%TO.C,R6*%
X140883630Y-61745833D02*
X140407440Y-61412500D01*
X140883630Y-61174404D02*
X139883630Y-61174404D01*
X139883630Y-61555357D01*
X139931250Y-61650595D01*
X139978869Y-61698214D01*
X140074107Y-61745833D01*
X140216964Y-61745833D01*
X140312202Y-61698214D01*
X140359821Y-61650595D01*
X140407440Y-61555357D01*
X140407440Y-61174404D01*
X139883630Y-62602976D02*
X139883630Y-62412500D01*
X139931250Y-62317261D01*
X139978869Y-62269642D01*
X140121726Y-62174404D01*
X140312202Y-62126785D01*
X140693154Y-62126785D01*
X140788392Y-62174404D01*
X140836011Y-62222023D01*
X140883630Y-62317261D01*
X140883630Y-62507738D01*
X140836011Y-62602976D01*
X140788392Y-62650595D01*
X140693154Y-62698214D01*
X140455059Y-62698214D01*
X140359821Y-62650595D01*
X140312202Y-62602976D01*
X140264583Y-62507738D01*
X140264583Y-62317261D01*
X140312202Y-62222023D01*
X140359821Y-62174404D01*
X140455059Y-62126785D01*
%TO.C,R5*%
X150566380Y-61745833D02*
X150090190Y-61412500D01*
X150566380Y-61174404D02*
X149566380Y-61174404D01*
X149566380Y-61555357D01*
X149614000Y-61650595D01*
X149661619Y-61698214D01*
X149756857Y-61745833D01*
X149899714Y-61745833D01*
X149994952Y-61698214D01*
X150042571Y-61650595D01*
X150090190Y-61555357D01*
X150090190Y-61174404D01*
X149566380Y-62650595D02*
X149566380Y-62174404D01*
X150042571Y-62126785D01*
X149994952Y-62174404D01*
X149947333Y-62269642D01*
X149947333Y-62507738D01*
X149994952Y-62602976D01*
X150042571Y-62650595D01*
X150137809Y-62698214D01*
X150375904Y-62698214D01*
X150471142Y-62650595D01*
X150518761Y-62602976D01*
X150566380Y-62507738D01*
X150566380Y-62269642D01*
X150518761Y-62174404D01*
X150471142Y-62126785D01*
%TO.C,R4*%
X144057630Y-45013583D02*
X143581440Y-44680250D01*
X144057630Y-44442154D02*
X143057630Y-44442154D01*
X143057630Y-44823107D01*
X143105250Y-44918345D01*
X143152869Y-44965964D01*
X143248107Y-45013583D01*
X143390964Y-45013583D01*
X143486202Y-44965964D01*
X143533821Y-44918345D01*
X143581440Y-44823107D01*
X143581440Y-44442154D01*
X143390964Y-45870726D02*
X144057630Y-45870726D01*
X143010011Y-45632630D02*
X143724297Y-45394535D01*
X143724297Y-46013583D01*
%TO.C,R3*%
X132805466Y-48458380D02*
X133138800Y-47982190D01*
X133376895Y-48458380D02*
X133376895Y-47458380D01*
X132995942Y-47458380D01*
X132900704Y-47506000D01*
X132853085Y-47553619D01*
X132805466Y-47648857D01*
X132805466Y-47791714D01*
X132853085Y-47886952D01*
X132900704Y-47934571D01*
X132995942Y-47982190D01*
X133376895Y-47982190D01*
X132472133Y-47458380D02*
X131853085Y-47458380D01*
X132186419Y-47839333D01*
X132043561Y-47839333D01*
X131948323Y-47886952D01*
X131900704Y-47934571D01*
X131853085Y-48029809D01*
X131853085Y-48267904D01*
X131900704Y-48363142D01*
X131948323Y-48410761D01*
X132043561Y-48458380D01*
X132329276Y-48458380D01*
X132424514Y-48410761D01*
X132472133Y-48363142D01*
%TO.C,R2*%
X119978466Y-48458380D02*
X120311800Y-47982190D01*
X120549895Y-48458380D02*
X120549895Y-47458380D01*
X120168942Y-47458380D01*
X120073704Y-47506000D01*
X120026085Y-47553619D01*
X119978466Y-47648857D01*
X119978466Y-47791714D01*
X120026085Y-47886952D01*
X120073704Y-47934571D01*
X120168942Y-47982190D01*
X120549895Y-47982190D01*
X119597514Y-47553619D02*
X119549895Y-47506000D01*
X119454657Y-47458380D01*
X119216561Y-47458380D01*
X119121323Y-47506000D01*
X119073704Y-47553619D01*
X119026085Y-47648857D01*
X119026085Y-47744095D01*
X119073704Y-47886952D01*
X119645133Y-48458380D01*
X119026085Y-48458380D01*
%TO.C,MX21*%
X182283630Y-132381845D02*
X181283630Y-132381845D01*
X181997916Y-132715178D01*
X181283630Y-133048511D01*
X182283630Y-133048511D01*
X181283630Y-133429464D02*
X182283630Y-134096130D01*
X181283630Y-134096130D02*
X182283630Y-133429464D01*
X181378869Y-134429464D02*
X181331250Y-134477083D01*
X181283630Y-134572321D01*
X181283630Y-134810416D01*
X181331250Y-134905654D01*
X181378869Y-134953273D01*
X181474107Y-135000892D01*
X181569345Y-135000892D01*
X181712202Y-134953273D01*
X182283630Y-134381845D01*
X182283630Y-135000892D01*
X182283630Y-135953273D02*
X182283630Y-135381845D01*
X182283630Y-135667559D02*
X181283630Y-135667559D01*
X181426488Y-135572321D01*
X181521726Y-135477083D01*
X181569345Y-135381845D01*
%TO.C,MX20*%
X156543154Y-152121130D02*
X156543154Y-151121130D01*
X156209821Y-151835416D01*
X155876488Y-151121130D01*
X155876488Y-152121130D01*
X155495535Y-151121130D02*
X154828869Y-152121130D01*
X154828869Y-151121130D02*
X155495535Y-152121130D01*
X154495535Y-151216369D02*
X154447916Y-151168750D01*
X154352678Y-151121130D01*
X154114583Y-151121130D01*
X154019345Y-151168750D01*
X153971726Y-151216369D01*
X153924107Y-151311607D01*
X153924107Y-151406845D01*
X153971726Y-151549702D01*
X154543154Y-152121130D01*
X153924107Y-152121130D01*
X153305059Y-151121130D02*
X153209821Y-151121130D01*
X153114583Y-151168750D01*
X153066964Y-151216369D01*
X153019345Y-151311607D01*
X152971726Y-151502083D01*
X152971726Y-151740178D01*
X153019345Y-151930654D01*
X153066964Y-152025892D01*
X153114583Y-152073511D01*
X153209821Y-152121130D01*
X153305059Y-152121130D01*
X153400297Y-152073511D01*
X153447916Y-152025892D01*
X153495535Y-151930654D01*
X153543154Y-151740178D01*
X153543154Y-151502083D01*
X153495535Y-151311607D01*
X153447916Y-151216369D01*
X153400297Y-151168750D01*
X153305059Y-151121130D01*
%TO.C,MX19*%
X127968154Y-152121130D02*
X127968154Y-151121130D01*
X127634821Y-151835416D01*
X127301488Y-151121130D01*
X127301488Y-152121130D01*
X126920535Y-151121130D02*
X126253869Y-152121130D01*
X126253869Y-151121130D02*
X126920535Y-152121130D01*
X125349107Y-152121130D02*
X125920535Y-152121130D01*
X125634821Y-152121130D02*
X125634821Y-151121130D01*
X125730059Y-151263988D01*
X125825297Y-151359226D01*
X125920535Y-151406845D01*
X124872916Y-152121130D02*
X124682440Y-152121130D01*
X124587202Y-152073511D01*
X124539583Y-152025892D01*
X124444345Y-151883035D01*
X124396726Y-151692559D01*
X124396726Y-151311607D01*
X124444345Y-151216369D01*
X124491964Y-151168750D01*
X124587202Y-151121130D01*
X124777678Y-151121130D01*
X124872916Y-151168750D01*
X124920535Y-151216369D01*
X124968154Y-151311607D01*
X124968154Y-151549702D01*
X124920535Y-151644940D01*
X124872916Y-151692559D01*
X124777678Y-151740178D01*
X124587202Y-151740178D01*
X124491964Y-151692559D01*
X124444345Y-151644940D01*
X124396726Y-151549702D01*
%TO.C,MX18*%
X156543154Y-133071130D02*
X156543154Y-132071130D01*
X156209821Y-132785416D01*
X155876488Y-132071130D01*
X155876488Y-133071130D01*
X155495535Y-132071130D02*
X154828869Y-133071130D01*
X154828869Y-132071130D02*
X155495535Y-133071130D01*
X153924107Y-133071130D02*
X154495535Y-133071130D01*
X154209821Y-133071130D02*
X154209821Y-132071130D01*
X154305059Y-132213988D01*
X154400297Y-132309226D01*
X154495535Y-132356845D01*
X153352678Y-132499702D02*
X153447916Y-132452083D01*
X153495535Y-132404464D01*
X153543154Y-132309226D01*
X153543154Y-132261607D01*
X153495535Y-132166369D01*
X153447916Y-132118750D01*
X153352678Y-132071130D01*
X153162202Y-132071130D01*
X153066964Y-132118750D01*
X153019345Y-132166369D01*
X152971726Y-132261607D01*
X152971726Y-132309226D01*
X153019345Y-132404464D01*
X153066964Y-132452083D01*
X153162202Y-132499702D01*
X153352678Y-132499702D01*
X153447916Y-132547321D01*
X153495535Y-132594940D01*
X153543154Y-132690178D01*
X153543154Y-132880654D01*
X153495535Y-132975892D01*
X153447916Y-133023511D01*
X153352678Y-133071130D01*
X153162202Y-133071130D01*
X153066964Y-133023511D01*
X153019345Y-132975892D01*
X152971726Y-132880654D01*
X152971726Y-132690178D01*
X153019345Y-132594940D01*
X153066964Y-132547321D01*
X153162202Y-132499702D01*
%TO.C,MX17*%
X137493154Y-133071130D02*
X137493154Y-132071130D01*
X137159821Y-132785416D01*
X136826488Y-132071130D01*
X136826488Y-133071130D01*
X136445535Y-132071130D02*
X135778869Y-133071130D01*
X135778869Y-132071130D02*
X136445535Y-133071130D01*
X134874107Y-133071130D02*
X135445535Y-133071130D01*
X135159821Y-133071130D02*
X135159821Y-132071130D01*
X135255059Y-132213988D01*
X135350297Y-132309226D01*
X135445535Y-132356845D01*
X134540773Y-132071130D02*
X133874107Y-132071130D01*
X134302678Y-133071130D01*
%TO.C,MX16*%
X118443154Y-133071130D02*
X118443154Y-132071130D01*
X118109821Y-132785416D01*
X117776488Y-132071130D01*
X117776488Y-133071130D01*
X117395535Y-132071130D02*
X116728869Y-133071130D01*
X116728869Y-132071130D02*
X117395535Y-133071130D01*
X115824107Y-133071130D02*
X116395535Y-133071130D01*
X116109821Y-133071130D02*
X116109821Y-132071130D01*
X116205059Y-132213988D01*
X116300297Y-132309226D01*
X116395535Y-132356845D01*
X114966964Y-132071130D02*
X115157440Y-132071130D01*
X115252678Y-132118750D01*
X115300297Y-132166369D01*
X115395535Y-132309226D01*
X115443154Y-132499702D01*
X115443154Y-132880654D01*
X115395535Y-132975892D01*
X115347916Y-133023511D01*
X115252678Y-133071130D01*
X115062202Y-133071130D01*
X114966964Y-133023511D01*
X114919345Y-132975892D01*
X114871726Y-132880654D01*
X114871726Y-132642559D01*
X114919345Y-132547321D01*
X114966964Y-132499702D01*
X115062202Y-132452083D01*
X115252678Y-132452083D01*
X115347916Y-132499702D01*
X115395535Y-132547321D01*
X115443154Y-132642559D01*
%TO.C,MX15*%
X182283630Y-94281845D02*
X181283630Y-94281845D01*
X181997916Y-94615178D01*
X181283630Y-94948511D01*
X182283630Y-94948511D01*
X181283630Y-95329464D02*
X182283630Y-95996130D01*
X181283630Y-95996130D02*
X182283630Y-95329464D01*
X182283630Y-96900892D02*
X182283630Y-96329464D01*
X182283630Y-96615178D02*
X181283630Y-96615178D01*
X181426488Y-96519940D01*
X181521726Y-96424702D01*
X181569345Y-96329464D01*
X181283630Y-97805654D02*
X181283630Y-97329464D01*
X181759821Y-97281845D01*
X181712202Y-97329464D01*
X181664583Y-97424702D01*
X181664583Y-97662797D01*
X181712202Y-97758035D01*
X181759821Y-97805654D01*
X181855059Y-97853273D01*
X182093154Y-97853273D01*
X182188392Y-97805654D01*
X182236011Y-97758035D01*
X182283630Y-97662797D01*
X182283630Y-97424702D01*
X182236011Y-97329464D01*
X182188392Y-97281845D01*
%TO.C,MX14*%
X156543154Y-114021130D02*
X156543154Y-113021130D01*
X156209821Y-113735416D01*
X155876488Y-113021130D01*
X155876488Y-114021130D01*
X155495535Y-113021130D02*
X154828869Y-114021130D01*
X154828869Y-113021130D02*
X155495535Y-114021130D01*
X153924107Y-114021130D02*
X154495535Y-114021130D01*
X154209821Y-114021130D02*
X154209821Y-113021130D01*
X154305059Y-113163988D01*
X154400297Y-113259226D01*
X154495535Y-113306845D01*
X153066964Y-113354464D02*
X153066964Y-114021130D01*
X153305059Y-112973511D02*
X153543154Y-113687797D01*
X152924107Y-113687797D01*
%TO.C,MX13*%
X137493154Y-114021130D02*
X137493154Y-113021130D01*
X137159821Y-113735416D01*
X136826488Y-113021130D01*
X136826488Y-114021130D01*
X136445535Y-113021130D02*
X135778869Y-114021130D01*
X135778869Y-113021130D02*
X136445535Y-114021130D01*
X134874107Y-114021130D02*
X135445535Y-114021130D01*
X135159821Y-114021130D02*
X135159821Y-113021130D01*
X135255059Y-113163988D01*
X135350297Y-113259226D01*
X135445535Y-113306845D01*
X134540773Y-113021130D02*
X133921726Y-113021130D01*
X134255059Y-113402083D01*
X134112202Y-113402083D01*
X134016964Y-113449702D01*
X133969345Y-113497321D01*
X133921726Y-113592559D01*
X133921726Y-113830654D01*
X133969345Y-113925892D01*
X134016964Y-113973511D01*
X134112202Y-114021130D01*
X134397916Y-114021130D01*
X134493154Y-113973511D01*
X134540773Y-113925892D01*
%TO.C,MX12*%
X118443154Y-114021130D02*
X118443154Y-113021130D01*
X118109821Y-113735416D01*
X117776488Y-113021130D01*
X117776488Y-114021130D01*
X117395535Y-113021130D02*
X116728869Y-114021130D01*
X116728869Y-113021130D02*
X117395535Y-114021130D01*
X115824107Y-114021130D02*
X116395535Y-114021130D01*
X116109821Y-114021130D02*
X116109821Y-113021130D01*
X116205059Y-113163988D01*
X116300297Y-113259226D01*
X116395535Y-113306845D01*
X115443154Y-113116369D02*
X115395535Y-113068750D01*
X115300297Y-113021130D01*
X115062202Y-113021130D01*
X114966964Y-113068750D01*
X114919345Y-113116369D01*
X114871726Y-113211607D01*
X114871726Y-113306845D01*
X114919345Y-113449702D01*
X115490773Y-114021130D01*
X114871726Y-114021130D01*
%TO.C,MX11*%
X156543154Y-94971130D02*
X156543154Y-93971130D01*
X156209821Y-94685416D01*
X155876488Y-93971130D01*
X155876488Y-94971130D01*
X155495535Y-93971130D02*
X154828869Y-94971130D01*
X154828869Y-93971130D02*
X155495535Y-94971130D01*
X153924107Y-94971130D02*
X154495535Y-94971130D01*
X154209821Y-94971130D02*
X154209821Y-93971130D01*
X154305059Y-94113988D01*
X154400297Y-94209226D01*
X154495535Y-94256845D01*
X152971726Y-94971130D02*
X153543154Y-94971130D01*
X153257440Y-94971130D02*
X153257440Y-93971130D01*
X153352678Y-94113988D01*
X153447916Y-94209226D01*
X153543154Y-94256845D01*
%TO.C,MX9*%
X117966964Y-94971130D02*
X117966964Y-93971130D01*
X117633630Y-94685416D01*
X117300297Y-93971130D01*
X117300297Y-94971130D01*
X116919345Y-93971130D02*
X116252678Y-94971130D01*
X116252678Y-93971130D02*
X116919345Y-94971130D01*
X115824107Y-94971130D02*
X115633630Y-94971130D01*
X115538392Y-94923511D01*
X115490773Y-94875892D01*
X115395535Y-94733035D01*
X115347916Y-94542559D01*
X115347916Y-94161607D01*
X115395535Y-94066369D01*
X115443154Y-94018750D01*
X115538392Y-93971130D01*
X115728869Y-93971130D01*
X115824107Y-94018750D01*
X115871726Y-94066369D01*
X115919345Y-94161607D01*
X115919345Y-94399702D01*
X115871726Y-94494940D01*
X115824107Y-94542559D01*
X115728869Y-94590178D01*
X115538392Y-94590178D01*
X115443154Y-94542559D01*
X115395535Y-94494940D01*
X115347916Y-94399702D01*
%TO.C,MX8*%
X182895714Y-73096380D02*
X182895714Y-72096380D01*
X182562380Y-72810666D01*
X182229047Y-72096380D01*
X182229047Y-73096380D01*
X181848095Y-72096380D02*
X181181428Y-73096380D01*
X181181428Y-72096380D02*
X181848095Y-73096380D01*
X180657619Y-72524952D02*
X180752857Y-72477333D01*
X180800476Y-72429714D01*
X180848095Y-72334476D01*
X180848095Y-72286857D01*
X180800476Y-72191619D01*
X180752857Y-72144000D01*
X180657619Y-72096380D01*
X180467142Y-72096380D01*
X180371904Y-72144000D01*
X180324285Y-72191619D01*
X180276666Y-72286857D01*
X180276666Y-72334476D01*
X180324285Y-72429714D01*
X180371904Y-72477333D01*
X180467142Y-72524952D01*
X180657619Y-72524952D01*
X180752857Y-72572571D01*
X180800476Y-72620190D01*
X180848095Y-72715428D01*
X180848095Y-72905904D01*
X180800476Y-73001142D01*
X180752857Y-73048761D01*
X180657619Y-73096380D01*
X180467142Y-73096380D01*
X180371904Y-73048761D01*
X180324285Y-73001142D01*
X180276666Y-72905904D01*
X180276666Y-72715428D01*
X180324285Y-72620190D01*
X180371904Y-72572571D01*
X180467142Y-72524952D01*
%TO.C,MX7*%
X156066964Y-75921130D02*
X156066964Y-74921130D01*
X155733630Y-75635416D01*
X155400297Y-74921130D01*
X155400297Y-75921130D01*
X155019345Y-74921130D02*
X154352678Y-75921130D01*
X154352678Y-74921130D02*
X155019345Y-75921130D01*
X154066964Y-74921130D02*
X153400297Y-74921130D01*
X153828869Y-75921130D01*
%TO.C,MX6*%
X137016964Y-75921130D02*
X137016964Y-74921130D01*
X136683630Y-75635416D01*
X136350297Y-74921130D01*
X136350297Y-75921130D01*
X135969345Y-74921130D02*
X135302678Y-75921130D01*
X135302678Y-74921130D02*
X135969345Y-75921130D01*
X134493154Y-74921130D02*
X134683630Y-74921130D01*
X134778869Y-74968750D01*
X134826488Y-75016369D01*
X134921726Y-75159226D01*
X134969345Y-75349702D01*
X134969345Y-75730654D01*
X134921726Y-75825892D01*
X134874107Y-75873511D01*
X134778869Y-75921130D01*
X134588392Y-75921130D01*
X134493154Y-75873511D01*
X134445535Y-75825892D01*
X134397916Y-75730654D01*
X134397916Y-75492559D01*
X134445535Y-75397321D01*
X134493154Y-75349702D01*
X134588392Y-75302083D01*
X134778869Y-75302083D01*
X134874107Y-75349702D01*
X134921726Y-75397321D01*
X134969345Y-75492559D01*
%TO.C,MX5*%
X117966964Y-75921130D02*
X117966964Y-74921130D01*
X117633630Y-75635416D01*
X117300297Y-74921130D01*
X117300297Y-75921130D01*
X116919345Y-74921130D02*
X116252678Y-75921130D01*
X116252678Y-74921130D02*
X116919345Y-75921130D01*
X115395535Y-74921130D02*
X115871726Y-74921130D01*
X115919345Y-75397321D01*
X115871726Y-75349702D01*
X115776488Y-75302083D01*
X115538392Y-75302083D01*
X115443154Y-75349702D01*
X115395535Y-75397321D01*
X115347916Y-75492559D01*
X115347916Y-75730654D01*
X115395535Y-75825892D01*
X115443154Y-75873511D01*
X115538392Y-75921130D01*
X115776488Y-75921130D01*
X115871726Y-75873511D01*
X115919345Y-75825892D01*
%TO.C,MX4*%
X175116964Y-56871130D02*
X175116964Y-55871130D01*
X174783630Y-56585416D01*
X174450297Y-55871130D01*
X174450297Y-56871130D01*
X174069345Y-55871130D02*
X173402678Y-56871130D01*
X173402678Y-55871130D02*
X174069345Y-56871130D01*
X172593154Y-56204464D02*
X172593154Y-56871130D01*
X172831250Y-55823511D02*
X173069345Y-56537797D01*
X172450297Y-56537797D01*
%TO.C,MX3*%
X156066964Y-56871130D02*
X156066964Y-55871130D01*
X155733630Y-56585416D01*
X155400297Y-55871130D01*
X155400297Y-56871130D01*
X155019345Y-55871130D02*
X154352678Y-56871130D01*
X154352678Y-55871130D02*
X155019345Y-56871130D01*
X154066964Y-55871130D02*
X153447916Y-55871130D01*
X153781250Y-56252083D01*
X153638392Y-56252083D01*
X153543154Y-56299702D01*
X153495535Y-56347321D01*
X153447916Y-56442559D01*
X153447916Y-56680654D01*
X153495535Y-56775892D01*
X153543154Y-56823511D01*
X153638392Y-56871130D01*
X153924107Y-56871130D01*
X154019345Y-56823511D01*
X154066964Y-56775892D01*
%TO.C,MX2*%
X137016964Y-56871130D02*
X137016964Y-55871130D01*
X136683630Y-56585416D01*
X136350297Y-55871130D01*
X136350297Y-56871130D01*
X135969345Y-55871130D02*
X135302678Y-56871130D01*
X135302678Y-55871130D02*
X135969345Y-56871130D01*
X134969345Y-55966369D02*
X134921726Y-55918750D01*
X134826488Y-55871130D01*
X134588392Y-55871130D01*
X134493154Y-55918750D01*
X134445535Y-55966369D01*
X134397916Y-56061607D01*
X134397916Y-56156845D01*
X134445535Y-56299702D01*
X135016964Y-56871130D01*
X134397916Y-56871130D01*
%TO.C,MX1*%
X117966964Y-56871130D02*
X117966964Y-55871130D01*
X117633630Y-56585416D01*
X117300297Y-55871130D01*
X117300297Y-56871130D01*
X116919345Y-55871130D02*
X116252678Y-56871130D01*
X116252678Y-55871130D02*
X116919345Y-56871130D01*
X115347916Y-56871130D02*
X115919345Y-56871130D01*
X115633630Y-56871130D02*
X115633630Y-55871130D01*
X115728869Y-56013988D01*
X115824107Y-56109226D01*
X115919345Y-56156845D01*
%TO.C,J2*%
X136446000Y-138498095D02*
X136398380Y-138402857D01*
X136398380Y-138260000D01*
X136446000Y-138117142D01*
X136541238Y-138021904D01*
X136636476Y-137974285D01*
X136826952Y-137926666D01*
X136969809Y-137926666D01*
X137160285Y-137974285D01*
X137255523Y-138021904D01*
X137350761Y-138117142D01*
X137398380Y-138260000D01*
X137398380Y-138355238D01*
X137350761Y-138498095D01*
X137303142Y-138545714D01*
X136969809Y-138545714D01*
X136969809Y-138355238D01*
X137398380Y-138974285D02*
X136398380Y-138974285D01*
X137398380Y-139545714D01*
X136398380Y-139545714D01*
X137398380Y-140021904D02*
X136398380Y-140021904D01*
X136398380Y-140260000D01*
X136446000Y-140402857D01*
X136541238Y-140498095D01*
X136636476Y-140545714D01*
X136826952Y-140593333D01*
X136969809Y-140593333D01*
X137160285Y-140545714D01*
X137255523Y-140498095D01*
X137350761Y-140402857D01*
X137398380Y-140260000D01*
X137398380Y-140021904D01*
X137398380Y-147212380D02*
X136922190Y-146879047D01*
X137398380Y-146640952D02*
X136398380Y-146640952D01*
X136398380Y-147021904D01*
X136446000Y-147117142D01*
X136493619Y-147164761D01*
X136588857Y-147212380D01*
X136731714Y-147212380D01*
X136826952Y-147164761D01*
X136874571Y-147117142D01*
X136922190Y-147021904D01*
X136922190Y-146640952D01*
X137350761Y-147593333D02*
X137398380Y-147736190D01*
X137398380Y-147974285D01*
X137350761Y-148069523D01*
X137303142Y-148117142D01*
X137207904Y-148164761D01*
X137112666Y-148164761D01*
X137017428Y-148117142D01*
X136969809Y-148069523D01*
X136922190Y-147974285D01*
X136874571Y-147783809D01*
X136826952Y-147688571D01*
X136779333Y-147640952D01*
X136684095Y-147593333D01*
X136588857Y-147593333D01*
X136493619Y-147640952D01*
X136446000Y-147688571D01*
X136398380Y-147783809D01*
X136398380Y-148021904D01*
X136446000Y-148164761D01*
X136398380Y-148450476D02*
X136398380Y-149021904D01*
X137398380Y-148736190D02*
X136398380Y-148736190D01*
X139898380Y-137688571D02*
X138898380Y-137688571D01*
X139612666Y-138021904D01*
X138898380Y-138355238D01*
X139898380Y-138355238D01*
X138898380Y-139021904D02*
X138898380Y-139212380D01*
X138946000Y-139307619D01*
X139041238Y-139402857D01*
X139231714Y-139450476D01*
X139565047Y-139450476D01*
X139755523Y-139402857D01*
X139850761Y-139307619D01*
X139898380Y-139212380D01*
X139898380Y-139021904D01*
X139850761Y-138926666D01*
X139755523Y-138831428D01*
X139565047Y-138783809D01*
X139231714Y-138783809D01*
X139041238Y-138831428D01*
X138946000Y-138926666D01*
X138898380Y-139021904D01*
X139850761Y-139831428D02*
X139898380Y-139974285D01*
X139898380Y-140212380D01*
X139850761Y-140307619D01*
X139803142Y-140355238D01*
X139707904Y-140402857D01*
X139612666Y-140402857D01*
X139517428Y-140355238D01*
X139469809Y-140307619D01*
X139422190Y-140212380D01*
X139374571Y-140021904D01*
X139326952Y-139926666D01*
X139279333Y-139879047D01*
X139184095Y-139831428D01*
X139088857Y-139831428D01*
X138993619Y-139879047D01*
X138946000Y-139926666D01*
X138898380Y-140021904D01*
X138898380Y-140260000D01*
X138946000Y-140402857D01*
X139898380Y-140831428D02*
X138898380Y-140831428D01*
X139850761Y-146224285D02*
X139898380Y-146367142D01*
X139898380Y-146605238D01*
X139850761Y-146700476D01*
X139803142Y-146748095D01*
X139707904Y-146795714D01*
X139612666Y-146795714D01*
X139517428Y-146748095D01*
X139469809Y-146700476D01*
X139422190Y-146605238D01*
X139374571Y-146414761D01*
X139326952Y-146319523D01*
X139279333Y-146271904D01*
X139184095Y-146224285D01*
X139088857Y-146224285D01*
X138993619Y-146271904D01*
X138946000Y-146319523D01*
X138898380Y-146414761D01*
X138898380Y-146652857D01*
X138946000Y-146795714D01*
X139803142Y-147795714D02*
X139850761Y-147748095D01*
X139898380Y-147605238D01*
X139898380Y-147510000D01*
X139850761Y-147367142D01*
X139755523Y-147271904D01*
X139660285Y-147224285D01*
X139469809Y-147176666D01*
X139326952Y-147176666D01*
X139136476Y-147224285D01*
X139041238Y-147271904D01*
X138946000Y-147367142D01*
X138898380Y-147510000D01*
X138898380Y-147605238D01*
X138946000Y-147748095D01*
X138993619Y-147795714D01*
X139898380Y-148224285D02*
X138898380Y-148224285D01*
X139898380Y-148795714D02*
X139326952Y-148367142D01*
X138898380Y-148795714D02*
X139469809Y-148224285D01*
X141398380Y-138176666D02*
X142398380Y-138510000D01*
X141398380Y-138843333D01*
X142303142Y-139748095D02*
X142350761Y-139700476D01*
X142398380Y-139557619D01*
X142398380Y-139462380D01*
X142350761Y-139319523D01*
X142255523Y-139224285D01*
X142160285Y-139176666D01*
X141969809Y-139129047D01*
X141826952Y-139129047D01*
X141636476Y-139176666D01*
X141541238Y-139224285D01*
X141446000Y-139319523D01*
X141398380Y-139462380D01*
X141398380Y-139557619D01*
X141446000Y-139700476D01*
X141493619Y-139748095D01*
X142303142Y-140748095D02*
X142350761Y-140700476D01*
X142398380Y-140557619D01*
X142398380Y-140462380D01*
X142350761Y-140319523D01*
X142255523Y-140224285D01*
X142160285Y-140176666D01*
X141969809Y-140129047D01*
X141826952Y-140129047D01*
X141636476Y-140176666D01*
X141541238Y-140224285D01*
X141446000Y-140319523D01*
X141398380Y-140462380D01*
X141398380Y-140557619D01*
X141446000Y-140700476D01*
X141493619Y-140748095D01*
X142398380Y-146188571D02*
X141398380Y-146188571D01*
X142112666Y-146521904D01*
X141398380Y-146855238D01*
X142398380Y-146855238D01*
X142398380Y-147331428D02*
X141398380Y-147331428D01*
X142350761Y-147760000D02*
X142398380Y-147902857D01*
X142398380Y-148140952D01*
X142350761Y-148236190D01*
X142303142Y-148283809D01*
X142207904Y-148331428D01*
X142112666Y-148331428D01*
X142017428Y-148283809D01*
X141969809Y-148236190D01*
X141922190Y-148140952D01*
X141874571Y-147950476D01*
X141826952Y-147855238D01*
X141779333Y-147807619D01*
X141684095Y-147760000D01*
X141588857Y-147760000D01*
X141493619Y-147807619D01*
X141446000Y-147855238D01*
X141398380Y-147950476D01*
X141398380Y-148188571D01*
X141446000Y-148331428D01*
X141398380Y-148950476D02*
X141398380Y-149140952D01*
X141446000Y-149236190D01*
X141541238Y-149331428D01*
X141731714Y-149379047D01*
X142065047Y-149379047D01*
X142255523Y-149331428D01*
X142350761Y-149236190D01*
X142398380Y-149140952D01*
X142398380Y-148950476D01*
X142350761Y-148855238D01*
X142255523Y-148760000D01*
X142065047Y-148712380D01*
X141731714Y-148712380D01*
X141541238Y-148760000D01*
X141446000Y-148855238D01*
X141398380Y-148950476D01*
%TO.C,F1*%
X129849571Y-63928666D02*
X129849571Y-63595333D01*
X130373380Y-63595333D02*
X129373380Y-63595333D01*
X129373380Y-64071523D01*
X130373380Y-64976285D02*
X130373380Y-64404857D01*
X130373380Y-64690571D02*
X129373380Y-64690571D01*
X129516238Y-64595333D01*
X129611476Y-64500095D01*
X129659095Y-64404857D01*
%TO.C,D51*%
X166283630Y-132929464D02*
X165283630Y-132929464D01*
X165283630Y-133167559D01*
X165331250Y-133310416D01*
X165426488Y-133405654D01*
X165521726Y-133453273D01*
X165712202Y-133500892D01*
X165855059Y-133500892D01*
X166045535Y-133453273D01*
X166140773Y-133405654D01*
X166236011Y-133310416D01*
X166283630Y-133167559D01*
X166283630Y-132929464D01*
X165283630Y-134405654D02*
X165283630Y-133929464D01*
X165759821Y-133881845D01*
X165712202Y-133929464D01*
X165664583Y-134024702D01*
X165664583Y-134262797D01*
X165712202Y-134358035D01*
X165759821Y-134405654D01*
X165855059Y-134453273D01*
X166093154Y-134453273D01*
X166188392Y-134405654D01*
X166236011Y-134358035D01*
X166283630Y-134262797D01*
X166283630Y-134024702D01*
X166236011Y-133929464D01*
X166188392Y-133881845D01*
X166283630Y-135405654D02*
X166283630Y-134834226D01*
X166283630Y-135119940D02*
X165283630Y-135119940D01*
X165426488Y-135024702D01*
X165521726Y-134929464D01*
X165569345Y-134834226D01*
%TO.C,D50*%
X155995535Y-136121130D02*
X155995535Y-135121130D01*
X155757440Y-135121130D01*
X155614583Y-135168750D01*
X155519345Y-135263988D01*
X155471726Y-135359226D01*
X155424107Y-135549702D01*
X155424107Y-135692559D01*
X155471726Y-135883035D01*
X155519345Y-135978273D01*
X155614583Y-136073511D01*
X155757440Y-136121130D01*
X155995535Y-136121130D01*
X154519345Y-135121130D02*
X154995535Y-135121130D01*
X155043154Y-135597321D01*
X154995535Y-135549702D01*
X154900297Y-135502083D01*
X154662202Y-135502083D01*
X154566964Y-135549702D01*
X154519345Y-135597321D01*
X154471726Y-135692559D01*
X154471726Y-135930654D01*
X154519345Y-136025892D01*
X154566964Y-136073511D01*
X154662202Y-136121130D01*
X154900297Y-136121130D01*
X154995535Y-136073511D01*
X155043154Y-136025892D01*
X153852678Y-135121130D02*
X153757440Y-135121130D01*
X153662202Y-135168750D01*
X153614583Y-135216369D01*
X153566964Y-135311607D01*
X153519345Y-135502083D01*
X153519345Y-135740178D01*
X153566964Y-135930654D01*
X153614583Y-136025892D01*
X153662202Y-136073511D01*
X153757440Y-136121130D01*
X153852678Y-136121130D01*
X153947916Y-136073511D01*
X153995535Y-136025892D01*
X154043154Y-135930654D01*
X154090773Y-135740178D01*
X154090773Y-135502083D01*
X154043154Y-135311607D01*
X153995535Y-135216369D01*
X153947916Y-135168750D01*
X153852678Y-135121130D01*
%TO.C,D49*%
X127420535Y-136121130D02*
X127420535Y-135121130D01*
X127182440Y-135121130D01*
X127039583Y-135168750D01*
X126944345Y-135263988D01*
X126896726Y-135359226D01*
X126849107Y-135549702D01*
X126849107Y-135692559D01*
X126896726Y-135883035D01*
X126944345Y-135978273D01*
X127039583Y-136073511D01*
X127182440Y-136121130D01*
X127420535Y-136121130D01*
X125991964Y-135454464D02*
X125991964Y-136121130D01*
X126230059Y-135073511D02*
X126468154Y-135787797D01*
X125849107Y-135787797D01*
X125420535Y-136121130D02*
X125230059Y-136121130D01*
X125134821Y-136073511D01*
X125087202Y-136025892D01*
X124991964Y-135883035D01*
X124944345Y-135692559D01*
X124944345Y-135311607D01*
X124991964Y-135216369D01*
X125039583Y-135168750D01*
X125134821Y-135121130D01*
X125325297Y-135121130D01*
X125420535Y-135168750D01*
X125468154Y-135216369D01*
X125515773Y-135311607D01*
X125515773Y-135549702D01*
X125468154Y-135644940D01*
X125420535Y-135692559D01*
X125325297Y-135740178D01*
X125134821Y-135740178D01*
X125039583Y-135692559D01*
X124991964Y-135644940D01*
X124944345Y-135549702D01*
%TO.C,D48*%
X155995535Y-117071130D02*
X155995535Y-116071130D01*
X155757440Y-116071130D01*
X155614583Y-116118750D01*
X155519345Y-116213988D01*
X155471726Y-116309226D01*
X155424107Y-116499702D01*
X155424107Y-116642559D01*
X155471726Y-116833035D01*
X155519345Y-116928273D01*
X155614583Y-117023511D01*
X155757440Y-117071130D01*
X155995535Y-117071130D01*
X154566964Y-116404464D02*
X154566964Y-117071130D01*
X154805059Y-116023511D02*
X155043154Y-116737797D01*
X154424107Y-116737797D01*
X153900297Y-116499702D02*
X153995535Y-116452083D01*
X154043154Y-116404464D01*
X154090773Y-116309226D01*
X154090773Y-116261607D01*
X154043154Y-116166369D01*
X153995535Y-116118750D01*
X153900297Y-116071130D01*
X153709821Y-116071130D01*
X153614583Y-116118750D01*
X153566964Y-116166369D01*
X153519345Y-116261607D01*
X153519345Y-116309226D01*
X153566964Y-116404464D01*
X153614583Y-116452083D01*
X153709821Y-116499702D01*
X153900297Y-116499702D01*
X153995535Y-116547321D01*
X154043154Y-116594940D01*
X154090773Y-116690178D01*
X154090773Y-116880654D01*
X154043154Y-116975892D01*
X153995535Y-117023511D01*
X153900297Y-117071130D01*
X153709821Y-117071130D01*
X153614583Y-117023511D01*
X153566964Y-116975892D01*
X153519345Y-116880654D01*
X153519345Y-116690178D01*
X153566964Y-116594940D01*
X153614583Y-116547321D01*
X153709821Y-116499702D01*
%TO.C,D47*%
X136945535Y-117071130D02*
X136945535Y-116071130D01*
X136707440Y-116071130D01*
X136564583Y-116118750D01*
X136469345Y-116213988D01*
X136421726Y-116309226D01*
X136374107Y-116499702D01*
X136374107Y-116642559D01*
X136421726Y-116833035D01*
X136469345Y-116928273D01*
X136564583Y-117023511D01*
X136707440Y-117071130D01*
X136945535Y-117071130D01*
X135516964Y-116404464D02*
X135516964Y-117071130D01*
X135755059Y-116023511D02*
X135993154Y-116737797D01*
X135374107Y-116737797D01*
X135088392Y-116071130D02*
X134421726Y-116071130D01*
X134850297Y-117071130D01*
%TO.C,D46*%
X117895535Y-117071130D02*
X117895535Y-116071130D01*
X117657440Y-116071130D01*
X117514583Y-116118750D01*
X117419345Y-116213988D01*
X117371726Y-116309226D01*
X117324107Y-116499702D01*
X117324107Y-116642559D01*
X117371726Y-116833035D01*
X117419345Y-116928273D01*
X117514583Y-117023511D01*
X117657440Y-117071130D01*
X117895535Y-117071130D01*
X116466964Y-116404464D02*
X116466964Y-117071130D01*
X116705059Y-116023511D02*
X116943154Y-116737797D01*
X116324107Y-116737797D01*
X115514583Y-116071130D02*
X115705059Y-116071130D01*
X115800297Y-116118750D01*
X115847916Y-116166369D01*
X115943154Y-116309226D01*
X115990773Y-116499702D01*
X115990773Y-116880654D01*
X115943154Y-116975892D01*
X115895535Y-117023511D01*
X115800297Y-117071130D01*
X115609821Y-117071130D01*
X115514583Y-117023511D01*
X115466964Y-116975892D01*
X115419345Y-116880654D01*
X115419345Y-116642559D01*
X115466964Y-116547321D01*
X115514583Y-116499702D01*
X115609821Y-116452083D01*
X115800297Y-116452083D01*
X115895535Y-116499702D01*
X115943154Y-116547321D01*
X115990773Y-116642559D01*
%TO.C,D45*%
X166283630Y-94829464D02*
X165283630Y-94829464D01*
X165283630Y-95067559D01*
X165331250Y-95210416D01*
X165426488Y-95305654D01*
X165521726Y-95353273D01*
X165712202Y-95400892D01*
X165855059Y-95400892D01*
X166045535Y-95353273D01*
X166140773Y-95305654D01*
X166236011Y-95210416D01*
X166283630Y-95067559D01*
X166283630Y-94829464D01*
X165616964Y-96258035D02*
X166283630Y-96258035D01*
X165236011Y-96019940D02*
X165950297Y-95781845D01*
X165950297Y-96400892D01*
X165283630Y-97258035D02*
X165283630Y-96781845D01*
X165759821Y-96734226D01*
X165712202Y-96781845D01*
X165664583Y-96877083D01*
X165664583Y-97115178D01*
X165712202Y-97210416D01*
X165759821Y-97258035D01*
X165855059Y-97305654D01*
X166093154Y-97305654D01*
X166188392Y-97258035D01*
X166236011Y-97210416D01*
X166283630Y-97115178D01*
X166283630Y-96877083D01*
X166236011Y-96781845D01*
X166188392Y-96734226D01*
%TO.C,D44*%
X155995535Y-98021130D02*
X155995535Y-97021130D01*
X155757440Y-97021130D01*
X155614583Y-97068750D01*
X155519345Y-97163988D01*
X155471726Y-97259226D01*
X155424107Y-97449702D01*
X155424107Y-97592559D01*
X155471726Y-97783035D01*
X155519345Y-97878273D01*
X155614583Y-97973511D01*
X155757440Y-98021130D01*
X155995535Y-98021130D01*
X154566964Y-97354464D02*
X154566964Y-98021130D01*
X154805059Y-96973511D02*
X155043154Y-97687797D01*
X154424107Y-97687797D01*
X153614583Y-97354464D02*
X153614583Y-98021130D01*
X153852678Y-96973511D02*
X154090773Y-97687797D01*
X153471726Y-97687797D01*
%TO.C,D43*%
X136945535Y-98021130D02*
X136945535Y-97021130D01*
X136707440Y-97021130D01*
X136564583Y-97068750D01*
X136469345Y-97163988D01*
X136421726Y-97259226D01*
X136374107Y-97449702D01*
X136374107Y-97592559D01*
X136421726Y-97783035D01*
X136469345Y-97878273D01*
X136564583Y-97973511D01*
X136707440Y-98021130D01*
X136945535Y-98021130D01*
X135516964Y-97354464D02*
X135516964Y-98021130D01*
X135755059Y-96973511D02*
X135993154Y-97687797D01*
X135374107Y-97687797D01*
X135088392Y-97021130D02*
X134469345Y-97021130D01*
X134802678Y-97402083D01*
X134659821Y-97402083D01*
X134564583Y-97449702D01*
X134516964Y-97497321D01*
X134469345Y-97592559D01*
X134469345Y-97830654D01*
X134516964Y-97925892D01*
X134564583Y-97973511D01*
X134659821Y-98021130D01*
X134945535Y-98021130D01*
X135040773Y-97973511D01*
X135088392Y-97925892D01*
%TO.C,D42*%
X117895535Y-98021130D02*
X117895535Y-97021130D01*
X117657440Y-97021130D01*
X117514583Y-97068750D01*
X117419345Y-97163988D01*
X117371726Y-97259226D01*
X117324107Y-97449702D01*
X117324107Y-97592559D01*
X117371726Y-97783035D01*
X117419345Y-97878273D01*
X117514583Y-97973511D01*
X117657440Y-98021130D01*
X117895535Y-98021130D01*
X116466964Y-97354464D02*
X116466964Y-98021130D01*
X116705059Y-96973511D02*
X116943154Y-97687797D01*
X116324107Y-97687797D01*
X115990773Y-97116369D02*
X115943154Y-97068750D01*
X115847916Y-97021130D01*
X115609821Y-97021130D01*
X115514583Y-97068750D01*
X115466964Y-97116369D01*
X115419345Y-97211607D01*
X115419345Y-97306845D01*
X115466964Y-97449702D01*
X116038392Y-98021130D01*
X115419345Y-98021130D01*
%TO.C,D41*%
X155995535Y-78971130D02*
X155995535Y-77971130D01*
X155757440Y-77971130D01*
X155614583Y-78018750D01*
X155519345Y-78113988D01*
X155471726Y-78209226D01*
X155424107Y-78399702D01*
X155424107Y-78542559D01*
X155471726Y-78733035D01*
X155519345Y-78828273D01*
X155614583Y-78923511D01*
X155757440Y-78971130D01*
X155995535Y-78971130D01*
X154566964Y-78304464D02*
X154566964Y-78971130D01*
X154805059Y-77923511D02*
X155043154Y-78637797D01*
X154424107Y-78637797D01*
X153519345Y-78971130D02*
X154090773Y-78971130D01*
X153805059Y-78971130D02*
X153805059Y-77971130D01*
X153900297Y-78113988D01*
X153995535Y-78209226D01*
X154090773Y-78256845D01*
%TO.C,D40*%
X137485285Y-79446380D02*
X137485285Y-78446380D01*
X137247190Y-78446380D01*
X137104333Y-78494000D01*
X137009095Y-78589238D01*
X136961476Y-78684476D01*
X136913857Y-78874952D01*
X136913857Y-79017809D01*
X136961476Y-79208285D01*
X137009095Y-79303523D01*
X137104333Y-79398761D01*
X137247190Y-79446380D01*
X137485285Y-79446380D01*
X136056714Y-78779714D02*
X136056714Y-79446380D01*
X136294809Y-78398761D02*
X136532904Y-79113047D01*
X135913857Y-79113047D01*
X135342428Y-78446380D02*
X135247190Y-78446380D01*
X135151952Y-78494000D01*
X135104333Y-78541619D01*
X135056714Y-78636857D01*
X135009095Y-78827333D01*
X135009095Y-79065428D01*
X135056714Y-79255904D01*
X135104333Y-79351142D01*
X135151952Y-79398761D01*
X135247190Y-79446380D01*
X135342428Y-79446380D01*
X135437666Y-79398761D01*
X135485285Y-79351142D01*
X135532904Y-79255904D01*
X135580523Y-79065428D01*
X135580523Y-78827333D01*
X135532904Y-78636857D01*
X135485285Y-78541619D01*
X135437666Y-78494000D01*
X135342428Y-78446380D01*
%TO.C,D39*%
X117895535Y-78971130D02*
X117895535Y-77971130D01*
X117657440Y-77971130D01*
X117514583Y-78018750D01*
X117419345Y-78113988D01*
X117371726Y-78209226D01*
X117324107Y-78399702D01*
X117324107Y-78542559D01*
X117371726Y-78733035D01*
X117419345Y-78828273D01*
X117514583Y-78923511D01*
X117657440Y-78971130D01*
X117895535Y-78971130D01*
X116990773Y-77971130D02*
X116371726Y-77971130D01*
X116705059Y-78352083D01*
X116562202Y-78352083D01*
X116466964Y-78399702D01*
X116419345Y-78447321D01*
X116371726Y-78542559D01*
X116371726Y-78780654D01*
X116419345Y-78875892D01*
X116466964Y-78923511D01*
X116562202Y-78971130D01*
X116847916Y-78971130D01*
X116943154Y-78923511D01*
X116990773Y-78875892D01*
X115895535Y-78971130D02*
X115705059Y-78971130D01*
X115609821Y-78923511D01*
X115562202Y-78875892D01*
X115466964Y-78733035D01*
X115419345Y-78542559D01*
X115419345Y-78161607D01*
X115466964Y-78066369D01*
X115514583Y-78018750D01*
X115609821Y-77971130D01*
X115800297Y-77971130D01*
X115895535Y-78018750D01*
X115943154Y-78066369D01*
X115990773Y-78161607D01*
X115990773Y-78399702D01*
X115943154Y-78494940D01*
X115895535Y-78542559D01*
X115800297Y-78590178D01*
X115609821Y-78590178D01*
X115514583Y-78542559D01*
X115466964Y-78494940D01*
X115419345Y-78399702D01*
%TO.C,D38*%
X175045535Y-59921130D02*
X175045535Y-58921130D01*
X174807440Y-58921130D01*
X174664583Y-58968750D01*
X174569345Y-59063988D01*
X174521726Y-59159226D01*
X174474107Y-59349702D01*
X174474107Y-59492559D01*
X174521726Y-59683035D01*
X174569345Y-59778273D01*
X174664583Y-59873511D01*
X174807440Y-59921130D01*
X175045535Y-59921130D01*
X174140773Y-58921130D02*
X173521726Y-58921130D01*
X173855059Y-59302083D01*
X173712202Y-59302083D01*
X173616964Y-59349702D01*
X173569345Y-59397321D01*
X173521726Y-59492559D01*
X173521726Y-59730654D01*
X173569345Y-59825892D01*
X173616964Y-59873511D01*
X173712202Y-59921130D01*
X173997916Y-59921130D01*
X174093154Y-59873511D01*
X174140773Y-59825892D01*
X172950297Y-59349702D02*
X173045535Y-59302083D01*
X173093154Y-59254464D01*
X173140773Y-59159226D01*
X173140773Y-59111607D01*
X173093154Y-59016369D01*
X173045535Y-58968750D01*
X172950297Y-58921130D01*
X172759821Y-58921130D01*
X172664583Y-58968750D01*
X172616964Y-59016369D01*
X172569345Y-59111607D01*
X172569345Y-59159226D01*
X172616964Y-59254464D01*
X172664583Y-59302083D01*
X172759821Y-59349702D01*
X172950297Y-59349702D01*
X173045535Y-59397321D01*
X173093154Y-59444940D01*
X173140773Y-59540178D01*
X173140773Y-59730654D01*
X173093154Y-59825892D01*
X173045535Y-59873511D01*
X172950297Y-59921130D01*
X172759821Y-59921130D01*
X172664583Y-59873511D01*
X172616964Y-59825892D01*
X172569345Y-59730654D01*
X172569345Y-59540178D01*
X172616964Y-59444940D01*
X172664583Y-59397321D01*
X172759821Y-59349702D01*
%TO.C,D37*%
X155995535Y-59921130D02*
X155995535Y-58921130D01*
X155757440Y-58921130D01*
X155614583Y-58968750D01*
X155519345Y-59063988D01*
X155471726Y-59159226D01*
X155424107Y-59349702D01*
X155424107Y-59492559D01*
X155471726Y-59683035D01*
X155519345Y-59778273D01*
X155614583Y-59873511D01*
X155757440Y-59921130D01*
X155995535Y-59921130D01*
X155090773Y-58921130D02*
X154471726Y-58921130D01*
X154805059Y-59302083D01*
X154662202Y-59302083D01*
X154566964Y-59349702D01*
X154519345Y-59397321D01*
X154471726Y-59492559D01*
X154471726Y-59730654D01*
X154519345Y-59825892D01*
X154566964Y-59873511D01*
X154662202Y-59921130D01*
X154947916Y-59921130D01*
X155043154Y-59873511D01*
X155090773Y-59825892D01*
X154138392Y-58921130D02*
X153471726Y-58921130D01*
X153900297Y-59921130D01*
%TO.C,D35*%
X117895535Y-59921130D02*
X117895535Y-58921130D01*
X117657440Y-58921130D01*
X117514583Y-58968750D01*
X117419345Y-59063988D01*
X117371726Y-59159226D01*
X117324107Y-59349702D01*
X117324107Y-59492559D01*
X117371726Y-59683035D01*
X117419345Y-59778273D01*
X117514583Y-59873511D01*
X117657440Y-59921130D01*
X117895535Y-59921130D01*
X116990773Y-58921130D02*
X116371726Y-58921130D01*
X116705059Y-59302083D01*
X116562202Y-59302083D01*
X116466964Y-59349702D01*
X116419345Y-59397321D01*
X116371726Y-59492559D01*
X116371726Y-59730654D01*
X116419345Y-59825892D01*
X116466964Y-59873511D01*
X116562202Y-59921130D01*
X116847916Y-59921130D01*
X116943154Y-59873511D01*
X116990773Y-59825892D01*
X115466964Y-58921130D02*
X115943154Y-58921130D01*
X115990773Y-59397321D01*
X115943154Y-59349702D01*
X115847916Y-59302083D01*
X115609821Y-59302083D01*
X115514583Y-59349702D01*
X115466964Y-59397321D01*
X115419345Y-59492559D01*
X115419345Y-59730654D01*
X115466964Y-59825892D01*
X115514583Y-59873511D01*
X115609821Y-59921130D01*
X115847916Y-59921130D01*
X115943154Y-59873511D01*
X115990773Y-59825892D01*
%TO.C,D34*%
X175045535Y-40871130D02*
X175045535Y-39871130D01*
X174807440Y-39871130D01*
X174664583Y-39918750D01*
X174569345Y-40013988D01*
X174521726Y-40109226D01*
X174474107Y-40299702D01*
X174474107Y-40442559D01*
X174521726Y-40633035D01*
X174569345Y-40728273D01*
X174664583Y-40823511D01*
X174807440Y-40871130D01*
X175045535Y-40871130D01*
X174140773Y-39871130D02*
X173521726Y-39871130D01*
X173855059Y-40252083D01*
X173712202Y-40252083D01*
X173616964Y-40299702D01*
X173569345Y-40347321D01*
X173521726Y-40442559D01*
X173521726Y-40680654D01*
X173569345Y-40775892D01*
X173616964Y-40823511D01*
X173712202Y-40871130D01*
X173997916Y-40871130D01*
X174093154Y-40823511D01*
X174140773Y-40775892D01*
X172664583Y-40204464D02*
X172664583Y-40871130D01*
X172902678Y-39823511D02*
X173140773Y-40537797D01*
X172521726Y-40537797D01*
%TO.C,D33*%
X155995535Y-40871130D02*
X155995535Y-39871130D01*
X155757440Y-39871130D01*
X155614583Y-39918750D01*
X155519345Y-40013988D01*
X155471726Y-40109226D01*
X155424107Y-40299702D01*
X155424107Y-40442559D01*
X155471726Y-40633035D01*
X155519345Y-40728273D01*
X155614583Y-40823511D01*
X155757440Y-40871130D01*
X155995535Y-40871130D01*
X155090773Y-39871130D02*
X154471726Y-39871130D01*
X154805059Y-40252083D01*
X154662202Y-40252083D01*
X154566964Y-40299702D01*
X154519345Y-40347321D01*
X154471726Y-40442559D01*
X154471726Y-40680654D01*
X154519345Y-40775892D01*
X154566964Y-40823511D01*
X154662202Y-40871130D01*
X154947916Y-40871130D01*
X155043154Y-40823511D01*
X155090773Y-40775892D01*
X154138392Y-39871130D02*
X153519345Y-39871130D01*
X153852678Y-40252083D01*
X153709821Y-40252083D01*
X153614583Y-40299702D01*
X153566964Y-40347321D01*
X153519345Y-40442559D01*
X153519345Y-40680654D01*
X153566964Y-40775892D01*
X153614583Y-40823511D01*
X153709821Y-40871130D01*
X153995535Y-40871130D01*
X154090773Y-40823511D01*
X154138392Y-40775892D01*
%TO.C,D32*%
X136945535Y-40933630D02*
X136945535Y-39933630D01*
X136707440Y-39933630D01*
X136564583Y-39981250D01*
X136469345Y-40076488D01*
X136421726Y-40171726D01*
X136374107Y-40362202D01*
X136374107Y-40505059D01*
X136421726Y-40695535D01*
X136469345Y-40790773D01*
X136564583Y-40886011D01*
X136707440Y-40933630D01*
X136945535Y-40933630D01*
X136040773Y-39933630D02*
X135421726Y-39933630D01*
X135755059Y-40314583D01*
X135612202Y-40314583D01*
X135516964Y-40362202D01*
X135469345Y-40409821D01*
X135421726Y-40505059D01*
X135421726Y-40743154D01*
X135469345Y-40838392D01*
X135516964Y-40886011D01*
X135612202Y-40933630D01*
X135897916Y-40933630D01*
X135993154Y-40886011D01*
X136040773Y-40838392D01*
X135040773Y-40028869D02*
X134993154Y-39981250D01*
X134897916Y-39933630D01*
X134659821Y-39933630D01*
X134564583Y-39981250D01*
X134516964Y-40028869D01*
X134469345Y-40124107D01*
X134469345Y-40219345D01*
X134516964Y-40362202D01*
X135088392Y-40933630D01*
X134469345Y-40933630D01*
%TO.C,D24*%
X175045535Y-145327380D02*
X175045535Y-144327380D01*
X174807440Y-144327380D01*
X174664583Y-144375000D01*
X174569345Y-144470238D01*
X174521726Y-144565476D01*
X174474107Y-144755952D01*
X174474107Y-144898809D01*
X174521726Y-145089285D01*
X174569345Y-145184523D01*
X174664583Y-145279761D01*
X174807440Y-145327380D01*
X175045535Y-145327380D01*
X174093154Y-144422619D02*
X174045535Y-144375000D01*
X173950297Y-144327380D01*
X173712202Y-144327380D01*
X173616964Y-144375000D01*
X173569345Y-144422619D01*
X173521726Y-144517857D01*
X173521726Y-144613095D01*
X173569345Y-144755952D01*
X174140773Y-145327380D01*
X173521726Y-145327380D01*
X172664583Y-144660714D02*
X172664583Y-145327380D01*
X172902678Y-144279761D02*
X173140773Y-144994047D01*
X172521726Y-144994047D01*
%TO.C,D23*%
X144502380Y-145629464D02*
X143502380Y-145629464D01*
X143502380Y-145867559D01*
X143550000Y-146010416D01*
X143645238Y-146105654D01*
X143740476Y-146153273D01*
X143930952Y-146200892D01*
X144073809Y-146200892D01*
X144264285Y-146153273D01*
X144359523Y-146105654D01*
X144454761Y-146010416D01*
X144502380Y-145867559D01*
X144502380Y-145629464D01*
X143597619Y-146581845D02*
X143550000Y-146629464D01*
X143502380Y-146724702D01*
X143502380Y-146962797D01*
X143550000Y-147058035D01*
X143597619Y-147105654D01*
X143692857Y-147153273D01*
X143788095Y-147153273D01*
X143930952Y-147105654D01*
X144502380Y-146534226D01*
X144502380Y-147153273D01*
X143502380Y-147486607D02*
X143502380Y-148105654D01*
X143883333Y-147772321D01*
X143883333Y-147915178D01*
X143930952Y-148010416D01*
X143978571Y-148058035D01*
X144073809Y-148105654D01*
X144311904Y-148105654D01*
X144407142Y-148058035D01*
X144454761Y-148010416D01*
X144502380Y-147915178D01*
X144502380Y-147629464D01*
X144454761Y-147534226D01*
X144407142Y-147486607D01*
%TO.C,D22*%
X115927380Y-145629464D02*
X114927380Y-145629464D01*
X114927380Y-145867559D01*
X114975000Y-146010416D01*
X115070238Y-146105654D01*
X115165476Y-146153273D01*
X115355952Y-146200892D01*
X115498809Y-146200892D01*
X115689285Y-146153273D01*
X115784523Y-146105654D01*
X115879761Y-146010416D01*
X115927380Y-145867559D01*
X115927380Y-145629464D01*
X115022619Y-146581845D02*
X114975000Y-146629464D01*
X114927380Y-146724702D01*
X114927380Y-146962797D01*
X114975000Y-147058035D01*
X115022619Y-147105654D01*
X115117857Y-147153273D01*
X115213095Y-147153273D01*
X115355952Y-147105654D01*
X115927380Y-146534226D01*
X115927380Y-147153273D01*
X115022619Y-147534226D02*
X114975000Y-147581845D01*
X114927380Y-147677083D01*
X114927380Y-147915178D01*
X114975000Y-148010416D01*
X115022619Y-148058035D01*
X115117857Y-148105654D01*
X115213095Y-148105654D01*
X115355952Y-148058035D01*
X115927380Y-147486607D01*
X115927380Y-148105654D01*
%TO.C,D21*%
X151233035Y-132596130D02*
X151233035Y-131596130D01*
X150994940Y-131596130D01*
X150852083Y-131643750D01*
X150756845Y-131738988D01*
X150709226Y-131834226D01*
X150661607Y-132024702D01*
X150661607Y-132167559D01*
X150709226Y-132358035D01*
X150756845Y-132453273D01*
X150852083Y-132548511D01*
X150994940Y-132596130D01*
X151233035Y-132596130D01*
X150280654Y-131691369D02*
X150233035Y-131643750D01*
X150137797Y-131596130D01*
X149899702Y-131596130D01*
X149804464Y-131643750D01*
X149756845Y-131691369D01*
X149709226Y-131786607D01*
X149709226Y-131881845D01*
X149756845Y-132024702D01*
X150328273Y-132596130D01*
X149709226Y-132596130D01*
X148756845Y-132596130D02*
X149328273Y-132596130D01*
X149042559Y-132596130D02*
X149042559Y-131596130D01*
X149137797Y-131738988D01*
X149233035Y-131834226D01*
X149328273Y-131881845D01*
%TO.C,D20*%
X132183035Y-132596130D02*
X132183035Y-131596130D01*
X131944940Y-131596130D01*
X131802083Y-131643750D01*
X131706845Y-131738988D01*
X131659226Y-131834226D01*
X131611607Y-132024702D01*
X131611607Y-132167559D01*
X131659226Y-132358035D01*
X131706845Y-132453273D01*
X131802083Y-132548511D01*
X131944940Y-132596130D01*
X132183035Y-132596130D01*
X131230654Y-131691369D02*
X131183035Y-131643750D01*
X131087797Y-131596130D01*
X130849702Y-131596130D01*
X130754464Y-131643750D01*
X130706845Y-131691369D01*
X130659226Y-131786607D01*
X130659226Y-131881845D01*
X130706845Y-132024702D01*
X131278273Y-132596130D01*
X130659226Y-132596130D01*
X130040178Y-131596130D02*
X129944940Y-131596130D01*
X129849702Y-131643750D01*
X129802083Y-131691369D01*
X129754464Y-131786607D01*
X129706845Y-131977083D01*
X129706845Y-132215178D01*
X129754464Y-132405654D01*
X129802083Y-132500892D01*
X129849702Y-132548511D01*
X129944940Y-132596130D01*
X130040178Y-132596130D01*
X130135416Y-132548511D01*
X130183035Y-132500892D01*
X130230654Y-132405654D01*
X130278273Y-132215178D01*
X130278273Y-131977083D01*
X130230654Y-131786607D01*
X130183035Y-131691369D01*
X130135416Y-131643750D01*
X130040178Y-131596130D01*
%TO.C,D19*%
X121864285Y-134183630D02*
X121864285Y-133183630D01*
X121626190Y-133183630D01*
X121483333Y-133231250D01*
X121388095Y-133326488D01*
X121340476Y-133421726D01*
X121292857Y-133612202D01*
X121292857Y-133755059D01*
X121340476Y-133945535D01*
X121388095Y-134040773D01*
X121483333Y-134136011D01*
X121626190Y-134183630D01*
X121864285Y-134183630D01*
X120340476Y-134183630D02*
X120911904Y-134183630D01*
X120626190Y-134183630D02*
X120626190Y-133183630D01*
X120721428Y-133326488D01*
X120816666Y-133421726D01*
X120911904Y-133469345D01*
X119864285Y-134183630D02*
X119673809Y-134183630D01*
X119578571Y-134136011D01*
X119530952Y-134088392D01*
X119435714Y-133945535D01*
X119388095Y-133755059D01*
X119388095Y-133374107D01*
X119435714Y-133278869D01*
X119483333Y-133231250D01*
X119578571Y-133183630D01*
X119769047Y-133183630D01*
X119864285Y-133231250D01*
X119911904Y-133278869D01*
X119959523Y-133374107D01*
X119959523Y-133612202D01*
X119911904Y-133707440D01*
X119864285Y-133755059D01*
X119769047Y-133802678D01*
X119578571Y-133802678D01*
X119483333Y-133755059D01*
X119435714Y-133707440D01*
X119388095Y-133612202D01*
%TO.C,D18*%
X159964285Y-117546130D02*
X159964285Y-116546130D01*
X159726190Y-116546130D01*
X159583333Y-116593750D01*
X159488095Y-116688988D01*
X159440476Y-116784226D01*
X159392857Y-116974702D01*
X159392857Y-117117559D01*
X159440476Y-117308035D01*
X159488095Y-117403273D01*
X159583333Y-117498511D01*
X159726190Y-117546130D01*
X159964285Y-117546130D01*
X158440476Y-117546130D02*
X159011904Y-117546130D01*
X158726190Y-117546130D02*
X158726190Y-116546130D01*
X158821428Y-116688988D01*
X158916666Y-116784226D01*
X159011904Y-116831845D01*
X157869047Y-116974702D02*
X157964285Y-116927083D01*
X158011904Y-116879464D01*
X158059523Y-116784226D01*
X158059523Y-116736607D01*
X158011904Y-116641369D01*
X157964285Y-116593750D01*
X157869047Y-116546130D01*
X157678571Y-116546130D01*
X157583333Y-116593750D01*
X157535714Y-116641369D01*
X157488095Y-116736607D01*
X157488095Y-116784226D01*
X157535714Y-116879464D01*
X157583333Y-116927083D01*
X157678571Y-116974702D01*
X157869047Y-116974702D01*
X157964285Y-117022321D01*
X158011904Y-117069940D01*
X158059523Y-117165178D01*
X158059523Y-117355654D01*
X158011904Y-117450892D01*
X157964285Y-117498511D01*
X157869047Y-117546130D01*
X157678571Y-117546130D01*
X157583333Y-117498511D01*
X157535714Y-117450892D01*
X157488095Y-117355654D01*
X157488095Y-117165178D01*
X157535714Y-117069940D01*
X157583333Y-117022321D01*
X157678571Y-116974702D01*
%TO.C,D17*%
X151233035Y-113546130D02*
X151233035Y-112546130D01*
X150994940Y-112546130D01*
X150852083Y-112593750D01*
X150756845Y-112688988D01*
X150709226Y-112784226D01*
X150661607Y-112974702D01*
X150661607Y-113117559D01*
X150709226Y-113308035D01*
X150756845Y-113403273D01*
X150852083Y-113498511D01*
X150994940Y-113546130D01*
X151233035Y-113546130D01*
X149709226Y-113546130D02*
X150280654Y-113546130D01*
X149994940Y-113546130D02*
X149994940Y-112546130D01*
X150090178Y-112688988D01*
X150185416Y-112784226D01*
X150280654Y-112831845D01*
X149375892Y-112546130D02*
X148709226Y-112546130D01*
X149137797Y-113546130D01*
%TO.C,D16*%
X141708035Y-113546130D02*
X141708035Y-112546130D01*
X141469940Y-112546130D01*
X141327083Y-112593750D01*
X141231845Y-112688988D01*
X141184226Y-112784226D01*
X141136607Y-112974702D01*
X141136607Y-113117559D01*
X141184226Y-113308035D01*
X141231845Y-113403273D01*
X141327083Y-113498511D01*
X141469940Y-113546130D01*
X141708035Y-113546130D01*
X140184226Y-113546130D02*
X140755654Y-113546130D01*
X140469940Y-113546130D02*
X140469940Y-112546130D01*
X140565178Y-112688988D01*
X140660416Y-112784226D01*
X140755654Y-112831845D01*
X139327083Y-112546130D02*
X139517559Y-112546130D01*
X139612797Y-112593750D01*
X139660416Y-112641369D01*
X139755654Y-112784226D01*
X139803273Y-112974702D01*
X139803273Y-113355654D01*
X139755654Y-113450892D01*
X139708035Y-113498511D01*
X139612797Y-113546130D01*
X139422321Y-113546130D01*
X139327083Y-113498511D01*
X139279464Y-113450892D01*
X139231845Y-113355654D01*
X139231845Y-113117559D01*
X139279464Y-113022321D01*
X139327083Y-112974702D01*
X139422321Y-112927083D01*
X139612797Y-112927083D01*
X139708035Y-112974702D01*
X139755654Y-113022321D01*
X139803273Y-113117559D01*
%TO.C,D15*%
X113926785Y-113546130D02*
X113926785Y-112546130D01*
X113688690Y-112546130D01*
X113545833Y-112593750D01*
X113450595Y-112688988D01*
X113402976Y-112784226D01*
X113355357Y-112974702D01*
X113355357Y-113117559D01*
X113402976Y-113308035D01*
X113450595Y-113403273D01*
X113545833Y-113498511D01*
X113688690Y-113546130D01*
X113926785Y-113546130D01*
X112402976Y-113546130D02*
X112974404Y-113546130D01*
X112688690Y-113546130D02*
X112688690Y-112546130D01*
X112783928Y-112688988D01*
X112879166Y-112784226D01*
X112974404Y-112831845D01*
X111498214Y-112546130D02*
X111974404Y-112546130D01*
X112022023Y-113022321D01*
X111974404Y-112974702D01*
X111879166Y-112927083D01*
X111641071Y-112927083D01*
X111545833Y-112974702D01*
X111498214Y-113022321D01*
X111450595Y-113117559D01*
X111450595Y-113355654D01*
X111498214Y-113450892D01*
X111545833Y-113498511D01*
X111641071Y-113546130D01*
X111879166Y-113546130D01*
X111974404Y-113498511D01*
X112022023Y-113450892D01*
%TO.C,D14*%
X152026785Y-94496130D02*
X152026785Y-93496130D01*
X151788690Y-93496130D01*
X151645833Y-93543750D01*
X151550595Y-93638988D01*
X151502976Y-93734226D01*
X151455357Y-93924702D01*
X151455357Y-94067559D01*
X151502976Y-94258035D01*
X151550595Y-94353273D01*
X151645833Y-94448511D01*
X151788690Y-94496130D01*
X152026785Y-94496130D01*
X150502976Y-94496130D02*
X151074404Y-94496130D01*
X150788690Y-94496130D02*
X150788690Y-93496130D01*
X150883928Y-93638988D01*
X150979166Y-93734226D01*
X151074404Y-93781845D01*
X149645833Y-93829464D02*
X149645833Y-94496130D01*
X149883928Y-93448511D02*
X150122023Y-94162797D01*
X149502976Y-94162797D01*
%TO.C,D13*%
X141708035Y-94496130D02*
X141708035Y-93496130D01*
X141469940Y-93496130D01*
X141327083Y-93543750D01*
X141231845Y-93638988D01*
X141184226Y-93734226D01*
X141136607Y-93924702D01*
X141136607Y-94067559D01*
X141184226Y-94258035D01*
X141231845Y-94353273D01*
X141327083Y-94448511D01*
X141469940Y-94496130D01*
X141708035Y-94496130D01*
X140184226Y-94496130D02*
X140755654Y-94496130D01*
X140469940Y-94496130D02*
X140469940Y-93496130D01*
X140565178Y-93638988D01*
X140660416Y-93734226D01*
X140755654Y-93781845D01*
X139850892Y-93496130D02*
X139231845Y-93496130D01*
X139565178Y-93877083D01*
X139422321Y-93877083D01*
X139327083Y-93924702D01*
X139279464Y-93972321D01*
X139231845Y-94067559D01*
X139231845Y-94305654D01*
X139279464Y-94400892D01*
X139327083Y-94448511D01*
X139422321Y-94496130D01*
X139708035Y-94496130D01*
X139803273Y-94448511D01*
X139850892Y-94400892D01*
%TO.C,D12*%
X113926785Y-94496130D02*
X113926785Y-93496130D01*
X113688690Y-93496130D01*
X113545833Y-93543750D01*
X113450595Y-93638988D01*
X113402976Y-93734226D01*
X113355357Y-93924702D01*
X113355357Y-94067559D01*
X113402976Y-94258035D01*
X113450595Y-94353273D01*
X113545833Y-94448511D01*
X113688690Y-94496130D01*
X113926785Y-94496130D01*
X112402976Y-94496130D02*
X112974404Y-94496130D01*
X112688690Y-94496130D02*
X112688690Y-93496130D01*
X112783928Y-93638988D01*
X112879166Y-93734226D01*
X112974404Y-93781845D01*
X112022023Y-93591369D02*
X111974404Y-93543750D01*
X111879166Y-93496130D01*
X111641071Y-93496130D01*
X111545833Y-93543750D01*
X111498214Y-93591369D01*
X111450595Y-93686607D01*
X111450595Y-93781845D01*
X111498214Y-93924702D01*
X112069642Y-94496130D01*
X111450595Y-94496130D01*
%TO.C,D11*%
X165552380Y-67111714D02*
X164552380Y-67111714D01*
X164552380Y-67349809D01*
X164600000Y-67492666D01*
X164695238Y-67587904D01*
X164790476Y-67635523D01*
X164980952Y-67683142D01*
X165123809Y-67683142D01*
X165314285Y-67635523D01*
X165409523Y-67587904D01*
X165504761Y-67492666D01*
X165552380Y-67349809D01*
X165552380Y-67111714D01*
X165552380Y-68635523D02*
X165552380Y-68064095D01*
X165552380Y-68349809D02*
X164552380Y-68349809D01*
X164695238Y-68254571D01*
X164790476Y-68159333D01*
X164838095Y-68064095D01*
X165552380Y-69587904D02*
X165552380Y-69016476D01*
X165552380Y-69302190D02*
X164552380Y-69302190D01*
X164695238Y-69206952D01*
X164790476Y-69111714D01*
X164838095Y-69016476D01*
%TO.C,D10*%
X152026785Y-75446130D02*
X152026785Y-74446130D01*
X151788690Y-74446130D01*
X151645833Y-74493750D01*
X151550595Y-74588988D01*
X151502976Y-74684226D01*
X151455357Y-74874702D01*
X151455357Y-75017559D01*
X151502976Y-75208035D01*
X151550595Y-75303273D01*
X151645833Y-75398511D01*
X151788690Y-75446130D01*
X152026785Y-75446130D01*
X150502976Y-75446130D02*
X151074404Y-75446130D01*
X150788690Y-75446130D02*
X150788690Y-74446130D01*
X150883928Y-74588988D01*
X150979166Y-74684226D01*
X151074404Y-74731845D01*
X149883928Y-74446130D02*
X149788690Y-74446130D01*
X149693452Y-74493750D01*
X149645833Y-74541369D01*
X149598214Y-74636607D01*
X149550595Y-74827083D01*
X149550595Y-75065178D01*
X149598214Y-75255654D01*
X149645833Y-75350892D01*
X149693452Y-75398511D01*
X149788690Y-75446130D01*
X149883928Y-75446130D01*
X149979166Y-75398511D01*
X150026785Y-75350892D01*
X150074404Y-75255654D01*
X150122023Y-75065178D01*
X150122023Y-74827083D01*
X150074404Y-74636607D01*
X150026785Y-74541369D01*
X149979166Y-74493750D01*
X149883928Y-74446130D01*
%TO.C,D9*%
X140438095Y-75446130D02*
X140438095Y-74446130D01*
X140200000Y-74446130D01*
X140057142Y-74493750D01*
X139961904Y-74588988D01*
X139914285Y-74684226D01*
X139866666Y-74874702D01*
X139866666Y-75017559D01*
X139914285Y-75208035D01*
X139961904Y-75303273D01*
X140057142Y-75398511D01*
X140200000Y-75446130D01*
X140438095Y-75446130D01*
X139390476Y-75446130D02*
X139200000Y-75446130D01*
X139104761Y-75398511D01*
X139057142Y-75350892D01*
X138961904Y-75208035D01*
X138914285Y-75017559D01*
X138914285Y-74636607D01*
X138961904Y-74541369D01*
X139009523Y-74493750D01*
X139104761Y-74446130D01*
X139295238Y-74446130D01*
X139390476Y-74493750D01*
X139438095Y-74541369D01*
X139485714Y-74636607D01*
X139485714Y-74874702D01*
X139438095Y-74969940D01*
X139390476Y-75017559D01*
X139295238Y-75065178D01*
X139104761Y-75065178D01*
X139009523Y-75017559D01*
X138961904Y-74969940D01*
X138914285Y-74874702D01*
%TO.C,D8*%
X113450595Y-75446130D02*
X113450595Y-74446130D01*
X113212500Y-74446130D01*
X113069642Y-74493750D01*
X112974404Y-74588988D01*
X112926785Y-74684226D01*
X112879166Y-74874702D01*
X112879166Y-75017559D01*
X112926785Y-75208035D01*
X112974404Y-75303273D01*
X113069642Y-75398511D01*
X113212500Y-75446130D01*
X113450595Y-75446130D01*
X112307738Y-74874702D02*
X112402976Y-74827083D01*
X112450595Y-74779464D01*
X112498214Y-74684226D01*
X112498214Y-74636607D01*
X112450595Y-74541369D01*
X112402976Y-74493750D01*
X112307738Y-74446130D01*
X112117261Y-74446130D01*
X112022023Y-74493750D01*
X111974404Y-74541369D01*
X111926785Y-74636607D01*
X111926785Y-74684226D01*
X111974404Y-74779464D01*
X112022023Y-74827083D01*
X112117261Y-74874702D01*
X112307738Y-74874702D01*
X112402976Y-74922321D01*
X112450595Y-74969940D01*
X112498214Y-75065178D01*
X112498214Y-75255654D01*
X112450595Y-75350892D01*
X112402976Y-75398511D01*
X112307738Y-75446130D01*
X112117261Y-75446130D01*
X112022023Y-75398511D01*
X111974404Y-75350892D01*
X111926785Y-75255654D01*
X111926785Y-75065178D01*
X111974404Y-74969940D01*
X112022023Y-74922321D01*
X112117261Y-74874702D01*
%TO.C,D7*%
X170600595Y-56396130D02*
X170600595Y-55396130D01*
X170362500Y-55396130D01*
X170219642Y-55443750D01*
X170124404Y-55538988D01*
X170076785Y-55634226D01*
X170029166Y-55824702D01*
X170029166Y-55967559D01*
X170076785Y-56158035D01*
X170124404Y-56253273D01*
X170219642Y-56348511D01*
X170362500Y-56396130D01*
X170600595Y-56396130D01*
X169695833Y-55396130D02*
X169029166Y-55396130D01*
X169457738Y-56396130D01*
%TO.C,D6*%
X151550595Y-56396130D02*
X151550595Y-55396130D01*
X151312500Y-55396130D01*
X151169642Y-55443750D01*
X151074404Y-55538988D01*
X151026785Y-55634226D01*
X150979166Y-55824702D01*
X150979166Y-55967559D01*
X151026785Y-56158035D01*
X151074404Y-56253273D01*
X151169642Y-56348511D01*
X151312500Y-56396130D01*
X151550595Y-56396130D01*
X150122023Y-55396130D02*
X150312500Y-55396130D01*
X150407738Y-55443750D01*
X150455357Y-55491369D01*
X150550595Y-55634226D01*
X150598214Y-55824702D01*
X150598214Y-56205654D01*
X150550595Y-56300892D01*
X150502976Y-56348511D01*
X150407738Y-56396130D01*
X150217261Y-56396130D01*
X150122023Y-56348511D01*
X150074404Y-56300892D01*
X150026785Y-56205654D01*
X150026785Y-55967559D01*
X150074404Y-55872321D01*
X150122023Y-55824702D01*
X150217261Y-55777083D01*
X150407738Y-55777083D01*
X150502976Y-55824702D01*
X150550595Y-55872321D01*
X150598214Y-55967559D01*
%TO.C,D5*%
X132500595Y-56396130D02*
X132500595Y-55396130D01*
X132262500Y-55396130D01*
X132119642Y-55443750D01*
X132024404Y-55538988D01*
X131976785Y-55634226D01*
X131929166Y-55824702D01*
X131929166Y-55967559D01*
X131976785Y-56158035D01*
X132024404Y-56253273D01*
X132119642Y-56348511D01*
X132262500Y-56396130D01*
X132500595Y-56396130D01*
X131024404Y-55396130D02*
X131500595Y-55396130D01*
X131548214Y-55872321D01*
X131500595Y-55824702D01*
X131405357Y-55777083D01*
X131167261Y-55777083D01*
X131072023Y-55824702D01*
X131024404Y-55872321D01*
X130976785Y-55967559D01*
X130976785Y-56205654D01*
X131024404Y-56300892D01*
X131072023Y-56348511D01*
X131167261Y-56396130D01*
X131405357Y-56396130D01*
X131500595Y-56348511D01*
X131548214Y-56300892D01*
%TO.C,D4*%
X113450595Y-56396130D02*
X113450595Y-55396130D01*
X113212500Y-55396130D01*
X113069642Y-55443750D01*
X112974404Y-55538988D01*
X112926785Y-55634226D01*
X112879166Y-55824702D01*
X112879166Y-55967559D01*
X112926785Y-56158035D01*
X112974404Y-56253273D01*
X113069642Y-56348511D01*
X113212500Y-56396130D01*
X113450595Y-56396130D01*
X112022023Y-55729464D02*
X112022023Y-56396130D01*
X112260119Y-55348511D02*
X112498214Y-56062797D01*
X111879166Y-56062797D01*
%TO.C,D3*%
X163679130Y-45870904D02*
X162679130Y-45870904D01*
X162679130Y-46109000D01*
X162726750Y-46251857D01*
X162821988Y-46347095D01*
X162917226Y-46394714D01*
X163107702Y-46442333D01*
X163250559Y-46442333D01*
X163441035Y-46394714D01*
X163536273Y-46347095D01*
X163631511Y-46251857D01*
X163679130Y-46109000D01*
X163679130Y-45870904D01*
X162679130Y-46775666D02*
X162679130Y-47394714D01*
X163060083Y-47061380D01*
X163060083Y-47204238D01*
X163107702Y-47299476D01*
X163155321Y-47347095D01*
X163250559Y-47394714D01*
X163488654Y-47394714D01*
X163583892Y-47347095D01*
X163631511Y-47299476D01*
X163679130Y-47204238D01*
X163679130Y-46918523D01*
X163631511Y-46823285D01*
X163583892Y-46775666D01*
%TO.C,D2*%
X146014345Y-64744880D02*
X146014345Y-63744880D01*
X145776250Y-63744880D01*
X145633392Y-63792500D01*
X145538154Y-63887738D01*
X145490535Y-63982976D01*
X145442916Y-64173452D01*
X145442916Y-64316309D01*
X145490535Y-64506785D01*
X145538154Y-64602023D01*
X145633392Y-64697261D01*
X145776250Y-64744880D01*
X146014345Y-64744880D01*
X145061964Y-63840119D02*
X145014345Y-63792500D01*
X144919107Y-63744880D01*
X144681011Y-63744880D01*
X144585773Y-63792500D01*
X144538154Y-63840119D01*
X144490535Y-63935357D01*
X144490535Y-64030595D01*
X144538154Y-64173452D01*
X145109583Y-64744880D01*
X144490535Y-64744880D01*
%TO.C,D1*%
X123071130Y-63555654D02*
X122071130Y-63555654D01*
X122071130Y-63793750D01*
X122118750Y-63936607D01*
X122213988Y-64031845D01*
X122309226Y-64079464D01*
X122499702Y-64127083D01*
X122642559Y-64127083D01*
X122833035Y-64079464D01*
X122928273Y-64031845D01*
X123023511Y-63936607D01*
X123071130Y-63793750D01*
X123071130Y-63555654D01*
X123071130Y-65079464D02*
X123071130Y-64508035D01*
X123071130Y-64793750D02*
X122071130Y-64793750D01*
X122213988Y-64698511D01*
X122309226Y-64603273D01*
X122356845Y-64508035D01*
%TO.C,C23*%
X170283142Y-86860142D02*
X170330761Y-86812523D01*
X170378380Y-86669666D01*
X170378380Y-86574428D01*
X170330761Y-86431571D01*
X170235523Y-86336333D01*
X170140285Y-86288714D01*
X169949809Y-86241095D01*
X169806952Y-86241095D01*
X169616476Y-86288714D01*
X169521238Y-86336333D01*
X169426000Y-86431571D01*
X169378380Y-86574428D01*
X169378380Y-86669666D01*
X169426000Y-86812523D01*
X169473619Y-86860142D01*
X169473619Y-87241095D02*
X169426000Y-87288714D01*
X169378380Y-87383952D01*
X169378380Y-87622047D01*
X169426000Y-87717285D01*
X169473619Y-87764904D01*
X169568857Y-87812523D01*
X169664095Y-87812523D01*
X169806952Y-87764904D01*
X170378380Y-87193476D01*
X170378380Y-87812523D01*
X169378380Y-88145857D02*
X169378380Y-88764904D01*
X169759333Y-88431571D01*
X169759333Y-88574428D01*
X169806952Y-88669666D01*
X169854571Y-88717285D01*
X169949809Y-88764904D01*
X170187904Y-88764904D01*
X170283142Y-88717285D01*
X170330761Y-88669666D01*
X170378380Y-88574428D01*
X170378380Y-88288714D01*
X170330761Y-88193476D01*
X170283142Y-88145857D01*
%TO.C,C22*%
X172219857Y-93702142D02*
X172267476Y-93749761D01*
X172410333Y-93797380D01*
X172505571Y-93797380D01*
X172648428Y-93749761D01*
X172743666Y-93654523D01*
X172791285Y-93559285D01*
X172838904Y-93368809D01*
X172838904Y-93225952D01*
X172791285Y-93035476D01*
X172743666Y-92940238D01*
X172648428Y-92845000D01*
X172505571Y-92797380D01*
X172410333Y-92797380D01*
X172267476Y-92845000D01*
X172219857Y-92892619D01*
X171838904Y-92892619D02*
X171791285Y-92845000D01*
X171696047Y-92797380D01*
X171457952Y-92797380D01*
X171362714Y-92845000D01*
X171315095Y-92892619D01*
X171267476Y-92987857D01*
X171267476Y-93083095D01*
X171315095Y-93225952D01*
X171886523Y-93797380D01*
X171267476Y-93797380D01*
X170886523Y-92892619D02*
X170838904Y-92845000D01*
X170743666Y-92797380D01*
X170505571Y-92797380D01*
X170410333Y-92845000D01*
X170362714Y-92892619D01*
X170315095Y-92987857D01*
X170315095Y-93083095D01*
X170362714Y-93225952D01*
X170934142Y-93797380D01*
X170315095Y-93797380D01*
%TO.C,C21*%
X181363857Y-81256142D02*
X181411476Y-81303761D01*
X181554333Y-81351380D01*
X181649571Y-81351380D01*
X181792428Y-81303761D01*
X181887666Y-81208523D01*
X181935285Y-81113285D01*
X181982904Y-80922809D01*
X181982904Y-80779952D01*
X181935285Y-80589476D01*
X181887666Y-80494238D01*
X181792428Y-80399000D01*
X181649571Y-80351380D01*
X181554333Y-80351380D01*
X181411476Y-80399000D01*
X181363857Y-80446619D01*
X180982904Y-80446619D02*
X180935285Y-80399000D01*
X180840047Y-80351380D01*
X180601952Y-80351380D01*
X180506714Y-80399000D01*
X180459095Y-80446619D01*
X180411476Y-80541857D01*
X180411476Y-80637095D01*
X180459095Y-80779952D01*
X181030523Y-81351380D01*
X180411476Y-81351380D01*
X179459095Y-81351380D02*
X180030523Y-81351380D01*
X179744809Y-81351380D02*
X179744809Y-80351380D01*
X179840047Y-80494238D01*
X179935285Y-80589476D01*
X180030523Y-80637095D01*
%TO.C,C20*%
X181363857Y-75731642D02*
X181411476Y-75779261D01*
X181554333Y-75826880D01*
X181649571Y-75826880D01*
X181792428Y-75779261D01*
X181887666Y-75684023D01*
X181935285Y-75588785D01*
X181982904Y-75398309D01*
X181982904Y-75255452D01*
X181935285Y-75064976D01*
X181887666Y-74969738D01*
X181792428Y-74874500D01*
X181649571Y-74826880D01*
X181554333Y-74826880D01*
X181411476Y-74874500D01*
X181363857Y-74922119D01*
X180982904Y-74922119D02*
X180935285Y-74874500D01*
X180840047Y-74826880D01*
X180601952Y-74826880D01*
X180506714Y-74874500D01*
X180459095Y-74922119D01*
X180411476Y-75017357D01*
X180411476Y-75112595D01*
X180459095Y-75255452D01*
X181030523Y-75826880D01*
X180411476Y-75826880D01*
X179792428Y-74826880D02*
X179697190Y-74826880D01*
X179601952Y-74874500D01*
X179554333Y-74922119D01*
X179506714Y-75017357D01*
X179459095Y-75207833D01*
X179459095Y-75445928D01*
X179506714Y-75636404D01*
X179554333Y-75731642D01*
X179601952Y-75779261D01*
X179697190Y-75826880D01*
X179792428Y-75826880D01*
X179887666Y-75779261D01*
X179935285Y-75731642D01*
X179982904Y-75636404D01*
X180030523Y-75445928D01*
X180030523Y-75207833D01*
X179982904Y-75017357D01*
X179935285Y-74922119D01*
X179887666Y-74874500D01*
X179792428Y-74826880D01*
%TO.C,C19*%
X168409857Y-75033142D02*
X168457476Y-75080761D01*
X168600333Y-75128380D01*
X168695571Y-75128380D01*
X168838428Y-75080761D01*
X168933666Y-74985523D01*
X168981285Y-74890285D01*
X169028904Y-74699809D01*
X169028904Y-74556952D01*
X168981285Y-74366476D01*
X168933666Y-74271238D01*
X168838428Y-74176000D01*
X168695571Y-74128380D01*
X168600333Y-74128380D01*
X168457476Y-74176000D01*
X168409857Y-74223619D01*
X167457476Y-75128380D02*
X168028904Y-75128380D01*
X167743190Y-75128380D02*
X167743190Y-74128380D01*
X167838428Y-74271238D01*
X167933666Y-74366476D01*
X168028904Y-74414095D01*
X166981285Y-75128380D02*
X166790809Y-75128380D01*
X166695571Y-75080761D01*
X166647952Y-75033142D01*
X166552714Y-74890285D01*
X166505095Y-74699809D01*
X166505095Y-74318857D01*
X166552714Y-74223619D01*
X166600333Y-74176000D01*
X166695571Y-74128380D01*
X166886047Y-74128380D01*
X166981285Y-74176000D01*
X167028904Y-74223619D01*
X167076523Y-74318857D01*
X167076523Y-74556952D01*
X167028904Y-74652190D01*
X166981285Y-74699809D01*
X166886047Y-74747428D01*
X166695571Y-74747428D01*
X166600333Y-74699809D01*
X166552714Y-74652190D01*
X166505095Y-74556952D01*
%TO.C,C18*%
X166504857Y-93702142D02*
X166552476Y-93749761D01*
X166695333Y-93797380D01*
X166790571Y-93797380D01*
X166933428Y-93749761D01*
X167028666Y-93654523D01*
X167076285Y-93559285D01*
X167123904Y-93368809D01*
X167123904Y-93225952D01*
X167076285Y-93035476D01*
X167028666Y-92940238D01*
X166933428Y-92845000D01*
X166790571Y-92797380D01*
X166695333Y-92797380D01*
X166552476Y-92845000D01*
X166504857Y-92892619D01*
X165552476Y-93797380D02*
X166123904Y-93797380D01*
X165838190Y-93797380D02*
X165838190Y-92797380D01*
X165933428Y-92940238D01*
X166028666Y-93035476D01*
X166123904Y-93083095D01*
X164981047Y-93225952D02*
X165076285Y-93178333D01*
X165123904Y-93130714D01*
X165171523Y-93035476D01*
X165171523Y-92987857D01*
X165123904Y-92892619D01*
X165076285Y-92845000D01*
X164981047Y-92797380D01*
X164790571Y-92797380D01*
X164695333Y-92845000D01*
X164647714Y-92892619D01*
X164600095Y-92987857D01*
X164600095Y-93035476D01*
X164647714Y-93130714D01*
X164695333Y-93178333D01*
X164790571Y-93225952D01*
X164981047Y-93225952D01*
X165076285Y-93273571D01*
X165123904Y-93321190D01*
X165171523Y-93416428D01*
X165171523Y-93606904D01*
X165123904Y-93702142D01*
X165076285Y-93749761D01*
X164981047Y-93797380D01*
X164790571Y-93797380D01*
X164695333Y-93749761D01*
X164647714Y-93702142D01*
X164600095Y-93606904D01*
X164600095Y-93416428D01*
X164647714Y-93321190D01*
X164695333Y-93273571D01*
X164790571Y-93225952D01*
%TO.C,C17*%
X163329857Y-93702142D02*
X163377476Y-93749761D01*
X163520333Y-93797380D01*
X163615571Y-93797380D01*
X163758428Y-93749761D01*
X163853666Y-93654523D01*
X163901285Y-93559285D01*
X163948904Y-93368809D01*
X163948904Y-93225952D01*
X163901285Y-93035476D01*
X163853666Y-92940238D01*
X163758428Y-92845000D01*
X163615571Y-92797380D01*
X163520333Y-92797380D01*
X163377476Y-92845000D01*
X163329857Y-92892619D01*
X162377476Y-93797380D02*
X162948904Y-93797380D01*
X162663190Y-93797380D02*
X162663190Y-92797380D01*
X162758428Y-92940238D01*
X162853666Y-93035476D01*
X162948904Y-93083095D01*
X162044142Y-92797380D02*
X161377476Y-92797380D01*
X161806047Y-93797380D01*
%TO.C,C10*%
X163964857Y-105386142D02*
X164012476Y-105433761D01*
X164155333Y-105481380D01*
X164250571Y-105481380D01*
X164393428Y-105433761D01*
X164488666Y-105338523D01*
X164536285Y-105243285D01*
X164583904Y-105052809D01*
X164583904Y-104909952D01*
X164536285Y-104719476D01*
X164488666Y-104624238D01*
X164393428Y-104529000D01*
X164250571Y-104481380D01*
X164155333Y-104481380D01*
X164012476Y-104529000D01*
X163964857Y-104576619D01*
X163012476Y-105481380D02*
X163583904Y-105481380D01*
X163298190Y-105481380D02*
X163298190Y-104481380D01*
X163393428Y-104624238D01*
X163488666Y-104719476D01*
X163583904Y-104767095D01*
X162393428Y-104481380D02*
X162298190Y-104481380D01*
X162202952Y-104529000D01*
X162155333Y-104576619D01*
X162107714Y-104671857D01*
X162060095Y-104862333D01*
X162060095Y-105100428D01*
X162107714Y-105290904D01*
X162155333Y-105386142D01*
X162202952Y-105433761D01*
X162298190Y-105481380D01*
X162393428Y-105481380D01*
X162488666Y-105433761D01*
X162536285Y-105386142D01*
X162583904Y-105290904D01*
X162631523Y-105100428D01*
X162631523Y-104862333D01*
X162583904Y-104671857D01*
X162536285Y-104576619D01*
X162488666Y-104529000D01*
X162393428Y-104481380D01*
%TO.C,C9*%
X171616666Y-100052142D02*
X171664285Y-100099761D01*
X171807142Y-100147380D01*
X171902380Y-100147380D01*
X172045238Y-100099761D01*
X172140476Y-100004523D01*
X172188095Y-99909285D01*
X172235714Y-99718809D01*
X172235714Y-99575952D01*
X172188095Y-99385476D01*
X172140476Y-99290238D01*
X172045238Y-99195000D01*
X171902380Y-99147380D01*
X171807142Y-99147380D01*
X171664285Y-99195000D01*
X171616666Y-99242619D01*
X171140476Y-100147380D02*
X170950000Y-100147380D01*
X170854761Y-100099761D01*
X170807142Y-100052142D01*
X170711904Y-99909285D01*
X170664285Y-99718809D01*
X170664285Y-99337857D01*
X170711904Y-99242619D01*
X170759523Y-99195000D01*
X170854761Y-99147380D01*
X171045238Y-99147380D01*
X171140476Y-99195000D01*
X171188095Y-99242619D01*
X171235714Y-99337857D01*
X171235714Y-99575952D01*
X171188095Y-99671190D01*
X171140476Y-99718809D01*
X171045238Y-99766428D01*
X170854761Y-99766428D01*
X170759523Y-99718809D01*
X170711904Y-99671190D01*
X170664285Y-99575952D01*
%TO.C,C8*%
X168251142Y-41997333D02*
X168298761Y-41949714D01*
X168346380Y-41806857D01*
X168346380Y-41711619D01*
X168298761Y-41568761D01*
X168203523Y-41473523D01*
X168108285Y-41425904D01*
X167917809Y-41378285D01*
X167774952Y-41378285D01*
X167584476Y-41425904D01*
X167489238Y-41473523D01*
X167394000Y-41568761D01*
X167346380Y-41711619D01*
X167346380Y-41806857D01*
X167394000Y-41949714D01*
X167441619Y-41997333D01*
X167774952Y-42568761D02*
X167727333Y-42473523D01*
X167679714Y-42425904D01*
X167584476Y-42378285D01*
X167536857Y-42378285D01*
X167441619Y-42425904D01*
X167394000Y-42473523D01*
X167346380Y-42568761D01*
X167346380Y-42759238D01*
X167394000Y-42854476D01*
X167441619Y-42902095D01*
X167536857Y-42949714D01*
X167584476Y-42949714D01*
X167679714Y-42902095D01*
X167727333Y-42854476D01*
X167774952Y-42759238D01*
X167774952Y-42568761D01*
X167822571Y-42473523D01*
X167870190Y-42425904D01*
X167965428Y-42378285D01*
X168155904Y-42378285D01*
X168251142Y-42425904D01*
X168298761Y-42473523D01*
X168346380Y-42568761D01*
X168346380Y-42759238D01*
X168298761Y-42854476D01*
X168251142Y-42902095D01*
X168155904Y-42949714D01*
X167965428Y-42949714D01*
X167870190Y-42902095D01*
X167822571Y-42854476D01*
X167774952Y-42759238D01*
%TO.C,C7*%
X161139166Y-121105142D02*
X161186785Y-121152761D01*
X161329642Y-121200380D01*
X161424880Y-121200380D01*
X161567738Y-121152761D01*
X161662976Y-121057523D01*
X161710595Y-120962285D01*
X161758214Y-120771809D01*
X161758214Y-120628952D01*
X161710595Y-120438476D01*
X161662976Y-120343238D01*
X161567738Y-120248000D01*
X161424880Y-120200380D01*
X161329642Y-120200380D01*
X161186785Y-120248000D01*
X161139166Y-120295619D01*
X160805833Y-120200380D02*
X160139166Y-120200380D01*
X160567738Y-121200380D01*
%TO.C,C6*%
X141708142Y-45172333D02*
X141755761Y-45124714D01*
X141803380Y-44981857D01*
X141803380Y-44886619D01*
X141755761Y-44743761D01*
X141660523Y-44648523D01*
X141565285Y-44600904D01*
X141374809Y-44553285D01*
X141231952Y-44553285D01*
X141041476Y-44600904D01*
X140946238Y-44648523D01*
X140851000Y-44743761D01*
X140803380Y-44886619D01*
X140803380Y-44981857D01*
X140851000Y-45124714D01*
X140898619Y-45172333D01*
X140803380Y-46029476D02*
X140803380Y-45839000D01*
X140851000Y-45743761D01*
X140898619Y-45696142D01*
X141041476Y-45600904D01*
X141231952Y-45553285D01*
X141612904Y-45553285D01*
X141708142Y-45600904D01*
X141755761Y-45648523D01*
X141803380Y-45743761D01*
X141803380Y-45934238D01*
X141755761Y-46029476D01*
X141708142Y-46077095D01*
X141612904Y-46124714D01*
X141374809Y-46124714D01*
X141279571Y-46077095D01*
X141231952Y-46029476D01*
X141184333Y-45934238D01*
X141184333Y-45743761D01*
X141231952Y-45648523D01*
X141279571Y-45600904D01*
X141374809Y-45553285D01*
%TO.C,C5*%
X161583666Y-117832142D02*
X161631285Y-117879761D01*
X161774142Y-117927380D01*
X161869380Y-117927380D01*
X162012238Y-117879761D01*
X162107476Y-117784523D01*
X162155095Y-117689285D01*
X162202714Y-117498809D01*
X162202714Y-117355952D01*
X162155095Y-117165476D01*
X162107476Y-117070238D01*
X162012238Y-116975000D01*
X161869380Y-116927380D01*
X161774142Y-116927380D01*
X161631285Y-116975000D01*
X161583666Y-117022619D01*
X160678904Y-116927380D02*
X161155095Y-116927380D01*
X161202714Y-117403571D01*
X161155095Y-117355952D01*
X161059857Y-117308333D01*
X160821761Y-117308333D01*
X160726523Y-117355952D01*
X160678904Y-117403571D01*
X160631285Y-117498809D01*
X160631285Y-117736904D01*
X160678904Y-117832142D01*
X160726523Y-117879761D01*
X160821761Y-117927380D01*
X161059857Y-117927380D01*
X161155095Y-117879761D01*
X161202714Y-117832142D01*
%TO.C,C4*%
X180887666Y-125706142D02*
X180935285Y-125753761D01*
X181078142Y-125801380D01*
X181173380Y-125801380D01*
X181316238Y-125753761D01*
X181411476Y-125658523D01*
X181459095Y-125563285D01*
X181506714Y-125372809D01*
X181506714Y-125229952D01*
X181459095Y-125039476D01*
X181411476Y-124944238D01*
X181316238Y-124849000D01*
X181173380Y-124801380D01*
X181078142Y-124801380D01*
X180935285Y-124849000D01*
X180887666Y-124896619D01*
X180030523Y-125134714D02*
X180030523Y-125801380D01*
X180268619Y-124753761D02*
X180506714Y-125468047D01*
X179887666Y-125468047D01*
%TO.C,C3*%
X168187666Y-124690142D02*
X168235285Y-124737761D01*
X168378142Y-124785380D01*
X168473380Y-124785380D01*
X168616238Y-124737761D01*
X168711476Y-124642523D01*
X168759095Y-124547285D01*
X168806714Y-124356809D01*
X168806714Y-124213952D01*
X168759095Y-124023476D01*
X168711476Y-123928238D01*
X168616238Y-123833000D01*
X168473380Y-123785380D01*
X168378142Y-123785380D01*
X168235285Y-123833000D01*
X168187666Y-123880619D01*
X167854333Y-123785380D02*
X167235285Y-123785380D01*
X167568619Y-124166333D01*
X167425761Y-124166333D01*
X167330523Y-124213952D01*
X167282904Y-124261571D01*
X167235285Y-124356809D01*
X167235285Y-124594904D01*
X167282904Y-124690142D01*
X167330523Y-124737761D01*
X167425761Y-124785380D01*
X167711476Y-124785380D01*
X167806714Y-124737761D01*
X167854333Y-124690142D01*
%TO.C,C2*%
X178474666Y-106558142D02*
X178522285Y-106605761D01*
X178665142Y-106653380D01*
X178760380Y-106653380D01*
X178903238Y-106605761D01*
X178998476Y-106510523D01*
X179046095Y-106415285D01*
X179093714Y-106224809D01*
X179093714Y-106081952D01*
X179046095Y-105891476D01*
X178998476Y-105796238D01*
X178903238Y-105701000D01*
X178760380Y-105653380D01*
X178665142Y-105653380D01*
X178522285Y-105701000D01*
X178474666Y-105748619D01*
X178093714Y-105748619D02*
X178046095Y-105701000D01*
X177950857Y-105653380D01*
X177712761Y-105653380D01*
X177617523Y-105701000D01*
X177569904Y-105748619D01*
X177522285Y-105843857D01*
X177522285Y-105939095D01*
X177569904Y-106081952D01*
X178141333Y-106653380D01*
X177522285Y-106653380D01*
%TO.C,C1*%
X174537666Y-103198142D02*
X174585285Y-103245761D01*
X174728142Y-103293380D01*
X174823380Y-103293380D01*
X174966238Y-103245761D01*
X175061476Y-103150523D01*
X175109095Y-103055285D01*
X175156714Y-102864809D01*
X175156714Y-102721952D01*
X175109095Y-102531476D01*
X175061476Y-102436238D01*
X174966238Y-102341000D01*
X174823380Y-102293380D01*
X174728142Y-102293380D01*
X174585285Y-102341000D01*
X174537666Y-102388619D01*
X173585285Y-103293380D02*
X174156714Y-103293380D01*
X173871000Y-103293380D02*
X173871000Y-102293380D01*
X173966238Y-102436238D01*
X174061476Y-102531476D01*
X174156714Y-102579095D01*
%TD*%
M02*
