%TF.GenerationSoftware,KiCad,Pcbnew,(5.1.9)-1*%
%TF.CreationDate,2021-06-12T17:38:07+02:00*%
%TF.ProjectId,tfk20-avr,74666b32-302d-4617-9672-2e6b69636164,rev?*%
%TF.SameCoordinates,Original*%
%TF.FileFunction,Soldermask,Top*%
%TF.FilePolarity,Negative*%
%FSLAX46Y46*%
G04 Gerber Fmt 4.6, Leading zero omitted, Abs format (unit mm)*
G04 Created by KiCad (PCBNEW (5.1.9)-1) date 2021-06-12 17:38:07*
%MOMM*%
%LPD*%
G01*
G04 APERTURE LIST*
%ADD10C,3.000000*%
%ADD11C,4.000000*%
%ADD12C,1.750000*%
%ADD13O,1.000000X1.600000*%
%ADD14C,0.650000*%
%ADD15O,1.000000X2.100000*%
%ADD16C,5.000000*%
%ADD17R,1.100000X1.800000*%
%ADD18C,3.987800*%
%ADD19C,3.048000*%
G04 APERTURE END LIST*
D10*
%TO.C,MX10*%
X139541250Y-89058750D03*
X133191250Y-91598750D03*
D11*
X135731250Y-86518750D03*
D12*
X140811250Y-86518750D03*
X130651250Y-86518750D03*
%TD*%
D13*
%TO.C,J1*%
X130129375Y-39034375D03*
D14*
X128699375Y-42684375D03*
D13*
X121489375Y-39034375D03*
D14*
X122919375Y-42684375D03*
D15*
X121489375Y-43214375D03*
X130129375Y-43214375D03*
%TD*%
D16*
%TO.C,H3*%
X126206250Y-115093750D03*
%TD*%
D17*
%TO.C,SW1*%
X128056250Y-75084375D03*
X124356250Y-81284375D03*
X124356250Y-75084375D03*
X128056250Y-81284375D03*
%TD*%
D10*
%TO.C,MX21*%
X176371250Y-130333750D03*
X178911250Y-136683750D03*
D11*
X173831250Y-134143750D03*
D12*
X173831250Y-129063750D03*
X173831250Y-139223750D03*
%TD*%
D10*
%TO.C,MX20*%
X158591250Y-146208750D03*
X152241250Y-148748750D03*
D11*
X154781250Y-143668750D03*
D12*
X159861250Y-143668750D03*
X149701250Y-143668750D03*
%TD*%
D10*
%TO.C,MX19*%
X130016250Y-146208750D03*
X123666250Y-148748750D03*
D11*
X126206250Y-143668750D03*
D12*
X131286250Y-143668750D03*
X121126250Y-143668750D03*
%TD*%
D10*
%TO.C,MX18*%
X158591250Y-127158750D03*
X152241250Y-129698750D03*
D11*
X154781250Y-124618750D03*
D12*
X159861250Y-124618750D03*
X149701250Y-124618750D03*
%TD*%
D10*
%TO.C,MX17*%
X139541250Y-127158750D03*
X133191250Y-129698750D03*
D11*
X135731250Y-124618750D03*
D12*
X140811250Y-124618750D03*
X130651250Y-124618750D03*
%TD*%
D10*
%TO.C,MX16*%
X120491250Y-127158750D03*
X114141250Y-129698750D03*
D11*
X116681250Y-124618750D03*
D12*
X121761250Y-124618750D03*
X111601250Y-124618750D03*
%TD*%
D10*
%TO.C,MX15*%
X176371250Y-92233750D03*
X178911250Y-98583750D03*
D11*
X173831250Y-96043750D03*
D12*
X173831250Y-90963750D03*
X173831250Y-101123750D03*
%TD*%
D10*
%TO.C,MX14*%
X158591250Y-108108750D03*
X152241250Y-110648750D03*
D11*
X154781250Y-105568750D03*
D12*
X159861250Y-105568750D03*
X149701250Y-105568750D03*
%TD*%
D10*
%TO.C,MX13*%
X139541250Y-108108750D03*
X133191250Y-110648750D03*
D11*
X135731250Y-105568750D03*
D12*
X140811250Y-105568750D03*
X130651250Y-105568750D03*
%TD*%
D10*
%TO.C,MX12*%
X120491250Y-108108750D03*
X114141250Y-110648750D03*
D11*
X116681250Y-105568750D03*
D12*
X121761250Y-105568750D03*
X111601250Y-105568750D03*
%TD*%
D10*
%TO.C,MX11*%
X158591250Y-89058750D03*
X152241250Y-91598750D03*
D11*
X154781250Y-86518750D03*
D12*
X159861250Y-86518750D03*
X149701250Y-86518750D03*
%TD*%
D10*
%TO.C,MX9*%
X120491250Y-89058750D03*
X114141250Y-91598750D03*
D11*
X116681250Y-86518750D03*
D12*
X121761250Y-86518750D03*
X111601250Y-86518750D03*
%TD*%
D10*
%TO.C,MX8*%
X177641250Y-70008750D03*
X171291250Y-72548750D03*
D11*
X173831250Y-67468750D03*
D12*
X178911250Y-67468750D03*
X168751250Y-67468750D03*
%TD*%
D10*
%TO.C,MX7*%
X158591250Y-70008750D03*
X152241250Y-72548750D03*
D11*
X154781250Y-67468750D03*
D12*
X159861250Y-67468750D03*
X149701250Y-67468750D03*
%TD*%
D10*
%TO.C,MX6*%
X139541250Y-70008750D03*
X133191250Y-72548750D03*
D11*
X135731250Y-67468750D03*
D12*
X140811250Y-67468750D03*
X130651250Y-67468750D03*
%TD*%
D10*
%TO.C,MX5*%
X120491250Y-70008750D03*
X114141250Y-72548750D03*
D11*
X116681250Y-67468750D03*
D12*
X121761250Y-67468750D03*
X111601250Y-67468750D03*
%TD*%
D10*
%TO.C,MX4*%
X177641250Y-50958750D03*
X171291250Y-53498750D03*
D11*
X173831250Y-48418750D03*
D12*
X178911250Y-48418750D03*
X168751250Y-48418750D03*
%TD*%
D10*
%TO.C,MX3*%
X158591250Y-50958750D03*
X152241250Y-53498750D03*
D11*
X154781250Y-48418750D03*
D12*
X159861250Y-48418750D03*
X149701250Y-48418750D03*
%TD*%
D10*
%TO.C,MX2*%
X139541250Y-50958750D03*
X133191250Y-53498750D03*
D11*
X135731250Y-48418750D03*
D12*
X140811250Y-48418750D03*
X130651250Y-48418750D03*
%TD*%
D10*
%TO.C,MX1*%
X120491250Y-50958750D03*
X114141250Y-53498750D03*
D11*
X116681250Y-48418750D03*
D12*
X121761250Y-48418750D03*
X111601250Y-48418750D03*
%TD*%
D18*
%TO.C,H7*%
X114268250Y-135413750D03*
X138144250Y-135413750D03*
D19*
X114268250Y-150653750D03*
X138144250Y-150653750D03*
%TD*%
D18*
%TO.C,H6*%
X165576250Y-146081750D03*
X165576250Y-122205750D03*
D19*
X180816250Y-146081750D03*
X180816250Y-122205750D03*
%TD*%
%TO.C,H5*%
X180816250Y-84105750D03*
X180816250Y-107981750D03*
D18*
X165576250Y-84105750D03*
X165576250Y-107981750D03*
%TD*%
D16*
%TO.C,H4*%
X164306250Y-115093750D03*
%TD*%
%TO.C,H2*%
X164306250Y-57943750D03*
%TD*%
%TO.C,H1*%
X126206250Y-57943750D03*
%TD*%
M02*
